<?xml version="1.0" encoding="UTF-8" standalone="no"?>
<!-- Created with Inkscape (http://www.inkscape.org/) -->

<svg
   xmlns:dc="http://purl.org/dc/elements/1.1/"
   xmlns:cc="http://creativecommons.org/ns#"
   xmlns:rdf="http://www.w3.org/1999/02/22-rdf-syntax-ns#"
   xmlns:svg="http://www.w3.org/2000/svg"
   xmlns="http://www.w3.org/2000/svg"
   version="1.1"
   width="22"
   height="22"
   id="svg2">
  <defs
     id="defs4" />
  <metadata
     id="metadata7">
    <rdf:RDF>
      <cc:Work
         rdf:about="">
        <dc:format>image/svg+xml</dc:format>
        <dc:type
           rdf:resource="http://purl.org/dc/dcmitype/StillImage" />
        <dc:title></dc:title>
      </cc:Work>
    </rdf:RDF>
  </metadata>
  <g
     transform="translate(0,-1030.3622)"
     id="layer1">
    <path
       d="M 3.265625,1030.3622 C 1.4540676,1030.3622 0,1031.8163 0,1033.6278 l 0,15.4688 c 0,1.8115 1.4540676,3.2656 3.265625,3.2656 l 15.46875,0 c 1.811557,0 3.265625,-1.4541 3.265625,-3.2656 l 0,-15.4688 c 0,-1.8115 -1.454068,-3.2656 -3.265625,-3.2656 l -15.46875,0 z m -1.03125,3.5665 2.1054687,0 4.3398438,5.6719 0,-5.6719 2.0195315,0 0,6.4882 c -0.376791,-0.11 -0.7954402,-0.1719 -1.2031252,-0.1719 -0.7967217,0 -1.5359397,0.2523 -2.1914063,0.6446 l -3.09375,-3.9961 0,5.543 -1.9765625,0 0,-8.5078 z m 7.5625,7.6054 c 0.859652,0 1.568578,0.2225 2.105469,0.7305 0.319568,0.3003 0.570675,0.7266 0.730469,1.2891 l -1.417969,0.3437 c -0.0831,-0.3643 -0.209012,-0.6484 -0.472656,-0.8593 -0.263654,-0.2112 -0.611187,-0.3009 -0.9882817,-0.3009 -0.5209101,0 -0.9646969,0.1847 -1.2890625,0.5587 -0.32437,0.3737 -0.4726584,0.9673 -0.4726563,1.8047 -2.1e-6,0.8885 0.1530793,1.5565 0.4726563,1.9335 0.3195719,0.377 0.7777397,0.5156 1.2890625,0.5156 0.3770947,0 0.6736697,-0.1045 0.9453127,-0.3437 0.271633,-0.2397 0.440346,-0.6027 0.558594,-1.1172 l 1.375,0.4297 c -0.210926,0.7671 -0.540709,1.3035 -1.03125,1.6758 -0.490553,0.3722 -1.093465,0.6016 -1.8476567,0.6016 -0.9331613,0 -1.719514,-0.3509 -2.3203126,-0.9884 -0.6008014,-0.6376 -0.9023441,-1.4723 -0.9023437,-2.5781 -4e-7,-1.1696 0.2983465,-2.1029 0.9023437,-2.75 0.6039945,-0.6471 1.378988,-0.9453 2.3632813,-0.9453 z m 4.082031,0.1292 2.621094,0 c 0.584818,0 1.025234,0 1.332031,0.085 0.412246,0.121 0.737235,0.3774 1.03125,0.6875 0.294003,0.3099 0.534101,0.6682 0.6875,1.1172 0.153395,0.4489 0.214838,1.0173 0.214844,1.6757 -6e-6,0.5784 -0.07105,1.0853 -0.214844,1.5039 -0.175772,0.5113 -0.447477,0.8866 -0.773437,1.2032 -0.246079,0.2396 -0.569644,0.4243 -0.988282,0.5585 -0.313187,0.099 -0.721994,0.1719 -1.246093,0.1719 l -2.664063,0 0,-7.0039 z m 1.417969,1.1601 0,4.6406 1.074219,0 c 0.396269,0 0.683606,0 0.859375,-0.043 0.230091,-0.058 0.406783,-0.1635 0.558593,-0.3008 0.151794,-0.1375 0.290845,-0.3727 0.386719,-0.6875 0.09588,-0.3148 0.128906,-0.7458 0.128906,-1.2891 0,-0.5433 -0.03304,-0.9552 -0.128906,-1.246 -0.09588,-0.291 -0.257121,-0.5246 -0.429687,-0.6875 -0.172575,-0.163 -0.37929,-0.2862 -0.644532,-0.3438 -0.19814,-0.051 -0.581729,-0.043 -1.160156,-0.043 l -0.644531,0 z"
       id="rect3025"
       style="fill:#649be6;fill-opacity:1;stroke:none" />
    <g
       transform="matrix(1.1210095,0,0,0.89205311,0.85292267,0.75710579)"
       id="text2985"
       style="font-size:54.32864761px;font-style:normal;font-weight:normal;line-height:125%;letter-spacing:0px;word-spacing:0px;fill:#ffffff;fill-opacity:1;stroke:none;font-family:Sans" />
  </g>
</svg>
