<?xml version="1.0" encoding="utf-8"?>
<!-- Generator: Adobe Illustrator 16.0.0, SVG Export Plug-In . SVG Version: 6.00 Build 0)  -->
<!DOCTYPE svg PUBLIC "-//W3C//DTD SVG 1.1//EN" "http://www.w3.org/Graphics/SVG/1.1/DTD/svg11.dtd">
<svg version="1.1" id="图层_1" xmlns="http://www.w3.org/2000/svg" xmlns:xlink="http://www.w3.org/1999/xlink" x="0px" y="0px"
	 width="22px" height="22px" viewBox="0 0 22 22" enable-background="new 0 0 22 22" xml:space="preserve">
<path fill="#FFFFFF" stroke="#649BE6" stroke-miterlimit="10" d="M17.826,20.546c0,0.526-0.447,0.954-1,0.954H6.719
	c-0.552,0-1-0.428-1-0.954V1.455c0-0.527,0.448-0.955,1-0.955h10.107c0.553,0,1,0.427,1,0.955V20.546z"/>
<rect x="7.78" y="3.429" fill="#649BE6" width="7.986" height="1"/>
<rect x="7.78" y="5.054" fill="#649BE6" width="7.986" height="1"/>
<rect x="7.78" y="6.804" fill="#649BE6" width="7.986" height="1"/>
<path fill="#649BE6" d="M14.96,18.938c0,0.381-0.308,0.688-0.688,0.688h-5c-0.38,0-0.688-0.308-0.688-0.688l0,0
	c0-0.379,0.308-0.688,0.688-0.688h5C14.652,18.25,14.96,18.559,14.96,18.938L14.96,18.938z"/>
<circle fill="#649BE6" cx="11.771" cy="12.5" r="1"/>
</svg>
