<?xml version="1.0" encoding="UTF-8" standalone="no"?>
<!-- Created with Inkscape (http://www.inkscape.org/) -->

<svg
   xmlns:dc="http://purl.org/dc/elements/1.1/"
   xmlns:cc="http://creativecommons.org/ns#"
   xmlns:rdf="http://www.w3.org/1999/02/22-rdf-syntax-ns#"
   xmlns:svg="http://www.w3.org/2000/svg"
   xmlns="http://www.w3.org/2000/svg"
   version="1.1"
   width="22"
   height="22"
   id="svg15992">
  <defs
     id="defs15994" />
  <metadata
     id="metadata15997">
    <rdf:RDF>
      <cc:Work
         rdf:about="">
        <dc:format>image/svg+xml</dc:format>
        <dc:type
           rdf:resource="http://purl.org/dc/dcmitype/StillImage" />
        <dc:title></dc:title>
      </cc:Work>
    </rdf:RDF>
  </metadata>
  <g
     id="g7975">
    <path
       d="m 2.89192,1.4915223 17.095694,0 L 22,3.948693 22,18.424603 17.466586,22 2.921182,22 0.66013,18.7386 0.5776,4.0073374 z"
       id="rect3155"
       style="fill:#ffffff;fill-opacity:1;fill-rule:nonzero;stroke:none" />
    <g
       transform="translate(0,-1030.3622)"
       id="layer1">
      <path
         d="M 3.65625,0 C 1.62178,0 0,1.7027 0,3.8125 l 0,14.375 C 0,20.2973 1.62178,22 3.65625,22 l 14.6875,0 C 20.37823,22 22,20.2973 22,18.1875 L 22,3.8125 C 22,1.7027 20.37823,0 18.34375,0 L 3.65625,0 z M 3.5,1.75 l 15,0 c 0.964953,0 1.75,0.8918986 1.75,2.03125 l 0,6.8125 c 0,1.139351 -0.785047,2.09375 -1.75,2.09375 l -15,0 c -0.9649531,0 -1.75,-0.954399 -1.75,-2.09375 l 0,-6.8125 C 1.75,2.6418986 2.5350469,1.75 3.5,1.75 z m -0.375,1.4375 0,8.0625 15.75,0 0,-8.0625 -15.75,0 z m 0.9375,1.40625 6.09375,0 0,2.5625 -6.09375,0 0,-2.5625 z m 7.5625,0 6.09375,0 0,2.5625 -6.09375,0 0,-2.5625 z m -7.59375,3.4375 6.09375,0 0,2.5 -6.09375,0 0,-2.5 z m 7.59375,0 6.09375,0 0,2.5 -6.09375,0 0,-2.5 z M 7.84375,13.5 c 0.6888128,6e-6 1.2143447,0.203736 1.5625,0.5625 0.348147,0.358776 0.5137755,0.80732 0.53125,1.40625 L 8.875,15.5625 C 8.827578,15.227461 8.6872284,14.959275 8.53125,14.8125 8.375265,14.665739 8.155711,14.593755 7.84375,14.59375 c -0.3219488,5e-6 -0.5678151,0.06161 -0.75,0.21875 -0.1173001,0.100819 -0.1875015,0.268498 -0.1875,0.4375 -1.5e-6,0.154186 0.046437,0.265299 0.15625,0.375 0.139758,0.139362 0.5234245,0.286287 1.0625,0.4375 0.5390701,0.15122 0.9291905,0.338409 1.1875,0.5 0.2583018,0.161599 0.4477465,0.376057 0.59375,0.65625 0.145995,0.280199 0.218745,0.619111 0.21875,1.03125 -5e-6,0.373596 -0.106555,0.705095 -0.28125,1.03125 -0.1747039,0.326156 -0.399303,0.591371 -0.71875,0.75 C 8.8055458,20.189881 8.4141777,20.25 7.9375,20.25 7.2436908,20.25 6.7156094,20.068508 6.34375,19.6875 5.9718886,19.306492 5.728625,18.760651 5.65625,18.03125 L 6.75,17.90625 c 0.064888,0.429933 0.1765895,0.704628 0.375,0.90625 0.198407,0.201627 0.475577,0.3125 0.8125,0.3125 0.3568836,0 0.6003077,-0.07061 0.78125,-0.25 C 8.8996863,18.695617 8.9999965,18.49017 9,18.25 8.9999966,18.095819 8.982364,17.983222 8.90625,17.875 8.8301273,17.766772 8.6896706,17.64256 8.5,17.5625 8.3702201,17.509131 8.0554536,17.417644 7.59375,17.28125 6.9997695,17.106315 6.614587,16.879996 6.375,16.625 6.0380786,16.266234 5.8749995,15.828423 5.875,15.3125 c -5e-7,-0.332079 0.060272,-0.617152 0.21875,-0.90625 0.1584766,-0.289085 0.3892616,-0.505028 0.6875,-0.65625 0.2982357,-0.151211 0.640723,-0.249994 1.0625,-0.25 z m 3.1875,0.125 1.65625,0 1.03125,4.4375 0.96875,-4.4375 1.65625,0 0,6.5 -1.03125,0 0,-5.125 -1.09375,5.125 -1.0625,0 -1.0625,-5.125 0,5.125 -1.0625,0 0,-6.5 z"
         transform="translate(0,1030.3622)"
         id="rect3001-7-4"
         style="fill:#649be6;fill-opacity:1;fill-rule:nonzero;stroke:none" />
      <g
         transform="translate(3,1033.8577)"
         id="layer1-8">
        <g
           id="text5399"
           style="font-size:7px;font-style:normal;font-variant:normal;font-weight:bold;font-stretch:normal;line-height:125%;letter-spacing:0px;word-spacing:0px;fill:#000000;fill-opacity:1;stroke:none;font-family:Arial;-inkscape-font-specification:Arial Bold" />
        <g
           transform="translate(0,-1036.4247)"
           id="layer1-3">
          <g
             transform="scale(0.89723629,1.1145336)"
             id="text5639"
             style="font-size:7.97739649px;font-style:normal;font-variant:normal;font-weight:bold;font-stretch:normal;line-height:125%;letter-spacing:0px;word-spacing:0px;fill:#cccccc;fill-opacity:1;stroke:none;font-family:Arial;-inkscape-font-specification:Arial Bold" />
          <g
             transform="scale(1.0195853,0.98079088)"
             id="text6068"
             style="font-size:6.62408876px;font-style:normal;font-variant:normal;font-weight:bold;font-stretch:normal;line-height:125%;letter-spacing:0px;word-spacing:0px;fill:#000000;fill-opacity:1;stroke:none;font-family:Arial;-inkscape-font-specification:Arial Bold" />
          <g
             id="text6125"
             style="font-size:6px;font-style:normal;font-variant:normal;font-weight:bold;font-stretch:normal;line-height:125%;letter-spacing:0px;word-spacing:0px;fill:#000000;fill-opacity:1;stroke:none;font-family:Arial;-inkscape-font-specification:Arial Bold" />
        </g>
        <g
           transform="translate(0,-1036.3622)"
           id="layer1-84">
          <g
             transform="scale(0.93557544,1.0688609)"
             id="text7308"
             style="font-size:8.03458023px;font-style:normal;font-variant:normal;font-weight:bold;font-stretch:normal;line-height:125%;letter-spacing:0px;word-spacing:0px;fill:#ffffff;fill-opacity:1;stroke:none;font-family:Arial;-inkscape-font-specification:Arial Bold" />
        </g>
        <g
           transform="scale(0.9686171,1.0323997)"
           id="text5724"
           style="font-size:9.88508701px;font-style:normal;font-variant:normal;font-weight:bold;font-stretch:normal;line-height:125%;letter-spacing:0px;word-spacing:0px;fill:#ffffff;fill-opacity:1;stroke:none;font-family:Arial;-inkscape-font-specification:Arial Bold" />
        <g
           id="text5751"
           style="font-size:7px;font-style:normal;font-variant:normal;font-weight:bold;font-stretch:normal;line-height:125%;letter-spacing:0px;word-spacing:0px;fill:#ffffff;fill-opacity:1;stroke:none;font-family:Arial;-inkscape-font-specification:Arial Bold" />
        <g
           id="layer1-37">
          <g
             id="text5141"
             style="font-size:7px;font-style:normal;font-variant:normal;font-weight:bold;font-stretch:normal;line-height:125%;letter-spacing:0px;word-spacing:0px;fill:#000000;fill-opacity:1;stroke:none;font-family:Arial;-inkscape-font-specification:Arial Bold" />
        </g>
        <g
           transform="scale(1.0995518,0.90946149)"
           id="text5804"
           style="font-size:6.36623049px;font-style:normal;font-variant:normal;font-weight:bold;font-stretch:normal;line-height:125%;letter-spacing:0px;word-spacing:0px;fill:#000000;fill-opacity:1;stroke:none;font-family:Arial;-inkscape-font-specification:Arial Bold" />
        <g
           transform="scale(0.94725198,1.0556853)"
           id="text5938"
           style="font-size:7px;font-style:normal;font-variant:normal;font-weight:bold;font-stretch:normal;line-height:125%;letter-spacing:0px;word-spacing:0px;fill:#000000;fill-opacity:1;stroke:none;font-family:Arial;-inkscape-font-specification:Arial Bold" />
      </g>
    </g>
  </g>
</svg>
