<?xml version="1.0" encoding="UTF-8" standalone="no"?>
<!-- Created with Inkscape (http://www.inkscape.org/) -->

<svg
   xmlns:dc="http://purl.org/dc/elements/1.1/"
   xmlns:cc="http://creativecommons.org/ns#"
   xmlns:rdf="http://www.w3.org/1999/02/22-rdf-syntax-ns#"
   xmlns:svg="http://www.w3.org/2000/svg"
   xmlns="http://www.w3.org/2000/svg"
   version="1.1"
   width="22"
   height="22"
   id="svg15992">
  <defs
     id="defs15994" />
  <metadata
     id="metadata15997">
    <rdf:RDF>
      <cc:Work
         rdf:about="">
        <dc:format>image/svg+xml</dc:format>
        <dc:type
           rdf:resource="http://purl.org/dc/dcmitype/StillImage" />
        <dc:title></dc:title>
      </cc:Work>
    </rdf:RDF>
  </metadata>
  <g
     id="g8436">
    <path
       d="m 2.89192,1.4915218 17.095694,0 L 22,3.948693 22,18.424603 17.466586,22 2.921182,22 0.6601302,18.7386 0.5776002,4.007337 z"
       id="rect3155"
       style="fill:#ffffff;fill-opacity:1;fill-rule:nonzero;stroke:none" />
    <g
       transform="translate(0,-1030.3622)"
       id="layer1">
      <path
         d="M 3.65625,0 C 1.62178,0 0,1.7027 0,3.8125 l 0,14.375 C 0,20.2973 1.62178,22 3.65625,22 l 14.6875,0 C 20.37823,22 22,20.2973 22,18.1875 L 22,3.8125 C 22,1.7027 20.37823,0 18.34375,0 L 3.65625,0 z M 3.5,1.75 l 15,0 c 0.964953,0 1.75,0.897022 1.75,2.03125 l 0,6.78125 c 0,1.134228 -0.785047,2.0625 -1.75,2.0625 l -15,0 c -0.9649531,0 -1.75,-0.928272 -1.75,-2.0625 l 0,-6.78125 C 1.75,2.647022 2.5350469,1.75 3.5,1.75 z m -0.375,1.40625 0,8.0625 15.75,0 0,-8.0625 -15.75,0 z m 0.9375,1.4375 6.09375,0 0,2.53125 -6.09375,0 0,-2.53125 z m 7.5625,0 6.09375,0 0,2.53125 -6.09375,0 0,-2.53125 z M 4.03125,8 10.125,8 l 0,2.5 -6.09375,0 0,-2.5 z m 7.59375,0 6.09375,0 0,2.5 -6.09375,0 0,-2.5 z m -6.09375,5.53125 c 0.6888128,6e-6 1.2143448,0.174099 1.5625,0.53125 C 7.4418971,14.419664 7.6075256,14.90376 7.625,15.5 L 6.5625,15.5625 C 6.5150781,15.228967 6.3747286,14.989865 6.21875,14.84375 6.0627652,14.697645 5.843211,14.625005 5.53125,14.625 c -0.3219488,5e-6 -0.5678151,0.06232 -0.75,0.21875 -0.1173004,0.100365 -0.1875015,0.238008 -0.1875,0.40625 -1.5e-6,0.153493 0.077687,0.297042 0.1875,0.40625 0.1397579,0.138735 0.4921745,0.255718 1.03125,0.40625 0.53907,0.150541 0.9291904,0.339136 1.1875,0.5 0.2583019,0.160872 0.4477466,0.377317 0.59375,0.65625 0.1459944,0.278939 0.2187453,0.620965 0.21875,1.03125 -4.7e-6,0.371917 -0.1065552,0.706561 -0.28125,1.03125 -0.1747039,0.324689 -0.3993031,0.592085 -0.71875,0.75 C 6.4930457,20.189171 6.1016776,20.25 5.625,20.25 4.9311907,20.25 4.4031095,20.066795 4.03125,19.6875 3.6593887,19.308205 3.4161255,18.757371 3.34375,18.03125 l 1.09375,-0.125 c 0.064888,0.428 0.1765895,0.736785 0.375,0.9375 0.1984071,0.200721 0.475577,0.28125 0.8125,0.28125 0.3568836,0 0.6003079,-0.07142 0.78125,-0.25 C 6.5871858,18.696424 6.6874964,18.489091 6.6875,18.25 6.6874965,18.096513 6.6698648,17.982735 6.59375,17.875 6.5176275,17.767259 6.3771706,17.642197 6.1875,17.5625 6.0577201,17.509371 5.7429536,17.448281 5.28125,17.3125 4.6872695,17.138352 4.3020869,16.9101 4.0625,16.65625 c -0.3369215,-0.357153 -0.5000005,-0.798897 -0.5,-1.3125 -5e-7,-0.330586 0.060271,-0.649703 0.21875,-0.9375 0.1584768,-0.287785 0.3892615,-0.474458 0.6875,-0.625 0.2982357,-0.150535 0.640723,-0.249994 1.0625,-0.25 z m 3.1875,0.125 1.125,0 0,3.5 c 0,0.557876 0.0038,0.928455 0.03125,1.09375 0.047417,0.265655 0.196555,0.464134 0.375,0.625 0.178441,0.160866 0.40928,0.250001 0.71875,0.25 0.314456,1e-6 0.559021,-0.06674 0.71875,-0.21875 0.159722,-0.152012 0.248802,-0.341119 0.28125,-0.5625 C 12.001194,18.122374 12,17.732349 12,17.21875 l 0,-3.5625 1.125,0 0,3.40625 c 0,0.779255 -0.03386,1.334515 -0.09375,1.65625 -0.0599,0.321738 -0.182781,0.591122 -0.34375,0.8125 -0.160978,0.22138 -0.355467,0.3999 -0.625,0.53125 C 11.79296,20.193856 11.43425,20.25 11,20.25 10.475899,20.25 10.083283,20.174405 9.8125,20.03125 9.5417123,19.888092 9.3134785,19.697509 9.15625,19.46875 8.9990194,19.239993 8.8936642,19.000896 8.84375,18.75 8.771375,18.378086 8.71875,17.819873 8.71875,17.09375 l 0,-3.4375 z m 5.5625,0 1.09375,0 2.25,4.34375 0,-4.34375 1.03125,0 0,6.46875 -1.125,0 -2.1875,-4.21875 0,4.21875 -1.0625,0 0,-6.46875 z"
         transform="translate(0,1030.3622)"
         id="rect3001-7-4"
         style="fill:#649be6;fill-opacity:1;fill-rule:nonzero;stroke:none" />
      <g
         transform="translate(3,1033.8577)"
         id="layer1-8">
        <g
           id="text5399"
           style="font-size:7px;font-style:normal;font-variant:normal;font-weight:bold;font-stretch:normal;line-height:125%;letter-spacing:0px;word-spacing:0px;fill:#000000;fill-opacity:1;stroke:none;font-family:Arial;-inkscape-font-specification:Arial Bold" />
        <g
           transform="translate(0,-1036.4247)"
           id="layer1-3">
          <g
             transform="scale(0.89723629,1.1145336)"
             id="text5639"
             style="font-size:7.97739649px;font-style:normal;font-variant:normal;font-weight:bold;font-stretch:normal;line-height:125%;letter-spacing:0px;word-spacing:0px;fill:#cccccc;fill-opacity:1;stroke:none;font-family:Arial;-inkscape-font-specification:Arial Bold" />
          <g
             transform="scale(1.0195853,0.98079088)"
             id="text6068"
             style="font-size:6.62408876px;font-style:normal;font-variant:normal;font-weight:bold;font-stretch:normal;line-height:125%;letter-spacing:0px;word-spacing:0px;fill:#000000;fill-opacity:1;stroke:none;font-family:Arial;-inkscape-font-specification:Arial Bold" />
          <g
             id="text6125"
             style="font-size:6px;font-style:normal;font-variant:normal;font-weight:bold;font-stretch:normal;line-height:125%;letter-spacing:0px;word-spacing:0px;fill:#000000;fill-opacity:1;stroke:none;font-family:Arial;-inkscape-font-specification:Arial Bold" />
        </g>
        <g
           transform="translate(0,-1036.3622)"
           id="layer1-84">
          <g
             transform="scale(0.93557544,1.0688609)"
             id="text7308"
             style="font-size:8.03458023px;font-style:normal;font-variant:normal;font-weight:bold;font-stretch:normal;line-height:125%;letter-spacing:0px;word-spacing:0px;fill:#ffffff;fill-opacity:1;stroke:none;font-family:Arial;-inkscape-font-specification:Arial Bold" />
        </g>
        <g
           transform="scale(0.9686171,1.0323997)"
           id="text5724"
           style="font-size:9.88508701px;font-style:normal;font-variant:normal;font-weight:bold;font-stretch:normal;line-height:125%;letter-spacing:0px;word-spacing:0px;fill:#ffffff;fill-opacity:1;stroke:none;font-family:Arial;-inkscape-font-specification:Arial Bold" />
        <g
           id="text5751"
           style="font-size:7px;font-style:normal;font-variant:normal;font-weight:bold;font-stretch:normal;line-height:125%;letter-spacing:0px;word-spacing:0px;fill:#ffffff;fill-opacity:1;stroke:none;font-family:Arial;-inkscape-font-specification:Arial Bold" />
        <g
           id="layer1-37">
          <g
             id="text5141"
             style="font-size:7px;font-style:normal;font-variant:normal;font-weight:bold;font-stretch:normal;line-height:125%;letter-spacing:0px;word-spacing:0px;fill:#000000;fill-opacity:1;stroke:none;font-family:Arial;-inkscape-font-specification:Arial Bold" />
        </g>
        <g
           transform="scale(1.0995518,0.90946149)"
           id="text5804"
           style="font-size:6.36623049px;font-style:normal;font-variant:normal;font-weight:bold;font-stretch:normal;line-height:125%;letter-spacing:0px;word-spacing:0px;fill:#000000;fill-opacity:1;stroke:none;font-family:Arial;-inkscape-font-specification:Arial Bold" />
        <g
           transform="scale(0.94725198,1.0556853)"
           id="text5938"
           style="font-size:7px;font-style:normal;font-variant:normal;font-weight:bold;font-stretch:normal;line-height:125%;letter-spacing:0px;word-spacing:0px;fill:#000000;fill-opacity:1;stroke:none;font-family:Arial;-inkscape-font-specification:Arial Bold" />
      </g>
      <g
         transform="matrix(1.15625,0,0,1.2270508,1.75,1032.1122)"
         id="layer1-1">
        <g
           id="text5399-4"
           style="font-size:7px;font-style:normal;font-variant:normal;font-weight:bold;font-stretch:normal;line-height:125%;letter-spacing:0px;word-spacing:0px;fill:#000000;fill-opacity:1;stroke:none;font-family:Arial;-inkscape-font-specification:Arial Bold" />
        <g
           transform="translate(0,-1036.4247)"
           id="layer1-3-3">
          <g
             transform="scale(0.89723629,1.1145336)"
             id="text5639-9"
             style="font-size:7.97739649px;font-style:normal;font-variant:normal;font-weight:bold;font-stretch:normal;line-height:125%;letter-spacing:0px;word-spacing:0px;fill:#cccccc;fill-opacity:1;stroke:none;font-family:Arial;-inkscape-font-specification:Arial Bold" />
          <g
             transform="scale(1.0195853,0.98079088)"
             id="text6068-8"
             style="font-size:6.62408876px;font-style:normal;font-variant:normal;font-weight:bold;font-stretch:normal;line-height:125%;letter-spacing:0px;word-spacing:0px;fill:#000000;fill-opacity:1;stroke:none;font-family:Arial;-inkscape-font-specification:Arial Bold" />
          <g
             id="text6125-8"
             style="font-size:6px;font-style:normal;font-variant:normal;font-weight:bold;font-stretch:normal;line-height:125%;letter-spacing:0px;word-spacing:0px;fill:#000000;fill-opacity:1;stroke:none;font-family:Arial;-inkscape-font-specification:Arial Bold" />
        </g>
        <g
           transform="translate(0,-1036.3622)"
           id="layer1-84-0">
          <g
             transform="scale(0.93557544,1.0688609)"
             id="text7308-8"
             style="font-size:8.03458023px;font-style:normal;font-variant:normal;font-weight:bold;font-stretch:normal;line-height:125%;letter-spacing:0px;word-spacing:0px;fill:#ffffff;fill-opacity:1;stroke:none;font-family:Arial;-inkscape-font-specification:Arial Bold" />
        </g>
        <g
           transform="scale(0.9686171,1.0323997)"
           id="text5724-7"
           style="font-size:9.88508701px;font-style:normal;font-variant:normal;font-weight:bold;font-stretch:normal;line-height:125%;letter-spacing:0px;word-spacing:0px;fill:#ffffff;fill-opacity:1;stroke:none;font-family:Arial;-inkscape-font-specification:Arial Bold" />
        <g
           id="text5751-7"
           style="font-size:7px;font-style:normal;font-variant:normal;font-weight:bold;font-stretch:normal;line-height:125%;letter-spacing:0px;word-spacing:0px;fill:#ffffff;fill-opacity:1;stroke:none;font-family:Arial;-inkscape-font-specification:Arial Bold" />
        <g
           id="layer1-37-8">
          <g
             id="text5141-3"
             style="font-size:7px;font-style:normal;font-variant:normal;font-weight:bold;font-stretch:normal;line-height:125%;letter-spacing:0px;word-spacing:0px;fill:#000000;fill-opacity:1;stroke:none;font-family:Arial;-inkscape-font-specification:Arial Bold" />
        </g>
        <g
           transform="scale(1.0995518,0.90946149)"
           id="text5804-8"
           style="font-size:6.36623049px;font-style:normal;font-variant:normal;font-weight:bold;font-stretch:normal;line-height:125%;letter-spacing:0px;word-spacing:0px;fill:#000000;fill-opacity:1;stroke:none;font-family:Arial;-inkscape-font-specification:Arial Bold" />
        <g
           transform="scale(0.94725198,1.0556853)"
           id="text5938-3"
           style="font-size:7px;font-style:normal;font-variant:normal;font-weight:bold;font-stretch:normal;line-height:125%;letter-spacing:0px;word-spacing:0px;fill:#000000;fill-opacity:1;stroke:none;font-family:Arial;-inkscape-font-specification:Arial Bold" />
      </g>
    </g>
  </g>
</svg>
