<?xml version="1.0" encoding="utf-8"?>
<!-- Generator: Adobe Illustrator 16.0.0, SVG Export Plug-In . SVG Version: 6.00 Build 0)  -->
<!DOCTYPE svg PUBLIC "-//W3C//DTD SVG 1.1//EN" "http://www.w3.org/Graphics/SVG/1.1/DTD/svg11.dtd">
<svg version="1.1" id="图层_1" xmlns="http://www.w3.org/2000/svg" xmlns:xlink="http://www.w3.org/1999/xlink" x="0px" y="0px"
	 width="22px" height="22px" viewBox="0 0 22 22" enable-background="new 0 0 22 22" xml:space="preserve">
<g>
	<rect x="11.73" y="6.984" fill="#6494CE" width="7.263" height="2.785"/>
	<rect x="11.73" y="3.171" fill="#6494CE" width="7.263" height="2.828"/>
	<rect x="2.708" y="6.984" fill="#6494CE" width="7.261" height="2.785"/>
	<rect x="2.751" y="3.171" fill="#6494CE" width="7.261" height="2.828"/>
	<path fill="#6494CE" d="M19.938,0H2.063C0.915,0,0,1.004,0,2.271v7.584c0,1.267,0.915,2.314,2.063,2.314h17.876
		c1.146,0,2.062-1.047,2.062-2.314V2.271C22,1.004,21.085,0,19.938,0z M20.368,10.584H1.633V1.585h18.735V10.584z"/>
	<path fill="#6494CE" d="M7.005,18.135c-0.165,0.483-0.288,0.852-0.366,1.102c-0.069-0.226-0.179-0.565-0.328-1.018L4.68,13.354
		H3.307v6.871h0.879v-5.849l1.992,5.849h0.824l2-5.75v5.75h0.88v-6.871H8.656L7.005,18.135z"/>
	<path fill="#6494CE" d="M18.025,16.606c-0.274-0.125-0.782-0.271-1.523-0.438c-0.74-0.168-1.199-0.331-1.374-0.49
		c-0.18-0.159-0.269-0.362-0.269-0.609c0-0.284,0.125-0.527,0.378-0.729c0.252-0.202,0.653-0.303,1.205-0.303
		c0.529,0,0.929,0.111,1.2,0.332c0.272,0.223,0.431,0.55,0.477,0.986l0.876-0.067c-0.017-0.401-0.128-0.764-0.338-1.082
		c-0.211-0.318-0.511-0.56-0.901-0.725c-0.39-0.163-0.84-0.245-1.351-0.245c-0.464,0-0.886,0.078-1.264,0.233
		c-0.379,0.156-0.669,0.385-0.865,0.687c-0.198,0.301-0.296,0.625-0.296,0.974c0,0.314,0.081,0.6,0.241,0.854
		c0.161,0.254,0.407,0.468,0.735,0.64c0.254,0.134,0.696,0.277,1.331,0.429c0.633,0.151,1.041,0.264,1.227,0.335
		c0.288,0.11,0.495,0.245,0.62,0.405c0.125,0.161,0.188,0.35,0.188,0.565c0,0.213-0.064,0.408-0.194,0.588
		c-0.131,0.179-0.329,0.321-0.595,0.424c-0.267,0.104-0.574,0.154-0.922,0.154c-0.392,0-0.743-0.067-1.057-0.203
		c-0.314-0.135-0.546-0.313-0.693-0.534c-0.149-0.22-0.243-0.502-0.284-0.845l-0.859,0.075c0.012,0.458,0.137,0.87,0.378,1.234
		c0.239,0.364,0.568,0.636,0.991,0.816c0.421,0.182,0.943,0.272,1.566,0.272c0.494,0,0.936-0.091,1.328-0.271
		c0.394-0.18,0.695-0.431,0.905-0.754s0.315-0.667,0.315-1.032c0-0.369-0.097-0.696-0.287-0.978
		C18.724,17.024,18.427,16.792,18.025,16.606z"/>
</g>
</svg>
