<?xml version="1.0" encoding="UTF-8" standalone="no"?>
<!-- Created with Inkscape (http://www.inkscape.org/) -->

<svg
   xmlns:dc="http://purl.org/dc/elements/1.1/"
   xmlns:cc="http://creativecommons.org/ns#"
   xmlns:rdf="http://www.w3.org/1999/02/22-rdf-syntax-ns#"
   xmlns:svg="http://www.w3.org/2000/svg"
   xmlns="http://www.w3.org/2000/svg"
   version="1.1"
   width="22"
   height="22"
   id="svg15992">
  <defs
     id="defs15994" />
  <metadata
     id="metadata15997">
    <rdf:RDF>
      <cc:Work
         rdf:about="">
        <dc:format>image/svg+xml</dc:format>
        <dc:type
           rdf:resource="http://purl.org/dc/dcmitype/StillImage" />
        <dc:title></dc:title>
      </cc:Work>
    </rdf:RDF>
  </metadata>
  <g
     transform="translate(3,3.4955)"
     id="layer1-8">
    <g
       id="text5399"
       style="font-size:7px;font-style:normal;font-variant:normal;font-weight:bold;font-stretch:normal;line-height:125%;letter-spacing:0px;word-spacing:0px;fill:#000000;fill-opacity:1;stroke:none;font-family:Arial;-inkscape-font-specification:Arial Bold" />
    <g
       transform="translate(0,-1036.4247)"
       id="layer1-3">
      <g
         transform="scale(0.89723629,1.1145336)"
         id="text5639"
         style="font-size:7.97739649px;font-style:normal;font-variant:normal;font-weight:bold;font-stretch:normal;line-height:125%;letter-spacing:0px;word-spacing:0px;fill:#cccccc;fill-opacity:1;stroke:none;font-family:Arial;-inkscape-font-specification:Arial Bold" />
      <g
         transform="scale(1.0195853,0.98079088)"
         id="text6068"
         style="font-size:6.62408876px;font-style:normal;font-variant:normal;font-weight:bold;font-stretch:normal;line-height:125%;letter-spacing:0px;word-spacing:0px;fill:#000000;fill-opacity:1;stroke:none;font-family:Arial;-inkscape-font-specification:Arial Bold" />
      <g
         id="text6125"
         style="font-size:6px;font-style:normal;font-variant:normal;font-weight:bold;font-stretch:normal;line-height:125%;letter-spacing:0px;word-spacing:0px;fill:#000000;fill-opacity:1;stroke:none;font-family:Arial;-inkscape-font-specification:Arial Bold" />
    </g>
    <g
       transform="translate(0,-1036.3622)"
       id="layer1-84">
      <g
         transform="scale(0.93557544,1.0688609)"
         id="text7308"
         style="font-size:8.03458023px;font-style:normal;font-variant:normal;font-weight:bold;font-stretch:normal;line-height:125%;letter-spacing:0px;word-spacing:0px;fill:#ffffff;fill-opacity:1;stroke:none;font-family:Arial;-inkscape-font-specification:Arial Bold" />
    </g>
    <g
       transform="scale(0.9686171,1.0323997)"
       id="text5724"
       style="font-size:9.88508701px;font-style:normal;font-variant:normal;font-weight:bold;font-stretch:normal;line-height:125%;letter-spacing:0px;word-spacing:0px;fill:#ffffff;fill-opacity:1;stroke:none;font-family:Arial;-inkscape-font-specification:Arial Bold" />
    <g
       id="text5751"
       style="font-size:7px;font-style:normal;font-variant:normal;font-weight:bold;font-stretch:normal;line-height:125%;letter-spacing:0px;word-spacing:0px;fill:#ffffff;fill-opacity:1;stroke:none;font-family:Arial;-inkscape-font-specification:Arial Bold" />
    <g
       id="layer1-37">
      <g
         id="text5141"
         style="font-size:7px;font-style:normal;font-variant:normal;font-weight:bold;font-stretch:normal;line-height:125%;letter-spacing:0px;word-spacing:0px;fill:#000000;fill-opacity:1;stroke:none;font-family:Arial;-inkscape-font-specification:Arial Bold" />
    </g>
    <g
       transform="scale(1.0995518,0.90946149)"
       id="text5804"
       style="font-size:6.36623049px;font-style:normal;font-variant:normal;font-weight:bold;font-stretch:normal;line-height:125%;letter-spacing:0px;word-spacing:0px;fill:#000000;fill-opacity:1;stroke:none;font-family:Arial;-inkscape-font-specification:Arial Bold" />
    <g
       transform="scale(0.94725198,1.0556853)"
       id="text5938"
       style="font-size:7px;font-style:normal;font-variant:normal;font-weight:bold;font-stretch:normal;line-height:125%;letter-spacing:0px;word-spacing:0px;fill:#000000;fill-opacity:1;stroke:none;font-family:Arial;-inkscape-font-specification:Arial Bold" />
  </g>
  <g
     transform="matrix(1.3669903,0,0,1.375,30.30548,-1427.3285)"
     id="layer1-849">
    <g
       id="text7004"
       style="font-size:6px;font-style:normal;font-variant:normal;font-weight:bold;font-stretch:normal;line-height:125%;letter-spacing:0px;word-spacing:0px;fill:#000000;fill-opacity:1;stroke:none;font-family:Arial;-inkscape-font-specification:Arial Bold" />
  </g>
  <g
     transform="scale(1.375,1.375)"
     id="g18225">
    <g
       id="text8828-24"
       style="font-size:7px;font-style:normal;font-variant:normal;font-weight:bold;font-stretch:normal;line-height:125%;letter-spacing:0px;word-spacing:0px;fill:#000000;fill-opacity:1;stroke:none;font-family:Arial;-inkscape-font-specification:Arial Bold" />
    <g
       transform="translate(0,-1036.3622)"
       id="layer1-1">
      <g
         id="text7004-82"
         style="font-size:6px;font-style:normal;font-variant:normal;font-weight:bold;font-stretch:normal;line-height:125%;letter-spacing:0px;word-spacing:0px;fill:#000000;fill-opacity:1;stroke:none;font-family:Arial;-inkscape-font-specification:Arial Bold" />
    </g>
    <g
       transform="translate(0,-1036.3622)"
       id="layer1-8-11">
      <g
         id="text7004-9-9"
         style="font-size:6px;font-style:normal;font-variant:normal;font-weight:bold;font-stretch:normal;line-height:125%;letter-spacing:0px;word-spacing:0px;fill:#000000;fill-opacity:1;stroke:none;font-family:Arial;-inkscape-font-specification:Arial Bold" />
    </g>
    <g
       transform="translate(0,-1036.3622)"
       id="layer1-6">
      <g
         id="text7004-0-7"
         style="font-size:6px;font-style:normal;font-variant:normal;font-weight:bold;font-stretch:normal;line-height:125%;letter-spacing:0px;word-spacing:0px;fill:#000000;fill-opacity:1;stroke:none;font-family:Arial;-inkscape-font-specification:Arial Bold" />
    </g>
    <g
       id="text9161"
       style="font-size:7px;font-style:normal;font-variant:normal;font-weight:bold;font-stretch:normal;line-height:125%;letter-spacing:0px;word-spacing:0px;fill:#ffffff;fill-opacity:1;stroke:none;font-family:Arial;-inkscape-font-specification:Arial Bold" />
  </g>
  <g
     id="g11077">
    <path
       d="m 2.8919553,1.4915225 17.0956947,0 2.012386,2.457171 0,14.4759095 L 17.466622,22 2.9212173,22 0.66016526,18.7386 0.57763526,4.0073375 z"
       id="rect3155"
       style="fill:#ffffff;fill-opacity:1;fill-rule:nonzero;stroke:none" />
    <path
       d="M 3.6562504,0 C 1.6318876,0 0.01600484,1.6859885 -5.5555558e-8,3.7812497 c -7.9900000442e-5,0.010462 0,0.020768 0,0.03125 l 0,14.3750003 C -5.5555558e-8,20.2973 1.6217799,22 3.6562504,22 l 1.53125,0 13.1562496,0 C 20.37823,22 22,20.2973 22,18.1875 L 22,3.8124997 c 0,-0.010482 8e-5,-0.020788 0,-0.03125 C 21.984,1.6859885 20.368122,0 18.34375,0 L 5.1875004,0 3.6562504,0 z m 1.53125,1.3749997 2.25,0 0,0.25 c -0.789149,0.8628239 -1.28125,2.0198176 -1.28125,3.28125 0,0.028636 -4.95e-4,0.065231 0,0.09375 l -3.5,0 -1.2812505,0 0,-1.21875 1.2812505,0 2.53125,0 0,-2.0625 0,-0.34375 z m 9.8124996,0 2.1875,0 0,0.34375 0,2.0625 2.5,0 0.9375,0 0,1.21875 -0.375,0 0,3.75 0.375,0 0,10.5312503 -3.4375,0 0,0.78125 0,0.5625 -2.1875,0 0,-0.5625 0,-0.78125 -7.5624996,0 0,0.78125 0,0.5625 -2.25,0 0,-0.5625 0,-0.78125 -3.8125005,0 0,-10.5312503 1.2812505,0 5.40625,0 c 0.814588,0.6191599 1.835373,1 2.9374996,1 1.102127,0 2.122912,-0.3808401 2.9375,-1 l 4.125,0 0,-3.75 -2.21875,0 c 5.03e-4,-0.028784 0,-0.064845 0,-0.09375 0,-1.0261657 -0.300074,-1.9661802 -0.84375,-2.75 l 0,-0.4375 0,-0.34375 z m -6.1874996,0.71875 1.1874996,0 0,3.1875 c -1.6e-6,0.5075705 0.03296,0.8496113 0.0625,1 0.05102,0.2417007 0.151731,0.4473889 0.34375,0.59375 0.192014,0.1463633 0.44824,0.218751 0.78125,0.21875 0.338376,1e-6 0.578121,-0.080443 0.75,-0.21875 0.171871,-0.1383044 0.277584,-0.2985824 0.3125,-0.5 0.03491,-0.2014141 0.09375,-0.5327127 0.09375,-1 l 0,-3.28125 1.15625,0 0,3.09375 c -6e-6,0.7089864 -0.0293,1.2072769 -0.09375,1.5 -0.06446,0.2927257 -0.170537,0.5485848 -0.34375,0.75 -0.173222,0.2014163 -0.397465,0.3492432 -0.6875,0.46875 -0.290043,0.1195067 -0.688968,0.1562499 -1.15625,0.15625 -0.563967,-10e-8 -0.98987,-0.026001 -1.2812496,-0.15625 -0.291384,-0.1302488 -0.518312,-0.3231197 -0.6875,-0.53125 -0.169191,-0.2081291 -0.25879,-0.3967276 -0.3125,-0.625 -0.07788,-0.3383773 -0.125001,-0.8393533 -0.125,-1.5 l 0,-3.15625 z M 2.6249999,10.6875 l 0,1.1875 0.031251,0 3.15625,0 -3.15625,3.84375 -0.4687505,0.59375 0,1.25 0.4687505,0 5.125,0 0,-1.15625 -3.90625,0 3.78125,-4.625 0,-1.09375 -5,0 -0.031251,0 z m 5.5312505,0 0,1.1875 2.0624996,0 0,5.6875 1.375,0 0,-5.6875 2.0625,0 0,-1.1875 -5.4999996,0 z m 6.4062496,0 0,6.875 5.125,0 0.125,0 0,-1.15625 -0.125,0 -3.75,0 0,-1.875 3.5,0 0,-1.15625 -3.5,0 0,-1.5 3.75,0 0,-1.1875 -5.125,0 z"
       id="rect3001-7-4"
       style="fill:#649be6;fill-opacity:1;fill-rule:nonzero;stroke:none" />
  </g>
</svg>
