<?xml version="1.0" encoding="UTF-8" standalone="no"?>
<!-- Created with Inkscape (http://www.inkscape.org/) -->

<svg
   xmlns:dc="http://purl.org/dc/elements/1.1/"
   xmlns:cc="http://creativecommons.org/ns#"
   xmlns:rdf="http://www.w3.org/1999/02/22-rdf-syntax-ns#"
   xmlns:svg="http://www.w3.org/2000/svg"
   xmlns="http://www.w3.org/2000/svg"
   version="1.1"
   width="22"
   height="22"
   id="svg15992">
  <defs
     id="defs15994" />
  <metadata
     id="metadata15997">
    <rdf:RDF>
      <cc:Work
         rdf:about="">
        <dc:format>image/svg+xml</dc:format>
        <dc:type
           rdf:resource="http://purl.org/dc/dcmitype/StillImage" />
        <dc:title></dc:title>
      </cc:Work>
    </rdf:RDF>
  </metadata>
  <g
     id="g9848">
    <path
       d="m 2.8919556,1.491522 17.0956944,0 2.012386,2.457171 0,14.47591 L 17.466622,22 2.9212176,22 0.66016556,18.7386 0.57763556,4.007337 z"
       id="rect3155"
       style="fill:#ffffff;fill-opacity:1;fill-rule:nonzero;stroke:none" />
    <g
       transform="translate(4.4444444e-7,-1030.3622)"
       id="layer1">
      <path
         d="M 3.65625,0 C 1.6318877,0 0.01600491,1.6859888 0,3.78125 -7.9912669e-5,3.7917117 0,3.8020181 0,3.8125 l 0,14.375 C 0,20.2973 1.62178,22 3.65625,22 l 14.6875,0 C 20.37823,22 22,20.2973 22,18.1875 l 0,-14.375 c 0,-0.010482 8e-5,-0.020788 0,-0.03125 C 21.983995,1.6859888 20.368122,0 18.34375,0 l -13.125,0 -1.5625,0 z m 1.5625,1.375 2.21875,0 0,2.40625 7.5625,0 0,-2.40625 2.1875,0 0,2.40625 3.4375,0 0,1.21875 -0.375,0 0,3.75 0.375,0 0,10.53125 -3.4375,0 0,1.34375 -2.1875,0 0,-1.34375 -7.5625,0 0,1.34375 -2.21875,0 0,-1.34375 -3.84375,0 0,-10.53125 6.875,0 0,-3.75 -6.875,0 0,-1.21875 3.84375,0 0,-2.40625 z M 10.5,5 l 0,3.75 7.5625,0 0,-3.75 L 10.5,5 z m -2.03125,5.65625 0,4.4375 C 8.4687469,15.65145 8.377707,16.010478 8.25,16.1875 8.1222862,16.364524 7.9021211,16.468751 7.59375,16.46875 7.288489,16.468751 7.0557628,16.310019 6.90625,16.0625 6.8065718,15.899579 6.7655728,15.644778 6.75,15.25 l -1.28125,0.125 c 0.00312,0.736289 0.1980579,1.306824 0.5625,1.6875 0.3644407,0.380676 0.855318,0.59375 1.53125,0.59375 0.5762512,0 1.0542645,-0.132181 1.40625,-0.375 C 9.3207281,17.038433 9.5535555,16.713542 9.6875,16.3125 9.7871714,16.005454 9.8124959,15.570233 9.8125,15 l 0,-4.34375 -1.34375,0 z m 2.84375,0 0,6.875 1.375,0 0,-2.625 0.90625,0 c 0.626088,0 1.107319,-0.02796 1.4375,-0.09375 0.242957,-0.05327 0.483572,-0.179257 0.71875,-0.34375 0.235169,-0.164487 0.409866,-0.336748 0.5625,-0.625 0.152626,-0.288244 0.249993,-0.670772 0.25,-1.09375 -7e-6,-0.548294 -0.14149,-0.966283 -0.40625,-1.3125 -0.26477,-0.346205 -0.607529,-0.5841 -1,-0.6875 -0.255425,-0.06892 -0.783984,-0.09374 -1.625,-0.09375 l -2.21875,0 z m 1.375,1.15625 0.6875,0 c 0.498379,7e-6 0.803657,0.03118 0.96875,0.0625 0.224267,0.04074 0.416095,0.118332 0.5625,0.28125 0.146396,0.162928 0.218746,0.343104 0.21875,0.59375 -4e-6,0.203659 -0.02066,0.408981 -0.125,0.5625 -0.104356,0.153528 -0.284976,0.271692 -0.46875,0.34375 -0.183782,0.07207 -0.517399,0.09375 -1.0625,0.09375 l -0.78125,0 0,-1.9375 z"
         transform="translate(0,1030.3622)"
         id="rect3001-7-4"
         style="fill:#649be6;fill-opacity:1;fill-rule:nonzero;stroke:none" />
      <g
         transform="translate(3,1033.8577)"
         id="layer1-8">
        <g
           id="text5399"
           style="font-size:7px;font-style:normal;font-variant:normal;font-weight:bold;font-stretch:normal;line-height:125%;letter-spacing:0px;word-spacing:0px;fill:#000000;fill-opacity:1;stroke:none;font-family:Arial;-inkscape-font-specification:Arial Bold" />
        <g
           transform="translate(0,-1036.4247)"
           id="layer1-3">
          <g
             transform="scale(0.89723629,1.1145336)"
             id="text5639"
             style="font-size:7.97739649px;font-style:normal;font-variant:normal;font-weight:bold;font-stretch:normal;line-height:125%;letter-spacing:0px;word-spacing:0px;fill:#cccccc;fill-opacity:1;stroke:none;font-family:Arial;-inkscape-font-specification:Arial Bold" />
          <g
             transform="scale(1.0195853,0.98079088)"
             id="text6068"
             style="font-size:6.62408876px;font-style:normal;font-variant:normal;font-weight:bold;font-stretch:normal;line-height:125%;letter-spacing:0px;word-spacing:0px;fill:#000000;fill-opacity:1;stroke:none;font-family:Arial;-inkscape-font-specification:Arial Bold" />
          <g
             id="text6125"
             style="font-size:6px;font-style:normal;font-variant:normal;font-weight:bold;font-stretch:normal;line-height:125%;letter-spacing:0px;word-spacing:0px;fill:#000000;fill-opacity:1;stroke:none;font-family:Arial;-inkscape-font-specification:Arial Bold" />
        </g>
        <g
           transform="translate(0,-1036.3622)"
           id="layer1-84">
          <g
             transform="scale(0.93557544,1.0688609)"
             id="text7308"
             style="font-size:8.03458023px;font-style:normal;font-variant:normal;font-weight:bold;font-stretch:normal;line-height:125%;letter-spacing:0px;word-spacing:0px;fill:#ffffff;fill-opacity:1;stroke:none;font-family:Arial;-inkscape-font-specification:Arial Bold" />
        </g>
        <g
           transform="scale(0.9686171,1.0323997)"
           id="text5724"
           style="font-size:9.88508701px;font-style:normal;font-variant:normal;font-weight:bold;font-stretch:normal;line-height:125%;letter-spacing:0px;word-spacing:0px;fill:#ffffff;fill-opacity:1;stroke:none;font-family:Arial;-inkscape-font-specification:Arial Bold" />
        <g
           id="text5751"
           style="font-size:7px;font-style:normal;font-variant:normal;font-weight:bold;font-stretch:normal;line-height:125%;letter-spacing:0px;word-spacing:0px;fill:#ffffff;fill-opacity:1;stroke:none;font-family:Arial;-inkscape-font-specification:Arial Bold" />
        <g
           id="layer1-37">
          <g
             id="text5141"
             style="font-size:7px;font-style:normal;font-variant:normal;font-weight:bold;font-stretch:normal;line-height:125%;letter-spacing:0px;word-spacing:0px;fill:#000000;fill-opacity:1;stroke:none;font-family:Arial;-inkscape-font-specification:Arial Bold" />
        </g>
        <g
           transform="scale(1.0995518,0.90946149)"
           id="text5804"
           style="font-size:6.36623049px;font-style:normal;font-variant:normal;font-weight:bold;font-stretch:normal;line-height:125%;letter-spacing:0px;word-spacing:0px;fill:#000000;fill-opacity:1;stroke:none;font-family:Arial;-inkscape-font-specification:Arial Bold" />
        <g
           transform="scale(0.94725198,1.0556853)"
           id="text5938"
           style="font-size:7px;font-style:normal;font-variant:normal;font-weight:bold;font-stretch:normal;line-height:125%;letter-spacing:0px;word-spacing:0px;fill:#000000;fill-opacity:1;stroke:none;font-family:Arial;-inkscape-font-specification:Arial Bold" />
      </g>
      <g
         transform="matrix(1.3669903,0,0,1.375,30.30548,-396.96631)"
         id="layer1-849">
        <g
           id="text7004"
           style="font-size:6px;font-style:normal;font-variant:normal;font-weight:bold;font-stretch:normal;line-height:125%;letter-spacing:0px;word-spacing:0px;fill:#000000;fill-opacity:1;stroke:none;font-family:Arial;-inkscape-font-specification:Arial Bold" />
      </g>
      <g
         transform="matrix(1.3669903,0,0,1.375,-7.0312501e-8,1030.3622)"
         id="g18142">
        <g
           id="text12458"
           style="font-size:7px;font-style:normal;font-variant:normal;font-weight:bold;font-stretch:normal;line-height:125%;letter-spacing:0px;word-spacing:0px;fill:#000000;fill-opacity:1;stroke:none;font-family:Arial;-inkscape-font-specification:Arial Bold" />
      </g>
    </g>
  </g>
</svg>
