<?xml version="1.0" encoding="UTF-8" standalone="no"?>
<!-- Created with Inkscape (http://www.inkscape.org/) -->

<svg
   xmlns:dc="http://purl.org/dc/elements/1.1/"
   xmlns:cc="http://creativecommons.org/ns#"
   xmlns:rdf="http://www.w3.org/1999/02/22-rdf-syntax-ns#"
   xmlns:svg="http://www.w3.org/2000/svg"
   xmlns="http://www.w3.org/2000/svg"
   version="1.1"
   width="22"
   height="22"
   id="svg15992">
  <defs
     id="defs15994" />
  <metadata
     id="metadata15997">
    <rdf:RDF>
      <cc:Work
         rdf:about="">
        <dc:format>image/svg+xml</dc:format>
        <dc:type
           rdf:resource="http://purl.org/dc/dcmitype/StillImage" />
        <dc:title></dc:title>
      </cc:Work>
    </rdf:RDF>
  </metadata>
  <g
     id="g9135">
    <path
       d="m 2.8919556,1.4915218 17.0956944,0 2.012386,2.457171 0,14.4759102 L 17.466622,22 2.9212176,22 0.66016556,18.7386 0.57763556,4.0073368 z"
       id="rect3155"
       style="fill:#ffffff;fill-opacity:1;fill-rule:nonzero;stroke:none" />
    <g
       transform="translate(4.4444444e-7,-1030.3622)"
       id="layer1">
      <path
         d="M 3.65625,0 C 1.6318877,0 0.01600491,1.6859888 0,3.78125 -7.9912669e-5,3.7917117 0,3.8020181 0,3.8125 l 0,14.375 C 0,20.2973 1.62178,22 3.65625,22 l 14.6875,0 C 20.37823,22 22,20.2973 22,18.1875 l 0,-14.375 c 0,-0.010482 8e-5,-0.020788 0,-0.03125 C 21.983995,1.6859888 20.368122,0 18.34375,0 L 5.1875,0 3.65625,0 z m 1.53125,1.375 2.25,0 0,2.40625 7.5625,0 0,-2.40625 2.1875,0 0,2.40625 3.4375,0 0,1.21875 -0.375,0 0,3.75 0.375,0 0,10.53125 -3.4375,0 0,1.34375 -2.1875,0 0,-1.34375 -7.5625,0 0,1.34375 -2.25,0 0,-1.34375 -3.8125,0 0,-10.53125 6.875,0 0,-3.75 -6.875,0 0,-1.21875 3.8125,0 0,-2.40625 z M 10.5,5 l 0,3.75 7.5625,0 0,-3.75 L 10.5,5 z m -2.34375,5.28125 c -0.9650071,0 -1.751588,0.303 -2.34375,0.9375 -0.592163,0.6344 -0.875,1.57195 -0.875,2.71875 0,1.084 0.285969,1.90615 0.875,2.53125 0.589028,0.6251 1.335122,0.9375 2.25,0.9375 0.7394173,0 1.33156,-0.1975 1.8125,-0.5625 0.480931,-0.3651 0.824457,-0.9355 1.03125,-1.6875 L 9.59375,14.75 c -0.115926,0.5044 -0.296187,0.85885 -0.5625,1.09375 -0.266321,0.2356 -0.599043,0.34375 -0.96875,0.34375 -0.501304,0 -0.905438,-0.1927 -1.21875,-0.5625 -0.313315,-0.3697 -0.500001,-0.97265 -0.5,-1.84375 -1e-6,-0.821 0.181985,-1.3835 0.5,-1.75 0.318012,-0.3666 0.708046,-0.5625 1.21875,-0.5625 0.369707,0 0.710263,0.1048 0.96875,0.3125 0.25848,0.2068 0.418534,0.48655 0.5,0.84375 l 1.375,-0.34375 c -0.156663,-0.5515 -0.374191,-0.9554 -0.6875,-1.25 -0.5263709,-0.4983 -1.2196887,-0.75 -2.0625,-0.75 z m 3.96875,0.125 0,6.875 1.40625,0 0,-2.59375 0.90625,0 c 0.629758,0 1.074132,-0.0588 1.40625,-0.125 0.24438,-0.054 0.513444,-0.1477 0.75,-0.3125 0.236547,-0.1646 0.44022,-0.3993 0.59375,-0.6875 C 17.34102,13.2742 17.406243,12.9229 17.40625,12.5 17.406243,11.9516 17.26631,11.5337 17,11.1875 16.733678,10.8413 16.426021,10.6031 16.03125,10.5 15.774328,10.431 15.189693,10.40625 14.34375,10.40625 l -2.21875,0 z m 1.40625,1.15625 0.65625,0 c 0.501299,0 0.86519,0.0023 1.03125,0.03125 0.225583,0.041 0.415238,0.1495 0.5625,0.3125 0.147254,0.1629 0.187496,0.40565 0.1875,0.65625 -4e-6,0.2037 -0.05129,0.3466 -0.15625,0.5 -0.104967,0.1536 -0.252649,0.27225 -0.4375,0.34375 -0.184859,0.073 -0.576704,0.125 -1.125,0.125 l -0.71875,0 0,-1.96875 z"
         transform="translate(0,1030.3622)"
         id="rect3001-7-4"
         style="fill:#649be6;fill-opacity:1;fill-rule:nonzero;stroke:none" />
      <g
         transform="translate(3,1033.8577)"
         id="layer1-8">
        <g
           id="text5399"
           style="font-size:7px;font-style:normal;font-variant:normal;font-weight:bold;font-stretch:normal;line-height:125%;letter-spacing:0px;word-spacing:0px;fill:#000000;fill-opacity:1;stroke:none;font-family:Arial;-inkscape-font-specification:Arial Bold" />
        <g
           transform="translate(0,-1036.4247)"
           id="layer1-3">
          <g
             transform="scale(0.89723629,1.1145336)"
             id="text5639"
             style="font-size:7.97739649px;font-style:normal;font-variant:normal;font-weight:bold;font-stretch:normal;line-height:125%;letter-spacing:0px;word-spacing:0px;fill:#cccccc;fill-opacity:1;stroke:none;font-family:Arial;-inkscape-font-specification:Arial Bold" />
          <g
             transform="scale(1.0195853,0.98079088)"
             id="text6068"
             style="font-size:6.62408876px;font-style:normal;font-variant:normal;font-weight:bold;font-stretch:normal;line-height:125%;letter-spacing:0px;word-spacing:0px;fill:#000000;fill-opacity:1;stroke:none;font-family:Arial;-inkscape-font-specification:Arial Bold" />
          <g
             id="text6125"
             style="font-size:6px;font-style:normal;font-variant:normal;font-weight:bold;font-stretch:normal;line-height:125%;letter-spacing:0px;word-spacing:0px;fill:#000000;fill-opacity:1;stroke:none;font-family:Arial;-inkscape-font-specification:Arial Bold" />
        </g>
        <g
           transform="translate(0,-1036.3622)"
           id="layer1-84">
          <g
             transform="scale(0.93557544,1.0688609)"
             id="text7308"
             style="font-size:8.03458023px;font-style:normal;font-variant:normal;font-weight:bold;font-stretch:normal;line-height:125%;letter-spacing:0px;word-spacing:0px;fill:#ffffff;fill-opacity:1;stroke:none;font-family:Arial;-inkscape-font-specification:Arial Bold" />
        </g>
        <g
           transform="scale(0.9686171,1.0323997)"
           id="text5724"
           style="font-size:9.88508701px;font-style:normal;font-variant:normal;font-weight:bold;font-stretch:normal;line-height:125%;letter-spacing:0px;word-spacing:0px;fill:#ffffff;fill-opacity:1;stroke:none;font-family:Arial;-inkscape-font-specification:Arial Bold" />
        <g
           id="text5751"
           style="font-size:7px;font-style:normal;font-variant:normal;font-weight:bold;font-stretch:normal;line-height:125%;letter-spacing:0px;word-spacing:0px;fill:#ffffff;fill-opacity:1;stroke:none;font-family:Arial;-inkscape-font-specification:Arial Bold" />
        <g
           id="layer1-37">
          <g
             id="text5141"
             style="font-size:7px;font-style:normal;font-variant:normal;font-weight:bold;font-stretch:normal;line-height:125%;letter-spacing:0px;word-spacing:0px;fill:#000000;fill-opacity:1;stroke:none;font-family:Arial;-inkscape-font-specification:Arial Bold" />
        </g>
        <g
           transform="scale(1.0995518,0.90946149)"
           id="text5804"
           style="font-size:6.36623049px;font-style:normal;font-variant:normal;font-weight:bold;font-stretch:normal;line-height:125%;letter-spacing:0px;word-spacing:0px;fill:#000000;fill-opacity:1;stroke:none;font-family:Arial;-inkscape-font-specification:Arial Bold" />
        <g
           transform="scale(0.94725198,1.0556853)"
           id="text5938"
           style="font-size:7px;font-style:normal;font-variant:normal;font-weight:bold;font-stretch:normal;line-height:125%;letter-spacing:0px;word-spacing:0px;fill:#000000;fill-opacity:1;stroke:none;font-family:Arial;-inkscape-font-specification:Arial Bold" />
      </g>
    </g>
  </g>
</svg>
