<?xml version="1.0" encoding="UTF-8" standalone="no"?>
<!-- Created with Inkscape (http://www.inkscape.org/) -->

<svg
   xmlns:dc="http://purl.org/dc/elements/1.1/"
   xmlns:cc="http://creativecommons.org/ns#"
   xmlns:rdf="http://www.w3.org/1999/02/22-rdf-syntax-ns#"
   xmlns:svg="http://www.w3.org/2000/svg"
   xmlns="http://www.w3.org/2000/svg"
   version="1.1"
   width="22"
   height="22"
   id="svg15992">
  <defs
     id="defs15994" />
  <metadata
     id="metadata15997">
    <rdf:RDF>
      <cc:Work
         rdf:about="">
        <dc:format>image/svg+xml</dc:format>
        <dc:type
           rdf:resource="http://purl.org/dc/dcmitype/StillImage" />
        <dc:title></dc:title>
      </cc:Work>
    </rdf:RDF>
  </metadata>
  <g
     id="g10272">
    <g
       transform="translate(2.050883,-0.0932)"
       id="g10245">
      <path
         d="m 0.84110806,1.5847221 17.09569394,0 2.012386,2.457171 0,14.4759099 -4.533414,3.575397 -14.54540394,0 -2.26105196,-3.2614 -0.08253,-14.7312629 z"
         id="rect3155"
         style="fill:#ffffff;fill-opacity:1;fill-rule:nonzero;stroke:none" />
      <g
         transform="translate(-2.0508475,-1030.269)"
         id="layer1">
        <path
           d="M 3.65625,0 C 1.6318877,0 0.01600491,1.6859888 0,3.78125 -7.9912669e-5,3.7917117 0,3.8020181 0,3.8125 l 0,14.375 C 0,20.2973 1.62178,22 3.65625,22 l 1.53125,0 13.15625,0 C 20.37823,22 22,20.2973 22,18.1875 l 0,-14.375 c 0,-0.010482 8e-5,-0.020788 0,-0.03125 C 21.983995,1.6859888 20.368122,0 18.34375,0 L 5.1875,0 3.65625,0 z m 1.53125,1.375 2.25,0 0,2.40625 7.5625,0 0,-2.40625 2.1875,0 0,2.40625 3.4375,0 0,1.21875 -0.375,0 0,3.75 0.375,0 0,10.53125 -3.4375,0 0,0.78125 0,0.5625 -2.1875,0 0,-0.5625 0,-0.78125 -7.5625,0 0,0.78125 0,0.5625 -2.25,0 0,-0.5625 0,-0.78125 -3.8125,0 0,-10.53125 6.875,0 0,-3.75 -6.875,0 0,-1.21875 3.8125,0 0,-2.40625 z M 10.5,5 l 0,3.75 7.5625,0 0,-3.75 L 10.5,5 z m -7.875,5.6875 0,1.1875 3.1875,0 -3.625,4.4375 0,1.25 5.59375,0 0,-1.15625 -3.90625,0 3.78125,-4.625 0,-1.09375 -5.03125,0 z m 5.53125,0 0,1.1875 2.0625,0 0,5.6875 1.375,0 0,-5.6875 2.0625,0 0,-1.1875 -5.5,0 z m 6.40625,0 0,6.875 5.25,0 0,-1.15625 -3.875,0 0,-1.875 3.5,0 0,-1.15625 -3.5,0 0,-1.5 3.75,0 0,-1.1875 -5.125,0 z"
           transform="translate(0,1030.3622)"
           id="rect3001-7-4"
           style="fill:#649be6;fill-opacity:1;fill-rule:nonzero;stroke:none" />
        <g
           transform="translate(3,1033.8577)"
           id="layer1-8">
          <g
             id="text5399"
             style="font-size:7px;font-style:normal;font-variant:normal;font-weight:bold;font-stretch:normal;line-height:125%;letter-spacing:0px;word-spacing:0px;fill:#000000;fill-opacity:1;stroke:none;font-family:Arial;-inkscape-font-specification:Arial Bold" />
          <g
             transform="translate(0,-1036.4247)"
             id="layer1-3">
            <g
               transform="scale(0.89723629,1.1145336)"
               id="text5639"
               style="font-size:7.97739649px;font-style:normal;font-variant:normal;font-weight:bold;font-stretch:normal;line-height:125%;letter-spacing:0px;word-spacing:0px;fill:#cccccc;fill-opacity:1;stroke:none;font-family:Arial;-inkscape-font-specification:Arial Bold" />
            <g
               transform="scale(1.0195853,0.98079088)"
               id="text6068"
               style="font-size:6.62408876px;font-style:normal;font-variant:normal;font-weight:bold;font-stretch:normal;line-height:125%;letter-spacing:0px;word-spacing:0px;fill:#000000;fill-opacity:1;stroke:none;font-family:Arial;-inkscape-font-specification:Arial Bold" />
            <g
               id="text6125"
               style="font-size:6px;font-style:normal;font-variant:normal;font-weight:bold;font-stretch:normal;line-height:125%;letter-spacing:0px;word-spacing:0px;fill:#000000;fill-opacity:1;stroke:none;font-family:Arial;-inkscape-font-specification:Arial Bold" />
          </g>
          <g
             transform="translate(0,-1036.3622)"
             id="layer1-84">
            <g
               transform="scale(0.93557544,1.0688609)"
               id="text7308"
               style="font-size:8.03458023px;font-style:normal;font-variant:normal;font-weight:bold;font-stretch:normal;line-height:125%;letter-spacing:0px;word-spacing:0px;fill:#ffffff;fill-opacity:1;stroke:none;font-family:Arial;-inkscape-font-specification:Arial Bold" />
          </g>
          <g
             transform="scale(0.9686171,1.0323997)"
             id="text5724"
             style="font-size:9.88508701px;font-style:normal;font-variant:normal;font-weight:bold;font-stretch:normal;line-height:125%;letter-spacing:0px;word-spacing:0px;fill:#ffffff;fill-opacity:1;stroke:none;font-family:Arial;-inkscape-font-specification:Arial Bold" />
          <g
             id="text5751"
             style="font-size:7px;font-style:normal;font-variant:normal;font-weight:bold;font-stretch:normal;line-height:125%;letter-spacing:0px;word-spacing:0px;fill:#ffffff;fill-opacity:1;stroke:none;font-family:Arial;-inkscape-font-specification:Arial Bold" />
          <g
             id="layer1-37">
            <g
               id="text5141"
               style="font-size:7px;font-style:normal;font-variant:normal;font-weight:bold;font-stretch:normal;line-height:125%;letter-spacing:0px;word-spacing:0px;fill:#000000;fill-opacity:1;stroke:none;font-family:Arial;-inkscape-font-specification:Arial Bold" />
          </g>
          <g
             transform="scale(1.0995518,0.90946149)"
             id="text5804"
             style="font-size:6.36623049px;font-style:normal;font-variant:normal;font-weight:bold;font-stretch:normal;line-height:125%;letter-spacing:0px;word-spacing:0px;fill:#000000;fill-opacity:1;stroke:none;font-family:Arial;-inkscape-font-specification:Arial Bold" />
          <g
             transform="scale(0.94725198,1.0556853)"
             id="text5938"
             style="font-size:7px;font-style:normal;font-variant:normal;font-weight:bold;font-stretch:normal;line-height:125%;letter-spacing:0px;word-spacing:0px;fill:#000000;fill-opacity:1;stroke:none;font-family:Arial;-inkscape-font-specification:Arial Bold" />
        </g>
        <g
           transform="matrix(1.3669903,0,0,1.375,30.30548,-396.96631)"
           id="layer1-849">
          <g
             id="text7004"
             style="font-size:6px;font-style:normal;font-variant:normal;font-weight:bold;font-stretch:normal;line-height:125%;letter-spacing:0px;word-spacing:0px;fill:#000000;fill-opacity:1;stroke:none;font-family:Arial;-inkscape-font-specification:Arial Bold" />
        </g>
        <g
           transform="matrix(1.375,0,0,1.375,0,1030.3622)"
           id="g18178">
          <g
             id="text8828-2"
             style="font-size:7px;font-style:normal;font-variant:normal;font-weight:bold;font-stretch:normal;line-height:125%;letter-spacing:0px;word-spacing:0px;fill:#000000;fill-opacity:1;stroke:none;font-family:Arial;-inkscape-font-specification:Arial Bold" />
          <g
             transform="translate(0,-1036.3622)"
             id="layer1-0">
            <g
               id="text7004-78"
               style="font-size:6px;font-style:normal;font-variant:normal;font-weight:bold;font-stretch:normal;line-height:125%;letter-spacing:0px;word-spacing:0px;fill:#000000;fill-opacity:1;stroke:none;font-family:Arial;-inkscape-font-specification:Arial Bold" />
          </g>
          <g
             transform="translate(0,-1036.3622)"
             id="layer1-8-1">
            <g
               id="text7004-9-5"
               style="font-size:6px;font-style:normal;font-variant:normal;font-weight:bold;font-stretch:normal;line-height:125%;letter-spacing:0px;word-spacing:0px;fill:#000000;fill-opacity:1;stroke:none;font-family:Arial;-inkscape-font-specification:Arial Bold" />
          </g>
        </g>
      </g>
    </g>
  </g>
</svg>
