<?xml version="1.0" encoding="UTF-8" standalone="no"?>
<!-- Created with Inkscape (http://www.inkscape.org/) -->

<svg
   xmlns:dc="http://purl.org/dc/elements/1.1/"
   xmlns:cc="http://creativecommons.org/ns#"
   xmlns:rdf="http://www.w3.org/1999/02/22-rdf-syntax-ns#"
   xmlns:svg="http://www.w3.org/2000/svg"
   xmlns="http://www.w3.org/2000/svg"
   version="1.1"
   width="22"
   height="22"
   id="svg15992">
  <defs
     id="defs15994" />
  <metadata
     id="metadata15997">
    <rdf:RDF>
      <cc:Work
         rdf:about="">
        <dc:format>image/svg+xml</dc:format>
        <dc:type
           rdf:resource="http://purl.org/dc/dcmitype/StillImage" />
        <dc:title></dc:title>
      </cc:Work>
    </rdf:RDF>
  </metadata>
  <g
     id="g9599">
    <path
       d="m 2.8919558,1.4915217 17.0956942,0 2.012386,2.457171 0,14.4759103 L 17.466622,22 2.9212178,22 0.66016576,18.7386 0.57763576,4.0073367 z"
       id="rect3155"
       style="fill:#ffffff;fill-opacity:1;fill-rule:nonzero;stroke:none" />
    <g
       transform="translate(4.4444445e-7,-1030.3622)"
       id="layer1">
      <path
         d="M 3.65625,0 C 1.6318877,0 0.01600491,1.6859888 0,3.78125 -7.9912669e-5,3.7917117 0,3.8020181 0,3.8125 l 0,14.375 C 0,20.2973 1.62178,22 3.65625,22 l 14.6875,0 C 20.37823,22 22,20.2973 22,18.1875 l 0,-14.375 c 0,-0.010482 8e-5,-0.020788 0,-0.03125 C 21.983995,1.6859888 20.368122,0 18.34375,0 L 5.1875,0 3.65625,0 z m 1.53125,1.375 2.25,0 0,2.40625 7.5625,0 0,-2.40625 2.1875,0 0,2.40625 3.4375,0 0,1.21875 -0.375,0 0,3.75 0.375,0 0,10.53125 -3.4375,0 0,1.34375 -2.1875,0 0,-1.34375 -7.5625,0 0,1.34375 -2.25,0 0,-1.34375 -3.8125,0 0,-10.53125 6.875,0 0,-3.75 -6.875,0 0,-1.21875 3.8125,0 0,-2.40625 z M 10.5,5 l 0,3.75 7.5625,0 0,-3.75 L 10.5,5 z m 6,5.3125 c -0.85048,7e-6 -1.540617,0.365546 -2.0625,1 -0.521885,0.634466 -0.78125,1.509526 -0.78125,2.65625 0,1.084068 0.262127,1.90619 0.78125,2.53125 0.519122,0.625061 1.22495,0.9375 2.03125,0.9375 0.651661,0 1.169887,-0.13499 1.59375,-0.5 0.423853,-0.36501 0.692749,-0.935545 0.875,-1.6875 l -1.15625,-0.4375 c -0.102176,0.504437 -0.265294,0.858767 -0.5,1.09375 -0.234714,0.234986 -0.549172,0.375001 -0.875,0.375 -0.441809,1e-6 -0.786374,-0.192789 -1.0625,-0.5625 -0.276132,-0.369709 -0.406251,-1.003986 -0.40625,-1.875 -10e-7,-0.820878 0.125984,-1.414668 0.40625,-1.78125 0.280269,-0.366572 0.674906,-0.562494 1.125,-0.5625 0.325828,6e-6 0.58469,0.105719 0.8125,0.3125 0.227802,0.206792 0.396952,0.517827 0.46875,0.875 l 1.1875,-0.34375 c -0.138071,-0.551427 -0.348877,-0.955479 -0.625,-1.25 C 17.848598,10.595588 17.242783,10.312507 16.5,10.3125 z m -13.4375,0.125 0,6.9375 1.1875,0 0,-3.0625 2.40625,0 0,3.0625 1.25,0 0,-6.9375 -1.25,0 0,2.71875 -2.40625,0 0,-2.71875 -1.1875,0 z m 7.75,0 c -0.334118,7e-6 -0.605776,0.0762 -0.875,0.21875 -0.2692271,0.142564 -0.5057605,0.313422 -0.65625,0.5625 C 9.130759,11.46784 9.0120544,11.770798 8.9375,12.1875 L 10,12.40625 c 0.03037,-0.300776 0.140422,-0.530838 0.28125,-0.6875 0.140824,-0.156651 0.301185,-0.218744 0.5,-0.21875 0.201572,6e-6 0.347251,0.0809 0.46875,0.21875 0.121494,0.137864 0.218747,0.330653 0.21875,0.5625 -3e-6,0.272588 -0.08432,0.491765 -0.25,0.65625 -0.16568,0.164494 -0.403965,0.228154 -0.71875,0.21875 l -0.15625,1.0625 c 0.207095,-0.06579 0.413388,-0.09375 0.5625,-0.09375 0.226423,3e-6 0.405104,0.118254 0.5625,0.3125 0.15739,0.194257 0.218747,0.449139 0.21875,0.78125 -3e-6,0.350914 -0.05446,0.636964 -0.21875,0.84375 -0.1643,0.206788 -0.35352,0.312501 -0.59375,0.3125 -0.223667,1e-6 -0.436358,-0.07767 -0.59375,-0.25 C 10.123855,15.95268 10.035895,15.669598 10,15.34375 L 8.84375,15.5 c 0.057987,0.579631 0.2945202,1.078757 0.65625,1.4375 0.3617278,0.358744 0.825501,0.5 1.375,0.5 0.579868,0 1.079405,-0.198893 1.46875,-0.625 0.389338,-0.426106 0.531246,-0.957802 0.53125,-1.5625 -4e-6,-0.416705 -0.07278,-0.736732 -0.28125,-1.03125 -0.208481,-0.294511 -0.464581,-0.509152 -0.8125,-0.59375 0.582629,-0.360307 0.843746,-0.8328 0.84375,-1.4375 -4e-6,-0.426101 -0.153091,-0.817865 -0.4375,-1.15625 -0.345165,-0.413568 -0.803416,-0.593743 -1.375,-0.59375 z"
         transform="translate(0,1030.3622)"
         id="rect3001-7-4"
         style="fill:#649be6;fill-opacity:1;fill-rule:nonzero;stroke:none" />
      <g
         transform="translate(3,1033.8577)"
         id="layer1-8">
        <g
           id="text5399"
           style="font-size:7px;font-style:normal;font-variant:normal;font-weight:bold;font-stretch:normal;line-height:125%;letter-spacing:0px;word-spacing:0px;fill:#000000;fill-opacity:1;stroke:none;font-family:Arial;-inkscape-font-specification:Arial Bold" />
        <g
           transform="translate(0,-1036.4247)"
           id="layer1-3">
          <g
             transform="scale(0.89723629,1.1145336)"
             id="text5639"
             style="font-size:7.97739649px;font-style:normal;font-variant:normal;font-weight:bold;font-stretch:normal;line-height:125%;letter-spacing:0px;word-spacing:0px;fill:#cccccc;fill-opacity:1;stroke:none;font-family:Arial;-inkscape-font-specification:Arial Bold" />
          <g
             transform="scale(1.0195853,0.98079088)"
             id="text6068"
             style="font-size:6.62408876px;font-style:normal;font-variant:normal;font-weight:bold;font-stretch:normal;line-height:125%;letter-spacing:0px;word-spacing:0px;fill:#000000;fill-opacity:1;stroke:none;font-family:Arial;-inkscape-font-specification:Arial Bold" />
          <g
             id="text6125"
             style="font-size:6px;font-style:normal;font-variant:normal;font-weight:bold;font-stretch:normal;line-height:125%;letter-spacing:0px;word-spacing:0px;fill:#000000;fill-opacity:1;stroke:none;font-family:Arial;-inkscape-font-specification:Arial Bold" />
        </g>
        <g
           transform="translate(0,-1036.3622)"
           id="layer1-84">
          <g
             transform="scale(0.93557544,1.0688609)"
             id="text7308"
             style="font-size:8.03458023px;font-style:normal;font-variant:normal;font-weight:bold;font-stretch:normal;line-height:125%;letter-spacing:0px;word-spacing:0px;fill:#ffffff;fill-opacity:1;stroke:none;font-family:Arial;-inkscape-font-specification:Arial Bold" />
        </g>
        <g
           transform="scale(0.9686171,1.0323997)"
           id="text5724"
           style="font-size:9.88508701px;font-style:normal;font-variant:normal;font-weight:bold;font-stretch:normal;line-height:125%;letter-spacing:0px;word-spacing:0px;fill:#ffffff;fill-opacity:1;stroke:none;font-family:Arial;-inkscape-font-specification:Arial Bold" />
        <g
           id="text5751"
           style="font-size:7px;font-style:normal;font-variant:normal;font-weight:bold;font-stretch:normal;line-height:125%;letter-spacing:0px;word-spacing:0px;fill:#ffffff;fill-opacity:1;stroke:none;font-family:Arial;-inkscape-font-specification:Arial Bold" />
        <g
           id="layer1-37">
          <g
             id="text5141"
             style="font-size:7px;font-style:normal;font-variant:normal;font-weight:bold;font-stretch:normal;line-height:125%;letter-spacing:0px;word-spacing:0px;fill:#000000;fill-opacity:1;stroke:none;font-family:Arial;-inkscape-font-specification:Arial Bold" />
        </g>
        <g
           transform="scale(1.0995518,0.90946149)"
           id="text5804"
           style="font-size:6.36623049px;font-style:normal;font-variant:normal;font-weight:bold;font-stretch:normal;line-height:125%;letter-spacing:0px;word-spacing:0px;fill:#000000;fill-opacity:1;stroke:none;font-family:Arial;-inkscape-font-specification:Arial Bold" />
        <g
           transform="scale(0.94725198,1.0556853)"
           id="text5938"
           style="font-size:7px;font-style:normal;font-variant:normal;font-weight:bold;font-stretch:normal;line-height:125%;letter-spacing:0px;word-spacing:0px;fill:#000000;fill-opacity:1;stroke:none;font-family:Arial;-inkscape-font-specification:Arial Bold" />
      </g>
      <g
         transform="matrix(1.3669903,0,0,1.375,30.30548,-396.96631)"
         id="layer1-849">
        <g
           id="text7004"
           style="font-size:6px;font-style:normal;font-variant:normal;font-weight:bold;font-stretch:normal;line-height:125%;letter-spacing:0px;word-spacing:0px;fill:#000000;fill-opacity:1;stroke:none;font-family:Arial;-inkscape-font-specification:Arial Bold" />
      </g>
      <g
         transform="matrix(1.375,0,0,1.375,0,1030.3622)"
         id="g18127">
        <g
           id="text8828-3"
           style="font-size:7px;font-style:normal;font-variant:normal;font-weight:bold;font-stretch:normal;line-height:125%;letter-spacing:0px;word-spacing:0px;fill:#000000;fill-opacity:1;stroke:none;font-family:Arial;-inkscape-font-specification:Arial Bold" />
        <g
           transform="translate(0,-1036.3622)"
           id="layer1-3-6">
          <g
             id="text7004-7"
             style="font-size:6px;font-style:normal;font-variant:normal;font-weight:bold;font-stretch:normal;line-height:125%;letter-spacing:0px;word-spacing:0px;fill:#000000;fill-opacity:1;stroke:none;font-family:Arial;-inkscape-font-specification:Arial Bold" />
        </g>
      </g>
    </g>
  </g>
</svg>
