<?xml version="1.0" encoding="UTF-8" standalone="no"?>
<!-- Created with Inkscape (http://www.inkscape.org/) -->

<svg
   xmlns:dc="http://purl.org/dc/elements/1.1/"
   xmlns:cc="http://creativecommons.org/ns#"
   xmlns:rdf="http://www.w3.org/1999/02/22-rdf-syntax-ns#"
   xmlns:svg="http://www.w3.org/2000/svg"
   xmlns="http://www.w3.org/2000/svg"
   version="1.1"
   width="22"
   height="22"
   id="svg15992">
  <defs
     id="defs15994" />
  <metadata
     id="metadata15997">
    <rdf:RDF>
      <cc:Work
         rdf:about="">
        <dc:format>image/svg+xml</dc:format>
        <dc:type
           rdf:resource="http://purl.org/dc/dcmitype/StillImage" />
        <dc:title></dc:title>
      </cc:Work>
    </rdf:RDF>
  </metadata>
  <g
     id="g9356">
    <path
       d="m 2.8919915,1.4915009 17.0956945,0 2.012386,2.457171 0,14.4759101 -4.533414,3.575397 -14.5454045,0 -2.26105198,-3.2614 -0.08253,-14.7312631 z"
       id="rect3155"
       style="fill:#ffffff;fill-opacity:1;fill-rule:nonzero;stroke:none" />
    <g
       transform="translate(3.5516742e-5,-1030.3622)"
       id="layer1">
      <path
         d="M 3.65625,0 C 1.6318877,0 0.01600491,1.6859888 0,3.78125 -7.9912669e-5,3.7917117 0,3.8020181 0,3.8125 l 0,14.375 C 0,20.2973 1.62178,22 3.65625,22 l 14.6875,0 C 20.37823,22 22,20.2973 22,18.1875 l 0,-14.375 c 0,-0.010482 8e-5,-0.020788 0,-0.03125 C 21.983995,1.6859888 20.368122,0 18.34375,0 L 5.1875,0 3.65625,0 z m 1.53125,1.375 2.25,0 0,2.40625 7.5625,0 0,-2.40625 2.1875,0 0,2.40625 3.4375,0 0,1.21875 -0.375,0 0,3.75 0.375,0 0,10.53125 -3.4375,0 0,1.34375 -2.1875,0 0,-1.34375 -7.5625,0 0,1.34375 -2.25,0 0,-1.34375 -3.8125,0 0,-10.53125 6.875,0 0,-3.75 -6.875,0 0,-1.21875 3.8125,0 0,-2.40625 z M 10.5,5 l 0,3.75 7.5625,0 0,-3.75 L 10.5,5 z m -4.78125,5.28125 c -0.965008,0 -1.782838,0.303 -2.375,0.9375 C 2.751587,11.85315 2.5,12.7907 2.5,13.9375 c 0,1.084 0.25472,1.90615 0.84375,2.53125 0.589028,0.6251 1.366372,0.9375 2.28125,0.9375 0.739417,0 1.331559,-0.1975 1.8125,-0.5625 0.480931,-0.3651 0.824457,-0.9355 1.03125,-1.6875 L 7.125,14.75 c -0.115926,0.5044 -0.296188,0.85885 -0.5625,1.09375 -0.266321,0.2356 -0.567793,0.34375 -0.9375,0.34375 -0.501304,0 -0.936688,-0.1927 -1.25,-0.5625 -0.313315,-0.3697 -0.468751,-0.97265 -0.46875,-1.84375 -1e-6,-0.821 0.150735,-1.3835 0.46875,-1.75 0.318012,-0.3666 0.739296,-0.5625 1.25,-0.5625 0.369707,0 0.679012,0.1048 0.9375,0.3125 0.258479,0.2068 0.449784,0.48655 0.53125,0.84375 l 1.375,-0.34375 c -0.156664,-0.5516 -0.374191,-0.9554 -0.6875,-1.25 -0.526372,-0.4983 -1.21969,-0.75 -2.0625,-0.75 z m 10.78125,0 c -0.965008,0 -1.782839,0.303 -2.375,0.9375 -0.592163,0.6344 -0.84375,1.57195 -0.84375,2.71875 0,1.084 0.254719,1.90615 0.84375,2.53125 0.589028,0.6251 1.366372,0.9375 2.28125,0.9375 0.739418,0 1.331559,-0.1975 1.8125,-0.5625 0.480931,-0.3651 0.824457,-0.9355 1.03125,-1.6875 L 17.90625,14.75 c -0.115927,0.5044 -0.264937,0.85885 -0.53125,1.09375 -0.266321,0.2356 -0.599042,0.34375 -0.96875,0.34375 -0.501304,0 -0.936689,-0.1927 -1.25,-0.5625 -0.313316,-0.3697 -0.468751,-0.97265 -0.46875,-1.84375 -10e-7,-0.821 0.150734,-1.3835 0.46875,-1.75 0.318011,-0.3666 0.739297,-0.5625 1.25,-0.5625 0.369708,0 0.710262,0.1048 0.96875,0.3125 0.258479,0.2068 0.418534,0.48655 0.5,0.84375 l 1.375,-0.34375 c -0.156663,-0.5516 -0.374191,-0.9554 -0.6875,-1.25 -0.526372,-0.4983 -1.21969,-0.75 -2.0625,-0.75 z M 9.03125,12.75 l 0,2.0625 3.21875,0 0,-2.0625 -3.21875,0 z"
         transform="translate(0,1030.3622)"
         id="rect3001-7-4"
         style="fill:#649be6;fill-opacity:1;fill-rule:nonzero;stroke:none" />
      <g
         transform="translate(3,1033.8577)"
         id="layer1-8">
        <g
           id="text5399"
           style="font-size:7px;font-style:normal;font-variant:normal;font-weight:bold;font-stretch:normal;line-height:125%;letter-spacing:0px;word-spacing:0px;fill:#000000;fill-opacity:1;stroke:none;font-family:Arial;-inkscape-font-specification:Arial Bold" />
        <g
           transform="translate(0,-1036.4247)"
           id="layer1-3">
          <g
             transform="scale(0.89723629,1.1145336)"
             id="text5639"
             style="font-size:7.97739649px;font-style:normal;font-variant:normal;font-weight:bold;font-stretch:normal;line-height:125%;letter-spacing:0px;word-spacing:0px;fill:#cccccc;fill-opacity:1;stroke:none;font-family:Arial;-inkscape-font-specification:Arial Bold" />
          <g
             transform="scale(1.0195853,0.98079088)"
             id="text6068"
             style="font-size:6.62408876px;font-style:normal;font-variant:normal;font-weight:bold;font-stretch:normal;line-height:125%;letter-spacing:0px;word-spacing:0px;fill:#000000;fill-opacity:1;stroke:none;font-family:Arial;-inkscape-font-specification:Arial Bold" />
          <g
             id="text6125"
             style="font-size:6px;font-style:normal;font-variant:normal;font-weight:bold;font-stretch:normal;line-height:125%;letter-spacing:0px;word-spacing:0px;fill:#000000;fill-opacity:1;stroke:none;font-family:Arial;-inkscape-font-specification:Arial Bold" />
        </g>
        <g
           transform="translate(0,-1036.3622)"
           id="layer1-84">
          <g
             transform="scale(0.93557544,1.0688609)"
             id="text7308"
             style="font-size:8.03458023px;font-style:normal;font-variant:normal;font-weight:bold;font-stretch:normal;line-height:125%;letter-spacing:0px;word-spacing:0px;fill:#ffffff;fill-opacity:1;stroke:none;font-family:Arial;-inkscape-font-specification:Arial Bold" />
        </g>
        <g
           transform="scale(0.9686171,1.0323997)"
           id="text5724"
           style="font-size:9.88508701px;font-style:normal;font-variant:normal;font-weight:bold;font-stretch:normal;line-height:125%;letter-spacing:0px;word-spacing:0px;fill:#ffffff;fill-opacity:1;stroke:none;font-family:Arial;-inkscape-font-specification:Arial Bold" />
        <g
           id="text5751"
           style="font-size:7px;font-style:normal;font-variant:normal;font-weight:bold;font-stretch:normal;line-height:125%;letter-spacing:0px;word-spacing:0px;fill:#ffffff;fill-opacity:1;stroke:none;font-family:Arial;-inkscape-font-specification:Arial Bold" />
        <g
           id="layer1-37">
          <g
             id="text5141"
             style="font-size:7px;font-style:normal;font-variant:normal;font-weight:bold;font-stretch:normal;line-height:125%;letter-spacing:0px;word-spacing:0px;fill:#000000;fill-opacity:1;stroke:none;font-family:Arial;-inkscape-font-specification:Arial Bold" />
        </g>
        <g
           transform="scale(1.0995518,0.90946149)"
           id="text5804"
           style="font-size:6.36623049px;font-style:normal;font-variant:normal;font-weight:bold;font-stretch:normal;line-height:125%;letter-spacing:0px;word-spacing:0px;fill:#000000;fill-opacity:1;stroke:none;font-family:Arial;-inkscape-font-specification:Arial Bold" />
        <g
           transform="scale(0.94725198,1.0556853)"
           id="text5938"
           style="font-size:7px;font-style:normal;font-variant:normal;font-weight:bold;font-stretch:normal;line-height:125%;letter-spacing:0px;word-spacing:0px;fill:#000000;fill-opacity:1;stroke:none;font-family:Arial;-inkscape-font-specification:Arial Bold" />
      </g>
    </g>
  </g>
</svg>
