<?xml version="1.0" encoding="UTF-8" standalone="no"?>
<!-- Created with Inkscape (http://www.inkscape.org/) -->

<svg
   xmlns:dc="http://purl.org/dc/elements/1.1/"
   xmlns:cc="http://creativecommons.org/ns#"
   xmlns:rdf="http://www.w3.org/1999/02/22-rdf-syntax-ns#"
   xmlns:svg="http://www.w3.org/2000/svg"
   xmlns="http://www.w3.org/2000/svg"
   version="1.1"
   width="22"
   height="22"
   id="svg15992">
  <defs
     id="defs15994" />
  <metadata
     id="metadata15997">
    <rdf:RDF>
      <cc:Work
         rdf:about="">
        <dc:format>image/svg+xml</dc:format>
        <dc:type
           rdf:resource="http://purl.org/dc/dcmitype/StillImage" />
        <dc:title></dc:title>
      </cc:Work>
    </rdf:RDF>
  </metadata>
  <g
     id="g8817">
    <path
       d="m 2.89192,1.4915221 17.095694,0 L 22,3.9486929 22,18.424603 17.466586,22 2.921182,22 0.66013,18.7386 0.5776,4.0073373 z"
       id="rect3155"
       style="fill:#ffffff;fill-opacity:1;fill-rule:nonzero;stroke:none" />
    <g
       transform="translate(0,-1030.3622)"
       id="layer1">
      <path
         d="M 3.65625,0 C 1.62178,0 0,1.7027 0,3.8125 l 0,14.375 C 0,20.2973 1.62178,22 3.65625,22 l 14.6875,0 C 20.37823,22 22,20.2973 22,18.1875 L 22,3.8125 C 22,1.7027 20.37823,0 18.34375,0 L 3.65625,0 z M 2,2 l 4.25,0 0,3.09375 -4.25,0 L 2,2 z m 6.09375,0 6.1875,0 0,3.09375 -6.1875,0 0,-3.09375 z M 16.0625,2 20,2 l 0,3.09375 -3.9375,0 0,-3.09375 z m -13.53125,4.09375 6.21875,0 0,3.09375 -6.21875,0 0,-3.09375 z m 8.03125,0 6.1875,0 0,3.09375 -6.1875,0 0,-3.09375 z m 8,0 1.4375,0 0,3.09375 -1.4375,0 0,-3.09375 z M 2,10.125 l 4.5,0 0,3.125 -4.5,0 0,-3.125 z m 6.4375,0 6.1875,0 0,3.125 -6.1875,0 0,-3.125 z m 8,0 3.5625,0 0,3.125 -3.5625,0 0,-3.125 z m -13.90625,4.21875 6.21875,0 0,3.09375 -6.21875,0 0,-3.09375 z m 8.03125,0 6.1875,0 0,3.09375 -6.1875,0 0,-3.09375 z m 8,0 1.4375,0 0,3.09375 -1.4375,0 0,-3.09375 z M 2,18.40625 l 4.25,0 L 6.25,20 2,20 2,18.40625 z m 6.09375,0 6.1875,0 0,1.59375 -6.1875,0 0,-1.59375 z m 7.96875,0 3.9375,0 0,1.59375 -3.9375,0 0,-1.59375 z"
         transform="translate(0,1030.3622)"
         id="rect3001-7-4"
         style="fill:#649be6;fill-opacity:1;fill-rule:nonzero;stroke:none" />
      <g
         transform="translate(3,1033.8577)"
         id="layer1-8">
        <g
           id="text5399"
           style="font-size:7px;font-style:normal;font-variant:normal;font-weight:bold;font-stretch:normal;line-height:125%;letter-spacing:0px;word-spacing:0px;fill:#000000;fill-opacity:1;stroke:none;font-family:Arial;-inkscape-font-specification:Arial Bold" />
        <g
           transform="translate(0,-1036.4247)"
           id="layer1-3">
          <g
             transform="scale(0.89723629,1.1145336)"
             id="text5639"
             style="font-size:7.97739649px;font-style:normal;font-variant:normal;font-weight:bold;font-stretch:normal;line-height:125%;letter-spacing:0px;word-spacing:0px;fill:#cccccc;fill-opacity:1;stroke:none;font-family:Arial;-inkscape-font-specification:Arial Bold" />
          <g
             transform="scale(1.0195853,0.98079088)"
             id="text6068"
             style="font-size:6.62408876px;font-style:normal;font-variant:normal;font-weight:bold;font-stretch:normal;line-height:125%;letter-spacing:0px;word-spacing:0px;fill:#000000;fill-opacity:1;stroke:none;font-family:Arial;-inkscape-font-specification:Arial Bold" />
          <g
             id="text6125"
             style="font-size:6px;font-style:normal;font-variant:normal;font-weight:bold;font-stretch:normal;line-height:125%;letter-spacing:0px;word-spacing:0px;fill:#000000;fill-opacity:1;stroke:none;font-family:Arial;-inkscape-font-specification:Arial Bold" />
        </g>
        <g
           transform="translate(0,-1036.3622)"
           id="layer1-84">
          <g
             transform="scale(0.93557544,1.0688609)"
             id="text7308"
             style="font-size:8.03458023px;font-style:normal;font-variant:normal;font-weight:bold;font-stretch:normal;line-height:125%;letter-spacing:0px;word-spacing:0px;fill:#ffffff;fill-opacity:1;stroke:none;font-family:Arial;-inkscape-font-specification:Arial Bold" />
        </g>
        <g
           transform="scale(0.9686171,1.0323997)"
           id="text5724"
           style="font-size:9.88508701px;font-style:normal;font-variant:normal;font-weight:bold;font-stretch:normal;line-height:125%;letter-spacing:0px;word-spacing:0px;fill:#ffffff;fill-opacity:1;stroke:none;font-family:Arial;-inkscape-font-specification:Arial Bold" />
        <g
           id="text5751"
           style="font-size:7px;font-style:normal;font-variant:normal;font-weight:bold;font-stretch:normal;line-height:125%;letter-spacing:0px;word-spacing:0px;fill:#ffffff;fill-opacity:1;stroke:none;font-family:Arial;-inkscape-font-specification:Arial Bold" />
        <g
           id="layer1-37">
          <g
             id="text5141"
             style="font-size:7px;font-style:normal;font-variant:normal;font-weight:bold;font-stretch:normal;line-height:125%;letter-spacing:0px;word-spacing:0px;fill:#000000;fill-opacity:1;stroke:none;font-family:Arial;-inkscape-font-specification:Arial Bold" />
        </g>
        <g
           transform="scale(1.0995518,0.90946149)"
           id="text5804"
           style="font-size:6.36623049px;font-style:normal;font-variant:normal;font-weight:bold;font-stretch:normal;line-height:125%;letter-spacing:0px;word-spacing:0px;fill:#000000;fill-opacity:1;stroke:none;font-family:Arial;-inkscape-font-specification:Arial Bold" />
        <g
           transform="scale(0.94725198,1.0556853)"
           id="text5938"
           style="font-size:7px;font-style:normal;font-variant:normal;font-weight:bold;font-stretch:normal;line-height:125%;letter-spacing:0px;word-spacing:0px;fill:#000000;fill-opacity:1;stroke:none;font-family:Arial;-inkscape-font-specification:Arial Bold" />
      </g>
      <g
         transform="matrix(1.125,0,0,1.125,2,-133.54527)"
         id="layer1-83">
        <g
           id="text7004"
           style="font-size:6px;font-style:normal;font-variant:normal;font-weight:bold;font-stretch:normal;line-height:125%;letter-spacing:0px;word-spacing:0px;fill:#000000;fill-opacity:1;stroke:none;font-family:Arial;-inkscape-font-specification:Arial Bold" />
      </g>
    </g>
  </g>
</svg>
