<?xml version="1.0" encoding="UTF-8" standalone="no"?>
<!-- Created with Inkscape (http://www.inkscape.org/) -->

<svg
   xmlns:dc="http://purl.org/dc/elements/1.1/"
   xmlns:cc="http://creativecommons.org/ns#"
   xmlns:rdf="http://www.w3.org/1999/02/22-rdf-syntax-ns#"
   xmlns:svg="http://www.w3.org/2000/svg"
   xmlns="http://www.w3.org/2000/svg"
   version="1.1"
   width="22"
   height="22"
   id="svg15992">
  <defs
     id="defs15994" />
  <metadata
     id="metadata15997">
    <rdf:RDF>
      <cc:Work
         rdf:about="">
        <dc:format>image/svg+xml</dc:format>
        <dc:type
           rdf:resource="http://purl.org/dc/dcmitype/StillImage" />
        <dc:title></dc:title>
      </cc:Work>
    </rdf:RDF>
  </metadata>
  <g
     transform="translate(0,-1030.3622)"
     id="layer1">
    <path
       d="M 3.65625,0 C 1.6318877,0 0.01600491,1.6859888 0,3.78125 -7.9912669e-5,3.7917117 0,3.8020181 0,3.8125 l 0,14.375 C 0,20.2973 1.62178,22 3.65625,22 l 14.6875,0 C 20.37823,22 22,20.2973 22,18.1875 l 0,-14.375 c 0,-0.010482 8e-5,-0.020788 0,-0.03125 C 21.983995,1.6859888 20.368122,0 18.34375,0 l -13.125,0 -1.5625,0 z m 1.5625,1.375 2.21875,0 0,2.40625 7.5625,0 0,-2.40625 2.1875,0 0,2.40625 3.4375,0 0,1.21875 -0.375,0 0,3.78125 0.375,0 0,10.5 -3.4375,0 0,1.34375 -2.1875,0 0,-1.34375 -7.5625,0 0,1.34375 -2.21875,0 0,-1.34375 -3.84375,0 0,-10.5 6.875,0 L 8.25,5 1.375,5 l 0,-1.21875 3.84375,0 0,-2.40625 z M 10.5,5 l 0,3.78125 7.5625,0 L 18.0625,5 10.5,5 z m -3.25,5.5625 c -0.959388,0 -1.7550379,0.334325 -2.34375,0.96875 -0.5887149,0.634425 -0.84375,1.54075 -0.84375,2.6875 0,1.08405 0.2581505,1.906175 0.84375,2.53125 0.5855968,0.625075 1.3716998,0.96875 2.28125,0.96875 0.7351086,0 1.3031096,-0.197437 1.78125,-0.5625 C 9.4468795,16.791187 9.7944115,16.220738 10,15.46875 L 8.65625,15.03125 C 8.540999,15.535737 8.38976,15.921263 8.125,16.15625 7.8602304,16.391787 7.5550523,16.5 7.1875,16.5 6.6891145,16.5 6.2489865,16.307237 5.9375,15.9375 5.6260094,15.567762 5.4687486,14.964812 5.46875,14.09375 c -1.4e-6,-0.820875 0.152587,-1.383425 0.46875,-1.75 0.3161589,-0.366575 0.7422697,-0.5625 1.25,-0.5625 0.3675523,0 0.6805181,0.07404 0.9375,0.28125 0.2569737,0.2068 0.4190086,0.517775 0.5,0.875 L 10,12.59375 C 9.8442492,12.042238 9.6239824,11.638275 9.3125,11.34375 8.7891942,10.845587 8.0878994,10.5625 7.25,10.5625 z m 8,0 c -0.959388,0 -1.755038,0.334325 -2.34375,0.96875 -0.588714,0.634425 -0.875,1.54075 -0.875,2.6875 0,1.08405 0.2894,1.906175 0.875,2.53125 0.585597,0.625075 1.340451,0.96875 2.25,0.96875 0.73511,0 1.33436,-0.197437 1.8125,-0.5625 0.478129,-0.365063 0.825661,-0.935512 1.03125,-1.6875 l -1.34375,-0.4375 c -0.115251,0.504487 -0.32899,0.890013 -0.59375,1.125 C 15.79773,16.391787 15.492554,16.5 15.125,16.5 c -0.498384,0 -0.876013,-0.192763 -1.1875,-0.5625 -0.311491,-0.369738 -0.468753,-0.972688 -0.46875,-1.84375 -3e-6,-0.820875 0.152587,-1.383425 0.46875,-1.75 0.316159,-0.366575 0.711021,-0.5625 1.21875,-0.5625 0.367552,0 0.680518,0.07404 0.9375,0.28125 0.256974,0.2068 0.450256,0.517775 0.53125,0.875 L 18,12.59375 c -0.155751,-0.551512 -0.438518,-0.955475 -0.75,-1.25 -0.523306,-0.498163 -1.162101,-0.78125 -2,-0.78125 z"
       transform="translate(0,1030.3622)"
       id="rect3001-7-4"
       style="fill:#649be6;fill-opacity:1;fill-rule:nonzero;stroke:none" />
    <g
       transform="translate(3,1033.8577)"
       id="layer1-8">
      <g
         id="text5399"
         style="font-size:7px;font-style:normal;font-variant:normal;font-weight:bold;font-stretch:normal;line-height:125%;letter-spacing:0px;word-spacing:0px;fill:#000000;fill-opacity:1;stroke:none;font-family:Arial;-inkscape-font-specification:Arial Bold" />
      <g
         transform="translate(0,-1036.4247)"
         id="layer1-3">
        <g
           transform="scale(0.89723629,1.1145336)"
           id="text5639"
           style="font-size:7.97739649px;font-style:normal;font-variant:normal;font-weight:bold;font-stretch:normal;line-height:125%;letter-spacing:0px;word-spacing:0px;fill:#cccccc;fill-opacity:1;stroke:none;font-family:Arial;-inkscape-font-specification:Arial Bold" />
        <g
           transform="scale(1.0195853,0.98079088)"
           id="text6068"
           style="font-size:6.62408876px;font-style:normal;font-variant:normal;font-weight:bold;font-stretch:normal;line-height:125%;letter-spacing:0px;word-spacing:0px;fill:#000000;fill-opacity:1;stroke:none;font-family:Arial;-inkscape-font-specification:Arial Bold" />
        <g
           id="text6125"
           style="font-size:6px;font-style:normal;font-variant:normal;font-weight:bold;font-stretch:normal;line-height:125%;letter-spacing:0px;word-spacing:0px;fill:#000000;fill-opacity:1;stroke:none;font-family:Arial;-inkscape-font-specification:Arial Bold" />
      </g>
      <g
         transform="translate(0,-1036.3622)"
         id="layer1-84">
        <g
           transform="scale(0.93557544,1.0688609)"
           id="text7308"
           style="font-size:8.03458023px;font-style:normal;font-variant:normal;font-weight:bold;font-stretch:normal;line-height:125%;letter-spacing:0px;word-spacing:0px;fill:#ffffff;fill-opacity:1;stroke:none;font-family:Arial;-inkscape-font-specification:Arial Bold" />
      </g>
      <g
         transform="scale(0.9686171,1.0323997)"
         id="text5724"
         style="font-size:9.88508701px;font-style:normal;font-variant:normal;font-weight:bold;font-stretch:normal;line-height:125%;letter-spacing:0px;word-spacing:0px;fill:#ffffff;fill-opacity:1;stroke:none;font-family:Arial;-inkscape-font-specification:Arial Bold" />
      <g
         id="text5751"
         style="font-size:7px;font-style:normal;font-variant:normal;font-weight:bold;font-stretch:normal;line-height:125%;letter-spacing:0px;word-spacing:0px;fill:#ffffff;fill-opacity:1;stroke:none;font-family:Arial;-inkscape-font-specification:Arial Bold" />
      <g
         id="layer1-37">
        <g
           id="text5141"
           style="font-size:7px;font-style:normal;font-variant:normal;font-weight:bold;font-stretch:normal;line-height:125%;letter-spacing:0px;word-spacing:0px;fill:#000000;fill-opacity:1;stroke:none;font-family:Arial;-inkscape-font-specification:Arial Bold" />
      </g>
      <g
         transform="scale(1.0995518,0.90946149)"
         id="text5804"
         style="font-size:6.36623049px;font-style:normal;font-variant:normal;font-weight:bold;font-stretch:normal;line-height:125%;letter-spacing:0px;word-spacing:0px;fill:#000000;fill-opacity:1;stroke:none;font-family:Arial;-inkscape-font-specification:Arial Bold" />
      <g
         transform="scale(0.94725198,1.0556853)"
         id="text5938"
         style="font-size:7px;font-style:normal;font-variant:normal;font-weight:bold;font-stretch:normal;line-height:125%;letter-spacing:0px;word-spacing:0px;fill:#000000;fill-opacity:1;stroke:none;font-family:Arial;-inkscape-font-specification:Arial Bold" />
    </g>
    <g
       transform="matrix(1.3669903,0,0,1.375,30.30548,-396.96631)"
       id="layer1-849">
      <g
         id="text7004"
         style="font-size:6px;font-style:normal;font-variant:normal;font-weight:bold;font-stretch:normal;line-height:125%;letter-spacing:0px;word-spacing:0px;fill:#000000;fill-opacity:1;stroke:none;font-family:Arial;-inkscape-font-specification:Arial Bold" />
    </g>
  </g>
</svg>
