<?xml version="1.0" encoding="UTF-8" standalone="no"?>
<!-- Created with Inkscape (http://www.inkscape.org/) -->

<svg
   xmlns:dc="http://purl.org/dc/elements/1.1/"
   xmlns:cc="http://creativecommons.org/ns#"
   xmlns:rdf="http://www.w3.org/1999/02/22-rdf-syntax-ns#"
   xmlns:svg="http://www.w3.org/2000/svg"
   xmlns="http://www.w3.org/2000/svg"
   version="1.1"
   width="22"
   height="22"
   id="svg15992">
  <defs
     id="defs15994" />
  <metadata
     id="metadata15997">
    <rdf:RDF>
      <cc:Work
         rdf:about="">
        <dc:format>image/svg+xml</dc:format>
        <dc:type
           rdf:resource="http://purl.org/dc/dcmitype/StillImage" />
        <dc:title></dc:title>
      </cc:Work>
    </rdf:RDF>
  </metadata>
  <g
     id="g11909">
    <path
       d="m 2.891917,1.4915225 17.095697,0 L 22,3.9486935 22,18.424603 17.466586,22 2.921179,22 0.660128,18.7386 0.577598,4.0073375 z"
       id="rect3155"
       style="fill:#ffffff;fill-opacity:1;fill-rule:nonzero;stroke:none" />
    <g
       transform="translate(0,-1030.3622)"
       id="layer1">
      <path
         d="M 3.65625,0 C 1.62178,0 0,1.7027 0,3.8125 l 0,14.375 C 0,20.2973 1.62178,22 3.65625,22 l 14.6875,0 C 20.37823,22 22,20.2973 22,18.1875 L 22,3.8125 C 22,1.7027 20.37823,0 18.34375,0 L 3.65625,0 z M 11,2 c 4.970563,0 9,4.0294125 9,9 0,4.970587 -4.029437,9 -9,9 C 6.0294371,20 2,15.970587 2,11 2,6.0294125 6.0294371,2 11,2 z M 10.09375,3.75 C 9.7847969,3.788925 9.451953,3.861 9.15625,3.9375 8.7865446,4.674375 8.4587384,5.4499625 8.21875,6.3125 l 1.875,0 0,-2.53125 c 0,-0.01125 -6.13e-4,-0.02 0,-0.03125 z m 1.8125,0 c 6.13e-4,0.01125 0,0.02 0,0.03125 l 0,2.53125 1.71875,0 C 13.379023,5.44535 13.064798,4.6447 12.6875,3.90625 12.436614,3.846625 12.166391,3.782625 11.90625,3.75 z m 2.90625,1.03125 c 0.204481,0.4894875 0.34721,0.9938375 0.5,1.53125 l 1.3125,0 C 16.1148,5.7024125 15.493893,5.1982875 14.8125,4.78125 z M 7.03125,4.875 C 6.4191578,5.273475 5.841974,5.7541625 5.375,6.3125 l 1.15625,0 c 0.139509,-0.500625 0.3155585,-0.9776 0.5,-1.4375 z m 10.6875,3.21875 C 17.65974,8.11175 17.565014,8.125 17.5,8.125 l -1.78125,0 c 0.100361,0.639 0.13339,1.2906 0.15625,1.96875 l 2.375,0 c -0.08836,-0.7007625 -0.259074,-1.375625 -0.53125,-2 z M 4.25,8.125 C 3.987992,8.737 3.83631,9.4093 3.75,10.09375 l 2.21875,0 C 5.9887255,9.4150375 6.0898613,8.765125 6.1875,8.125 l -1.9375,0 z m 3.59375,0 C 7.747698,8.7600625 7.676095,9.419425 7.65625,10.09375 l 2.4375,0 0,-1.96875 -2.25,0 z m 4.0625,0 0,1.96875 2.28125,0 C 14.164751,9.4188625 14.13034,8.75995 14.03125,8.125 l -2.125,0 z M 3.75,11.90625 c 0.086304,0.68445 0.237992,1.356751 0.5,1.96875 l 2.0625,0 C 6.1783899,13.234651 6.0547537,12.590138 6,11.90625 l -2.25,0 z m 3.9375,0 c 0.053332,0.683325 0.1497465,1.329863 0.28125,1.96875 l 2.125,0 0,-1.96875 -2.40625,0 z m 4.21875,0 0,1.96875 2,0 c 0.126853,-0.630561 0.230332,-1.295438 0.28125,-1.96875 l -2.28125,0 z m 3.9375,0 c -0.05224,0.671062 -0.15251,1.339201 -0.28125,1.96875 l 2.1875,0 c 0.262008,-0.611999 0.41369,-1.2843 0.5,-1.96875 l -2.40625,0 z m -10.4375,3.8125 c 0.6013856,0.709425 1.3588059,1.311362 2.1875,1.75 -0.291285,-0.5544 -0.592855,-1.116512 -0.8125,-1.75 l -1.375,0 z m 3.0625,0 c 0.3173321,0.922162 0.7201445,1.75255 1.1875,2.5 0.1357841,0.02362 0.2991981,0.01438 0.4375,0.03125 l 0,-2.53125 -1.625,0 z m 3.4375,0 0,2.53125 c 0.115523,-0.01462 0.261221,-0.011 0.375,-0.03125 0.454606,-0.739913 0.846923,-1.592575 1.15625,-2.5 l -1.53125,0 z m 3.21875,0 c -0.218845,0.641025 -0.489273,1.2201 -0.78125,1.78125 0.857266,-0.442125 1.631798,-1.051913 2.25,-1.78125 l -1.46875,0 z"
         transform="translate(0,1030.3622)"
         id="rect3001-7-4"
         style="fill:#649be6;fill-opacity:1;fill-rule:nonzero;stroke:none" />
      <g
         transform="translate(3,1033.8577)"
         id="layer1-8">
        <g
           id="text5399"
           style="font-size:7px;font-style:normal;font-variant:normal;font-weight:bold;font-stretch:normal;line-height:125%;letter-spacing:0px;word-spacing:0px;fill:#000000;fill-opacity:1;stroke:none;font-family:Arial;-inkscape-font-specification:Arial Bold" />
        <g
           transform="translate(0,-1036.4247)"
           id="layer1-3">
          <g
             transform="scale(0.89723629,1.1145336)"
             id="text5639"
             style="font-size:7.97739649px;font-style:normal;font-variant:normal;font-weight:bold;font-stretch:normal;line-height:125%;letter-spacing:0px;word-spacing:0px;fill:#cccccc;fill-opacity:1;stroke:none;font-family:Arial;-inkscape-font-specification:Arial Bold" />
          <g
             transform="scale(1.0195853,0.98079088)"
             id="text6068"
             style="font-size:6.62408876px;font-style:normal;font-variant:normal;font-weight:bold;font-stretch:normal;line-height:125%;letter-spacing:0px;word-spacing:0px;fill:#000000;fill-opacity:1;stroke:none;font-family:Arial;-inkscape-font-specification:Arial Bold" />
          <g
             id="text6125"
             style="font-size:6px;font-style:normal;font-variant:normal;font-weight:bold;font-stretch:normal;line-height:125%;letter-spacing:0px;word-spacing:0px;fill:#000000;fill-opacity:1;stroke:none;font-family:Arial;-inkscape-font-specification:Arial Bold" />
        </g>
        <g
           transform="translate(0,-1036.3622)"
           id="layer1-84">
          <g
             transform="scale(0.93557544,1.0688609)"
             id="text7308"
             style="font-size:8.03458023px;font-style:normal;font-variant:normal;font-weight:bold;font-stretch:normal;line-height:125%;letter-spacing:0px;word-spacing:0px;fill:#ffffff;fill-opacity:1;stroke:none;font-family:Arial;-inkscape-font-specification:Arial Bold" />
        </g>
        <g
           transform="scale(0.9686171,1.0323997)"
           id="text5724"
           style="font-size:9.88508701px;font-style:normal;font-variant:normal;font-weight:bold;font-stretch:normal;line-height:125%;letter-spacing:0px;word-spacing:0px;fill:#ffffff;fill-opacity:1;stroke:none;font-family:Arial;-inkscape-font-specification:Arial Bold" />
        <g
           id="text5751"
           style="font-size:7px;font-style:normal;font-variant:normal;font-weight:bold;font-stretch:normal;line-height:125%;letter-spacing:0px;word-spacing:0px;fill:#ffffff;fill-opacity:1;stroke:none;font-family:Arial;-inkscape-font-specification:Arial Bold" />
        <g
           id="layer1-37">
          <g
             id="text5141"
             style="font-size:7px;font-style:normal;font-variant:normal;font-weight:bold;font-stretch:normal;line-height:125%;letter-spacing:0px;word-spacing:0px;fill:#000000;fill-opacity:1;stroke:none;font-family:Arial;-inkscape-font-specification:Arial Bold" />
        </g>
        <g
           transform="scale(1.0995518,0.90946149)"
           id="text5804"
           style="font-size:6.36623049px;font-style:normal;font-variant:normal;font-weight:bold;font-stretch:normal;line-height:125%;letter-spacing:0px;word-spacing:0px;fill:#000000;fill-opacity:1;stroke:none;font-family:Arial;-inkscape-font-specification:Arial Bold" />
        <g
           transform="scale(0.94725198,1.0556853)"
           id="text5938"
           style="font-size:7px;font-style:normal;font-variant:normal;font-weight:bold;font-stretch:normal;line-height:125%;letter-spacing:0px;word-spacing:0px;fill:#000000;fill-opacity:1;stroke:none;font-family:Arial;-inkscape-font-specification:Arial Bold" />
      </g>
      <g
         transform="matrix(1.3669903,0,0,1.375,30.30548,-396.96631)"
         id="layer1-849">
        <g
           id="text7004"
           style="font-size:6px;font-style:normal;font-variant:normal;font-weight:bold;font-stretch:normal;line-height:125%;letter-spacing:0px;word-spacing:0px;fill:#000000;fill-opacity:1;stroke:none;font-family:Arial;-inkscape-font-specification:Arial Bold" />
      </g>
      <g
         transform="matrix(1.125,0,0,1.125,2,1032.3622)"
         id="layer1-9" />
    </g>
  </g>
</svg>
