<?xml version="1.0" encoding="UTF-8" standalone="no"?>
<!-- Created with Inkscape (http://www.inkscape.org/) -->

<svg
   xmlns:dc="http://purl.org/dc/elements/1.1/"
   xmlns:cc="http://creativecommons.org/ns#"
   xmlns:rdf="http://www.w3.org/1999/02/22-rdf-syntax-ns#"
   xmlns:svg="http://www.w3.org/2000/svg"
   xmlns="http://www.w3.org/2000/svg"
   version="1.1"
   width="22"
   height="22"
   id="svg15992">
  <defs
     id="defs15994" />
  <metadata
     id="metadata15997">
    <rdf:RDF>
      <cc:Work
         rdf:about="">
        <dc:format>image/svg+xml</dc:format>
        <dc:type
           rdf:resource="http://purl.org/dc/dcmitype/StillImage" />
        <dc:title></dc:title>
      </cc:Work>
    </rdf:RDF>
  </metadata>
  <g
     id="g15279">
    <path
       d="m 2.891918,1.4915237 17.095696,0 L 22,3.9486947 l 0,14.4759103 -4.533414,3.575397 -14.545406,0 -2.261052,-3.2614 -0.08253,-14.7312633 z"
       id="rect3155"
       style="fill:#ffffff;fill-opacity:1;fill-rule:nonzero;stroke:none" />
    <g
       transform="translate(0,-1030.3622)"
       id="layer1">
      <path
         d="M 3.65625,0 C 1.62178,0 0,1.7027 0,3.8125 l 0,7.90625 0,6.46875 C 0,20.2973 1.62178,22 3.65625,22 l 14.6875,0 C 20.37823,22 22,20.2973 22,18.1875 L 22,11.46875 22,3.8125 C 22,1.7027 20.37823,0 18.34375,0 L 3.65625,0 z m -1.6875,1.875 1.5625,0 0,8.78125 -1.5625,0 0,-8.78125 z m 3.03125,0 3.03125,0 c 0.6068722,1.47e-5 1.0767884,0.035992 1.375,0.09375 0.2982012,0.057758 0.577068,0.1604658 0.8125,0.34375 0.23542,0.1832989 0.405543,0.4451875 0.5625,0.75 0.156944,0.3048418 0.249993,0.6527183 0.25,1.03125 -7e-6,0.4104239 -0.08768,0.7510785 -0.28125,1.09375 -0.193579,0.3426862 -0.449915,0.6099143 -0.78125,0.78125 0.467359,0.1554044 0.811372,0.4379511 1.0625,0.8125 0.251114,0.3745636 0.343743,0.7751938 0.34375,1.28125 -7e-6,0.3984754 -0.02532,0.8109523 -0.1875,1.1875 -0.162189,0.3765477 -0.406739,0.6498591 -0.6875,0.875 -0.280774,0.225126 -0.6509456,0.385694 -1.0625,0.4375 -0.2581021,0.03189 -0.8567078,0.08567 -1.84375,0.09375 L 5,10.65625 5,1.875 z m 7.71875,0 2.3125,0 1.375,6 1.375,-6 2.34375,0 0,8.78125 -1.46875,0 0,-6.90625 -1.5,6.90625 -1.53125,0 -1.5,-6.90625 0,6.90625 -1.40625,0 0,-8.78125 z m -6.1875,1.46875 0,2.03125 1.03125,0 C 8.1658849,5.3750147 8.5410082,5.3320467 8.6875,5.3125 8.9525678,5.2766397 9.1295258,5.2045404 9.28125,5.03125 9.4329639,4.8579154 9.5312448,4.6266641 9.53125,4.34375 9.5312448,4.0727991 9.4432873,3.8256016 9.3125,3.65625 9.1817026,3.486913 9.0080922,3.3796103 8.75,3.34375 c -0.1534675,-0.019988 -0.5835543,0 -1.3125,0 l -0.90625,0 z m 0,3.5 0,2.3125 1.40625,0 c 0.5580432,0 0.9437701,-0.02664 1.09375,-0.0625 C 9.2614397,9.0459852 9.4490011,8.9352978 9.59375,8.75 9.738488,8.564717 9.8124944,8.310794 9.8125,8 9.8124944,7.737 9.7366045,7.5270489 9.625,7.34375 9.5133853,7.1604511 9.3672567,7.0524337 9.15625,6.96875 8.9452334,6.885125 8.4857807,6.84375 7.78125,6.84375 l -1.25,0 z M 2,11.71875 l 18,0 0,7.3125 -18,0 0,-7.3125 z m 6.5,1.03125 0,5.90625 2.03125,0 c 0.760006,-0.0055 1.207516,-0.0405 1.40625,-0.0625 0.31689,-0.03493 0.596309,-0.09834 0.8125,-0.25 0.216181,-0.1518 0.406367,-0.339925 0.53125,-0.59375 0.124873,-0.253825 0.156244,-0.543962 0.15625,-0.8125 -6e-6,-0.341138 -0.05665,-0.62255 -0.25,-0.875 -0.193364,-0.25245 -0.483891,-0.458 -0.84375,-0.5625 0.255122,-0.115362 0.444697,-0.269 0.59375,-0.5 0.149043,-0.230862 0.249995,-0.5046 0.25,-0.78125 -5e-6,-0.255062 -0.09791,-0.482075 -0.21875,-0.6875 -0.120855,-0.205425 -0.22498,-0.345 -0.40625,-0.46875 -0.181279,-0.124162 -0.42664,-0.2115 -0.65625,-0.25 C 11.676632,12.774 11.342282,12.75 10.875,12.75 l -2.375,0 z m 1.21875,1 0.6875,0 c 0.561276,0 0.913082,-0.01375 1.03125,0 0.198727,0.0242 0.336788,0.104625 0.4375,0.21875 0.100704,0.114125 0.156246,0.254763 0.15625,0.4375 -4e-6,0.190575 -0.03943,0.351875 -0.15625,0.46875 -0.116825,0.1166 -0.327152,0.194 -0.53125,0.21875 -0.112797,0.02063 -0.379153,0 -0.84375,0 l -0.78125,0 0,-1.34375 z m 0,2.3125 0.9375,0 c 0.542477,0 0.900021,0.03738 1.0625,0.09375 0.162472,0.05637 0.320308,0.18875 0.40625,0.3125 0.08593,0.123613 0.124996,0.229012 0.125,0.40625 -4e-6,0.20955 -0.07605,0.406125 -0.1875,0.53125 -0.111455,0.1243 -0.229008,0.18575 -0.40625,0.21875 -0.115482,0.022 -0.414066,0.03125 -0.84375,0.03125 l -1.09375,0 0,-1.59375 z"
         transform="translate(0,1030.3622)"
         id="rect3001-7-4"
         style="fill:#649be6;fill-opacity:1;fill-rule:nonzero;stroke:none" />
      <g
         transform="translate(3,1033.8577)"
         id="layer1-8">
        <g
           id="text5399"
           style="font-size:7px;font-style:normal;font-variant:normal;font-weight:bold;font-stretch:normal;line-height:125%;letter-spacing:0px;word-spacing:0px;fill:#000000;fill-opacity:1;stroke:none;font-family:Arial;-inkscape-font-specification:Arial Bold" />
        <g
           transform="translate(0,-1036.4247)"
           id="layer1-3">
          <g
             transform="scale(0.89723629,1.1145336)"
             id="text5639"
             style="font-size:7.97739649px;font-style:normal;font-variant:normal;font-weight:bold;font-stretch:normal;line-height:125%;letter-spacing:0px;word-spacing:0px;fill:#cccccc;fill-opacity:1;stroke:none;font-family:Arial;-inkscape-font-specification:Arial Bold" />
          <g
             transform="scale(1.0195853,0.98079088)"
             id="text6068"
             style="font-size:6.62408876px;font-style:normal;font-variant:normal;font-weight:bold;font-stretch:normal;line-height:125%;letter-spacing:0px;word-spacing:0px;fill:#000000;fill-opacity:1;stroke:none;font-family:Arial;-inkscape-font-specification:Arial Bold" />
          <g
             id="text6125"
             style="font-size:6px;font-style:normal;font-variant:normal;font-weight:bold;font-stretch:normal;line-height:125%;letter-spacing:0px;word-spacing:0px;fill:#000000;fill-opacity:1;stroke:none;font-family:Arial;-inkscape-font-specification:Arial Bold" />
        </g>
        <g
           transform="translate(0,-1036.3622)"
           id="layer1-84">
          <g
             transform="scale(0.93557544,1.0688609)"
             id="text7308"
             style="font-size:8.03458023px;font-style:normal;font-variant:normal;font-weight:bold;font-stretch:normal;line-height:125%;letter-spacing:0px;word-spacing:0px;fill:#ffffff;fill-opacity:1;stroke:none;font-family:Arial;-inkscape-font-specification:Arial Bold" />
        </g>
        <g
           transform="scale(0.9686171,1.0323997)"
           id="text5724"
           style="font-size:9.88508701px;font-style:normal;font-variant:normal;font-weight:bold;font-stretch:normal;line-height:125%;letter-spacing:0px;word-spacing:0px;fill:#ffffff;fill-opacity:1;stroke:none;font-family:Arial;-inkscape-font-specification:Arial Bold" />
        <g
           id="text5751"
           style="font-size:7px;font-style:normal;font-variant:normal;font-weight:bold;font-stretch:normal;line-height:125%;letter-spacing:0px;word-spacing:0px;fill:#ffffff;fill-opacity:1;stroke:none;font-family:Arial;-inkscape-font-specification:Arial Bold" />
        <g
           id="layer1-37">
          <g
             id="text5141"
             style="font-size:7px;font-style:normal;font-variant:normal;font-weight:bold;font-stretch:normal;line-height:125%;letter-spacing:0px;word-spacing:0px;fill:#000000;fill-opacity:1;stroke:none;font-family:Arial;-inkscape-font-specification:Arial Bold" />
        </g>
        <g
           transform="scale(1.0995518,0.90946149)"
           id="text5804"
           style="font-size:6.36623049px;font-style:normal;font-variant:normal;font-weight:bold;font-stretch:normal;line-height:125%;letter-spacing:0px;word-spacing:0px;fill:#000000;fill-opacity:1;stroke:none;font-family:Arial;-inkscape-font-specification:Arial Bold" />
        <g
           transform="scale(0.94725198,1.0556853)"
           id="text5938"
           style="font-size:7px;font-style:normal;font-variant:normal;font-weight:bold;font-stretch:normal;line-height:125%;letter-spacing:0px;word-spacing:0px;fill:#000000;fill-opacity:1;stroke:none;font-family:Arial;-inkscape-font-specification:Arial Bold" />
      </g>
      <g
         transform="matrix(1.3669903,0,0,1.375,30.30548,-396.96631)"
         id="layer1-849">
        <g
           id="text7004"
           style="font-size:6px;font-style:normal;font-variant:normal;font-weight:bold;font-stretch:normal;line-height:125%;letter-spacing:0px;word-spacing:0px;fill:#000000;fill-opacity:1;stroke:none;font-family:Arial;-inkscape-font-specification:Arial Bold" />
      </g>
      <g
         transform="matrix(1.375,0,0,1.375,0,-394.63583)"
         id="layer1-2">
        <g
           transform="scale(0.93557544,1.0688609)"
           id="text7308-2"
           style="font-size:6.13837099px;font-style:normal;font-variant:normal;font-weight:bold;font-stretch:normal;line-height:125%;letter-spacing:0px;word-spacing:0px;fill:#ffffff;fill-opacity:1;stroke:none;font-family:Arial;-inkscape-font-specification:Arial Bold" />
      </g>
      <g
         transform="matrix(1.375,0,0,1.375,26.097206,-407.46806)"
         id="layer1-29" />
      <g
         transform="matrix(1.375,0,0,1.375,0,-394.63583)"
         id="layer1-3-2">
        <g
           transform="scale(0.93557544,1.0688609)"
           id="text7308-5"
           style="font-size:6.13837099px;font-style:normal;font-variant:normal;font-weight:bold;font-stretch:normal;line-height:125%;letter-spacing:0px;word-spacing:0px;fill:#ffffff;fill-opacity:1;stroke:none;font-family:Arial;-inkscape-font-specification:Arial Bold" />
      </g>
      <g
         transform="matrix(1.375,0,0,1.375,0,-394.63583)"
         id="layer1-3-1">
        <g
           transform="scale(0.93557544,1.0688609)"
           id="text7308-7"
           style="font-size:6.13837099px;font-style:normal;font-variant:normal;font-weight:bold;font-stretch:normal;line-height:125%;letter-spacing:0px;word-spacing:0px;fill:#ffffff;fill-opacity:1;stroke:none;font-family:Arial;-inkscape-font-specification:Arial Bold" />
      </g>
      <g
         transform="matrix(1.5,0,0,1.5,-29.444014,-522.91085)"
         id="layer1-6">
        <g
           transform="scale(0.93557544,1.0688609)"
           id="text7308-3"
           style="font-size:6.13837099px;font-style:normal;font-variant:normal;font-weight:bold;font-stretch:normal;line-height:125%;letter-spacing:0px;word-spacing:0px;fill:#ffffff;fill-opacity:1;stroke:none;font-family:Arial;-inkscape-font-specification:Arial Bold" />
      </g>
      <g
         transform="matrix(1.375,0,0,1.375,0,-394.63583)"
         id="layer1-2-2">
        <g
           transform="scale(0.93557544,1.0688609)"
           id="text7308-2-5"
           style="font-size:8.38767338px;font-style:normal;font-variant:normal;font-weight:bold;font-stretch:normal;line-height:125%;letter-spacing:0px;word-spacing:0px;fill:#ffffff;fill-opacity:1;stroke:none;font-family:Arial;-inkscape-font-specification:Arial Bold" />
      </g>
      <g
         transform="matrix(1.375,0,0,1.375,0,-394.63583)"
         id="layer1-96">
        <g
           transform="scale(0.93557544,1.0688609)"
           id="text7308-4"
           style="font-size:7.13911057px;font-style:normal;font-variant:normal;font-weight:bold;font-stretch:normal;line-height:125%;letter-spacing:0px;word-spacing:0px;fill:#ffffff;fill-opacity:1;stroke:none;font-family:Arial;-inkscape-font-specification:Arial Bold" />
        <g
           id="text7599-2"
           style="font-size:6px;font-style:normal;font-variant:normal;font-weight:bold;font-stretch:normal;line-height:125%;letter-spacing:0px;word-spacing:0px;fill:#000000;fill-opacity:1;stroke:none;font-family:Arial;-inkscape-font-specification:Arial Bold" />
      </g>
    </g>
  </g>
</svg>
