<?xml version="1.0" encoding="utf-8"?>
<!-- Generator: Adobe Illustrator 16.0.0, SVG Export Plug-In . SVG Version: 6.00 Build 0)  -->
<!DOCTYPE svg PUBLIC "-//W3C//DTD SVG 1.1//EN" "http://www.w3.org/Graphics/SVG/1.1/DTD/svg11.dtd">
<svg version="1.1" id="图层_1" xmlns="http://www.w3.org/2000/svg" xmlns:xlink="http://www.w3.org/1999/xlink" x="0px" y="0px"
	 width="22px" height="22px" viewBox="0 0 22 22" enable-background="new 0 0 22 22" xml:space="preserve">
<path fill="#608CC1" d="M19.078,0H2.922C1.298,0,0,1.298,0,2.922v16.156C0,20.701,1.298,22,2.922,22h16.156
	C20.701,22,22,20.701,22,19.078V2.922C22,1.298,20.701,0,19.078,0z M8.721,14.791c-0.27,0.416-0.658,0.741-1.164,0.972
	c-0.505,0.232-1.074,0.348-1.707,0.348c-0.802,0-1.474-0.116-2.016-0.351c-0.542-0.233-0.967-0.584-1.274-1.054
	c-0.309-0.47-0.471-1-0.487-1.593l1.105-0.097c0.053,0.443,0.174,0.808,0.365,1.091c0.191,0.284,0.489,0.514,0.892,0.688
	c0.403,0.176,0.856,0.264,1.36,0.264c0.447,0,0.842-0.066,1.184-0.2c0.342-0.132,0.597-0.314,0.765-0.547
	c0.167-0.23,0.25-0.484,0.25-0.759c0-0.276-0.081-0.52-0.242-0.728c-0.161-0.207-0.427-0.381-0.797-0.522
	c-0.238-0.093-0.764-0.236-1.577-0.433c-0.814-0.194-1.384-0.38-1.71-0.552c-0.423-0.223-0.739-0.497-0.946-0.826
	c-0.207-0.328-0.311-0.695-0.311-1.102c0-0.447,0.127-0.865,0.38-1.254c0.254-0.388,0.625-0.684,1.112-0.885
	C4.393,7.051,4.935,6.95,5.531,6.95c0.657,0,1.236,0.106,1.737,0.317C7.77,7.479,8.155,7.79,8.425,8.201
	C8.695,8.612,8.84,9.077,8.86,9.597L7.736,9.682c-0.061-0.56-0.265-0.983-0.614-1.269C6.774,8.126,6.26,7.983,5.579,7.983
	c-0.709,0-1.226,0.13-1.55,0.39C3.705,8.633,3.543,8.946,3.543,9.313c0,0.318,0.115,0.58,0.344,0.785
	c0.226,0.206,0.814,0.417,1.768,0.632c0.952,0.216,1.606,0.405,1.96,0.565c0.516,0.236,0.896,0.539,1.142,0.902
	c0.246,0.365,0.368,0.785,0.368,1.26C9.126,13.93,8.991,14.373,8.721,14.791z M18.311,8.146h-4.805v2.743h4.157v1.045h-4.157v4.025
	h-1.171V7.101h5.976V8.146z"/>
</svg>
