<?xml version="1.0" encoding="UTF-8" standalone="no"?>
<!-- Created with Inkscape (http://www.inkscape.org/) -->

<svg
   xmlns:dc="http://purl.org/dc/elements/1.1/"
   xmlns:cc="http://creativecommons.org/ns#"
   xmlns:rdf="http://www.w3.org/1999/02/22-rdf-syntax-ns#"
   xmlns:svg="http://www.w3.org/2000/svg"
   xmlns="http://www.w3.org/2000/svg"
   version="1.1"
   width="22"
   height="22"
   id="svg2985">
  <defs
     id="defs2987" />
  <metadata
     id="metadata2990">
    <rdf:RDF>
      <cc:Work
         rdf:about="">
        <dc:format>image/svg+xml</dc:format>
        <dc:type
           rdf:resource="http://purl.org/dc/dcmitype/StillImage" />
        <dc:title></dc:title>
      </cc:Work>
    </rdf:RDF>
  </metadata>
  <g
     transform="translate(-16.542373,7.1525424)"
     id="layer1">
    <rect
       width="0"
       height="16.575762"
       x="4.5821676"
       y="-0.052963413"
       id="rect3917"
       style="fill:#0000ff;fill-rule:evenodd;stroke:none" />
    <g
       id="text4015"
       style="font-size:7px;font-style:normal;font-variant:normal;font-weight:bold;font-stretch:normal;line-height:125%;letter-spacing:0px;word-spacing:0px;fill:#ffffff;fill-opacity:1;stroke:none;font-family:Arial;-inkscape-font-specification:Arial Bold" />
  </g>
  <g
     id="g16650">
    <path
       d="m 2.891918,1.4915217 17.095696,0 L 22,3.9486927 22,18.424603 17.466586,22 2.92118,22 0.660128,18.7386 0.577598,4.0073367 z"
       id="rect3155"
       style="fill:#ffffff;fill-opacity:1;fill-rule:nonzero;stroke:none" />
    <path
       d="M 3.6562503,0 C 1.6217773,0 2.9999954e-7,1.7026761 2.9999954e-7,3.8125 l 0,14.375 C 2.9999954e-7,20.297324 1.6217773,22 3.6562503,22 L 18.34375,22 C 20.378224,22 22,20.297324 22,18.1875 L 22,3.8125 C 22.000001,1.7026761 20.378225,0 18.34375,0 L 3.6562503,0 z m 0.03125,2 C 4.6124442,2 5.34375,2.7512669 5.34375,3.6875 5.34375,4.0816542 5.222914,4.4308391 5,4.71875 l 2.03125,4 C 7.08838,8.71279 7.1288,8.6875 7.1875,8.6875 c 0.314837,0 0.623408,0.065821 0.875,0.21875 l 2.65625,-2.5 C 10.65374,6.2254001 10.625,6.0160987 10.625,5.8125 c 0,-0.936233 0.731305,-1.6875 1.65625,-1.6875 0.924944,0 1.6875,0.751267 1.6875,1.6875 0,0.012844 2.81e-4,0.018474 0,0.03125 l 3.25,1.5 c 0.294184,-0.2593725 0.672976,-0.4375 1.09375,-0.4375 0.924944,0 1.6875,0.8137669 1.6875,1.75 0,0.936233 -0.762556,1.6875 -1.6875,1.6875 -0.924944,0 -1.65625,-0.751267 -1.65625,-1.6875 0,-0.051378 -0.0044,-0.1060349 0,-0.15625 L 13.5,7 c -0.305527,0.3294969 -0.737078,0.5 -1.21875,0.5 -0.277484,0 -0.519557,-0.066591 -0.75,-0.1875 L 8.8125,9.90625 c 0.04109,0.146999 0.09375,0.308436 0.09375,0.46875 0,0.936233 -0.793806,1.6875 -1.71875,1.6875 -0.924945,0 -1.65625,-0.751267 -1.65625,-1.6875 0,-0.4055882 0.171532,-0.7707418 0.40625,-1.0625 L 3.9375003,5.34375 c -0.074754,0.010325 -0.1724517,0.03125 -0.25,0.03125 -0.9249451,0 -1.6875,-0.7512669 -1.6875,-1.6875 0,-0.9362331 0.7625549,-1.6875 1.6875,-1.6875 z m -0.03125,11.71875 4.5937497,0 0,0.96875 -3.46875,4.25 3.59375,0 0,1.0625 -5.1249997,0 0,-1.125 3.3124997,-4.09375 -2.9062497,0 0,-1.0625 z m 5.0937497,0 5.03125,0 0,1.0625 -1.90625,0 0,5.21875 -1.25,0 0,-5.21875 -1.875,0 0,-1.0625 z m 5.84375,0 4.6875,0 0,1.0625 -3.40625,0 0,1.40625 3.1875,0 0,1.0625 -3.1875,0 0,1.6875 3.53125,0 0,1.0625 -4.8125,0 0,-6.28125 z"
       id="rect3001-7-4"
       style="fill:#649be6;fill-opacity:1;fill-rule:nonzero;stroke:none" />
  </g>
</svg>
