<?xml version="1.0" encoding="UTF-8" standalone="no"?>
<!-- Created with Inkscape (http://www.inkscape.org/) -->

<svg
   xmlns:dc="http://purl.org/dc/elements/1.1/"
   xmlns:cc="http://creativecommons.org/ns#"
   xmlns:rdf="http://www.w3.org/1999/02/22-rdf-syntax-ns#"
   xmlns:svg="http://www.w3.org/2000/svg"
   xmlns="http://www.w3.org/2000/svg"
   version="1.1"
   width="22"
   height="22"
   id="svg15992">
  <defs
     id="defs15994" />
  <metadata
     id="metadata15997">
    <rdf:RDF>
      <cc:Work
         rdf:about="">
        <dc:format>image/svg+xml</dc:format>
        <dc:type
           rdf:resource="http://purl.org/dc/dcmitype/StillImage" />
        <dc:title></dc:title>
      </cc:Work>
    </rdf:RDF>
  </metadata>
  <g
     id="g13955">
    <path
       d="m 2.891918,1.4915225 17.095696,0 L 22,3.9486935 22,18.424603 17.466586,22 2.92118,22 0.6601279,18.7386 0.5775979,4.0073375 z"
       id="rect3155"
       style="fill:#ffffff;fill-opacity:1;fill-rule:nonzero;stroke:none" />
    <g
       transform="translate(0,-1030.3622)"
       id="layer1">
      <path
         d="M 3.65625,0 C 1.62178,0 0,1.7027 0,3.8125 l 0,14.375 C 0,20.2973 1.62178,22 3.65625,22 l 14.6875,0 C 20.37823,22 22,20.2973 22,18.1875 L 22,3.8125 C 22,1.7027 20.37823,0 18.34375,0 L 3.65625,0 z M 4.9375,3.40625 c 0.7942461,0 1.3971609,0.13555 1.84375,0.46875 0.4465781,0.3331 0.7469828,0.7873 0.875,1.375 L 6.34375,5.5 C 6.253555,5.1858 6.092494,4.96305 5.84375,4.78125 5.594997,4.59935 5.3098918,4.46875 4.9375,4.46875 c -0.5644155,0 -1.0418829,0.2046 -1.375,0.5625 C 3.2293783,5.38905 3.0937482,5.921 3.09375,6.625 c -1.8e-6,0.7593 0.1937644,1.33915 0.53125,1.71875 0.3374812,0.3797 0.7342905,0.5625 1.28125,0.5625 0.2705649,0 0.5404724,-0.0816 0.8125,-0.1875 0.2720189,-0.1058 0.5238191,-0.2237 0.71875,-0.375 l 0,-0.8125 -1.5,0 0,-1.09375 2.8125,0 0,2.53125 C 7.479425,9.23055 7.0759932,9.51955 6.5625,9.71875 6.0489964,9.91805 5.5265868,10 5,10 4.3308483,10 3.7474951,9.87435 3.25,9.59375 2.7525009,9.31295 2.4064524,8.8972 2.15625,8.375 1.9060461,7.8528 1.7499996,7.27005 1.75,6.65625 c -4e-7,-0.6663 0.1582025,-1.2321 0.4375,-1.75 C 2.4667957,4.38845 2.8680201,3.9639 3.40625,3.6875 3.8164647,3.4751 4.3265352,3.40625 4.9375,3.40625 z m 4,0.0625 2.53125,0 c 0.506222,0 0.907497,0.05275 1.15625,0.09375 0.248744,0.043 0.459864,0.1159 0.65625,0.25 0.196375,0.1334 0.369073,0.30865 0.5,0.53125 0.130914,0.2225 0.187494,0.50475 0.1875,0.78125 -6e-6,0.2996 -0.05729,0.5623 -0.21875,0.8125 -0.161474,0.2503 -0.411118,0.4373 -0.6875,0.5625 0.389847,0.1141 0.696771,0.25775 0.90625,0.53125 0.209466,0.2735 0.281243,0.6304 0.28125,1 -7e-6,0.2909 -0.02097,0.6 -0.15625,0.875 -0.135286,0.2749 -0.328303,0.4607 -0.5625,0.625 -0.234207,0.1643 -0.500452,0.2746 -0.84375,0.3125 -0.215295,0.023 -0.77041,0.02525 -1.59375,0.03125 l -2.15625,0 0,-6.40625 z m 6.4375,0 4.75,0 0,1.09375 -3.4375,0 0,1.40625 3.21875,0 0,1.0625 -3.21875,0 0,1.78125 3.5625,0 0,1.0625 -4.875,0 0,-6.40625 z m -5.15625,1.09375 0,1.4375 0.875,0 C 11.597062,6 11.877804,6.015 12,6 12.221106,5.974 12.37344,5.8758 12.5,5.75 12.626552,5.6235 12.718745,5.48785 12.71875,5.28125 12.718745,5.08345 12.64034,4.9361 12.53125,4.8125 12.422146,4.6888 12.277787,4.5886 12.0625,4.5625 c -0.128016,-0.015 -0.4857,0 -1.09375,0 l -0.75,0 z m 0,2.53125 0,1.71875 1.21875,0 c 0.465491,0 0.718644,-0.0355 0.84375,-0.0625 C 12.473262,8.716 12.629258,8.6355 12.75,8.5 12.870733,8.3653 12.937495,8.1644 12.9375,7.9375 12.937495,7.7454 12.905596,7.60255 12.8125,7.46875 12.7194,7.33535 12.582261,7.2485 12.40625,7.1875 12.230231,7.1265 11.837683,7.09375 11.25,7.09375 l -1.03125,0 z M 14,12.375 c 0.842808,0 1.536129,0.28315 2.0625,0.78125 0.313309,0.2946 0.530837,0.6985 0.6875,1.25 L 15.375,14.75 c -0.08147,-0.3573 -0.241521,-0.6683 -0.5,-0.875 -0.258488,-0.2068 -0.567793,-0.3125 -0.9375,-0.3125 -0.510704,0 -0.931989,0.1959 -1.25,0.5625 -0.318015,0.3666 -0.500002,0.96045 -0.5,1.78125 -2e-6,0.8711 0.186684,1.47395 0.5,1.84375 0.313311,0.3696 0.748694,0.5625 1.25,0.5625 0.369706,0 0.671179,-0.10855 0.9375,-0.34375 0.266312,-0.2349 0.44657,-0.6206 0.5625,-1.125 l 1.375,0.4375 c -0.206794,0.752 -0.550319,1.29115 -1.03125,1.65625 -0.48094,0.3649 -1.104334,0.5625 -1.84375,0.5625 -0.91488,0 -1.660972,-0.3124 -2.25,-0.9375 -0.589031,-0.6251 -0.90625,-1.44715 -0.90625,-2.53125 0,-1.1467 0.314086,-2.08425 0.90625,-2.71875 C 12.279661,12.6781 13.03499,12.375 14,12.375 z m -6.34375,0.09375 c 0.6798876,0 1.205237,0.1959 1.59375,0.5625 0.3885044,0.3666 0.5937451,0.8298 0.59375,1.375 -4.9e-6,0.3101 -0.076279,0.56325 -0.1875,0.84375 -0.1112307,0.2804 -0.2587529,0.59915 -0.5,0.90625 -0.159794,0.2036 -0.4582964,0.46155 -0.875,0.84375 -0.4167103,0.3823 -0.7012761,0.65595 -0.8125,0.78125 -0.1112293,0.1251 -0.1810732,0.28715 -0.25,0.40625 l 2.625,0 0,1.1875 -4.65625,0 c 0.05013,-0.4638 0.2180985,-0.86615 0.46875,-1.28125 0.2506501,-0.4152 0.7293279,-1.0014 1.46875,-1.6875 0.5952935,-0.5546 0.990272,-0.9276 1.125,-1.125 0.1817186,-0.2725 0.2499964,-0.5463 0.25,-0.8125 -3.6e-6,-0.2946 -0.06053,-0.5294 -0.21875,-0.6875 -0.1582267,-0.1583 -0.4086537,-0.21875 -0.6875,-0.21875 -0.2757185,0 -0.462079,0.11535 -0.625,0.28125 -0.162925,0.1661 -0.2561866,0.4271 -0.28125,0.8125 L 5.375,14.53125 C 5.453328,13.80445 5.6801752,13.2539 6.09375,12.9375 6.5073228,12.621 7.0358867,12.46875 7.65625,12.46875 z"
         transform="translate(0,1030.3622)"
         id="rect3001-7-4"
         style="fill:#649be6;fill-opacity:1;fill-rule:nonzero;stroke:none" />
      <g
         transform="translate(3,1033.8577)"
         id="layer1-8">
        <g
           id="text5399"
           style="font-size:7px;font-style:normal;font-variant:normal;font-weight:bold;font-stretch:normal;line-height:125%;letter-spacing:0px;word-spacing:0px;fill:#000000;fill-opacity:1;stroke:none;font-family:Arial;-inkscape-font-specification:Arial Bold" />
        <g
           transform="translate(0,-1036.4247)"
           id="layer1-3">
          <g
             transform="scale(0.89723629,1.1145336)"
             id="text5639"
             style="font-size:7.97739649px;font-style:normal;font-variant:normal;font-weight:bold;font-stretch:normal;line-height:125%;letter-spacing:0px;word-spacing:0px;fill:#cccccc;fill-opacity:1;stroke:none;font-family:Arial;-inkscape-font-specification:Arial Bold" />
          <g
             transform="scale(1.0195853,0.98079088)"
             id="text6068"
             style="font-size:6.62408876px;font-style:normal;font-variant:normal;font-weight:bold;font-stretch:normal;line-height:125%;letter-spacing:0px;word-spacing:0px;fill:#000000;fill-opacity:1;stroke:none;font-family:Arial;-inkscape-font-specification:Arial Bold" />
          <g
             id="text6125"
             style="font-size:6px;font-style:normal;font-variant:normal;font-weight:bold;font-stretch:normal;line-height:125%;letter-spacing:0px;word-spacing:0px;fill:#000000;fill-opacity:1;stroke:none;font-family:Arial;-inkscape-font-specification:Arial Bold" />
        </g>
        <g
           transform="translate(0,-1036.3622)"
           id="layer1-84">
          <g
             transform="scale(0.93557544,1.0688609)"
             id="text7308"
             style="font-size:8.03458023px;font-style:normal;font-variant:normal;font-weight:bold;font-stretch:normal;line-height:125%;letter-spacing:0px;word-spacing:0px;fill:#ffffff;fill-opacity:1;stroke:none;font-family:Arial;-inkscape-font-specification:Arial Bold" />
        </g>
        <g
           transform="scale(0.9686171,1.0323997)"
           id="text5724"
           style="font-size:9.88508701px;font-style:normal;font-variant:normal;font-weight:bold;font-stretch:normal;line-height:125%;letter-spacing:0px;word-spacing:0px;fill:#ffffff;fill-opacity:1;stroke:none;font-family:Arial;-inkscape-font-specification:Arial Bold" />
        <g
           id="text5751"
           style="font-size:7px;font-style:normal;font-variant:normal;font-weight:bold;font-stretch:normal;line-height:125%;letter-spacing:0px;word-spacing:0px;fill:#ffffff;fill-opacity:1;stroke:none;font-family:Arial;-inkscape-font-specification:Arial Bold" />
        <g
           id="layer1-37">
          <g
             id="text5141"
             style="font-size:7px;font-style:normal;font-variant:normal;font-weight:bold;font-stretch:normal;line-height:125%;letter-spacing:0px;word-spacing:0px;fill:#000000;fill-opacity:1;stroke:none;font-family:Arial;-inkscape-font-specification:Arial Bold" />
        </g>
        <g
           transform="scale(1.0995518,0.90946149)"
           id="text5804"
           style="font-size:6.36623049px;font-style:normal;font-variant:normal;font-weight:bold;font-stretch:normal;line-height:125%;letter-spacing:0px;word-spacing:0px;fill:#000000;fill-opacity:1;stroke:none;font-family:Arial;-inkscape-font-specification:Arial Bold" />
        <g
           transform="scale(0.94725198,1.0556853)"
           id="text5938"
           style="font-size:7px;font-style:normal;font-variant:normal;font-weight:bold;font-stretch:normal;line-height:125%;letter-spacing:0px;word-spacing:0px;fill:#000000;fill-opacity:1;stroke:none;font-family:Arial;-inkscape-font-specification:Arial Bold" />
      </g>
      <g
         transform="matrix(1.3669903,0,0,1.375,30.30548,-396.96631)"
         id="layer1-849">
        <g
           id="text7004"
           style="font-size:6px;font-style:normal;font-variant:normal;font-weight:bold;font-stretch:normal;line-height:125%;letter-spacing:0px;word-spacing:0px;fill:#000000;fill-opacity:1;stroke:none;font-family:Arial;-inkscape-font-specification:Arial Bold" />
      </g>
      <g
         transform="matrix(1.375,0,0,1.375,0,-394.63583)"
         id="layer1-2">
        <g
           transform="scale(0.93557544,1.0688609)"
           id="text7308-2"
           style="font-size:6.13837099px;font-style:normal;font-variant:normal;font-weight:bold;font-stretch:normal;line-height:125%;letter-spacing:0px;word-spacing:0px;fill:#ffffff;fill-opacity:1;stroke:none;font-family:Arial;-inkscape-font-specification:Arial Bold" />
      </g>
      <g
         transform="matrix(1.375,0,0,1.375,26.097206,-407.46806)"
         id="layer1-29" />
      <g
         transform="matrix(1.375,0,0,1.375,0,-394.63583)"
         id="layer1-3-2">
        <g
           transform="scale(0.93557544,1.0688609)"
           id="text7308-5"
           style="font-size:6.13837099px;font-style:normal;font-variant:normal;font-weight:bold;font-stretch:normal;line-height:125%;letter-spacing:0px;word-spacing:0px;fill:#ffffff;fill-opacity:1;stroke:none;font-family:Arial;-inkscape-font-specification:Arial Bold" />
      </g>
      <g
         transform="matrix(1.375,0,0,1.375,0,-394.63583)"
         id="layer1-3-1">
        <g
           transform="scale(0.93557544,1.0688609)"
           id="text7308-7"
           style="font-size:6.13837099px;font-style:normal;font-variant:normal;font-weight:bold;font-stretch:normal;line-height:125%;letter-spacing:0px;word-spacing:0px;fill:#ffffff;fill-opacity:1;stroke:none;font-family:Arial;-inkscape-font-specification:Arial Bold" />
      </g>
      <g
         transform="matrix(1.5,0,0,1.5,-29.444014,-522.91085)"
         id="layer1-6">
        <g
           transform="scale(0.93557544,1.0688609)"
           id="text7308-3"
           style="font-size:6.13837099px;font-style:normal;font-variant:normal;font-weight:bold;font-stretch:normal;line-height:125%;letter-spacing:0px;word-spacing:0px;fill:#ffffff;fill-opacity:1;stroke:none;font-family:Arial;-inkscape-font-specification:Arial Bold" />
      </g>
      <g
         transform="matrix(1.375,0,0,1.375,0,-394.63583)"
         id="layer1-2-2">
        <g
           transform="scale(0.93557544,1.0688609)"
           id="text7308-2-5"
           style="font-size:8.38767338px;font-style:normal;font-variant:normal;font-weight:bold;font-stretch:normal;line-height:125%;letter-spacing:0px;word-spacing:0px;fill:#ffffff;fill-opacity:1;stroke:none;font-family:Arial;-inkscape-font-specification:Arial Bold" />
      </g>
      <g
         transform="translate(9.0931163,1049.8819)"
         id="g18814">
        <g
           transform="translate(0,-1036.3622)"
           id="layer1-1">
          <g
             transform="scale(0.93557544,1.0688609)"
             id="text7308-29"
             style="font-size:8.38767338px;font-style:normal;font-variant:normal;font-weight:bold;font-stretch:normal;line-height:125%;letter-spacing:0px;word-spacing:0px;fill:#ffffff;fill-opacity:1;stroke:none;font-family:Arial;-inkscape-font-specification:Arial Bold" />
        </g>
        <g
           id="text3074"
           style="font-size:7px;font-style:normal;font-variant:normal;font-weight:bold;font-stretch:normal;line-height:125%;letter-spacing:0px;word-spacing:0px;fill:#ffffff;fill-opacity:1;stroke:none;font-family:Arial;-inkscape-font-specification:Arial Bold" />
        <g
           id="text3330"
           style="font-size:7px;font-style:normal;font-variant:normal;font-weight:bold;font-stretch:normal;line-height:125%;letter-spacing:0px;word-spacing:0px;fill:#ffffff;fill-opacity:1;stroke:none;font-family:Arial;-inkscape-font-specification:Arial Bold" />
        <g
           id="text3334"
           style="font-size:7px;font-style:normal;font-variant:normal;font-weight:bold;font-stretch:normal;line-height:125%;letter-spacing:0px;word-spacing:0px;fill:#ffffff;fill-opacity:1;stroke:none;font-family:Arial;-inkscape-font-specification:Arial Bold" />
      </g>
    </g>
  </g>
</svg>
