<?xml version="1.0" encoding="UTF-8" standalone="no"?>
<!-- Created with Inkscape (http://www.inkscape.org/) -->

<svg
   xmlns:dc="http://purl.org/dc/elements/1.1/"
   xmlns:cc="http://creativecommons.org/ns#"
   xmlns:rdf="http://www.w3.org/1999/02/22-rdf-syntax-ns#"
   xmlns:svg="http://www.w3.org/2000/svg"
   xmlns="http://www.w3.org/2000/svg"
   version="1.1"
   width="22"
   height="22"
   id="svg15992">
  <defs
     id="defs15994" />
  <metadata
     id="metadata15997">
    <rdf:RDF>
      <cc:Work
         rdf:about="">
        <dc:format>image/svg+xml</dc:format>
        <dc:type
           rdf:resource="http://purl.org/dc/dcmitype/StillImage" />
        <dc:title></dc:title>
      </cc:Work>
    </rdf:RDF>
  </metadata>
  <g
     id="g12748">
    <path
       d="m 2.8919179,1.4915217 17.0956961,0 L 22,3.9486927 22,18.424603 17.466586,22 2.9211799,22 0.660128,18.7386 0.577598,4.0073367 z"
       id="rect3155"
       style="fill:#ffffff;fill-opacity:1;fill-rule:nonzero;stroke:none" />
    <g
       transform="translate(0,-1030.3622)"
       id="layer1">
      <path
         d="M 3.65625,0 C 1.62178,0 0,1.7027 0,3.8125 l 0,14.375 C 0,20.2973 1.62178,22 3.65625,22 l 14.6875,0 C 20.37823,22 22,20.2973 22,18.1875 L 22,3.8125 C 22,1.7027 20.37823,0 18.34375,0 L 3.65625,0 z m 7.6875,7.09375 c 0.806697,1.47e-5 1.464932,0.2677617 1.96875,0.8125 0.299884,0.3220665 0.506301,0.8032535 0.65625,1.40625 L 12.6875,9.65625 C 12.609524,9.2656815 12.403654,8.9448755 12.15625,8.71875 11.908838,8.4926245 11.603865,8.4062647 11.25,8.40625 c -0.488822,1.47e-5 -0.851866,0.2241438 -1.15625,0.625 -0.3043891,0.4008562 -0.4687518,1.039861 -0.46875,1.9375 -1.8e-6,0.952458 0.1688592,1.595719 0.46875,2 0.299886,0.404281 0.676425,0.59375 1.15625,0.59375 0.353865,0 0.65134,-0.118011 0.90625,-0.375 0.254901,-0.256959 0.451536,-0.635898 0.5625,-1.1875 L 14,12.46875 c -0.197933,0.822273 -0.508425,1.444614 -0.96875,1.84375 -0.460333,0.399152 -1.073517,0.59375 -1.78125,0.59375 -0.875678,0 -1.5612109,-0.347744 -2.125,-1.03125 C 8.5612083,13.191494 8.2499996,12.216697 8.25,11.03125 8.2499996,9.7773012 8.5582093,8.8187936 9.125,8.125 9.6917879,7.4312211 10.42009,7.0937647 11.34375,7.09375 z m 6.09375,0 c 0.827689,1.47e-5 1.487899,0.2104463 1.90625,0.625 0.418338,0.4145684 0.604002,0.9641759 0.625,1.65625 l -1.3125,0.0625 C 18.599256,9.050356 18.499928,8.7946014 18.3125,8.625 c -0.187433,-0.1695869 -0.500143,-0.25 -0.875,-0.25 -0.38686,0 -0.687334,0.068451 -0.90625,0.25 -0.140949,0.1165464 -0.218751,0.2734732 -0.21875,0.46875 -1e-6,0.1781698 0.0868,0.3107397 0.21875,0.4375 0.167936,0.1610333 0.570986,0.3565193 1.21875,0.53125 0.647756,0.174731 1.09586,0.375777 1.40625,0.5625 0.31038,0.186723 0.57456,0.426229 0.75,0.75 0.175428,0.323771 0.281244,0.742528 0.28125,1.21875 -6e-6,0.43169 -0.133843,0.810629 -0.34375,1.1875 -0.209928,0.376886 -0.522398,0.629202 -0.90625,0.8125 -0.383863,0.183298 -0.833465,0.3125 -1.40625,0.3125 -0.833693,0 -1.490668,-0.247241 -1.9375,-0.6875 -0.446835,-0.440259 -0.694281,-1.032166 -0.78125,-1.875 l 1.3125,-0.1875 c 0.07796,0.496797 0.230336,0.892026 0.46875,1.125 0.238408,0.232974 0.532646,0.34375 0.9375,0.34375 0.428838,0 0.782577,-0.105187 1,-0.3125 0.217415,-0.20727 0.343746,-0.44123 0.34375,-0.71875 -4e-6,-0.178155 -0.09604,-0.343695 -0.1875,-0.46875 -0.09146,-0.12507 -0.24084,-0.251233 -0.46875,-0.34375 -0.155946,-0.06158 -0.50771,-0.154891 -1.0625,-0.3125 -0.713738,-0.20214 -1.243359,-0.486593 -1.53125,-0.78125 -0.404851,-0.414554 -0.59375,-0.9038522 -0.59375,-1.5 0,-0.3837197 0.122062,-0.7284409 0.3125,-1.0625 0.190428,-0.3340297 0.454131,-0.6065193 0.8125,-0.78125 0.358365,-0.1747307 0.774436,-0.2499853 1.28125,-0.25 z m -15.625,0.125 1.3125,0 0,4.09375 c -1.9e-6,0.647528 0.06076,1.089397 0.09375,1.28125 0.056977,0.308354 0.1918271,0.532027 0.40625,0.71875 0.2144178,0.186723 0.5031348,0.25 0.875,0.25 0.3778562,0 0.6205672,-0.07352 0.8125,-0.25 0.1919244,-0.17645 0.36726,-0.368041 0.40625,-0.625 C 5.757731,12.430541 5.7499962,11.971148 5.75,11.375 l 0,-4.15625 1.34375,0 0,3.9375 c -5.9e-6,0.904502 -0.053032,1.564053 -0.125,1.9375 -0.071979,0.373447 -0.2128272,0.71179 -0.40625,0.96875 -0.1934335,0.25696 -0.4261251,0.4413 -0.75,0.59375 -0.3238843,0.152465 -0.7281973,0.25 -1.25,0.25 -0.6297692,0 -1.1433729,-0.08379 -1.46875,-0.25 C 2.768369,14.490073 2.5014286,14.265528 2.3125,14 2.1235691,13.734472 2.0287269,13.447468 1.96875,13.15625 1.8817818,12.72456 1.8124993,12.092834 1.8125,11.25 l 0,-4.03125 z"
         transform="translate(0,1030.3622)"
         id="rect3001-7-4"
         style="fill:#649be6;fill-opacity:1;fill-rule:nonzero;stroke:none" />
      <g
         transform="translate(3,1033.8577)"
         id="layer1-8">
        <g
           id="text5399"
           style="font-size:7px;font-style:normal;font-variant:normal;font-weight:bold;font-stretch:normal;line-height:125%;letter-spacing:0px;word-spacing:0px;fill:#000000;fill-opacity:1;stroke:none;font-family:Arial;-inkscape-font-specification:Arial Bold" />
        <g
           transform="translate(0,-1036.4247)"
           id="layer1-3">
          <g
             transform="scale(0.89723629,1.1145336)"
             id="text5639"
             style="font-size:7.97739649px;font-style:normal;font-variant:normal;font-weight:bold;font-stretch:normal;line-height:125%;letter-spacing:0px;word-spacing:0px;fill:#cccccc;fill-opacity:1;stroke:none;font-family:Arial;-inkscape-font-specification:Arial Bold" />
          <g
             transform="scale(1.0195853,0.98079088)"
             id="text6068"
             style="font-size:6.62408876px;font-style:normal;font-variant:normal;font-weight:bold;font-stretch:normal;line-height:125%;letter-spacing:0px;word-spacing:0px;fill:#000000;fill-opacity:1;stroke:none;font-family:Arial;-inkscape-font-specification:Arial Bold" />
          <g
             id="text6125"
             style="font-size:6px;font-style:normal;font-variant:normal;font-weight:bold;font-stretch:normal;line-height:125%;letter-spacing:0px;word-spacing:0px;fill:#000000;fill-opacity:1;stroke:none;font-family:Arial;-inkscape-font-specification:Arial Bold" />
        </g>
        <g
           transform="translate(0,-1036.3622)"
           id="layer1-84">
          <g
             transform="scale(0.93557544,1.0688609)"
             id="text7308"
             style="font-size:8.03458023px;font-style:normal;font-variant:normal;font-weight:bold;font-stretch:normal;line-height:125%;letter-spacing:0px;word-spacing:0px;fill:#ffffff;fill-opacity:1;stroke:none;font-family:Arial;-inkscape-font-specification:Arial Bold" />
        </g>
        <g
           transform="scale(0.9686171,1.0323997)"
           id="text5724"
           style="font-size:9.88508701px;font-style:normal;font-variant:normal;font-weight:bold;font-stretch:normal;line-height:125%;letter-spacing:0px;word-spacing:0px;fill:#ffffff;fill-opacity:1;stroke:none;font-family:Arial;-inkscape-font-specification:Arial Bold" />
        <g
           id="text5751"
           style="font-size:7px;font-style:normal;font-variant:normal;font-weight:bold;font-stretch:normal;line-height:125%;letter-spacing:0px;word-spacing:0px;fill:#ffffff;fill-opacity:1;stroke:none;font-family:Arial;-inkscape-font-specification:Arial Bold" />
        <g
           id="layer1-37">
          <g
             id="text5141"
             style="font-size:7px;font-style:normal;font-variant:normal;font-weight:bold;font-stretch:normal;line-height:125%;letter-spacing:0px;word-spacing:0px;fill:#000000;fill-opacity:1;stroke:none;font-family:Arial;-inkscape-font-specification:Arial Bold" />
        </g>
        <g
           transform="scale(1.0995518,0.90946149)"
           id="text5804"
           style="font-size:6.36623049px;font-style:normal;font-variant:normal;font-weight:bold;font-stretch:normal;line-height:125%;letter-spacing:0px;word-spacing:0px;fill:#000000;fill-opacity:1;stroke:none;font-family:Arial;-inkscape-font-specification:Arial Bold" />
        <g
           transform="scale(0.94725198,1.0556853)"
           id="text5938"
           style="font-size:7px;font-style:normal;font-variant:normal;font-weight:bold;font-stretch:normal;line-height:125%;letter-spacing:0px;word-spacing:0px;fill:#000000;fill-opacity:1;stroke:none;font-family:Arial;-inkscape-font-specification:Arial Bold" />
      </g>
      <g
         transform="matrix(1.3669903,0,0,1.375,30.30548,-396.96631)"
         id="layer1-849">
        <g
           id="text7004"
           style="font-size:6px;font-style:normal;font-variant:normal;font-weight:bold;font-stretch:normal;line-height:125%;letter-spacing:0px;word-spacing:0px;fill:#000000;fill-opacity:1;stroke:none;font-family:Arial;-inkscape-font-specification:Arial Bold" />
      </g>
      <g
         transform="matrix(1.375,0,0,1.375,0,-394.63583)"
         id="layer1-2">
        <g
           transform="scale(0.93557544,1.0688609)"
           id="text7308-2"
           style="font-size:6.13837099px;font-style:normal;font-variant:normal;font-weight:bold;font-stretch:normal;line-height:125%;letter-spacing:0px;word-spacing:0px;fill:#ffffff;fill-opacity:1;stroke:none;font-family:Arial;-inkscape-font-specification:Arial Bold" />
      </g>
      <g
         transform="matrix(1.375,0,0,1.375,26.097206,-407.46806)"
         id="layer1-29" />
      <g
         transform="matrix(1.375,0,0,1.375,0,-394.63583)"
         id="layer1-3-2">
        <g
           transform="scale(0.93557544,1.0688609)"
           id="text7308-5"
           style="font-size:6.13837099px;font-style:normal;font-variant:normal;font-weight:bold;font-stretch:normal;line-height:125%;letter-spacing:0px;word-spacing:0px;fill:#ffffff;fill-opacity:1;stroke:none;font-family:Arial;-inkscape-font-specification:Arial Bold" />
      </g>
    </g>
  </g>
</svg>
