<?xml version="1.0" encoding="UTF-8" standalone="no"?>
<!-- Created with Inkscape (http://www.inkscape.org/) -->

<svg
   xmlns:dc="http://purl.org/dc/elements/1.1/"
   xmlns:cc="http://creativecommons.org/ns#"
   xmlns:rdf="http://www.w3.org/1999/02/22-rdf-syntax-ns#"
   xmlns:svg="http://www.w3.org/2000/svg"
   xmlns="http://www.w3.org/2000/svg"
   version="1.1"
   width="22"
   height="22"
   id="svg15992">
  <defs
     id="defs15994" />
  <metadata
     id="metadata15997">
    <rdf:RDF>
      <cc:Work
         rdf:about="">
        <dc:format>image/svg+xml</dc:format>
        <dc:type
           rdf:resource="http://purl.org/dc/dcmitype/StillImage" />
        <dc:title></dc:title>
      </cc:Work>
    </rdf:RDF>
  </metadata>
  <g
     id="g12545">
    <path
       d="m 2.8919179,1.491522 17.0956961,0 L 22,3.948693 22,18.424603 17.466586,22 2.9211799,22 0.660128,18.7386 0.577598,4.007337 z"
       id="rect3155"
       style="fill:#ffffff;fill-opacity:1;fill-rule:nonzero;stroke:none" />
    <g
       transform="translate(0,-1030.3622)"
       id="layer1">
      <path
         d="M 3.65625,0 C 1.62178,0 0,1.7027 0,3.8125 l 0,14.375 C 0,20.2973 1.62178,22 3.65625,22 l 14.6875,0 C 20.37823,22 22,20.2973 22,18.1875 L 22,3.8125 C 22,1.7027 20.37823,0 18.34375,0 L 3.65625,0 z m 7.46875,4.9375 4,0 c 0.791391,1.47e-5 1.423618,0.049605 1.8125,0.125 0.388868,0.075395 0.724235,0.2297354 1.03125,0.46875 0.306999,0.2390293 0.57657,0.5712594 0.78125,0.96875 0.204662,0.3975201 0.28124,0.8188626 0.28125,1.3125 -10e-6,0.5352148 -0.122578,1.021878 -0.375,1.46875 -0.252436,0.4468867 -0.599174,0.807814 -1.03125,1.03125 0.609458,0.202655 1.078768,0.542815 1.40625,1.03125 0.327465,0.488449 0.46874,1.058833 0.46875,1.71875 -10e-6,0.519621 -0.06976,1.008964 -0.28125,1.5 -0.211502,0.491051 -0.508875,0.862666 -0.875,1.15625 -0.366142,0.293585 -0.838314,0.494953 -1.375,0.5625 -0.336577,0.04159 -1.1191,0.08347 -2.40625,0.09375 l -3.4375,0 0,-11.4375 z m -8.46875,0.09375 2.03125,0 0,9.40625 5.03125,0 0,1.9375 -7.0625,0 0,-11.34375 z m 10.5,1.8125 0,2.65625 1.3125,0 C 15.255592,9.5000147 15.746467,9.463219 15.9375,9.4375 16.28316,9.390764 16.552144,9.2572873 16.75,9.03125 16.947842,8.8052274 17.062492,8.4939348 17.0625,8.125 17.062492,7.7716734 16.98306,7.4708493 16.8125,7.25 16.641934,7.0291799 16.399066,6.92178 16.0625,6.875 15.862373,6.848987 15.26308,6.84375 14.3125,6.84375 l -1.15625,0 z m 0,4.53125 0,3.0625 1.875,0 c 0.727715,0 1.179419,-0.04701 1.375,-0.09375 0.300178,-0.06231 0.561241,-0.195884 0.75,-0.4375 0.188746,-0.241631 0.281243,-0.563441 0.28125,-0.96875 -7e-6,-0.342936 -0.07322,-0.635971 -0.21875,-0.875 -0.145552,-0.239015 -0.349836,-0.390876 -0.625,-0.5 -0.275175,-0.109198 -0.893758,-0.187485 -1.8125,-0.1875 l -1.625,0 z"
         transform="translate(0,1030.3622)"
         id="rect3001-7-4"
         style="fill:#649be6;fill-opacity:1;fill-rule:nonzero;stroke:none" />
      <g
         transform="translate(3,1033.8577)"
         id="layer1-8">
        <g
           id="text5399"
           style="font-size:7px;font-style:normal;font-variant:normal;font-weight:bold;font-stretch:normal;line-height:125%;letter-spacing:0px;word-spacing:0px;fill:#000000;fill-opacity:1;stroke:none;font-family:Arial;-inkscape-font-specification:Arial Bold" />
        <g
           transform="translate(0,-1036.4247)"
           id="layer1-3">
          <g
             transform="scale(0.89723629,1.1145336)"
             id="text5639"
             style="font-size:7.97739649px;font-style:normal;font-variant:normal;font-weight:bold;font-stretch:normal;line-height:125%;letter-spacing:0px;word-spacing:0px;fill:#cccccc;fill-opacity:1;stroke:none;font-family:Arial;-inkscape-font-specification:Arial Bold" />
          <g
             transform="scale(1.0195853,0.98079088)"
             id="text6068"
             style="font-size:6.62408876px;font-style:normal;font-variant:normal;font-weight:bold;font-stretch:normal;line-height:125%;letter-spacing:0px;word-spacing:0px;fill:#000000;fill-opacity:1;stroke:none;font-family:Arial;-inkscape-font-specification:Arial Bold" />
          <g
             id="text6125"
             style="font-size:6px;font-style:normal;font-variant:normal;font-weight:bold;font-stretch:normal;line-height:125%;letter-spacing:0px;word-spacing:0px;fill:#000000;fill-opacity:1;stroke:none;font-family:Arial;-inkscape-font-specification:Arial Bold" />
        </g>
        <g
           transform="translate(0,-1036.3622)"
           id="layer1-84">
          <g
             transform="scale(0.93557544,1.0688609)"
             id="text7308"
             style="font-size:8.03458023px;font-style:normal;font-variant:normal;font-weight:bold;font-stretch:normal;line-height:125%;letter-spacing:0px;word-spacing:0px;fill:#ffffff;fill-opacity:1;stroke:none;font-family:Arial;-inkscape-font-specification:Arial Bold" />
        </g>
        <g
           transform="scale(0.9686171,1.0323997)"
           id="text5724"
           style="font-size:9.88508701px;font-style:normal;font-variant:normal;font-weight:bold;font-stretch:normal;line-height:125%;letter-spacing:0px;word-spacing:0px;fill:#ffffff;fill-opacity:1;stroke:none;font-family:Arial;-inkscape-font-specification:Arial Bold" />
        <g
           id="text5751"
           style="font-size:7px;font-style:normal;font-variant:normal;font-weight:bold;font-stretch:normal;line-height:125%;letter-spacing:0px;word-spacing:0px;fill:#ffffff;fill-opacity:1;stroke:none;font-family:Arial;-inkscape-font-specification:Arial Bold" />
        <g
           id="layer1-37">
          <g
             id="text5141"
             style="font-size:7px;font-style:normal;font-variant:normal;font-weight:bold;font-stretch:normal;line-height:125%;letter-spacing:0px;word-spacing:0px;fill:#000000;fill-opacity:1;stroke:none;font-family:Arial;-inkscape-font-specification:Arial Bold" />
        </g>
        <g
           transform="scale(1.0995518,0.90946149)"
           id="text5804"
           style="font-size:6.36623049px;font-style:normal;font-variant:normal;font-weight:bold;font-stretch:normal;line-height:125%;letter-spacing:0px;word-spacing:0px;fill:#000000;fill-opacity:1;stroke:none;font-family:Arial;-inkscape-font-specification:Arial Bold" />
        <g
           transform="scale(0.94725198,1.0556853)"
           id="text5938"
           style="font-size:7px;font-style:normal;font-variant:normal;font-weight:bold;font-stretch:normal;line-height:125%;letter-spacing:0px;word-spacing:0px;fill:#000000;fill-opacity:1;stroke:none;font-family:Arial;-inkscape-font-specification:Arial Bold" />
      </g>
      <g
         transform="matrix(1.3669903,0,0,1.375,30.30548,-396.96631)"
         id="layer1-849">
        <g
           id="text7004"
           style="font-size:6px;font-style:normal;font-variant:normal;font-weight:bold;font-stretch:normal;line-height:125%;letter-spacing:0px;word-spacing:0px;fill:#000000;fill-opacity:1;stroke:none;font-family:Arial;-inkscape-font-specification:Arial Bold" />
      </g>
      <g
         transform="matrix(1.375,0,0,1.375,0,-394.63583)"
         id="layer1-2">
        <g
           transform="scale(0.93557544,1.0688609)"
           id="text7308-2"
           style="font-size:6.13837099px;font-style:normal;font-variant:normal;font-weight:bold;font-stretch:normal;line-height:125%;letter-spacing:0px;word-spacing:0px;fill:#ffffff;fill-opacity:1;stroke:none;font-family:Arial;-inkscape-font-specification:Arial Bold" />
      </g>
      <g
         transform="matrix(1.375,0,0,1.375,26.097206,-407.46806)"
         id="layer1-29" />
      <g
         transform="matrix(1.375,0,0,1.375,0,-394.63583)"
         id="layer1-5">
        <g
           transform="scale(0.93557545,1.0688609)"
           id="text7308-9"
           style="font-size:9.30973721px;font-style:normal;font-variant:normal;font-weight:bold;font-stretch:normal;line-height:125%;letter-spacing:0px;word-spacing:0px;fill:#ffffff;fill-opacity:1;stroke:none;font-family:Arial;-inkscape-font-specification:Arial Bold" />
      </g>
    </g>
  </g>
</svg>
