<?xml version="1.0" encoding="UTF-8" standalone="no"?>
<!-- Created with Inkscape (http://www.inkscape.org/) -->

<svg
   xmlns:dc="http://purl.org/dc/elements/1.1/"
   xmlns:cc="http://creativecommons.org/ns#"
   xmlns:rdf="http://www.w3.org/1999/02/22-rdf-syntax-ns#"
   xmlns:svg="http://www.w3.org/2000/svg"
   xmlns="http://www.w3.org/2000/svg"
   version="1.1"
   width="22"
   height="22"
   id="svg15992">
  <defs
     id="defs15994" />
  <metadata
     id="metadata15997">
    <rdf:RDF>
      <cc:Work
         rdf:about="">
        <dc:format>image/svg+xml</dc:format>
        <dc:type
           rdf:resource="http://purl.org/dc/dcmitype/StillImage" />
        <dc:title></dc:title>
      </cc:Work>
    </rdf:RDF>
  </metadata>
  <g
     id="g16909">
    <g
       transform="translate(3,3.4955)"
       id="layer1-8">
      <g
         id="text5399"
         style="font-size:7px;font-style:normal;font-variant:normal;font-weight:bold;font-stretch:normal;line-height:125%;letter-spacing:0px;word-spacing:0px;fill:#000000;fill-opacity:1;stroke:none;font-family:Arial;-inkscape-font-specification:Arial Bold" />
      <g
         transform="translate(0,-1036.4247)"
         id="layer1-3">
        <g
           transform="scale(0.89723629,1.1145336)"
           id="text5639"
           style="font-size:7.97739649px;font-style:normal;font-variant:normal;font-weight:bold;font-stretch:normal;line-height:125%;letter-spacing:0px;word-spacing:0px;fill:#cccccc;fill-opacity:1;stroke:none;font-family:Arial;-inkscape-font-specification:Arial Bold" />
        <g
           transform="scale(1.0195853,0.98079088)"
           id="text6068"
           style="font-size:6.62408876px;font-style:normal;font-variant:normal;font-weight:bold;font-stretch:normal;line-height:125%;letter-spacing:0px;word-spacing:0px;fill:#000000;fill-opacity:1;stroke:none;font-family:Arial;-inkscape-font-specification:Arial Bold" />
        <g
           id="text6125"
           style="font-size:6px;font-style:normal;font-variant:normal;font-weight:bold;font-stretch:normal;line-height:125%;letter-spacing:0px;word-spacing:0px;fill:#000000;fill-opacity:1;stroke:none;font-family:Arial;-inkscape-font-specification:Arial Bold" />
      </g>
      <g
         transform="translate(0,-1036.3622)"
         id="layer1-84">
        <g
           transform="scale(0.93557544,1.0688609)"
           id="text7308"
           style="font-size:8.03458023px;font-style:normal;font-variant:normal;font-weight:bold;font-stretch:normal;line-height:125%;letter-spacing:0px;word-spacing:0px;fill:#ffffff;fill-opacity:1;stroke:none;font-family:Arial;-inkscape-font-specification:Arial Bold" />
      </g>
      <g
         transform="scale(0.9686171,1.0323997)"
         id="text5724"
         style="font-size:9.88508701px;font-style:normal;font-variant:normal;font-weight:bold;font-stretch:normal;line-height:125%;letter-spacing:0px;word-spacing:0px;fill:#ffffff;fill-opacity:1;stroke:none;font-family:Arial;-inkscape-font-specification:Arial Bold" />
      <g
         id="text5751"
         style="font-size:7px;font-style:normal;font-variant:normal;font-weight:bold;font-stretch:normal;line-height:125%;letter-spacing:0px;word-spacing:0px;fill:#ffffff;fill-opacity:1;stroke:none;font-family:Arial;-inkscape-font-specification:Arial Bold" />
      <g
         id="layer1-37">
        <g
           id="text5141"
           style="font-size:7px;font-style:normal;font-variant:normal;font-weight:bold;font-stretch:normal;line-height:125%;letter-spacing:0px;word-spacing:0px;fill:#000000;fill-opacity:1;stroke:none;font-family:Arial;-inkscape-font-specification:Arial Bold" />
      </g>
      <g
         transform="scale(1.0995518,0.90946149)"
         id="text5804"
         style="font-size:6.36623049px;font-style:normal;font-variant:normal;font-weight:bold;font-stretch:normal;line-height:125%;letter-spacing:0px;word-spacing:0px;fill:#000000;fill-opacity:1;stroke:none;font-family:Arial;-inkscape-font-specification:Arial Bold" />
      <g
         transform="scale(0.94725198,1.0556853)"
         id="text5938"
         style="font-size:7px;font-style:normal;font-variant:normal;font-weight:bold;font-stretch:normal;line-height:125%;letter-spacing:0px;word-spacing:0px;fill:#000000;fill-opacity:1;stroke:none;font-family:Arial;-inkscape-font-specification:Arial Bold" />
    </g>
    <g
       transform="matrix(1.3669903,0,0,1.375,30.30548,-1427.3285)"
       id="layer1-849">
      <g
         id="text7004"
         style="font-size:6px;font-style:normal;font-variant:normal;font-weight:bold;font-stretch:normal;line-height:125%;letter-spacing:0px;word-spacing:0px;fill:#000000;fill-opacity:1;stroke:none;font-family:Arial;-inkscape-font-specification:Arial Bold" />
    </g>
    <g
       transform="matrix(1.375,0,0,1.375,0,-1424.998)"
       id="layer1-2">
      <g
         transform="scale(0.93557544,1.0688609)"
         id="text7308-2"
         style="font-size:6.13837099px;font-style:normal;font-variant:normal;font-weight:bold;font-stretch:normal;line-height:125%;letter-spacing:0px;word-spacing:0px;fill:#ffffff;fill-opacity:1;stroke:none;font-family:Arial;-inkscape-font-specification:Arial Bold" />
    </g>
    <g
       transform="matrix(1.375,0,0,1.375,26.097206,-1437.8303)"
       id="layer1-29" />
    <g
       transform="matrix(1.375,0,0,1.375,0,-1424.998)"
       id="layer1-3-2">
      <g
         transform="scale(0.93557544,1.0688609)"
         id="text7308-5"
         style="font-size:6.13837099px;font-style:normal;font-variant:normal;font-weight:bold;font-stretch:normal;line-height:125%;letter-spacing:0px;word-spacing:0px;fill:#ffffff;fill-opacity:1;stroke:none;font-family:Arial;-inkscape-font-specification:Arial Bold" />
    </g>
    <g
       transform="matrix(1.375,0,0,1.375,0,-1424.998)"
       id="layer1-3-1">
      <g
         transform="scale(0.93557544,1.0688609)"
         id="text7308-7"
         style="font-size:6.13837099px;font-style:normal;font-variant:normal;font-weight:bold;font-stretch:normal;line-height:125%;letter-spacing:0px;word-spacing:0px;fill:#ffffff;fill-opacity:1;stroke:none;font-family:Arial;-inkscape-font-specification:Arial Bold" />
    </g>
    <g
       transform="matrix(1.5,0,0,1.5,-29.444014,-1553.2731)"
       id="layer1-6">
      <g
         transform="scale(0.93557544,1.0688609)"
         id="text7308-3"
         style="font-size:6.13837099px;font-style:normal;font-variant:normal;font-weight:bold;font-stretch:normal;line-height:125%;letter-spacing:0px;word-spacing:0px;fill:#ffffff;fill-opacity:1;stroke:none;font-family:Arial;-inkscape-font-specification:Arial Bold" />
    </g>
    <g
       transform="matrix(1.375,0,0,1.375,0,-1424.998)"
       id="layer1-2-2">
      <g
         transform="scale(0.93557544,1.0688609)"
         id="text7308-2-5"
         style="font-size:8.38767338px;font-style:normal;font-variant:normal;font-weight:bold;font-stretch:normal;line-height:125%;letter-spacing:0px;word-spacing:0px;fill:#ffffff;fill-opacity:1;stroke:none;font-family:Arial;-inkscape-font-specification:Arial Bold" />
    </g>
    <g
       transform="translate(16.574815,9.6265)"
       id="g18916">
      <g
         transform="translate(0,-1036.3622)"
         id="layer1-37-1">
        <g
           transform="scale(0.93557544,1.0688609)"
           id="text7308-75"
           style="font-size:8.38767338px;font-style:normal;font-variant:normal;font-weight:bold;font-stretch:normal;line-height:125%;letter-spacing:0px;word-spacing:0px;fill:#ffffff;fill-opacity:1;stroke:none;font-family:Arial;-inkscape-font-specification:Arial Bold" />
      </g>
      <g
         id="text3074-3"
         style="font-size:7px;font-style:normal;font-variant:normal;font-weight:bold;font-stretch:normal;line-height:125%;letter-spacing:0px;word-spacing:0px;fill:#ffffff;fill-opacity:1;stroke:none;font-family:Arial;-inkscape-font-specification:Arial Bold" />
      <g
         id="text3330-4"
         style="font-size:7px;font-style:normal;font-variant:normal;font-weight:bold;font-stretch:normal;line-height:125%;letter-spacing:0px;word-spacing:0px;fill:#ffffff;fill-opacity:1;stroke:none;font-family:Arial;-inkscape-font-specification:Arial Bold" />
      <g
         id="text3334-3"
         style="font-size:7px;font-style:normal;font-variant:normal;font-weight:bold;font-stretch:normal;line-height:125%;letter-spacing:0px;word-spacing:0px;fill:#ffffff;fill-opacity:1;stroke:none;font-family:Arial;-inkscape-font-specification:Arial Bold" />
      <g
         transform="scale(1.0025516,0.99745489)"
         id="text3420"
         style="font-size:8.28998661px;font-style:normal;font-variant:normal;font-weight:bold;font-stretch:normal;line-height:125%;letter-spacing:0px;word-spacing:0px;fill:#ffffff;fill-opacity:1;stroke:none;font-family:Arial;-inkscape-font-specification:Arial Bold" />
    </g>
    <g
       transform="scale(1.375,1.375)"
       id="g19868">
      <g
         transform="translate(0,-1036.3622)"
         id="layer1-7">
        <g
           transform="scale(0.93557544,1.0688609)"
           id="text7308-4"
           style="font-size:7.13911057px;font-style:normal;font-variant:normal;font-weight:bold;font-stretch:normal;line-height:125%;letter-spacing:0px;word-spacing:0px;fill:#ffffff;fill-opacity:1;stroke:none;font-family:Arial;-inkscape-font-specification:Arial Bold" />
        <g
           id="text7599"
           style="font-size:6px;font-style:normal;font-variant:normal;font-weight:bold;font-stretch:normal;line-height:125%;letter-spacing:0px;word-spacing:0px;fill:#000000;fill-opacity:1;stroke:none;font-family:Arial;-inkscape-font-specification:Arial Bold" />
      </g>
      <g
         id="text7710"
         style="font-size:6px;font-style:normal;font-variant:normal;font-weight:bold;font-stretch:normal;line-height:125%;letter-spacing:0px;word-spacing:0px;fill:#ffffff;fill-opacity:1;stroke:none;font-family:Arial;-inkscape-font-specification:Arial Bold" />
      <g
         id="text7727"
         style="font-size:6px;font-style:normal;font-variant:normal;font-weight:bold;font-stretch:normal;line-height:125%;letter-spacing:0px;word-spacing:0px;fill:#000000;fill-opacity:1;stroke:none;font-family:Arial;-inkscape-font-specification:Arial Bold" />
    </g>
    <g
       transform="scale(1.375,1.375)"
       id="g19893">
      <g
         transform="translate(0,-1036.3622)"
         id="layer1-1">
        <g
           transform="scale(0.93557544,1.0688609)"
           id="text7308-6"
           style="font-size:7.13911057px;font-style:normal;font-variant:normal;font-weight:bold;font-stretch:normal;line-height:125%;letter-spacing:0px;word-spacing:0px;fill:#ffffff;fill-opacity:1;stroke:none;font-family:Arial;-inkscape-font-specification:Arial Bold" />
        <g
           id="text7599-7"
           style="font-size:6px;font-style:normal;font-variant:normal;font-weight:bold;font-stretch:normal;line-height:125%;letter-spacing:0px;word-spacing:0px;fill:#000000;fill-opacity:1;stroke:none;font-family:Arial;-inkscape-font-specification:Arial Bold" />
      </g>
      <g
         id="text7710-5"
         style="font-size:6px;font-style:normal;font-variant:normal;font-weight:bold;font-stretch:normal;line-height:125%;letter-spacing:0px;word-spacing:0px;fill:#ffffff;fill-opacity:1;stroke:none;font-family:Arial;-inkscape-font-specification:Arial Bold" />
      <g
         transform="scale(0.79259781,1.2616739)"
         id="text7727-0"
         style="font-size:4.7555871px;font-style:normal;font-variant:normal;font-weight:bold;font-stretch:normal;line-height:125%;letter-spacing:0px;word-spacing:0px;fill:#000000;fill-opacity:1;stroke:none;font-family:Arial;-inkscape-font-specification:Arial Bold" />
      <rect
         width="13.898305"
         height="5.9661016"
         x="1.1525424"
         y="1.6949153"
         id="rect3224"
         style="opacity:0;fill:#ffffff;fill-opacity:1;fill-rule:nonzero;stroke:none" />
      <g
         transform="scale(1.060294,0.94313463)"
         id="text3431"
         style="font-size:6.60194254px;font-style:normal;font-variant:normal;font-weight:bold;font-stretch:normal;line-height:125%;letter-spacing:0px;word-spacing:0px;fill:#000000;fill-opacity:1;stroke:none;font-family:Arial;-inkscape-font-specification:Arial Bold" />
    </g>
    <path
       d="m 2.8919176,1.491522 17.0956964,0 L 22,3.948693 22,18.424603 17.466586,22 2.9211796,22 0.6601277,18.7386 0.5775977,4.007337 z"
       id="rect3155"
       style="fill:#ffffff;fill-opacity:1;fill-rule:nonzero;stroke:none" />
    <path
       d="m 2.8919178,1.491522 17.0956962,0 L 22,3.948693 22,18.424603 17.466586,22 2.9211798,22 0.6601279,18.7386 0.5775979,4.007337 z"
       id="rect3155-1"
       style="fill:#ffffff;fill-opacity:1;fill-rule:nonzero;stroke:none" />
    <path
       d="M 3.6562503,0 C 1.6217803,0 3e-7,1.7027004 3e-7,3.8125004 l 0,7.9062496 0,7.0625 0.09375,0.28125 C 0.466739,20.752775 1.9094816,22 3.6562503,22 L 18.34375,22 c 1.746777,0 3.189514,-1.247225 3.5625,-2.9375 0.0022,-0.0097 -0.0021,-0.02147 0,-0.03125 l 0.09375,-0.25 0,-7.0625 0,-0.5 0,-1.2499996 0,-6.15625 C 22,1.7027004 20.37823,0 18.34375,0 L 3.6562503,0 z m -1.03125,3.1250004 5.0312497,0 0,1.09375 -3.7812497,4.6875 3.9062497,0 0,1.1562496 -5.5937497,0 0,-1.3124996 3.6249997,-4.4375 -3.1874997,0 0,-1.1875 z m 5.5312497,0 5.500001,0 0,1.1875 -2.062501,0 0,5.7499996 -1.375,0 0,-5.7499996 -2.0625,0 0,-1.1875 z m 6.406251,0 5.124999,0 0,1.1875 -3.749999,0 0,1.53125 3.499999,0 0,1.15625 -3.499999,0 0,1.90625 3.874999,0 0,1.1562496 -5.249999,0 0,-6.9374996 z M 0.9687503,11.71875 l 0.3125,0 19.4374997,0 0.4375,0 0,7.3125 -0.4375,0 -19.4374997,0 -0.3125,0 0,-7.3125 z m 0.71875,1.1875 0,5.21875 1.1875,0 0,-1.96875 0.78125,0 c 0.539792,0 0.9653282,-0.04425 1.25,-0.09375 C 5.1157192,16.02125 5.297237,16.00054 5.5,15.875 5.702755,15.749875 5.868403,15.563475 6,15.34375 6.131588,15.124025 6.218746,14.853688 6.21875,14.53125 6.218746,14.11325 6.103264,13.764 5.875,13.5 5.646725,13.236 5.369625,13.047675 5.0312503,12.96875 4.8110317,12.9165 4.3500942,12.90625 3.6250003,12.90625 l -1.9375,0 z m 4.9374997,0 1.40625,5.21875 1.28125,0 1.21875,-3.90625 1.15625,3.90625 1.25,0 1.46875,-5.21875 -1.21875,0 -0.90625,3.65625 -1.03125,-3.65625 -1.40625,0 L 8.75,16.5 7.875,12.90625 l -1.25,0 z m 8.375001,0 0,5.21875 1.187499,0 0,-2.1875 0.21875,0 c 0.273923,0 0.467525,0.05525 0.59375,0.09375 0.126211,0.03987 0.293452,0.112738 0.40625,0.21875 0.112791,0.105875 0.287594,0.372737 0.59375,0.78125 l 0.875,1.09375 1.4375,0 -0.71875,-1.03125 C 19.309077,16.685237 19.074092,16.4413 18.90625,16.28125 18.7384,16.1212 18.507808,15.946287 18.25,15.8125 c 0.518305,-0.06738 0.926997,-0.2119 1.1875,-0.46875 0.260496,-0.25685 0.374996,-0.605787 0.375,-1 -4e-6,-0.310475 -0.07813,-0.571188 -0.25,-0.8125 -0.171881,-0.241313 -0.401494,-0.405675 -0.6875,-0.5 -0.286015,-0.09488 -0.743901,-0.125 -1.375,-0.125 l -2.499999,0 z m -12.1250007,0.90625 0.59375,0 c 0.4296848,0 0.7326641,-0.02337 0.875,0 0.1933566,0.03163 0.3425264,0.12515 0.46875,0.25 0.1262112,0.12375 0.1874959,0.277625 0.1875,0.46875 -2.7e-6,0.155238 -0.066288,0.257987 -0.15625,0.375 -0.089966,0.116875 -0.216556,0.22625 -0.375,0.28125 -0.1584509,0.055 -0.4675319,0.0625 -0.9375,0.0625 l -0.65625,0 0,-1.4375 z m 13.3124997,0 0.90625,0 c 0.483396,0 0.809561,-0.01375 0.90625,0 0.193354,0.02887 0.331423,0.07846 0.4375,0.1875 0.106081,0.108625 0.156246,0.260675 0.15625,0.4375 0,0.157713 -0.04444,0.26995 -0.125,0.375 -0.08057,0.105875 -0.201414,0.175712 -0.34375,0.21875 -0.142339,0.04262 -0.490481,0.09375 -1.0625,0.09375 l -0.875,0 0,-1.3125 z"
       id="rect3001-7-4"
       style="fill:#649be6;fill-opacity:1;fill-rule:nonzero;stroke:none" />
  </g>
</svg>
