<?xml version="1.0" encoding="utf-8"?>
<!-- Generator: Adobe Illustrator 16.0.0, SVG Export Plug-In . SVG Version: 6.00 Build 0)  -->
<!DOCTYPE svg PUBLIC "-//W3C//DTD SVG 1.1//EN" "http://www.w3.org/Graphics/SVG/1.1/DTD/svg11.dtd">
<svg version="1.1" id="图层_1" xmlns="http://www.w3.org/2000/svg" xmlns:xlink="http://www.w3.org/1999/xlink" x="0px" y="0px"
	 width="22px" height="22px" viewBox="0 0 22 22" enable-background="new 0 0 22 22" xml:space="preserve">
<g>
	<path fill="#6494CE" d="M17.875,0H4.125C1.848,0,0,1.847,0,4.125v13.75C0,20.153,1.848,22,4.125,22h13.75
		C20.153,22,22,20.153,22,17.875V4.125C22,1.847,20.153,0,17.875,0z M13.056,1.826c0.949,0,1.719,0.77,1.719,1.719
		s-0.77,1.719-1.719,1.719c-0.95,0-1.719-0.77-1.719-1.719S12.105,1.826,13.056,1.826z M8.429,1.826c0.949,0,1.719,0.77,1.719,1.719
		s-0.77,1.719-1.719,1.719S6.71,4.494,6.71,3.545S7.48,1.826,8.429,1.826z M3.803,5.264c-0.949,0-1.719-0.77-1.719-1.719
		s0.77-1.719,1.719-1.719s1.719,0.77,1.719,1.719S4.752,5.264,3.803,5.264z M12.346,20.324l-0.975-2.535H7.872l-0.919,2.535H5.778
		l3.213-8.367h1.193l3.424,8.367H12.346z M13.056,10.979c-0.95,0-1.719-0.77-1.719-1.719s0.769-1.719,1.719-1.719
		c0.949,0,1.719,0.77,1.719,1.719S14.005,10.979,13.056,10.979z M15.365,20.324h-1.027v-8.367h1.027V20.324z M17.682,10.979
		c-0.949,0-1.719-0.77-1.719-1.719s0.77-1.719,1.719-1.719S19.4,8.311,19.4,9.26S18.631,10.979,17.682,10.979z M17.682,5.264
		c-0.949,0-1.719-0.77-1.719-1.719s0.77-1.719,1.719-1.719S19.4,2.596,19.4,3.545S18.631,5.264,17.682,5.264z"/>
	<path fill="#6494CE" d="M9.561,12.837c-0.106,0.536-0.257,1.069-0.45,1.598l-0.919,2.453h2.837l-0.874-2.315
		C9.888,13.868,9.691,13.288,9.561,12.837z"/>
</g>
</svg>
