<?xml version="1.0" encoding="UTF-8" standalone="no"?>
<!-- Created with Inkscape (http://www.inkscape.org/) -->

<svg
   xmlns:dc="http://purl.org/dc/elements/1.1/"
   xmlns:cc="http://creativecommons.org/ns#"
   xmlns:rdf="http://www.w3.org/1999/02/22-rdf-syntax-ns#"
   xmlns:svg="http://www.w3.org/2000/svg"
   xmlns="http://www.w3.org/2000/svg"
   version="1.1"
   width="22"
   height="22"
   id="svg2985">
  <defs
     id="defs2987" />
  <metadata
     id="metadata2990">
    <rdf:RDF>
      <cc:Work
         rdf:about="">
        <dc:format>image/svg+xml</dc:format>
        <dc:type
           rdf:resource="http://purl.org/dc/dcmitype/StillImage" />
        <dc:title></dc:title>
      </cc:Work>
    </rdf:RDF>
  </metadata>
  <g
     id="g17091">
    <path
       d="m 3.3667007,4.9406763 15.1614903,0 1.784705,1.3402752 0,7.8959515 -4.020503,1.950217 -12.899741,0 -1.7255757,-1.965387 -0.352854,-7.8487938 z"
       id="rect3155"
       style="fill:#ffffff;fill-opacity:1;fill-rule:nonzero;stroke:none" />
    <g
       transform="matrix(1.3643411,0,0,1.375,0.17054264,0)"
       id="layer1"
       style="fill:#649be6;fill-opacity:1">
      <rect
         width="0"
         height="16.575762"
         x="4.5821676"
         y="-0.052963413"
         id="rect3917"
         style="fill:#649be6;fill-opacity:1;fill-rule:evenodd;stroke:none" />
      <path
         d="M 7.90625,0 -0.125,2 c 0.609123,5.9538031 -0.54929778,13.025659 7.90625,14 l 0.15625,0 0.15625,0 C 16.549298,15.025659 15.390877,7.9538031 16,2 L 7.96875,0 7.9375,0 7.90625,0 z m -5.96875,5.1875 3.6875,0 0,0.78125 -2.75,3.40625 2.84375,0 0,0.84375 -4.0625,0 0,-0.9375 2.625,-3.25 -2.34375,0 0,-0.84375 z m 4.0625,0 4,0 0,0.84375 -1.5,0 0,4.1875 -1,0 0,-4.1875 -1.5,0 0,-0.84375 z m 4.65625,0 3.6875,0 0,0.84375 -2.6875,0 0,1.125 2.5,0 0,0.84375 -2.5,0 0,1.375 2.78125,0 0,0.84375 -3.78125,0 0,-5.03125 z"
         id="rect3975"
         style="fill:#649be6;fill-opacity:1;fill-rule:evenodd;stroke:none" />
      <g
         id="text4015"
         style="font-size:7px;font-style:normal;font-variant:normal;font-weight:bold;font-stretch:normal;line-height:125%;letter-spacing:0px;word-spacing:0px;fill:#649be6;fill-opacity:1;stroke:none;font-family:Arial;-inkscape-font-specification:Arial Bold" />
    </g>
  </g>
</svg>
