<?xml version="1.0" encoding="UTF-8" standalone="no"?>
<!-- Created with Inkscape (http://www.inkscape.org/) -->

<svg
   xmlns:dc="http://purl.org/dc/elements/1.1/"
   xmlns:cc="http://creativecommons.org/ns#"
   xmlns:rdf="http://www.w3.org/1999/02/22-rdf-syntax-ns#"
   xmlns:svg="http://www.w3.org/2000/svg"
   xmlns="http://www.w3.org/2000/svg"
   version="1.1"
   width="22"
   height="22"
   id="svg15992">
  <defs
     id="defs15994" />
  <metadata
     id="metadata15997">
    <rdf:RDF>
      <cc:Work
         rdf:about="">
        <dc:format>image/svg+xml</dc:format>
        <dc:type
           rdf:resource="http://purl.org/dc/dcmitype/StillImage" />
        <dc:title></dc:title>
      </cc:Work>
    </rdf:RDF>
  </metadata>
  <g
     id="g13003">
    <path
       d="m 2.891918,1.4915223 17.095696,0 L 22,3.9486933 22,18.424603 17.466586,22 2.92118,22 0.660128,18.7386 0.577598,4.0073373 z"
       id="rect3155"
       style="fill:#ffffff;fill-opacity:1;fill-rule:nonzero;stroke:none" />
    <g
       transform="translate(0,-1030.3622)"
       id="layer1">
      <path
         d="M 3.65625,0 C 1.62178,0 0,1.7027 0,3.8125 l 0,14.375 C 0,20.2973 1.62178,22 3.65625,22 l 14.6875,0 C 20.37823,22 22,20.2973 22,18.1875 L 22,3.8125 C 22,1.7027 20.37823,0 18.34375,0 L 3.65625,0 z m 14.375,6.71875 0,0.03125 c 0.902934,0 1.606119,0.2354 2.0625,0.6875 0.45637,0.4524 0.695844,1.0263 0.71875,1.78125 L 19.34375,9.3125 C 19.281575,8.89025 19.173216,8.5912 18.96875,8.40625 18.764277,8.2213 18.440186,8.125 18.03125,8.125 c -0.422028,0 -0.729932,0.0825 -0.96875,0.28125 -0.153764,0.1275 -0.250003,0.31825 -0.25,0.53125 -3e-6,0.1944 0.04356,0.3306 0.1875,0.46875 0.183203,0.1758 0.66835,0.372 1.375,0.5625 0.706644,0.19065 1.192643,0.39005 1.53125,0.59375 0.338597,0.2037 0.621111,0.4905 0.8125,0.84375 0.191376,0.35325 0.281244,0.79305 0.28125,1.3125 -6e-6,0.471 -0.11476,0.90135 -0.34375,1.3125 -0.229011,0.41115 -0.550001,0.7063 -0.96875,0.90625 -0.418758,0.2001 -0.937644,0.3125 -1.5625,0.3125 -0.909483,0 -1.606297,-0.2697 -2.09375,-0.75 -0.487455,-0.4803 -0.748877,-1.143 -0.84375,-2.0625 L 16.59375,12.25 c 0.08505,0.54195 0.239914,0.96465 0.5,1.21875 0.260084,0.2541 0.589592,0.375 1.03125,0.375 0.467823,0 0.856561,-0.0863 1.09375,-0.3125 0.23718,-0.22605 0.312496,-0.5098 0.3125,-0.8125 -4e-6,-0.1944 -0.02522,-0.3635 -0.125,-0.5 -0.0998,-0.1365 -0.282619,-0.27405 -0.53125,-0.375 C 18.704877,11.77625 18.323978,11.6719 17.71875,11.5 16.940127,11.2795 16.376564,10.9777 16.0625,10.65625 15.620845,10.204 15.40625,9.68165 15.40625,9.03125 15.40625,8.61275 15.542265,8.2081 15.75,7.84375 15.95774,7.4794 16.234052,7.19065 16.625,7 17.015944,6.80935 17.478362,6.71875 18.03125,6.71875 z M 11.375,6.75 c 0.880032,0 1.60663,0.28085 2.15625,0.875 0.327146,0.35145 0.523919,0.90475 0.6875,1.5625 L 12.8125,9.5625 C 12.727435,9.13635 12.519895,8.778 12.25,8.53125 11.980096,8.2845 11.667284,8.18765 11.28125,8.1875 10.74799,8.18765 10.332055,8.4065 10,8.84375 c -0.332061,0.4374 -0.5000015,1.1458 -0.5,2.125 -1.5e-6,1.03905 0.1728455,1.7465 0.5,2.1875 0.327148,0.44115 0.757804,0.65625 1.28125,0.65625 0.386034,0 0.690666,-0.12545 0.96875,-0.40625 0.278073,-0.28035 0.503948,-0.7107 0.625,-1.3125 l 1.40625,0.5 c -0.215925,0.89715 -0.591579,1.5958 -1.09375,2.03125 -0.502182,0.43545 -1.134178,0.65625 -1.90625,0.65625 -0.955285,0 -1.728708,-0.37935 -2.34375,-1.125 C 8.322455,13.4106 7.9999985,12.35565 8,11.0625 7.9999985,9.6945 8.319182,8.6319 8.9375,7.875 9.5558135,7.1181 10.367371,6.75 11.375,6.75 z M 1,6.875 l 2.625,0 C 4.223683,6.87515 4.68593,6.9575 5,7.0625 5.4220205,7.205 5.8240145,7.4501 6.125,7.8125 6.4259735,8.17505 6.6242105,8.6 6.78125,9.125 6.938276,9.65015 6.9999925,10.3238 7,11.09375 c -7.5e-6,0.67665 -0.07154,1.2604 -0.21875,1.75 -0.17994,0.59805 -0.4163115,1.0676 -0.75,1.4375 C 5.779337,14.5616 5.4285635,14.7806 5,14.9375 4.679387,15.053 4.2552745,15.125 3.71875,15.125 L 1,15.125 1,6.875 z m 1.46875,1.40625 0,5.4375 1.0625,0 C 3.9369145,13.71875 4.195063,13.676 4.375,13.625 4.610545,13.5575 4.8445985,13.4733 5,13.3125 5.1553925,13.15185 5.276849,12.86825 5.375,12.5 5.473145,12.1319 5.5,11.6354 5.5,11 5.499994,10.36475 5.473145,9.90255 5.375,9.5625 5.276855,9.2223 5.1141565,8.94065 4.9375,8.75 4.760833,8.5595 4.5527815,8.44235 4.28125,8.375 4.0784125,8.3225 3.65464,8.28125 3.0625,8.28125 l -0.59375,0 z"
         transform="translate(0,1030.3622)"
         id="rect3001-7-4"
         style="fill:#649be6;fill-opacity:1;fill-rule:nonzero;stroke:none" />
      <g
         transform="translate(3,1033.8577)"
         id="layer1-8">
        <g
           id="text5399"
           style="font-size:7px;font-style:normal;font-variant:normal;font-weight:bold;font-stretch:normal;line-height:125%;letter-spacing:0px;word-spacing:0px;fill:#000000;fill-opacity:1;stroke:none;font-family:Arial;-inkscape-font-specification:Arial Bold" />
        <g
           transform="translate(0,-1036.4247)"
           id="layer1-3">
          <g
             transform="scale(0.89723629,1.1145336)"
             id="text5639"
             style="font-size:7.97739649px;font-style:normal;font-variant:normal;font-weight:bold;font-stretch:normal;line-height:125%;letter-spacing:0px;word-spacing:0px;fill:#cccccc;fill-opacity:1;stroke:none;font-family:Arial;-inkscape-font-specification:Arial Bold" />
          <g
             transform="scale(1.0195853,0.98079088)"
             id="text6068"
             style="font-size:6.62408876px;font-style:normal;font-variant:normal;font-weight:bold;font-stretch:normal;line-height:125%;letter-spacing:0px;word-spacing:0px;fill:#000000;fill-opacity:1;stroke:none;font-family:Arial;-inkscape-font-specification:Arial Bold" />
          <g
             id="text6125"
             style="font-size:6px;font-style:normal;font-variant:normal;font-weight:bold;font-stretch:normal;line-height:125%;letter-spacing:0px;word-spacing:0px;fill:#000000;fill-opacity:1;stroke:none;font-family:Arial;-inkscape-font-specification:Arial Bold" />
        </g>
        <g
           transform="translate(0,-1036.3622)"
           id="layer1-84">
          <g
             transform="scale(0.93557544,1.0688609)"
             id="text7308"
             style="font-size:8.03458023px;font-style:normal;font-variant:normal;font-weight:bold;font-stretch:normal;line-height:125%;letter-spacing:0px;word-spacing:0px;fill:#ffffff;fill-opacity:1;stroke:none;font-family:Arial;-inkscape-font-specification:Arial Bold" />
        </g>
        <g
           transform="scale(0.9686171,1.0323997)"
           id="text5724"
           style="font-size:9.88508701px;font-style:normal;font-variant:normal;font-weight:bold;font-stretch:normal;line-height:125%;letter-spacing:0px;word-spacing:0px;fill:#ffffff;fill-opacity:1;stroke:none;font-family:Arial;-inkscape-font-specification:Arial Bold" />
        <g
           id="text5751"
           style="font-size:7px;font-style:normal;font-variant:normal;font-weight:bold;font-stretch:normal;line-height:125%;letter-spacing:0px;word-spacing:0px;fill:#ffffff;fill-opacity:1;stroke:none;font-family:Arial;-inkscape-font-specification:Arial Bold" />
        <g
           id="layer1-37">
          <g
             id="text5141"
             style="font-size:7px;font-style:normal;font-variant:normal;font-weight:bold;font-stretch:normal;line-height:125%;letter-spacing:0px;word-spacing:0px;fill:#000000;fill-opacity:1;stroke:none;font-family:Arial;-inkscape-font-specification:Arial Bold" />
        </g>
        <g
           transform="scale(1.0995518,0.90946149)"
           id="text5804"
           style="font-size:6.36623049px;font-style:normal;font-variant:normal;font-weight:bold;font-stretch:normal;line-height:125%;letter-spacing:0px;word-spacing:0px;fill:#000000;fill-opacity:1;stroke:none;font-family:Arial;-inkscape-font-specification:Arial Bold" />
        <g
           transform="scale(0.94725198,1.0556853)"
           id="text5938"
           style="font-size:7px;font-style:normal;font-variant:normal;font-weight:bold;font-stretch:normal;line-height:125%;letter-spacing:0px;word-spacing:0px;fill:#000000;fill-opacity:1;stroke:none;font-family:Arial;-inkscape-font-specification:Arial Bold" />
      </g>
      <g
         transform="matrix(1.3669903,0,0,1.375,30.30548,-396.96631)"
         id="layer1-849">
        <g
           id="text7004"
           style="font-size:6px;font-style:normal;font-variant:normal;font-weight:bold;font-stretch:normal;line-height:125%;letter-spacing:0px;word-spacing:0px;fill:#000000;fill-opacity:1;stroke:none;font-family:Arial;-inkscape-font-specification:Arial Bold" />
      </g>
      <g
         transform="matrix(1.375,0,0,1.375,0,-394.63583)"
         id="layer1-2">
        <g
           transform="scale(0.93557544,1.0688609)"
           id="text7308-2"
           style="font-size:6.13837099px;font-style:normal;font-variant:normal;font-weight:bold;font-stretch:normal;line-height:125%;letter-spacing:0px;word-spacing:0px;fill:#ffffff;fill-opacity:1;stroke:none;font-family:Arial;-inkscape-font-specification:Arial Bold" />
      </g>
      <g
         transform="matrix(1.375,0,0,1.375,26.097206,-407.46806)"
         id="layer1-29" />
      <g
         transform="matrix(1.375,0,0,1.375,0,-394.63583)"
         id="layer1-3-2">
        <g
           transform="scale(0.93557544,1.0688609)"
           id="text7308-5"
           style="font-size:6.13837099px;font-style:normal;font-variant:normal;font-weight:bold;font-stretch:normal;line-height:125%;letter-spacing:0px;word-spacing:0px;fill:#ffffff;fill-opacity:1;stroke:none;font-family:Arial;-inkscape-font-specification:Arial Bold" />
      </g>
      <g
         transform="matrix(1.375,0,0,1.375,0,-394.63583)"
         id="layer1-3-1">
        <g
           transform="scale(0.93557544,1.0688609)"
           id="text7308-7"
           style="font-size:6.13837099px;font-style:normal;font-variant:normal;font-weight:bold;font-stretch:normal;line-height:125%;letter-spacing:0px;word-spacing:0px;fill:#ffffff;fill-opacity:1;stroke:none;font-family:Arial;-inkscape-font-specification:Arial Bold" />
      </g>
      <g
         transform="matrix(1.5,0,0,1.5,-29.444014,-522.91085)"
         id="layer1-6">
        <g
           transform="scale(0.93557544,1.0688609)"
           id="text7308-3"
           style="font-size:6.13837099px;font-style:normal;font-variant:normal;font-weight:bold;font-stretch:normal;line-height:125%;letter-spacing:0px;word-spacing:0px;fill:#ffffff;fill-opacity:1;stroke:none;font-family:Arial;-inkscape-font-specification:Arial Bold" />
      </g>
    </g>
  </g>
</svg>
