<?xml version="1.0" encoding="utf-8"?>
<!-- Generator: Adobe Illustrator 16.0.0, SVG Export Plug-In . SVG Version: 6.00 Build 0)  -->
<!DOCTYPE svg PUBLIC "-//W3C//DTD SVG 1.1//EN" "http://www.w3.org/Graphics/SVG/1.1/DTD/svg11.dtd">
<svg version="1.1" id="图层_1" xmlns="http://www.w3.org/2000/svg" xmlns:xlink="http://www.w3.org/1999/xlink" x="0px" y="0px"
	 width="22px" height="22px" viewBox="0 0 22 22" enable-background="new 0 0 22 22" xml:space="preserve">
<g>
	<path fill="#6494CE" d="M17.532,13.382c-0.185-0.049-0.525-0.073-1.022-0.073h-2.116v2.958h2.139c0.708,0,1.21-0.132,1.508-0.396
		c0.297-0.263,0.445-0.634,0.445-1.111c0-0.347-0.087-0.643-0.262-0.89C18.048,13.624,17.817,13.461,17.532,13.382z"/>
	<path fill="#6494CE" d="M17.875,0H4.125C1.848,0,0,1.847,0,4.125v13.75C0,20.152,1.848,22,4.125,22h13.751
		C20.152,22,22,20.152,22,17.875V4.125C22,1.847,20.152,0,17.875,0z M17.682,1.826c0.949,0,1.719,0.77,1.719,1.719
		c0,0.949-0.77,1.719-1.719,1.719s-1.719-0.77-1.719-1.719C15.963,2.596,16.732,1.826,17.682,1.826z M17.682,7.541
		c0.949,0,1.719,0.77,1.719,1.719c0,0.949-0.77,1.719-1.719,1.719s-1.719-0.77-1.719-1.719C15.963,8.311,16.732,7.541,17.682,7.541z
		 M13.057,1.826c0.948,0,1.719,0.77,1.719,1.719c0,0.949-0.771,1.719-1.719,1.719c-0.951,0-1.72-0.77-1.72-1.719
		C11.337,2.596,12.105,1.826,13.057,1.826z M8.429,1.826c0.949,0,1.719,0.77,1.719,1.719c0,0.949-0.77,1.719-1.719,1.719
		c-0.949,0-1.719-0.77-1.719-1.719C6.71,2.596,7.48,1.826,8.429,1.826z M3.803,5.264c-0.949,0-1.719-0.77-1.719-1.719
		c0-0.949,0.77-1.719,1.719-1.719c0.949,0,1.719,0.77,1.719,1.719C5.522,4.494,4.752,5.264,3.803,5.264z M11.176,20.607
		l-0.965-2.506H6.75l-0.909,2.506H4.678l3.178-8.275h1.18l3.387,8.275H11.176z M11.337,9.26c0-0.949,0.769-1.719,1.72-1.719
		c0.948,0,1.719,0.77,1.719,1.719c0,0.949-0.771,1.719-1.719,1.719C12.105,10.979,11.337,10.209,11.337,9.26z M18.943,16.512
		c-0.448,0.487-1.258,0.731-2.428,0.731h-2.122v3.364h-1.096v-8.275h3.122c0.549,0,0.969,0.026,1.259,0.079
		c0.406,0.067,0.747,0.196,1.021,0.387s0.496,0.456,0.663,0.799c0.168,0.343,0.251,0.719,0.251,1.129
		C19.614,15.43,19.391,16.024,18.943,16.512z"/>
	<path fill="#6494CE" d="M8.421,13.201c-0.105,0.531-0.254,1.058-0.446,1.581l-0.909,2.427h2.806l-0.864-2.292
		C8.745,14.222,8.549,13.649,8.421,13.201z"/>
</g>
</svg>
