<?xml version="1.0" encoding="UTF-8" standalone="no"?>
<!-- Created with Inkscape (http://www.inkscape.org/) -->

<svg
   xmlns:dc="http://purl.org/dc/elements/1.1/"
   xmlns:cc="http://creativecommons.org/ns#"
   xmlns:rdf="http://www.w3.org/1999/02/22-rdf-syntax-ns#"
   xmlns:svg="http://www.w3.org/2000/svg"
   xmlns="http://www.w3.org/2000/svg"
   version="1.1"
   width="22"
   height="22"
   id="svg15992">
  <defs
     id="defs15994" />
  <metadata
     id="metadata15997">
    <rdf:RDF>
      <cc:Work
         rdf:about="">
        <dc:format>image/svg+xml</dc:format>
        <dc:type
           rdf:resource="http://purl.org/dc/dcmitype/StillImage" />
        <dc:title></dc:title>
      </cc:Work>
    </rdf:RDF>
  </metadata>
  <g
     id="g13477">
    <path
       d="m 7.0629787,5.9661003 12.8553223,0 1.513239,1.842878 0,10.8569327 -3.408958,2.681548 -10.9375993,0 -1.7002263,-2.44605 -0.062059,-11.0484477 z"
       id="rect3155"
       style="fill:#ffffff;fill-opacity:1;fill-rule:nonzero;stroke:none" />
    <g
       transform="translate(0,-1030.3622)"
       id="layer1"
       style="fill:#649be6;fill-opacity:1">
      <g
         transform="translate(3,1033.8577)"
         id="layer1-8"
         style="fill:#649be6;fill-opacity:1">
        <g
           id="text5399"
           style="font-size:7px;font-style:normal;font-variant:normal;font-weight:bold;font-stretch:normal;line-height:125%;letter-spacing:0px;word-spacing:0px;fill:#649be6;fill-opacity:1;stroke:none;font-family:Arial;-inkscape-font-specification:Arial Bold" />
        <g
           transform="translate(0,-1036.4247)"
           id="layer1-3"
           style="fill:#649be6;fill-opacity:1">
          <g
             transform="scale(0.89723629,1.1145336)"
             id="text5639"
             style="font-size:7.97739649px;font-style:normal;font-variant:normal;font-weight:bold;font-stretch:normal;line-height:125%;letter-spacing:0px;word-spacing:0px;fill:#649be6;fill-opacity:1;stroke:none;font-family:Arial;-inkscape-font-specification:Arial Bold" />
          <g
             transform="scale(1.0195853,0.98079088)"
             id="text6068"
             style="font-size:6.62408876px;font-style:normal;font-variant:normal;font-weight:bold;font-stretch:normal;line-height:125%;letter-spacing:0px;word-spacing:0px;fill:#649be6;fill-opacity:1;stroke:none;font-family:Arial;-inkscape-font-specification:Arial Bold" />
          <g
             id="text6125"
             style="font-size:6px;font-style:normal;font-variant:normal;font-weight:bold;font-stretch:normal;line-height:125%;letter-spacing:0px;word-spacing:0px;fill:#649be6;fill-opacity:1;stroke:none;font-family:Arial;-inkscape-font-specification:Arial Bold" />
        </g>
        <g
           transform="translate(0,-1036.3622)"
           id="layer1-84"
           style="fill:#649be6;fill-opacity:1">
          <g
             transform="scale(0.93557544,1.0688609)"
             id="text7308"
             style="font-size:8.03458023px;font-style:normal;font-variant:normal;font-weight:bold;font-stretch:normal;line-height:125%;letter-spacing:0px;word-spacing:0px;fill:#649be6;fill-opacity:1;stroke:none;font-family:Arial;-inkscape-font-specification:Arial Bold" />
        </g>
        <g
           transform="scale(0.9686171,1.0323997)"
           id="text5724"
           style="font-size:9.88508701px;font-style:normal;font-variant:normal;font-weight:bold;font-stretch:normal;line-height:125%;letter-spacing:0px;word-spacing:0px;fill:#649be6;fill-opacity:1;stroke:none;font-family:Arial;-inkscape-font-specification:Arial Bold" />
        <g
           id="text5751"
           style="font-size:7px;font-style:normal;font-variant:normal;font-weight:bold;font-stretch:normal;line-height:125%;letter-spacing:0px;word-spacing:0px;fill:#649be6;fill-opacity:1;stroke:none;font-family:Arial;-inkscape-font-specification:Arial Bold" />
        <g
           id="layer1-37"
           style="fill:#649be6;fill-opacity:1">
          <g
             id="text5141"
             style="font-size:7px;font-style:normal;font-variant:normal;font-weight:bold;font-stretch:normal;line-height:125%;letter-spacing:0px;word-spacing:0px;fill:#649be6;fill-opacity:1;stroke:none;font-family:Arial;-inkscape-font-specification:Arial Bold" />
        </g>
        <g
           transform="scale(1.0995518,0.90946149)"
           id="text5804"
           style="font-size:6.36623049px;font-style:normal;font-variant:normal;font-weight:bold;font-stretch:normal;line-height:125%;letter-spacing:0px;word-spacing:0px;fill:#649be6;fill-opacity:1;stroke:none;font-family:Arial;-inkscape-font-specification:Arial Bold" />
        <g
           transform="scale(0.94725198,1.0556853)"
           id="text5938"
           style="font-size:7px;font-style:normal;font-variant:normal;font-weight:bold;font-stretch:normal;line-height:125%;letter-spacing:0px;word-spacing:0px;fill:#649be6;fill-opacity:1;stroke:none;font-family:Arial;-inkscape-font-specification:Arial Bold" />
      </g>
      <g
         transform="matrix(1.3669903,0,0,1.375,30.30548,-396.96631)"
         id="layer1-849"
         style="fill:#649be6;fill-opacity:1">
        <g
           id="text7004"
           style="font-size:6px;font-style:normal;font-variant:normal;font-weight:bold;font-stretch:normal;line-height:125%;letter-spacing:0px;word-spacing:0px;fill:#649be6;fill-opacity:1;stroke:none;font-family:Arial;-inkscape-font-specification:Arial Bold" />
      </g>
      <g
         transform="matrix(1.375,0,0,1.375,0,-394.63583)"
         id="layer1-2"
         style="fill:#649be6;fill-opacity:1">
        <g
           transform="scale(0.93557544,1.0688609)"
           id="text7308-2"
           style="font-size:6.13837099px;font-style:normal;font-variant:normal;font-weight:bold;font-stretch:normal;line-height:125%;letter-spacing:0px;word-spacing:0px;fill:#649be6;fill-opacity:1;stroke:none;font-family:Arial;-inkscape-font-specification:Arial Bold" />
      </g>
      <g
         transform="matrix(1.375,0,0,1.375,26.097206,-407.46806)"
         id="layer1-29"
         style="fill:#649be6;fill-opacity:1" />
      <g
         transform="matrix(1.375,0,0,1.375,0,-394.63583)"
         id="layer1-3-2"
         style="fill:#649be6;fill-opacity:1">
        <g
           transform="scale(0.93557544,1.0688609)"
           id="text7308-5"
           style="font-size:6.13837099px;font-style:normal;font-variant:normal;font-weight:bold;font-stretch:normal;line-height:125%;letter-spacing:0px;word-spacing:0px;fill:#649be6;fill-opacity:1;stroke:none;font-family:Arial;-inkscape-font-specification:Arial Bold" />
      </g>
      <g
         transform="matrix(1.375,0,0,1.375,0,-394.63583)"
         id="layer1-3-1"
         style="fill:#649be6;fill-opacity:1">
        <g
           transform="scale(0.93557544,1.0688609)"
           id="text7308-7"
           style="font-size:6.13837099px;font-style:normal;font-variant:normal;font-weight:bold;font-stretch:normal;line-height:125%;letter-spacing:0px;word-spacing:0px;fill:#649be6;fill-opacity:1;stroke:none;font-family:Arial;-inkscape-font-specification:Arial Bold" />
      </g>
      <g
         transform="matrix(1.5,0,0,1.5,-29.444014,-522.91085)"
         id="layer1-6"
         style="fill:#649be6;fill-opacity:1">
        <g
           transform="scale(0.93557544,1.0688609)"
           id="text7308-3"
           style="font-size:6.13837099px;font-style:normal;font-variant:normal;font-weight:bold;font-stretch:normal;line-height:125%;letter-spacing:0px;word-spacing:0px;fill:#649be6;fill-opacity:1;stroke:none;font-family:Arial;-inkscape-font-specification:Arial Bold" />
      </g>
      <g
         transform="matrix(1.3751377,0,0,1.3682188,0,-387.60805)"
         id="layer1-4"
         style="fill:#649be6;fill-opacity:1">
        <path
           d="M 1.78125,0 C 0.7841883,0 0,0.7429 0,1.6875 l 0,9.40625 c 0,0.837171 0.6321191,1.54162 1.46875,1.6875 l 0,-9.21875 c 0,-1.0012 0.83931,-1.78125 1.875,-1.78125 l 10.15625,0 0,-0.09375 C 13.5,0.7429 12.715812,0 11.71875,0 z"
           transform="translate(0,1036.3622)"
           id="rect7203-4"
           style="fill:#649be6;fill-opacity:1;stroke:none" />
        <g
           transform="scale(0.93557544,1.0688609)"
           id="text7308-1"
           style="font-size:8.38767338px;font-style:normal;font-variant:normal;font-weight:bold;font-stretch:normal;line-height:125%;letter-spacing:0px;word-spacing:0px;fill:#649be6;fill-opacity:1;stroke:none;font-family:Arial;-inkscape-font-specification:Arial Bold" />
        <path
           d="m 4.2791882,1039.6377 c -0.9970617,0 -1.7948338,0.7559 -1.7948338,1.7005 l 0,9.4028 c 0,0.9446 0.7977721,1.7005 1.7948338,1.7005 l 9.9243758,0 c 0.997062,0 1.794834,-0.7559 1.794834,-1.7005 l 0,-9.4028 c 0,-0.9446 -0.797772,-1.7005 -1.794834,-1.7005 l -9.9243758,0 z m 0.8446276,3.351 3.8008243,0 0,1.0253 -2.6658559,0 0,1.4004 2.2963319,0 0,1.0253 -2.2963319,0 0,2.5508 -1.1349684,0 0,-6.0018 z m 5.1733442,0.075 2.79783,0 0,1.0753 -1.979596,0 -0.184763,1.0253 c 0.236612,-0.128 0.492366,-0.2 0.739049,-0.2 0.470707,0 0.860524,0.2046 1.187759,0.5752 0.327227,0.3705 0.501493,0.8341 0.501498,1.4254 -5e-6,0.4931 -0.131622,0.9385 -0.395919,1.3254 -0.359957,0.5285 -0.865138,0.8002 -1.504494,0.8002 -0.510986,0 -0.918352,-0.1531 -1.240548,-0.4501 -0.3221971,-0.297 -0.5177531,-0.6991 -0.5806809,-1.2004 l 1.0557849,-0.125 c 0.0302,0.2588 0.115432,0.4739 0.263946,0.6252 0.148511,0.1512 0.307674,0.225 0.501498,0.225 0.221508,0 0.427131,-0.1053 0.580681,-0.3001 0.153544,-0.1948 0.211154,-0.4829 0.211157,-0.8752 -3e-6,-0.3678 -0.05887,-0.6413 -0.211157,-0.8253 -0.152291,-0.1839 -0.362914,-0.275 -0.607076,-0.275 -0.304578,0 -0.576587,0.1586 -0.818233,0.4501 l -0.8446281,-0.1501 0.5278921,-3.1259 z"
           id="rect7203-5-6"
           style="fill:#649be6;fill-opacity:1;stroke:none" />
      </g>
    </g>
  </g>
</svg>
