<?xml version="1.0" encoding="utf-8"?>
<!-- Generator: Adobe Illustrator 16.0.0, SVG Export Plug-In . SVG Version: 6.00 Build 0)  -->
<!DOCTYPE svg PUBLIC "-//W3C//DTD SVG 1.1//EN" "http://www.w3.org/Graphics/SVG/1.1/DTD/svg11.dtd">
<svg version="1.1" id="图层_1" xmlns="http://www.w3.org/2000/svg" xmlns:xlink="http://www.w3.org/1999/xlink" x="0px" y="0px"
	 width="22px" height="22px" viewBox="0 0 22 22" enable-background="new 0 0 22 22" xml:space="preserve">
<g>
	<path fill="#608CC1" d="M17.18,8.225c-0.196-0.052-0.562-0.079-1.094-0.079H13.82v3.166h2.29c0.758,0,1.295-0.141,1.614-0.423
		c0.316-0.282,0.479-0.679,0.479-1.19c0-0.371-0.095-0.688-0.282-0.952C17.732,8.484,17.485,8.31,17.18,8.225z"/>
	<path fill="#608CC1" d="M19.078,0H2.922C1.298,0,0,1.298,0,2.922v16.156C0,20.701,1.298,22,2.922,22h16.156
		C20.701,22,22,20.701,22,19.078V2.922C22,1.298,20.701,0,19.078,0z M9.561,13.271c-0.157,0.52-0.358,0.949-0.604,1.29
		c-0.246,0.342-0.515,0.608-0.807,0.804c-0.292,0.196-0.645,0.344-1.057,0.444C6.68,15.909,6.206,15.96,5.67,15.96H2.474V7.101
		h3.051c0.689,0,1.214,0.042,1.577,0.127c0.507,0.117,0.94,0.329,1.299,0.635C8.868,8.257,9.217,8.762,9.45,9.376
		c0.231,0.614,0.347,1.316,0.347,2.106C9.796,12.154,9.718,12.751,9.561,13.271z M18.691,11.576c-0.48,0.522-1.346,0.783-2.6,0.783
		H13.82v3.601h-1.172V7.101h3.342c0.588,0,1.036,0.028,1.348,0.085c0.436,0.072,0.798,0.21,1.093,0.414
		c0.293,0.204,0.532,0.488,0.709,0.854c0.181,0.367,0.271,0.77,0.271,1.208C19.411,10.417,19.17,11.054,18.691,11.576z"/>
	<path fill="#608CC1" d="M7.023,8.328c-0.314-0.121-0.82-0.182-1.517-0.182H3.646v6.768h1.892c0.584,0,1.042-0.055,1.375-0.162
		c0.332-0.11,0.597-0.264,0.794-0.459c0.278-0.279,0.494-0.653,0.649-1.122c0.155-0.468,0.233-1.038,0.233-1.706
		c0-0.927-0.152-1.639-0.456-2.137C7.828,8.831,7.458,8.497,7.023,8.328z"/>
</g>
</svg>
