<?xml version="1.0" encoding="UTF-8" standalone="no"?>
<!-- Created with Inkscape (http://www.inkscape.org/) -->

<svg
   xmlns:dc="http://purl.org/dc/elements/1.1/"
   xmlns:cc="http://creativecommons.org/ns#"
   xmlns:rdf="http://www.w3.org/1999/02/22-rdf-syntax-ns#"
   xmlns:svg="http://www.w3.org/2000/svg"
   xmlns="http://www.w3.org/2000/svg"
   version="1.1"
   width="22"
   height="22"
   id="svg15992">
  <defs
     id="defs15994" />
  <metadata
     id="metadata15997">
    <rdf:RDF>
      <cc:Work
         rdf:about="">
        <dc:format>image/svg+xml</dc:format>
        <dc:type
           rdf:resource="http://purl.org/dc/dcmitype/StillImage" />
        <dc:title></dc:title>
      </cc:Work>
    </rdf:RDF>
  </metadata>
  <g
     transform="translate(3,3.4955)"
     id="layer1-8">
    <g
       id="text5399"
       style="font-size:7px;font-style:normal;font-variant:normal;font-weight:bold;font-stretch:normal;line-height:125%;letter-spacing:0px;word-spacing:0px;fill:#000000;fill-opacity:1;stroke:none;font-family:Arial;-inkscape-font-specification:Arial Bold" />
    <g
       transform="translate(0,-1036.4247)"
       id="layer1-3">
      <g
         transform="scale(0.89723629,1.1145336)"
         id="text5639"
         style="font-size:7.97739649px;font-style:normal;font-variant:normal;font-weight:bold;font-stretch:normal;line-height:125%;letter-spacing:0px;word-spacing:0px;fill:#cccccc;fill-opacity:1;stroke:none;font-family:Arial;-inkscape-font-specification:Arial Bold" />
      <g
         transform="scale(1.0195853,0.98079088)"
         id="text6068"
         style="font-size:6.62408876px;font-style:normal;font-variant:normal;font-weight:bold;font-stretch:normal;line-height:125%;letter-spacing:0px;word-spacing:0px;fill:#000000;fill-opacity:1;stroke:none;font-family:Arial;-inkscape-font-specification:Arial Bold" />
      <g
         id="text6125"
         style="font-size:6px;font-style:normal;font-variant:normal;font-weight:bold;font-stretch:normal;line-height:125%;letter-spacing:0px;word-spacing:0px;fill:#000000;fill-opacity:1;stroke:none;font-family:Arial;-inkscape-font-specification:Arial Bold" />
    </g>
    <g
       transform="translate(0,-1036.3622)"
       id="layer1-84">
      <g
         transform="scale(0.93557544,1.0688609)"
         id="text7308"
         style="font-size:8.03458023px;font-style:normal;font-variant:normal;font-weight:bold;font-stretch:normal;line-height:125%;letter-spacing:0px;word-spacing:0px;fill:#ffffff;fill-opacity:1;stroke:none;font-family:Arial;-inkscape-font-specification:Arial Bold" />
    </g>
    <g
       transform="scale(0.9686171,1.0323997)"
       id="text5724"
       style="font-size:9.88508701px;font-style:normal;font-variant:normal;font-weight:bold;font-stretch:normal;line-height:125%;letter-spacing:0px;word-spacing:0px;fill:#ffffff;fill-opacity:1;stroke:none;font-family:Arial;-inkscape-font-specification:Arial Bold" />
    <g
       id="text5751"
       style="font-size:7px;font-style:normal;font-variant:normal;font-weight:bold;font-stretch:normal;line-height:125%;letter-spacing:0px;word-spacing:0px;fill:#ffffff;fill-opacity:1;stroke:none;font-family:Arial;-inkscape-font-specification:Arial Bold" />
    <g
       id="layer1-37">
      <g
         id="text5141"
         style="font-size:7px;font-style:normal;font-variant:normal;font-weight:bold;font-stretch:normal;line-height:125%;letter-spacing:0px;word-spacing:0px;fill:#000000;fill-opacity:1;stroke:none;font-family:Arial;-inkscape-font-specification:Arial Bold" />
    </g>
    <g
       transform="scale(1.0995518,0.90946149)"
       id="text5804"
       style="font-size:6.36623049px;font-style:normal;font-variant:normal;font-weight:bold;font-stretch:normal;line-height:125%;letter-spacing:0px;word-spacing:0px;fill:#000000;fill-opacity:1;stroke:none;font-family:Arial;-inkscape-font-specification:Arial Bold" />
    <g
       transform="scale(0.94725198,1.0556853)"
       id="text5938"
       style="font-size:7px;font-style:normal;font-variant:normal;font-weight:bold;font-stretch:normal;line-height:125%;letter-spacing:0px;word-spacing:0px;fill:#000000;fill-opacity:1;stroke:none;font-family:Arial;-inkscape-font-specification:Arial Bold" />
  </g>
  <g
     transform="matrix(1.3669903,0,0,1.375,30.30548,-1427.3285)"
     id="layer1-849">
    <g
       id="text7004"
       style="font-size:6px;font-style:normal;font-variant:normal;font-weight:bold;font-stretch:normal;line-height:125%;letter-spacing:0px;word-spacing:0px;fill:#000000;fill-opacity:1;stroke:none;font-family:Arial;-inkscape-font-specification:Arial Bold" />
  </g>
  <g
     transform="matrix(1.375,0,0,1.375,0,-1424.998)"
     id="layer1-2">
    <g
       transform="scale(0.93557544,1.0688609)"
       id="text7308-2"
       style="font-size:6.13837099px;font-style:normal;font-variant:normal;font-weight:bold;font-stretch:normal;line-height:125%;letter-spacing:0px;word-spacing:0px;fill:#ffffff;fill-opacity:1;stroke:none;font-family:Arial;-inkscape-font-specification:Arial Bold" />
  </g>
  <g
     transform="matrix(1.375,0,0,1.375,26.097206,-1437.8303)"
     id="layer1-29" />
  <g
     transform="matrix(1.375,0,0,1.375,0,-1424.998)"
     id="layer1-3-2">
    <g
       transform="scale(0.93557544,1.0688609)"
       id="text7308-5"
       style="font-size:6.13837099px;font-style:normal;font-variant:normal;font-weight:bold;font-stretch:normal;line-height:125%;letter-spacing:0px;word-spacing:0px;fill:#ffffff;fill-opacity:1;stroke:none;font-family:Arial;-inkscape-font-specification:Arial Bold" />
  </g>
  <g
     transform="matrix(1.375,0,0,1.375,0,-1424.998)"
     id="layer1-3-1">
    <g
       transform="scale(0.93557544,1.0688609)"
       id="text7308-7"
       style="font-size:6.13837099px;font-style:normal;font-variant:normal;font-weight:bold;font-stretch:normal;line-height:125%;letter-spacing:0px;word-spacing:0px;fill:#ffffff;fill-opacity:1;stroke:none;font-family:Arial;-inkscape-font-specification:Arial Bold" />
  </g>
  <g
     transform="matrix(1.5,0,0,1.5,-29.444014,-1553.2731)"
     id="layer1-6">
    <g
       transform="scale(0.93557544,1.0688609)"
       id="text7308-3"
       style="font-size:6.13837099px;font-style:normal;font-variant:normal;font-weight:bold;font-stretch:normal;line-height:125%;letter-spacing:0px;word-spacing:0px;fill:#ffffff;fill-opacity:1;stroke:none;font-family:Arial;-inkscape-font-specification:Arial Bold" />
  </g>
  <g
     transform="matrix(1.375,0,0,1.375,0,-1424.998)"
     id="layer1-2-2">
    <g
       transform="scale(0.93557544,1.0688609)"
       id="text7308-2-5"
       style="font-size:8.38767338px;font-style:normal;font-variant:normal;font-weight:bold;font-stretch:normal;line-height:125%;letter-spacing:0px;word-spacing:0px;fill:#ffffff;fill-opacity:1;stroke:none;font-family:Arial;-inkscape-font-specification:Arial Bold" />
  </g>
  <g
     transform="translate(16.574815,9.6265)"
     id="g18916">
    <g
       transform="translate(0,-1036.3622)"
       id="layer1-37-1">
      <g
         transform="scale(0.93557544,1.0688609)"
         id="text7308-75"
         style="font-size:8.38767338px;font-style:normal;font-variant:normal;font-weight:bold;font-stretch:normal;line-height:125%;letter-spacing:0px;word-spacing:0px;fill:#ffffff;fill-opacity:1;stroke:none;font-family:Arial;-inkscape-font-specification:Arial Bold" />
    </g>
    <g
       id="text3074-3"
       style="font-size:7px;font-style:normal;font-variant:normal;font-weight:bold;font-stretch:normal;line-height:125%;letter-spacing:0px;word-spacing:0px;fill:#ffffff;fill-opacity:1;stroke:none;font-family:Arial;-inkscape-font-specification:Arial Bold" />
    <g
       id="text3330-4"
       style="font-size:7px;font-style:normal;font-variant:normal;font-weight:bold;font-stretch:normal;line-height:125%;letter-spacing:0px;word-spacing:0px;fill:#ffffff;fill-opacity:1;stroke:none;font-family:Arial;-inkscape-font-specification:Arial Bold" />
    <g
       id="text3334-3"
       style="font-size:7px;font-style:normal;font-variant:normal;font-weight:bold;font-stretch:normal;line-height:125%;letter-spacing:0px;word-spacing:0px;fill:#ffffff;fill-opacity:1;stroke:none;font-family:Arial;-inkscape-font-specification:Arial Bold" />
    <g
       transform="scale(1.0025516,0.99745489)"
       id="text3420"
       style="font-size:8.28998661px;font-style:normal;font-variant:normal;font-weight:bold;font-stretch:normal;line-height:125%;letter-spacing:0px;word-spacing:0px;fill:#ffffff;fill-opacity:1;stroke:none;font-family:Arial;-inkscape-font-specification:Arial Bold" />
  </g>
  <g
     transform="matrix(1.375,0,0,1.375,16.40678,-4.8474576)"
     id="layer2-8"
     style="fill:#649be6;fill-opacity:1" />
  <g
     transform="matrix(1.3113635,0,0,1.4417246,-3.8220332,8.1101695)"
     id="text3110-4"
     style="font-size:2.55049467px;font-style:normal;font-weight:normal;line-height:125%;letter-spacing:0px;word-spacing:0px;fill:#649be6;fill-opacity:1;stroke:none;font-family:Sans" />
  <g
     transform="matrix(1.375,0,0,1.375,16.40678,-4.8474576)"
     id="text10075"
     style="font-size:6px;font-style:normal;font-variant:normal;font-weight:bold;font-stretch:normal;line-height:125%;letter-spacing:0px;word-spacing:0px;fill:#649be6;fill-opacity:1;stroke:none;font-family:Arial;-inkscape-font-specification:Arial Bold" />
  <path
     d="M 10.95703,3.2e-7 C 4.883341,3.2e-7 0,4.8833409 0,10.957032 0,17.030722 4.883341,22 10.95703,22 c 0.197083,0 0.406981,-0.03268 0.601563,-0.04297 -0.793161,-0.07026 -1.417968,-0.69188 -1.417968,-1.503907 l 0,-1.589843 -1.8906256,-1.933594 1.8906256,0 0,-1.976563 0,-1.546875 c 0,-0.428798 -0.1752506,-1.513671 -0.9023446,-1.71875 l 1.4179686,0 c 0.747723,0 0.97296,1.216671 0.988281,1.71875 0.01457,-4e-4 0.0283,0 0.04297,0 l 8.765625,0 C 22.177006,14.381605 21.902361,12.177437 22,10.95703 22,4.8833389 17.030721,-1.68e-6 10.957031,-1.68e-6 z m -0.08594,2.36328198 2.664063,2.6640616 -1.890626,0 0,3.480469 c 0,0.447442 -0.205257,1.7617191 -0.98828,1.7617191 l -1.4179686,0 C 9.9653714,10.064453 10.140623,8.9795799 10.140623,8.5507819 l 0,-3.523438 -1.8906256,0 2.6210926,-2.6640616 z m -7.390624,5.2851556 0,1.890626 3.6093754,0 c 0.428798,0 1.470703,-0.175251 1.675781,-0.902345 l 0,1.4179691 c 0,0.783024 -1.314277,0.988281 -1.761718,0.988281 l -3.5234384,0 0,1.890625 -2.621093,-2.664062 2.621093,-2.6210941 z m 14.996093,0 2.621094,2.6210941 -2.621094,2.664062 0,-1.890625 -3.566406,0 c -0.428801,0 -1.513673,0.218219 -1.71875,0.945313 l 0,-1.460938 c 1e-6,-0.7830231 1.314275,-0.9882801 1.761719,-0.9882801 l 3.523437,0 0,-1.890626 z m -4.640625,6.6601561 0,4.425781 c -2e-6,0.557702 -0.04342,0.940168 -0.171875,1.117188 -0.128462,0.177024 -0.334353,0.257814 -0.644531,0.257812 -0.30705,2e-6 -0.537111,-0.09624 -0.6875,-0.34375 -0.100263,-0.162922 -0.156211,-0.464597 -0.171875,-0.859375 l -1.332031,0.171875 c 0.0031,0.73629 0.192016,1.295106 0.558593,1.675782 0.366576,0.380677 0.866983,0.558593 1.546875,0.558593 0.579628,0 1.063921,-0.1439 1.417969,-0.386718 0.354041,-0.242818 0.595747,-0.544271 0.730469,-0.945313 0.100265,-0.307046 0.171871,-0.761798 0.171875,-1.332031 l 0,-4.339844 -1.417969,0 z m 2.878907,0 0,6.875 1.417968,0 0,-2.578125 0.902344,0 c 0.629757,0 1.085853,-0.06311 1.417969,-0.128906 0.24438,-0.05327 0.493912,-0.13629 0.730469,-0.300781 0.236546,-0.164486 0.448032,-0.399248 0.601562,-0.6875 0.153519,-0.288246 0.214838,-0.651242 0.214844,-1.074219 -6e-6,-0.548294 -0.120409,-0.985814 -0.386719,-1.332031 -0.266322,-0.346206 -0.59351,-0.5841 -0.988281,-0.6875 -0.256922,-0.06893 -0.829837,-0.08594 -1.675781,-0.08594 l -2.234375,0 z m 1.417968,1.160156 0.644532,0 c 0.501298,0 0.865189,0.01169 1.03125,0.04297 0.225581,0.04074 0.411332,0.137863 0.558593,0.300781 0.147256,0.162928 0.214839,0.393886 0.214844,0.644532 -5e-6,0.203658 -0.06692,0.362106 -0.171875,0.515625 -0.104967,0.153528 -0.244837,0.271686 -0.429687,0.34375 -0.18486,0.07206 -0.568893,0.08594 -1.117188,0.08594 l -0.730469,0 0,-1.933594 z"
     id="path3026-1"
     style="fill:#649be6;fill-opacity:1;stroke:none" />
</svg>
