<?xml version="1.0" encoding="UTF-8" standalone="no"?>
<!-- Created with Inkscape (http://www.inkscape.org/) -->

<svg
   xmlns:dc="http://purl.org/dc/elements/1.1/"
   xmlns:cc="http://creativecommons.org/ns#"
   xmlns:rdf="http://www.w3.org/1999/02/22-rdf-syntax-ns#"
   xmlns:svg="http://www.w3.org/2000/svg"
   xmlns="http://www.w3.org/2000/svg"
   version="1.1"
   width="22"
   height="22"
   id="svg15992">
  <defs
     id="defs15994" />
  <metadata
     id="metadata15997">
    <rdf:RDF>
      <cc:Work
         rdf:about="">
        <dc:format>image/svg+xml</dc:format>
        <dc:type
           rdf:resource="http://purl.org/dc/dcmitype/StillImage" />
        <dc:title></dc:title>
      </cc:Work>
    </rdf:RDF>
  </metadata>
  <g
     id="g18949">
    <path
       d="m 0.27966118,12.444915 a 10.673729,10.021187 0 1 1 -21.34745818,0 10.673729,10.021187 0 1 1 21.34745818,0 z"
       transform="matrix(0.98372369,0,0,1.0477801,21.190992,-2.098856)"
       id="path18500"
       style="fill:#ffffff;fill-rule:evenodd;stroke:none" />
    <g
       transform="translate(0,-1030.3622)"
       id="layer1">
      <g
         transform="translate(3,1033.8577)"
         id="layer1-8">
        <g
           id="text5399"
           style="font-size:7px;font-style:normal;font-variant:normal;font-weight:bold;font-stretch:normal;line-height:125%;letter-spacing:0px;word-spacing:0px;fill:#000000;fill-opacity:1;stroke:none;font-family:Arial;-inkscape-font-specification:Arial Bold" />
        <g
           transform="translate(0,-1036.4247)"
           id="layer1-3">
          <g
             transform="scale(0.89723629,1.1145336)"
             id="text5639"
             style="font-size:7.97739649px;font-style:normal;font-variant:normal;font-weight:bold;font-stretch:normal;line-height:125%;letter-spacing:0px;word-spacing:0px;fill:#cccccc;fill-opacity:1;stroke:none;font-family:Arial;-inkscape-font-specification:Arial Bold" />
          <g
             transform="scale(1.0195853,0.98079088)"
             id="text6068"
             style="font-size:6.62408876px;font-style:normal;font-variant:normal;font-weight:bold;font-stretch:normal;line-height:125%;letter-spacing:0px;word-spacing:0px;fill:#000000;fill-opacity:1;stroke:none;font-family:Arial;-inkscape-font-specification:Arial Bold" />
          <g
             id="text6125"
             style="font-size:6px;font-style:normal;font-variant:normal;font-weight:bold;font-stretch:normal;line-height:125%;letter-spacing:0px;word-spacing:0px;fill:#000000;fill-opacity:1;stroke:none;font-family:Arial;-inkscape-font-specification:Arial Bold" />
        </g>
        <g
           transform="translate(0,-1036.3622)"
           id="layer1-84">
          <g
             transform="scale(0.93557544,1.0688609)"
             id="text7308"
             style="font-size:8.03458023px;font-style:normal;font-variant:normal;font-weight:bold;font-stretch:normal;line-height:125%;letter-spacing:0px;word-spacing:0px;fill:#ffffff;fill-opacity:1;stroke:none;font-family:Arial;-inkscape-font-specification:Arial Bold" />
        </g>
        <g
           transform="scale(0.9686171,1.0323997)"
           id="text5724"
           style="font-size:9.88508701px;font-style:normal;font-variant:normal;font-weight:bold;font-stretch:normal;line-height:125%;letter-spacing:0px;word-spacing:0px;fill:#ffffff;fill-opacity:1;stroke:none;font-family:Arial;-inkscape-font-specification:Arial Bold" />
        <g
           id="text5751"
           style="font-size:7px;font-style:normal;font-variant:normal;font-weight:bold;font-stretch:normal;line-height:125%;letter-spacing:0px;word-spacing:0px;fill:#ffffff;fill-opacity:1;stroke:none;font-family:Arial;-inkscape-font-specification:Arial Bold" />
        <g
           id="layer1-37">
          <g
             id="text5141"
             style="font-size:7px;font-style:normal;font-variant:normal;font-weight:bold;font-stretch:normal;line-height:125%;letter-spacing:0px;word-spacing:0px;fill:#000000;fill-opacity:1;stroke:none;font-family:Arial;-inkscape-font-specification:Arial Bold" />
        </g>
        <g
           transform="scale(1.0995518,0.90946149)"
           id="text5804"
           style="font-size:6.36623049px;font-style:normal;font-variant:normal;font-weight:bold;font-stretch:normal;line-height:125%;letter-spacing:0px;word-spacing:0px;fill:#000000;fill-opacity:1;stroke:none;font-family:Arial;-inkscape-font-specification:Arial Bold" />
        <g
           transform="scale(0.94725198,1.0556853)"
           id="text5938"
           style="font-size:7px;font-style:normal;font-variant:normal;font-weight:bold;font-stretch:normal;line-height:125%;letter-spacing:0px;word-spacing:0px;fill:#000000;fill-opacity:1;stroke:none;font-family:Arial;-inkscape-font-specification:Arial Bold" />
      </g>
      <g
         transform="matrix(1.3669903,0,0,1.375,30.30548,-396.96631)"
         id="layer1-849">
        <g
           id="text7004"
           style="font-size:6px;font-style:normal;font-variant:normal;font-weight:bold;font-stretch:normal;line-height:125%;letter-spacing:0px;word-spacing:0px;fill:#000000;fill-opacity:1;stroke:none;font-family:Arial;-inkscape-font-specification:Arial Bold" />
      </g>
      <g
         transform="matrix(1.375,0,0,1.375,0,-394.63583)"
         id="layer1-2">
        <g
           transform="scale(0.93557544,1.0688609)"
           id="text7308-2"
           style="font-size:6.13837099px;font-style:normal;font-variant:normal;font-weight:bold;font-stretch:normal;line-height:125%;letter-spacing:0px;word-spacing:0px;fill:#ffffff;fill-opacity:1;stroke:none;font-family:Arial;-inkscape-font-specification:Arial Bold" />
      </g>
      <g
         transform="matrix(1.375,0,0,1.375,26.097206,-407.46806)"
         id="layer1-29" />
      <g
         transform="matrix(1.375,0,0,1.375,0,-394.63583)"
         id="layer1-3-2">
        <g
           transform="scale(0.93557544,1.0688609)"
           id="text7308-5"
           style="font-size:6.13837099px;font-style:normal;font-variant:normal;font-weight:bold;font-stretch:normal;line-height:125%;letter-spacing:0px;word-spacing:0px;fill:#ffffff;fill-opacity:1;stroke:none;font-family:Arial;-inkscape-font-specification:Arial Bold" />
      </g>
      <g
         transform="matrix(1.375,0,0,1.375,0,-394.63583)"
         id="layer1-3-1">
        <g
           transform="scale(0.93557544,1.0688609)"
           id="text7308-7"
           style="font-size:6.13837099px;font-style:normal;font-variant:normal;font-weight:bold;font-stretch:normal;line-height:125%;letter-spacing:0px;word-spacing:0px;fill:#ffffff;fill-opacity:1;stroke:none;font-family:Arial;-inkscape-font-specification:Arial Bold" />
      </g>
      <g
         transform="matrix(1.5,0,0,1.5,-29.444014,-522.91085)"
         id="layer1-6">
        <g
           transform="scale(0.93557544,1.0688609)"
           id="text7308-3"
           style="font-size:6.13837099px;font-style:normal;font-variant:normal;font-weight:bold;font-stretch:normal;line-height:125%;letter-spacing:0px;word-spacing:0px;fill:#ffffff;fill-opacity:1;stroke:none;font-family:Arial;-inkscape-font-specification:Arial Bold" />
      </g>
      <g
         transform="matrix(1.375,0,0,1.375,0,-394.63583)"
         id="layer1-2-2">
        <g
           transform="scale(0.93557544,1.0688609)"
           id="text7308-2-5"
           style="font-size:8.38767338px;font-style:normal;font-variant:normal;font-weight:bold;font-stretch:normal;line-height:125%;letter-spacing:0px;word-spacing:0px;fill:#ffffff;fill-opacity:1;stroke:none;font-family:Arial;-inkscape-font-specification:Arial Bold" />
      </g>
      <g
         transform="translate(16.574815,1039.9887)"
         id="g18916">
        <g
           transform="translate(0,-1036.3622)"
           id="layer1-37-1">
          <g
             transform="scale(0.93557544,1.0688609)"
             id="text7308-75"
             style="font-size:8.38767338px;font-style:normal;font-variant:normal;font-weight:bold;font-stretch:normal;line-height:125%;letter-spacing:0px;word-spacing:0px;fill:#ffffff;fill-opacity:1;stroke:none;font-family:Arial;-inkscape-font-specification:Arial Bold" />
        </g>
        <g
           id="text3074-3"
           style="font-size:7px;font-style:normal;font-variant:normal;font-weight:bold;font-stretch:normal;line-height:125%;letter-spacing:0px;word-spacing:0px;fill:#ffffff;fill-opacity:1;stroke:none;font-family:Arial;-inkscape-font-specification:Arial Bold" />
        <g
           id="text3330-4"
           style="font-size:7px;font-style:normal;font-variant:normal;font-weight:bold;font-stretch:normal;line-height:125%;letter-spacing:0px;word-spacing:0px;fill:#ffffff;fill-opacity:1;stroke:none;font-family:Arial;-inkscape-font-specification:Arial Bold" />
        <g
           id="text3334-3"
           style="font-size:7px;font-style:normal;font-variant:normal;font-weight:bold;font-stretch:normal;line-height:125%;letter-spacing:0px;word-spacing:0px;fill:#ffffff;fill-opacity:1;stroke:none;font-family:Arial;-inkscape-font-specification:Arial Bold" />
        <g
           transform="scale(1.0025516,0.99745489)"
           id="text3420"
           style="font-size:8.28998661px;font-style:normal;font-variant:normal;font-weight:bold;font-stretch:normal;line-height:125%;letter-spacing:0px;word-spacing:0px;fill:#ffffff;fill-opacity:1;stroke:none;font-family:Arial;-inkscape-font-specification:Arial Bold" />
      </g>
      <g
         transform="matrix(1.375,0,0,1.375,0,1030.3622)"
         id="g19940"
         style="fill:#649be6;fill-opacity:1">
        <g
           id="layer2"
           style="fill:#649be6;fill-opacity:1" />
        <g
           id="layer1-16"
           style="fill:#649be6;fill-opacity:1">
          <path
             d="M 7.96875,0 C 3.5515207,0 0,3.5515207 0,7.96875 0,12.385979 3.5515207,16 7.96875,16 8.112083,16 8.2647361,15.976233 8.40625,15.96875 7.8294057,15.917653 7.375,15.465565 7.375,14.875 l 0,-1.15625 L 6,12.3125 l 1.375,0 0,-1.4375 0,-1.125 C 7.375,9.4381464 7.2475455,8.6491478 6.71875,8.5 L 7.75,8.5 c 0.5437988,0 0.7076076,0.8848514 0.71875,1.25 0.010595,-2.914e-4 0.020582,0 0.03125,0 l 6.375,0 c 0.312428,0 0.608632,0.1398822 0.8125,0.34375 C 15.871676,9.420743 16,8.6990838 16,7.96875 16,3.5515207 12.385979,0 7.96875,0 z m -0.0625,1.71875 1.9375,1.9375 -1.375,0 0,2.53125 c 0,0.3254127 -0.1492783,1.28125 -0.71875,1.28125 l -1.03125,0 C 7.2475451,7.319602 7.375,6.5306032 7.375,6.21875 l 0,-2.5625 -1.375,0 1.90625,-1.9375 z m -5.375,3.84375 0,1.375 2.625,0 c 0.3118536,0 1.0696027,-0.1274548 1.21875,-0.65625 l 0,1.03125 c 1e-7,0.5694718 -0.9558377,0.71875 -1.28125,0.71875 l -2.5625,0 0,1.375 L 0.625,7.46875 2.53125,5.5625 z m 10.90625,0 1.90625,1.90625 -1.90625,1.9375 0,-1.375 -2.59375,0 c -0.311855,-10e-8 -1.1008531,0.1587046 -1.25,0.6875 l 0,-1.0625 C 9.593751,7.086778 10.549586,6.9375 10.875,6.9375 l 2.5625,0 0,-1.375 z m -3.5,5.15625 c -0.5585081,4e-6 -1.001031,0.221301 -1.34375,0.625 -0.3427206,0.403706 -0.5000002,0.957847 -0.5,1.6875 -2e-7,0.689785 0.1590928,1.227278 0.5,1.625 0.3409057,0.397722 0.7830054,0.59375 1.3125,0.59375 0.427945,0 0.78415,-0.111496 1.0625,-0.34375 0.278344,-0.232253 0.474067,-0.584036 0.59375,-1.0625 L 10.78125,13.5625 c -0.0671,0.32097 -0.189619,0.569232 -0.34375,0.71875 -0.154135,0.14952 -0.317278,0.218751 -0.53125,0.21875 -0.2901346,10e-7 -0.5374182,-0.108506 -0.71875,-0.34375 -0.1813348,-0.235243 -0.2812511,-0.633279 -0.28125,-1.1875 -1.1e-6,-0.52232 0.097195,-0.891747 0.28125,-1.125 0.1840518,-0.233247 0.4231753,-0.374997 0.71875,-0.375 0.213972,3e-6 0.412898,0.08718 0.5625,0.21875 0.149597,0.131581 0.234098,0.303984 0.28125,0.53125 L 11.53125,12 C 11.44058,11.64913 11.30633,11.374902 11.125,11.1875 10.820356,10.870523 10.425284,10.718754 9.9375,10.71875 z m 4.03125,0 c -0.558508,4e-6 -1.001031,0.221301 -1.34375,0.625 -0.342721,0.403706 -0.53125,0.957847 -0.53125,1.6875 0,0.689785 0.190343,1.227278 0.53125,1.625 0.340906,0.397722 0.783006,0.59375 1.3125,0.59375 0.427945,0 0.78415,-0.111496 1.0625,-0.34375 0.278344,-0.232253 0.474067,-0.584036 0.59375,-1.0625 L 14.8125,13.5625 c -0.0671,0.32097 -0.189619,0.569232 -0.34375,0.71875 -0.154135,0.14952 -0.348529,0.218751 -0.5625,0.21875 -0.290136,10e-7 -0.506168,-0.108506 -0.6875,-0.34375 -0.181331,-0.235243 -0.281251,-0.633279 -0.28125,-1.1875 -10e-7,-0.52232 0.0972,-0.891747 0.28125,-1.125 0.184052,-0.233247 0.423175,-0.374997 0.71875,-0.375 0.213972,3e-6 0.381648,0.08718 0.53125,0.21875 0.149597,0.131581 0.265348,0.303984 0.3125,0.53125 L 15.5625,12 c -0.09067,-0.35087 -0.22492,-0.625098 -0.40625,-0.8125 -0.304644,-0.316977 -0.699716,-0.468746 -1.1875,-0.46875 z"
             id="path3026"
             style="fill:#649be6;fill-opacity:1;stroke:none" />
          <g
             transform="scale(0.9537189,1.048527)"
             id="text3110"
             style="font-size:2.55049467px;font-style:normal;font-weight:normal;line-height:125%;letter-spacing:0px;word-spacing:0px;fill:#649be6;fill-opacity:1;stroke:none;font-family:Sans" />
        </g>
      </g>
    </g>
  </g>
</svg>
