<?xml version="1.0" encoding="UTF-8" standalone="no"?>
<!-- Created with Inkscape (http://www.inkscape.org/) -->

<svg
   xmlns:dc="http://purl.org/dc/elements/1.1/"
   xmlns:cc="http://creativecommons.org/ns#"
   xmlns:rdf="http://www.w3.org/1999/02/22-rdf-syntax-ns#"
   xmlns:svg="http://www.w3.org/2000/svg"
   xmlns="http://www.w3.org/2000/svg"
   version="1.1"
   width="22"
   height="22"
   id="svg15992">
  <defs
     id="defs15994" />
  <metadata
     id="metadata15997">
    <rdf:RDF>
      <cc:Work
         rdf:about="">
        <dc:format>image/svg+xml</dc:format>
        <dc:type
           rdf:resource="http://purl.org/dc/dcmitype/StillImage" />
        <dc:title></dc:title>
      </cc:Work>
    </rdf:RDF>
  </metadata>
  <g
     id="g20564">
    <path
       d="m 2.891918,1.491522 17.095696,0 L 22,3.948693 22,18.424603 17.466586,22 2.92118,22 0.660128,18.7386 0.577598,4.007337 z"
       id="rect3155"
       style="fill:#ffffff;fill-opacity:1;fill-rule:nonzero;stroke:none" />
    <g
       transform="translate(0,-1030.3622)"
       id="layer1">
      <g
         transform="translate(3,1033.8577)"
         id="layer1-8">
        <g
           id="text5399"
           style="font-size:7px;font-style:normal;font-variant:normal;font-weight:bold;font-stretch:normal;line-height:125%;letter-spacing:0px;word-spacing:0px;fill:#000000;fill-opacity:1;stroke:none;font-family:Arial;-inkscape-font-specification:Arial Bold" />
        <g
           transform="translate(0,-1036.4247)"
           id="layer1-3">
          <g
             transform="scale(0.89723629,1.1145336)"
             id="text5639"
             style="font-size:7.97739649px;font-style:normal;font-variant:normal;font-weight:bold;font-stretch:normal;line-height:125%;letter-spacing:0px;word-spacing:0px;fill:#cccccc;fill-opacity:1;stroke:none;font-family:Arial;-inkscape-font-specification:Arial Bold" />
          <g
             transform="scale(1.0195853,0.98079088)"
             id="text6068"
             style="font-size:6.62408876px;font-style:normal;font-variant:normal;font-weight:bold;font-stretch:normal;line-height:125%;letter-spacing:0px;word-spacing:0px;fill:#000000;fill-opacity:1;stroke:none;font-family:Arial;-inkscape-font-specification:Arial Bold" />
          <g
             id="text6125"
             style="font-size:6px;font-style:normal;font-variant:normal;font-weight:bold;font-stretch:normal;line-height:125%;letter-spacing:0px;word-spacing:0px;fill:#000000;fill-opacity:1;stroke:none;font-family:Arial;-inkscape-font-specification:Arial Bold" />
        </g>
        <g
           transform="translate(0,-1036.3622)"
           id="layer1-84">
          <g
             transform="scale(0.93557544,1.0688609)"
             id="text7308"
             style="font-size:8.03458023px;font-style:normal;font-variant:normal;font-weight:bold;font-stretch:normal;line-height:125%;letter-spacing:0px;word-spacing:0px;fill:#ffffff;fill-opacity:1;stroke:none;font-family:Arial;-inkscape-font-specification:Arial Bold" />
        </g>
        <g
           transform="scale(0.9686171,1.0323997)"
           id="text5724"
           style="font-size:9.88508701px;font-style:normal;font-variant:normal;font-weight:bold;font-stretch:normal;line-height:125%;letter-spacing:0px;word-spacing:0px;fill:#ffffff;fill-opacity:1;stroke:none;font-family:Arial;-inkscape-font-specification:Arial Bold" />
        <g
           id="text5751"
           style="font-size:7px;font-style:normal;font-variant:normal;font-weight:bold;font-stretch:normal;line-height:125%;letter-spacing:0px;word-spacing:0px;fill:#ffffff;fill-opacity:1;stroke:none;font-family:Arial;-inkscape-font-specification:Arial Bold" />
        <g
           id="layer1-37">
          <g
             id="text5141"
             style="font-size:7px;font-style:normal;font-variant:normal;font-weight:bold;font-stretch:normal;line-height:125%;letter-spacing:0px;word-spacing:0px;fill:#000000;fill-opacity:1;stroke:none;font-family:Arial;-inkscape-font-specification:Arial Bold" />
        </g>
        <g
           transform="scale(1.0995518,0.90946149)"
           id="text5804"
           style="font-size:6.36623049px;font-style:normal;font-variant:normal;font-weight:bold;font-stretch:normal;line-height:125%;letter-spacing:0px;word-spacing:0px;fill:#000000;fill-opacity:1;stroke:none;font-family:Arial;-inkscape-font-specification:Arial Bold" />
        <g
           transform="scale(0.94725198,1.0556853)"
           id="text5938"
           style="font-size:7px;font-style:normal;font-variant:normal;font-weight:bold;font-stretch:normal;line-height:125%;letter-spacing:0px;word-spacing:0px;fill:#000000;fill-opacity:1;stroke:none;font-family:Arial;-inkscape-font-specification:Arial Bold" />
      </g>
      <g
         transform="matrix(1.3669903,0,0,1.375,30.30548,-396.96631)"
         id="layer1-849">
        <g
           id="text7004"
           style="font-size:6px;font-style:normal;font-variant:normal;font-weight:bold;font-stretch:normal;line-height:125%;letter-spacing:0px;word-spacing:0px;fill:#000000;fill-opacity:1;stroke:none;font-family:Arial;-inkscape-font-specification:Arial Bold" />
      </g>
      <g
         transform="matrix(1.375,0,0,1.375,0,-394.63583)"
         id="layer1-2">
        <g
           transform="scale(0.93557544,1.0688609)"
           id="text7308-2"
           style="font-size:6.13837099px;font-style:normal;font-variant:normal;font-weight:bold;font-stretch:normal;line-height:125%;letter-spacing:0px;word-spacing:0px;fill:#ffffff;fill-opacity:1;stroke:none;font-family:Arial;-inkscape-font-specification:Arial Bold" />
      </g>
      <g
         transform="matrix(1.375,0,0,1.375,26.097206,-407.46806)"
         id="layer1-29" />
      <g
         transform="matrix(1.375,0,0,1.375,0,-394.63583)"
         id="layer1-3-2">
        <g
           transform="scale(0.93557544,1.0688609)"
           id="text7308-5"
           style="font-size:6.13837099px;font-style:normal;font-variant:normal;font-weight:bold;font-stretch:normal;line-height:125%;letter-spacing:0px;word-spacing:0px;fill:#ffffff;fill-opacity:1;stroke:none;font-family:Arial;-inkscape-font-specification:Arial Bold" />
      </g>
      <g
         transform="matrix(1.375,0,0,1.375,0,-394.63583)"
         id="layer1-3-1">
        <g
           transform="scale(0.93557544,1.0688609)"
           id="text7308-7"
           style="font-size:6.13837099px;font-style:normal;font-variant:normal;font-weight:bold;font-stretch:normal;line-height:125%;letter-spacing:0px;word-spacing:0px;fill:#ffffff;fill-opacity:1;stroke:none;font-family:Arial;-inkscape-font-specification:Arial Bold" />
      </g>
      <g
         transform="matrix(1.5,0,0,1.5,-29.444014,-522.91085)"
         id="layer1-6">
        <g
           transform="scale(0.93557544,1.0688609)"
           id="text7308-3"
           style="font-size:6.13837099px;font-style:normal;font-variant:normal;font-weight:bold;font-stretch:normal;line-height:125%;letter-spacing:0px;word-spacing:0px;fill:#ffffff;fill-opacity:1;stroke:none;font-family:Arial;-inkscape-font-specification:Arial Bold" />
      </g>
      <g
         transform="matrix(1.375,0,0,1.375,0,-394.63583)"
         id="layer1-2-2">
        <g
           transform="scale(0.93557544,1.0688609)"
           id="text7308-2-5"
           style="font-size:8.38767338px;font-style:normal;font-variant:normal;font-weight:bold;font-stretch:normal;line-height:125%;letter-spacing:0px;word-spacing:0px;fill:#ffffff;fill-opacity:1;stroke:none;font-family:Arial;-inkscape-font-specification:Arial Bold" />
      </g>
      <g
         transform="translate(16.574815,1039.9887)"
         id="g18916">
        <g
           transform="translate(0,-1036.3622)"
           id="layer1-37-1">
          <g
             transform="scale(0.93557544,1.0688609)"
             id="text7308-75"
             style="font-size:8.38767338px;font-style:normal;font-variant:normal;font-weight:bold;font-stretch:normal;line-height:125%;letter-spacing:0px;word-spacing:0px;fill:#ffffff;fill-opacity:1;stroke:none;font-family:Arial;-inkscape-font-specification:Arial Bold" />
        </g>
        <g
           id="text3074-3"
           style="font-size:7px;font-style:normal;font-variant:normal;font-weight:bold;font-stretch:normal;line-height:125%;letter-spacing:0px;word-spacing:0px;fill:#ffffff;fill-opacity:1;stroke:none;font-family:Arial;-inkscape-font-specification:Arial Bold" />
        <g
           id="text3330-4"
           style="font-size:7px;font-style:normal;font-variant:normal;font-weight:bold;font-stretch:normal;line-height:125%;letter-spacing:0px;word-spacing:0px;fill:#ffffff;fill-opacity:1;stroke:none;font-family:Arial;-inkscape-font-specification:Arial Bold" />
        <g
           id="text3334-3"
           style="font-size:7px;font-style:normal;font-variant:normal;font-weight:bold;font-stretch:normal;line-height:125%;letter-spacing:0px;word-spacing:0px;fill:#ffffff;fill-opacity:1;stroke:none;font-family:Arial;-inkscape-font-specification:Arial Bold" />
        <g
           transform="scale(1.0025516,0.99745489)"
           id="text3420"
           style="font-size:8.28998661px;font-style:normal;font-variant:normal;font-weight:bold;font-stretch:normal;line-height:125%;letter-spacing:0px;word-spacing:0px;fill:#ffffff;fill-opacity:1;stroke:none;font-family:Arial;-inkscape-font-specification:Arial Bold" />
      </g>
      <path
         d="M 3.65625,0 C 1.62178,0 0,1.7027 0,3.8125 l 0,14.375 C 0,20.2973 1.62178,22 3.65625,22 l 14.6875,0 C 20.37823,22 22,20.2973 22,18.1875 L 22,3.8125 C 22,1.7027 20.37823,0 18.34375,0 L 3.65625,0 z M 14.375,2 c 1.471617,0 2.65625,1.3219114 2.65625,3 0,0.9051016 -0.353446,1.7251676 -0.90625,2.28125 0.602655,0.8502107 1.175046,1.779804 1.625,2.21875 1.099591,1.072694 1.5625,2.401425 1.5625,4.15625 0,0.180628 -0.04809,0.323441 -0.0625,0.5 -0.290723,-0.07526 -0.604646,-0.09375 -0.9375,-0.09375 -0.252559,0 -0.520046,-0.01312 -0.75,0.03125 0.07126,-0.388261 0.125,-0.769001 0.125,-1.1875 C 17.664469,11.419949 16.681973,9.6075174 15.9375,8 15.92382,8.00735 15.92104,7.99362 15.90625,8 L 14.9375,8.40625 c -0.4249,0.1831031 -0.865122,0.1987478 -1.28125,0 L 12.8125,8 C 12.71757,7.95465 12.636934,7.918294 12.59375,7.84375 c -0.05406,0.087092 -0.109606,0.1884906 -0.15625,0.25 -1.039286,1.4610971 -1.977961,2.891627 -2,5.15625 0,0.327743 0.02884,0.613683 0.09375,0.9375 -0.06967,-0.0038 -0.116303,0 -0.1875,0 -0.5496481,0 -1.0580231,0.07975 -1.46875,0.28125 -0.037223,-0.2811 -0.09375,-0.520166 -0.09375,-0.8125 0,-2.081108 0.6540291,-3.337305 2.125,-4.375 C 11.206936,9.0691316 11.591511,8.3352081 12,7.71875 12.146944,7.4969912 12.284525,7.2773622 12.4375,7.0625 12.006093,6.521266 11.75,5.7959582 11.75,5 c 0,-1.6780886 1.15338,-3 2.625,-3 z M 9.65625,2.03125 6.5625,7.875 9.03125,9.375 2,16.84375 5.6875,10.3125 2.3125,9.78125 l 7.34375,-7.75 z m 3.65625,2.4375 c -0.445775,0 -0.84375,0.387538 -0.84375,0.90625 0,0.389034 0.206023,0.7545497 0.5,0.90625 -0.129526,-0.1282238 -0.1875,-0.3890691 -0.1875,-0.625 0,-0.3899686 0.184603,-0.6875 0.46875,-0.6875 0.284147,0 0.53125,0.2975314 0.53125,0.6875 0.08493,-0.04023 0.168488,-0.051824 0.25,-0.0625 0.01207,-0.067212 0.0625,-0.1471784 0.0625,-0.21875 0,-0.518712 -0.335477,-0.90625 -0.78125,-0.90625 z M 15.4375,4.5 c -0.445774,0 -0.8125,0.387538 -0.8125,0.90625 0,0.1357582 0.01783,0.2551841 0.0625,0.375 0.05417,0.031017 0.133461,0.086728 0.1875,0.125 -0.0053,-0.039327 0,-0.082314 0,-0.125 0,-0.3899685 0.247103,-0.75 0.53125,-0.75 0.284147,0 0.5,0.3600315 0.5,0.75 0,0.2071707 -0.02145,0.402085 -0.125,0.53125 C 16.075227,6.1608001 16.25,5.7952841 16.25,5.40625 16.25,4.887538 15.883274,4.5 15.4375,4.5 z m -1.09375,1.4375 c -0.216621,1e-7 -0.430785,0.080257 -0.59375,0.21875 l -0.8125,0.75 c -0.244446,0.2077403 -0.348617,0.4744829 -0.21875,0.71875 0.02408,0.017689 0.06344,0.048024 0.09375,0.0625 l 0.84375,0.40625 c 0.416128,0.1987479 0.85635,0.1831034 1.28125,0 L 15.90625,7.6875 c 0.04016,-0.017302 0.02892,-0.070608 0.0625,-0.09375 0.105745,-0.2298228 0.04353,-0.4911598 -0.1875,-0.6875 l -0.84375,-0.75 C 14.774532,6.0177551 14.560372,5.9374999 14.34375,5.9375 z M 12.9375,7.03125 c 0.163922,0.1945321 0.741552,0.3125 1.4375,0.3125 0.695947,0 1.242328,-0.1179681 1.40625,-0.3125 0.0402,0.040738 0.03125,0.080315 0.03125,0.125 0,0.2482482 -0.614466,0.4375 -1.4375,0.4375 -0.823035,0 -1.53125,-0.1892518 -1.53125,-0.4375 0,-0.044684 0.0535,-0.084261 0.09375,-0.125 z M 11.90625,9.75 l 1,0 0,2.21875 2.0625,-2.21875 1.34375,0 -1.875,1.9375 2,3.0625 -1.3125,0 -1.375,-2.34375 -0.84375,0.8125 0,1.53125 -1,0 0,-5 z M 17.5,14.46875 c 0.162289,-0.01918 0.336877,0 0.53125,0 1.554979,0 1.96875,1.007305 1.96875,2.46875 0,1.461448 -2.382519,2.90625 -3.9375,2.90625 -1.554987,0 -0.09375,-1.882305 -0.09375,-3.34375 0,-1.278766 0.395233,-1.897059 1.53125,-2.03125 z m -7.28125,0.1875 c 1.554979,0 2.0625,0.569804 2.0625,2.03125 C 12.28125,18.148948 13.742488,20 12.1875,20 10.632522,20 8.25,18.586448 8.25,17.125 c 0,-1.461448 0.4137708,-2.46875 1.96875,-2.46875 z m 2.71875,2.9375 c 0.359635,0.178311 0.750647,0.3125 1.15625,0.3125 0.396266,0 0.741853,-0.140246 1.09375,-0.3125 l -0.125,0.3125 c 0,0 -0.283685,1.114961 -0.375,1.5625 C 14.472343,19.49966 14.254496,19.5 14.03125,19.5 c -0.210904,0 -0.389759,-0.0038 -0.59375,-0.03125 l -0.25,-1 -0.25,-0.875 z"
         transform="translate(0,1030.3622)"
         id="rect3001-7-4"
         style="fill:#649be6;fill-opacity:1;fill-rule:nonzero;stroke:none" />
      <g
         transform="translate(2.0604683,1034.7666)"
         id="layer1-03" />
      <g
         transform="matrix(1.1271466,0,0,1.125,3.3156841,1032.1081)"
         id="g21099">
        <g
           transform="matrix(1.1673496,0,0,1.1716247,-2.708065,-2.7459952)"
           id="layer1-6-7">
          <g
             id="text4267-0"
             style="font-size:6px;font-style:normal;font-variant:normal;font-weight:bold;font-stretch:normal;line-height:125%;letter-spacing:0px;word-spacing:0px;fill:#cccccc;fill-opacity:1;stroke:none;font-family:Arial;-inkscape-font-specification:Arial Bold" />
          <g
             transform="scale(0.92423852,1.0819718)"
             id="text4597-6"
             style="font-size:5.17998075px;font-style:normal;font-variant:normal;font-weight:bold;font-stretch:normal;line-height:125%;letter-spacing:0px;word-spacing:0px;fill:#000000;fill-opacity:1;stroke:none;font-family:Arial;-inkscape-font-specification:Arial Bold" />
        </g>
      </g>
      <g
         id="text21552"
         style="font-size:7px;font-style:normal;font-variant:normal;font-weight:bold;font-stretch:normal;line-height:125%;letter-spacing:0px;word-spacing:0px;fill:#000000;fill-opacity:1;stroke:none;font-family:Arial;-inkscape-font-specification:Arial Bold" />
    </g>
  </g>
</svg>
