<?xml version="1.0" encoding="UTF-8" standalone="no"?>
<!-- Created with Inkscape (http://www.inkscape.org/) -->

<svg
   xmlns:dc="http://purl.org/dc/elements/1.1/"
   xmlns:cc="http://creativecommons.org/ns#"
   xmlns:rdf="http://www.w3.org/1999/02/22-rdf-syntax-ns#"
   xmlns:svg="http://www.w3.org/2000/svg"
   xmlns="http://www.w3.org/2000/svg"
   version="1.1"
   width="22"
   height="22"
   id="svg15992">
  <defs
     id="defs15994" />
  <metadata
     id="metadata15997">
    <rdf:RDF>
      <cc:Work
         rdf:about="">
        <dc:format>image/svg+xml</dc:format>
        <dc:type
           rdf:resource="http://purl.org/dc/dcmitype/StillImage" />
        <dc:title></dc:title>
      </cc:Work>
    </rdf:RDF>
  </metadata>
  <g
     transform="translate(0,-1030.3622)"
     id="layer1">
    <g
       transform="translate(3,1033.8577)"
       id="layer1-8">
      <g
         id="text5399"
         style="font-size:7px;font-style:normal;font-variant:normal;font-weight:bold;font-stretch:normal;line-height:125%;letter-spacing:0px;word-spacing:0px;fill:#000000;fill-opacity:1;stroke:none;font-family:Arial;-inkscape-font-specification:Arial Bold" />
      <g
         transform="translate(0,-1036.4247)"
         id="layer1-3">
        <g
           transform="scale(0.89723629,1.1145336)"
           id="text5639"
           style="font-size:7.97739649px;font-style:normal;font-variant:normal;font-weight:bold;font-stretch:normal;line-height:125%;letter-spacing:0px;word-spacing:0px;fill:#cccccc;fill-opacity:1;stroke:none;font-family:Arial;-inkscape-font-specification:Arial Bold" />
        <g
           transform="scale(1.0195853,0.98079088)"
           id="text6068"
           style="font-size:6.62408876px;font-style:normal;font-variant:normal;font-weight:bold;font-stretch:normal;line-height:125%;letter-spacing:0px;word-spacing:0px;fill:#000000;fill-opacity:1;stroke:none;font-family:Arial;-inkscape-font-specification:Arial Bold" />
        <g
           id="text6125"
           style="font-size:6px;font-style:normal;font-variant:normal;font-weight:bold;font-stretch:normal;line-height:125%;letter-spacing:0px;word-spacing:0px;fill:#000000;fill-opacity:1;stroke:none;font-family:Arial;-inkscape-font-specification:Arial Bold" />
      </g>
      <g
         transform="translate(0,-1036.3622)"
         id="layer1-84">
        <g
           transform="scale(0.93557544,1.0688609)"
           id="text7308"
           style="font-size:8.03458023px;font-style:normal;font-variant:normal;font-weight:bold;font-stretch:normal;line-height:125%;letter-spacing:0px;word-spacing:0px;fill:#ffffff;fill-opacity:1;stroke:none;font-family:Arial;-inkscape-font-specification:Arial Bold" />
      </g>
      <g
         transform="scale(0.9686171,1.0323997)"
         id="text5724"
         style="font-size:9.88508701px;font-style:normal;font-variant:normal;font-weight:bold;font-stretch:normal;line-height:125%;letter-spacing:0px;word-spacing:0px;fill:#ffffff;fill-opacity:1;stroke:none;font-family:Arial;-inkscape-font-specification:Arial Bold" />
      <g
         id="text5751"
         style="font-size:7px;font-style:normal;font-variant:normal;font-weight:bold;font-stretch:normal;line-height:125%;letter-spacing:0px;word-spacing:0px;fill:#ffffff;fill-opacity:1;stroke:none;font-family:Arial;-inkscape-font-specification:Arial Bold" />
      <g
         id="layer1-37">
        <g
           id="text5141"
           style="font-size:7px;font-style:normal;font-variant:normal;font-weight:bold;font-stretch:normal;line-height:125%;letter-spacing:0px;word-spacing:0px;fill:#000000;fill-opacity:1;stroke:none;font-family:Arial;-inkscape-font-specification:Arial Bold" />
      </g>
      <g
         transform="scale(1.0995518,0.90946149)"
         id="text5804"
         style="font-size:6.36623049px;font-style:normal;font-variant:normal;font-weight:bold;font-stretch:normal;line-height:125%;letter-spacing:0px;word-spacing:0px;fill:#000000;fill-opacity:1;stroke:none;font-family:Arial;-inkscape-font-specification:Arial Bold" />
      <g
         transform="scale(0.94725198,1.0556853)"
         id="text5938"
         style="font-size:7px;font-style:normal;font-variant:normal;font-weight:bold;font-stretch:normal;line-height:125%;letter-spacing:0px;word-spacing:0px;fill:#000000;fill-opacity:1;stroke:none;font-family:Arial;-inkscape-font-specification:Arial Bold" />
    </g>
    <g
       transform="matrix(1.3669903,0,0,1.375,30.30548,-396.96631)"
       id="layer1-849">
      <g
         id="text7004"
         style="font-size:6px;font-style:normal;font-variant:normal;font-weight:bold;font-stretch:normal;line-height:125%;letter-spacing:0px;word-spacing:0px;fill:#000000;fill-opacity:1;stroke:none;font-family:Arial;-inkscape-font-specification:Arial Bold" />
    </g>
    <g
       transform="matrix(1.375,0,0,1.375,0,-394.63583)"
       id="layer1-2">
      <g
         transform="scale(0.93557544,1.0688609)"
         id="text7308-2"
         style="font-size:6.13837099px;font-style:normal;font-variant:normal;font-weight:bold;font-stretch:normal;line-height:125%;letter-spacing:0px;word-spacing:0px;fill:#ffffff;fill-opacity:1;stroke:none;font-family:Arial;-inkscape-font-specification:Arial Bold" />
    </g>
    <g
       transform="matrix(1.375,0,0,1.375,26.097206,-407.46806)"
       id="layer1-29" />
    <g
       transform="matrix(1.375,0,0,1.375,0,-394.63583)"
       id="layer1-3-2">
      <g
         transform="scale(0.93557544,1.0688609)"
         id="text7308-5"
         style="font-size:6.13837099px;font-style:normal;font-variant:normal;font-weight:bold;font-stretch:normal;line-height:125%;letter-spacing:0px;word-spacing:0px;fill:#ffffff;fill-opacity:1;stroke:none;font-family:Arial;-inkscape-font-specification:Arial Bold" />
    </g>
    <g
       transform="matrix(1.375,0,0,1.375,0,-394.63583)"
       id="layer1-3-1">
      <g
         transform="scale(0.93557544,1.0688609)"
         id="text7308-7"
         style="font-size:6.13837099px;font-style:normal;font-variant:normal;font-weight:bold;font-stretch:normal;line-height:125%;letter-spacing:0px;word-spacing:0px;fill:#ffffff;fill-opacity:1;stroke:none;font-family:Arial;-inkscape-font-specification:Arial Bold" />
    </g>
    <g
       transform="matrix(1.5,0,0,1.5,-29.444014,-522.91085)"
       id="layer1-6">
      <g
         transform="scale(0.93557544,1.0688609)"
         id="text7308-3"
         style="font-size:6.13837099px;font-style:normal;font-variant:normal;font-weight:bold;font-stretch:normal;line-height:125%;letter-spacing:0px;word-spacing:0px;fill:#ffffff;fill-opacity:1;stroke:none;font-family:Arial;-inkscape-font-specification:Arial Bold" />
    </g>
    <g
       transform="matrix(1.375,0,0,1.375,0,-394.63583)"
       id="layer1-2-2">
      <g
         transform="scale(0.93557544,1.0688609)"
         id="text7308-2-5"
         style="font-size:8.38767338px;font-style:normal;font-variant:normal;font-weight:bold;font-stretch:normal;line-height:125%;letter-spacing:0px;word-spacing:0px;fill:#ffffff;fill-opacity:1;stroke:none;font-family:Arial;-inkscape-font-specification:Arial Bold" />
    </g>
    <g
       transform="translate(16.574815,1039.9887)"
       id="g18916">
      <g
         transform="translate(0,-1036.3622)"
         id="layer1-37-1">
        <g
           transform="scale(0.93557544,1.0688609)"
           id="text7308-75"
           style="font-size:8.38767338px;font-style:normal;font-variant:normal;font-weight:bold;font-stretch:normal;line-height:125%;letter-spacing:0px;word-spacing:0px;fill:#ffffff;fill-opacity:1;stroke:none;font-family:Arial;-inkscape-font-specification:Arial Bold" />
      </g>
      <g
         id="text3074-3"
         style="font-size:7px;font-style:normal;font-variant:normal;font-weight:bold;font-stretch:normal;line-height:125%;letter-spacing:0px;word-spacing:0px;fill:#ffffff;fill-opacity:1;stroke:none;font-family:Arial;-inkscape-font-specification:Arial Bold" />
      <g
         id="text3330-4"
         style="font-size:7px;font-style:normal;font-variant:normal;font-weight:bold;font-stretch:normal;line-height:125%;letter-spacing:0px;word-spacing:0px;fill:#ffffff;fill-opacity:1;stroke:none;font-family:Arial;-inkscape-font-specification:Arial Bold" />
      <g
         id="text3334-3"
         style="font-size:7px;font-style:normal;font-variant:normal;font-weight:bold;font-stretch:normal;line-height:125%;letter-spacing:0px;word-spacing:0px;fill:#ffffff;fill-opacity:1;stroke:none;font-family:Arial;-inkscape-font-specification:Arial Bold" />
      <g
         transform="scale(1.0025516,0.99745489)"
         id="text3420"
         style="font-size:8.28998661px;font-style:normal;font-variant:normal;font-weight:bold;font-stretch:normal;line-height:125%;letter-spacing:0px;word-spacing:0px;fill:#ffffff;fill-opacity:1;stroke:none;font-family:Arial;-inkscape-font-specification:Arial Bold" />
    </g>
    <g
       transform="matrix(1.3671057,0,0,1.3771882,0.00336756,-396.90323)"
       id="layer1-67"
       style="fill:#649be6;fill-opacity:1">
      <path
         d="M 7.9375,0 C 6.6475314,0.01050427 5.3328602,0.3310625 4.125,1 0.2599251,3.1407 -1.1405718,8.01 1,11.875 c 1.7589387,3.175894 5.3482139,4.659898 8.71875,3.90625 L 11.03125,13.5 11.488803,12.723699 10.75,11.28125 11.5625,10.84375 C 11.135275,10.477416 10.819986,10.006879 10.625,9.46875 L 9.9375,9.84375 9.09375,8.3125 10.53125,7.53125 c 0.385728,-1.3642255 1.63948,-2.375 3.125,-2.375 0.791605,0 1.497965,0.3086332 2.0625,0.78125 C 15.553189,5.3205446 15.32344,4.7090015 15,4.125 13.528304,1.4677438 10.775431,-0.0231094 7.9375,0 z M 8.28125,1.53125 C 8.9907355,1.56225 9.7155052,1.6828 10.375,1.9375 L 9.34375,2.5 C 8.9934693,2.1479 8.6510915,1.82385 8.28125,1.53125 z M 6.25,1.75 C 6.8614184,2.1617 7.4665563,2.65045 8.03125,3.21875 L 6.6875,3.96875 5.59375,2 C 5.58846,1.99 5.5994,1.97775 5.59375,1.96875 5.8101549,1.88275 6.0293328,1.8119 6.25,1.75 z m -2.09375,1 c 0.005,0.01 0.026732,0.02325 0.03125,0.03125 L 5.28125,4.75 3.8125,5.5625 C 3.6276804,4.7885 3.5611501,4.01355 3.53125,3.28125 3.7283142,3.09465 3.9324093,2.913 4.15625,2.75 z m 7.8125,0.09375 c 0.48057,0.3683 0.9108,0.8057 1.28125,1.3125 L 11.40625,5.1875 c -0.309783,-0.5174 -0.646753,-1.01505 -1,-1.46875 l 1.40625,-0.75 c 0.05045,-0.028 0.117591,-0.0862 0.15625,-0.125 z M 9.125,4.46875 c 0.3505622,0.4512 0.6604307,0.9226 0.96875,1.4375 l -1.78125,1 L 7.46875,5.375 z m -6.84375,0.5 C 2.335948,5.40585 2.3928887,5.83185 2.5,6.28125 l -0.875,0.5 C 1.7476606,6.14595 1.9768528,5.54215 2.28125,4.96875 z M 6.0625,6.15625 6.90625,7.6875 5,8.71875 C 4.7250487,8.18585 4.5112636,7.6601 4.3125,7.125 z M 3,7.84375 c 0.1998087,0.5398 0.4107553,1.0886 0.6875,1.625 l -1.71875,0.9375 C 1.7410892,9.83685 1.5598778,9.24505 1.5,8.65625 z m 4.6875,1.25 L 8.53125,10.625 6.875,11.53125 C 6.4976004,11.09105 6.1482148,10.6333 5.8125,10.125 z M 4.5,10.875 c 0.3370377,0.5082 0.7136658,0.9348 1.09375,1.375 L 4,13.15625 c -0.4673069,-0.363 -0.8881306,-0.8174 -1.25,-1.3125 z m 4.8125,1.1875 1.09375,1.96875 c -0.114753,0.046 -0.227352,0.11725 -0.34375,0.15625 -0.685253,-0.3799 -1.3560864,-0.8571 -2,-1.4375 z M 6.75,13.46875 C 7.1936093,13.86675 7.6597115,14.1943 8.125,14.5 7.2917089,14.516 6.46063,14.3551 5.6875,14.0625 z"
         transform="translate(0,1036.3622)"
         id="path9674"
         style="fill:#649be6;fill-opacity:1;stroke:none" />
      <path
         d="m 13.642885,1042.4849 c -1.309817,0 -2.35858,1.0519 -2.35858,2.3249 0,0.9017 0.53779,1.6516 1.314066,2.0303 l 0,4.6828 c 0,0.3293 0.267551,0.5894 0.606492,0.5894 l 0.876045,0 c 0.338941,0 0.606492,-0.2601 0.606492,-0.5894 l 0,-4.6828 c 0.776276,-0.3787 1.314066,-1.1286 1.314066,-2.0303 0,-1.273 -1.048763,-2.3249 -2.358581,-2.3249 z"
         id="path9870-0-9-3"
         style="fill:#649be6;fill-opacity:1;stroke:none" />
      <path
         d="m 11.651108,1050.4652 3.869741,0 0.569079,1.859 -4.894084,0 z"
         id="rect9989"
         style="fill:#649be6;fill-opacity:1;stroke:none" />
    </g>
  </g>
</svg>
