<?xml version="1.0" encoding="UTF-8" standalone="no"?>
<!-- Created with Inkscape (http://www.inkscape.org/) -->

<svg
   xmlns:dc="http://purl.org/dc/elements/1.1/"
   xmlns:cc="http://creativecommons.org/ns#"
   xmlns:rdf="http://www.w3.org/1999/02/22-rdf-syntax-ns#"
   xmlns:svg="http://www.w3.org/2000/svg"
   xmlns="http://www.w3.org/2000/svg"
   version="1.1"
   width="22"
   height="22"
   id="svg15992">
  <defs
     id="defs15994" />
  <metadata
     id="metadata15997">
    <rdf:RDF>
      <cc:Work
         rdf:about="">
        <dc:format>image/svg+xml</dc:format>
        <dc:type
           rdf:resource="http://purl.org/dc/dcmitype/StillImage" />
        <dc:title></dc:title>
      </cc:Work>
    </rdf:RDF>
  </metadata>
  <g
     transform="translate(0,-1030.3622)"
     id="layer1">
    <g
       transform="translate(3,1033.8577)"
       id="layer1-8">
      <g
         id="text5399"
         style="font-size:7px;font-style:normal;font-variant:normal;font-weight:bold;font-stretch:normal;line-height:125%;letter-spacing:0px;word-spacing:0px;fill:#000000;fill-opacity:1;stroke:none;font-family:Arial;-inkscape-font-specification:Arial Bold" />
      <g
         transform="translate(0,-1036.4247)"
         id="layer1-3">
        <g
           transform="scale(0.89723629,1.1145336)"
           id="text5639"
           style="font-size:7.97739649px;font-style:normal;font-variant:normal;font-weight:bold;font-stretch:normal;line-height:125%;letter-spacing:0px;word-spacing:0px;fill:#cccccc;fill-opacity:1;stroke:none;font-family:Arial;-inkscape-font-specification:Arial Bold" />
        <g
           transform="scale(1.0195853,0.98079088)"
           id="text6068"
           style="font-size:6.62408876px;font-style:normal;font-variant:normal;font-weight:bold;font-stretch:normal;line-height:125%;letter-spacing:0px;word-spacing:0px;fill:#000000;fill-opacity:1;stroke:none;font-family:Arial;-inkscape-font-specification:Arial Bold" />
        <g
           id="text6125"
           style="font-size:6px;font-style:normal;font-variant:normal;font-weight:bold;font-stretch:normal;line-height:125%;letter-spacing:0px;word-spacing:0px;fill:#000000;fill-opacity:1;stroke:none;font-family:Arial;-inkscape-font-specification:Arial Bold" />
      </g>
      <g
         transform="translate(0,-1036.3622)"
         id="layer1-84">
        <g
           transform="scale(0.93557544,1.0688609)"
           id="text7308"
           style="font-size:8.03458023px;font-style:normal;font-variant:normal;font-weight:bold;font-stretch:normal;line-height:125%;letter-spacing:0px;word-spacing:0px;fill:#ffffff;fill-opacity:1;stroke:none;font-family:Arial;-inkscape-font-specification:Arial Bold" />
      </g>
      <g
         transform="scale(0.9686171,1.0323997)"
         id="text5724"
         style="font-size:9.88508701px;font-style:normal;font-variant:normal;font-weight:bold;font-stretch:normal;line-height:125%;letter-spacing:0px;word-spacing:0px;fill:#ffffff;fill-opacity:1;stroke:none;font-family:Arial;-inkscape-font-specification:Arial Bold" />
      <g
         id="text5751"
         style="font-size:7px;font-style:normal;font-variant:normal;font-weight:bold;font-stretch:normal;line-height:125%;letter-spacing:0px;word-spacing:0px;fill:#ffffff;fill-opacity:1;stroke:none;font-family:Arial;-inkscape-font-specification:Arial Bold" />
      <g
         id="layer1-37">
        <g
           id="text5141"
           style="font-size:7px;font-style:normal;font-variant:normal;font-weight:bold;font-stretch:normal;line-height:125%;letter-spacing:0px;word-spacing:0px;fill:#000000;fill-opacity:1;stroke:none;font-family:Arial;-inkscape-font-specification:Arial Bold" />
      </g>
      <g
         transform="scale(1.0995518,0.90946149)"
         id="text5804"
         style="font-size:6.36623049px;font-style:normal;font-variant:normal;font-weight:bold;font-stretch:normal;line-height:125%;letter-spacing:0px;word-spacing:0px;fill:#000000;fill-opacity:1;stroke:none;font-family:Arial;-inkscape-font-specification:Arial Bold" />
      <g
         transform="scale(0.94725198,1.0556853)"
         id="text5938"
         style="font-size:7px;font-style:normal;font-variant:normal;font-weight:bold;font-stretch:normal;line-height:125%;letter-spacing:0px;word-spacing:0px;fill:#000000;fill-opacity:1;stroke:none;font-family:Arial;-inkscape-font-specification:Arial Bold" />
    </g>
    <g
       transform="matrix(1.3669903,0,0,1.375,30.30548,-396.96631)"
       id="layer1-849">
      <g
         id="text7004"
         style="font-size:6px;font-style:normal;font-variant:normal;font-weight:bold;font-stretch:normal;line-height:125%;letter-spacing:0px;word-spacing:0px;fill:#000000;fill-opacity:1;stroke:none;font-family:Arial;-inkscape-font-specification:Arial Bold" />
    </g>
    <g
       transform="matrix(1.375,0,0,1.375,0,-394.63583)"
       id="layer1-2">
      <g
         transform="scale(0.93557544,1.0688609)"
         id="text7308-2"
         style="font-size:6.13837099px;font-style:normal;font-variant:normal;font-weight:bold;font-stretch:normal;line-height:125%;letter-spacing:0px;word-spacing:0px;fill:#ffffff;fill-opacity:1;stroke:none;font-family:Arial;-inkscape-font-specification:Arial Bold" />
    </g>
    <g
       transform="matrix(1.375,0,0,1.375,26.097206,-407.46806)"
       id="layer1-29" />
    <g
       transform="matrix(1.375,0,0,1.375,0,-394.63583)"
       id="layer1-3-2">
      <g
         transform="scale(0.93557544,1.0688609)"
         id="text7308-5"
         style="font-size:6.13837099px;font-style:normal;font-variant:normal;font-weight:bold;font-stretch:normal;line-height:125%;letter-spacing:0px;word-spacing:0px;fill:#ffffff;fill-opacity:1;stroke:none;font-family:Arial;-inkscape-font-specification:Arial Bold" />
    </g>
    <g
       transform="matrix(1.375,0,0,1.375,0,-394.63583)"
       id="layer1-3-1">
      <g
         transform="scale(0.93557544,1.0688609)"
         id="text7308-7"
         style="font-size:6.13837099px;font-style:normal;font-variant:normal;font-weight:bold;font-stretch:normal;line-height:125%;letter-spacing:0px;word-spacing:0px;fill:#ffffff;fill-opacity:1;stroke:none;font-family:Arial;-inkscape-font-specification:Arial Bold" />
    </g>
    <g
       transform="matrix(1.5,0,0,1.5,-29.444014,-522.91085)"
       id="layer1-6">
      <g
         transform="scale(0.93557544,1.0688609)"
         id="text7308-3"
         style="font-size:6.13837099px;font-style:normal;font-variant:normal;font-weight:bold;font-stretch:normal;line-height:125%;letter-spacing:0px;word-spacing:0px;fill:#ffffff;fill-opacity:1;stroke:none;font-family:Arial;-inkscape-font-specification:Arial Bold" />
    </g>
    <g
       transform="matrix(1.375,0,0,1.375,0,-394.63583)"
       id="layer1-2-2">
      <g
         transform="scale(0.93557544,1.0688609)"
         id="text7308-2-5"
         style="font-size:8.38767338px;font-style:normal;font-variant:normal;font-weight:bold;font-stretch:normal;line-height:125%;letter-spacing:0px;word-spacing:0px;fill:#ffffff;fill-opacity:1;stroke:none;font-family:Arial;-inkscape-font-specification:Arial Bold" />
    </g>
    <g
       transform="translate(16.574815,1039.9887)"
       id="g18916">
      <g
         transform="translate(0,-1036.3622)"
         id="layer1-37-1">
        <g
           transform="scale(0.93557544,1.0688609)"
           id="text7308-75"
           style="font-size:8.38767338px;font-style:normal;font-variant:normal;font-weight:bold;font-stretch:normal;line-height:125%;letter-spacing:0px;word-spacing:0px;fill:#ffffff;fill-opacity:1;stroke:none;font-family:Arial;-inkscape-font-specification:Arial Bold" />
      </g>
      <g
         id="text3074-3"
         style="font-size:7px;font-style:normal;font-variant:normal;font-weight:bold;font-stretch:normal;line-height:125%;letter-spacing:0px;word-spacing:0px;fill:#ffffff;fill-opacity:1;stroke:none;font-family:Arial;-inkscape-font-specification:Arial Bold" />
      <g
         id="text3330-4"
         style="font-size:7px;font-style:normal;font-variant:normal;font-weight:bold;font-stretch:normal;line-height:125%;letter-spacing:0px;word-spacing:0px;fill:#ffffff;fill-opacity:1;stroke:none;font-family:Arial;-inkscape-font-specification:Arial Bold" />
      <g
         id="text3334-3"
         style="font-size:7px;font-style:normal;font-variant:normal;font-weight:bold;font-stretch:normal;line-height:125%;letter-spacing:0px;word-spacing:0px;fill:#ffffff;fill-opacity:1;stroke:none;font-family:Arial;-inkscape-font-specification:Arial Bold" />
      <g
         transform="scale(1.0025516,0.99745489)"
         id="text3420"
         style="font-size:8.28998661px;font-style:normal;font-variant:normal;font-weight:bold;font-stretch:normal;line-height:125%;letter-spacing:0px;word-spacing:0px;fill:#ffffff;fill-opacity:1;stroke:none;font-family:Arial;-inkscape-font-specification:Arial Bold" />
    </g>
    <g
       transform="matrix(1.3740419,0,0,1.375315,0.01137913,1030.3659)"
       id="layer1-92"
       style="fill:#649be6;fill-opacity:1">
      <path
         d="M 7.78125,0 C 6.4916817,0.0334946 5.1957316,0.37214406 4,1.0625 0.17365903,3.271639 -1.14665,8.1736399 1.0625,12 2.7883977,14.989344 6.161376,16.435285 9.375,15.875 8.3211435,15.633273 7.4048703,15.103251 6.6875,14.34375 6.3805067,14.280576 6.0730926,14.229562 5.78125,14.125 l 0.5,-0.28125 C 5.9566748,13.406897 5.6812367,12.930687 5.5,12.40625 l -1.40625,0.8125 c -0.473693,-0.354669 -0.879362,-0.823968 -1.25,-1.3125 l 1.71875,-1 c 0.2507283,0.363757 0.5347583,0.680519 0.8125,1 -0.099049,-0.408423 -0.1875,-0.811121 -0.1875,-1.25 0,-0.8009547 0.1864155,-1.5667946 0.5,-2.25 l -0.65625,0.375 C 4.746827,8.253335 4.489558,7.719061 4.28125,7.1875 l 1.75,-1 0.53125,0.90625 C 6.929586,6.67798 7.3340507,6.3177556 7.8125,6.03125 L 7.4375,5.375 9.0625,4.4375 C 9.2951673,4.7261566 9.5044247,5.0260241 9.71875,5.34375 10.001518,5.2979024 10.266784,5.25 10.5625,5.25 c 0.945008,0 1.852938,0.2600081 2.625,0.6875 l 0.78125,-0.46875 c 0.186437,0.4432379 0.313747,0.9166936 0.40625,1.375 0.01051,0.010515 0.02082,0.020649 0.03125,0.03125 0.714546,0.7264065 1.225355,1.6507757 1.4375,2.6875 C 16.213433,7.7217872 15.950027,5.7537483 14.9375,4 13.418709,1.3693777 10.6183,-0.07368813 7.78125,0 z m 0.375,1.53125 c 0.709887,0.018194 1.4298475,0.1321099 2.09375,0.375 l -1,0.5625 C 8.893537,2.1229561 8.531209,1.8171771 8.15625,1.53125 z m -2,0.25 C 6.774894,2.182021 7.362747,2.6605401 7.9375,3.21875 L 6.625,4 5.5,2.03125 c 0.214757,-0.090503 0.436618,-0.1843944 0.65625,-0.25 z m 5.71875,1 c 0.487021,0.359677 0.901783,0.781073 1.28125,1.28125 l -1.8125,1.0625 c -0.318998,-0.51188 -0.638742,-0.990203 -1,-1.4375 l 1.375,-0.8125 C 11.7688,2.846105 11.837575,2.8213328 11.875,2.78125 z M 4.09375,2.84375 5.21875,4.8125 3.78125,5.625 C 3.582644,4.854357 3.51165,4.10656 3.46875,3.375 3.662382,3.184686 3.873218,3.0110271 4.09375,2.84375 z M 2.21875,5.0625 C 2.28117,5.498505 2.384894,5.927615 2.5,6.375 L 1.59375,6.90625 C 1.705077,6.268898 1.924661,5.641287 2.21875,5.0625 z m 8.3125,1.125 c -2.4777175,0 -4.46875,2.0222837 -4.46875,4.5 0,2.477716 1.9910325,4.46875 4.46875,4.46875 2.477717,0 4.5,-1.991034 4.5,-4.46875 0,-2.4777163 -2.022283,-4.5 -4.5,-4.5 z M 3,7.90625 c 0.209337,0.536163 0.432477,1.093649 0.71875,1.625 L 2.03125,10.5 C 1.793492,9.9347499 1.601556,9.368816 1.53125,8.78125 L 3,7.90625 z M 10.21875,8 c 0.306474,0 0.5625,0.256027 0.5625,0.5625 0,0.01623 0.0013,0.01544 0,0.03125 L 12.75,9.625 c 0.135367,-0.115092 0.303766,-0.1875 0.5,-0.1875 0.429062,0 0.78125,0.3331967 0.78125,0.75 0,0.416804 -0.352188,0.75 -0.78125,0.75 -0.196234,0 -0.364633,-0.06726 -0.5,-0.1875 l -1.1875,0.78125 c 0,0.01642 0.0023,0.01546 0,0.03125 L 13,12.53125 c 0.07664,-0.06075 0.140473,-0.09375 0.25,-0.09375 0.258879,0 0.5,0.186017 0.5,0.4375 0,0.251482 -0.241121,0.46875 -0.5,0.46875 -0.25888,0 -0.4375,-0.217268 -0.4375,-0.46875 l -1.46875,-1.03125 c -0.0459,0.01817 -0.104147,0.03125 -0.15625,0.03125 -0.208402,0 -0.40625,-0.141302 -0.40625,-0.34375 0,-0.202448 0.197848,-0.375 0.40625,-0.375 0.07497,0 0.127431,0.02651 0.1875,0.0625 l 1.1875,-0.75 C 12.52376,10.37695 12.5,10.291701 12.5,10.1875 c 0,-0.07961 0.0081,-0.178338 0.03125,-0.25 l -1.90625,-1 c -0.09772,0.09772 -0.253013,0.15625 -0.40625,0.15625 -0.06851,0 -0.127757,-0.04064 -0.1875,-0.0625 L 8.625,10.8125 c 0.135025,0.155129 0.1875,0.370669 0.1875,0.59375 0,0.490356 -0.384643,0.875 -0.875,0.875 -0.490358,0 -0.875,-0.384644 -0.875,-0.875 0,-0.490358 0.384642,-0.875 0.875,-0.875 0.133638,0 0.26172,0.04127 0.375,0.09375 L 9.78125,8.8125 C 9.73147,8.73001 9.6875,8.668389 9.6875,8.5625 9.6875,8.256027 9.9122755,8 10.21875,8 z"
         id="path9674-4-6"
         style="fill:#649be6;fill-opacity:1;stroke:none" />
    </g>
  </g>
</svg>
