<?xml version="1.0" encoding="UTF-8" standalone="no"?>
<!-- Created with Inkscape (http://www.inkscape.org/) -->

<svg
   xmlns:dc="http://purl.org/dc/elements/1.1/"
   xmlns:cc="http://creativecommons.org/ns#"
   xmlns:rdf="http://www.w3.org/1999/02/22-rdf-syntax-ns#"
   xmlns:svg="http://www.w3.org/2000/svg"
   xmlns="http://www.w3.org/2000/svg"
   version="1.1"
   width="22"
   height="22"
   id="svg15992">
  <defs
     id="defs15994" />
  <metadata
     id="metadata15997">
    <rdf:RDF>
      <cc:Work
         rdf:about="">
        <dc:format>image/svg+xml</dc:format>
        <dc:type
           rdf:resource="http://purl.org/dc/dcmitype/StillImage" />
        <dc:title></dc:title>
      </cc:Work>
    </rdf:RDF>
  </metadata>
  <g
     id="g21554">
    <path
       d="m 2.8919176,1.491522 17.0956964,0 L 22,3.948693 22,18.424603 17.466586,22 2.9211796,22 0.66012769,18.7386 0.57759769,4.007337 z"
       id="rect3155"
       style="fill:#ffffff;fill-opacity:1;fill-rule:nonzero;stroke:none" />
    <g
       transform="translate(0,-1030.3622)"
       id="layer1">
      <g
         transform="translate(3,1033.8577)"
         id="layer1-8">
        <g
           id="text5399"
           style="font-size:7px;font-style:normal;font-variant:normal;font-weight:bold;font-stretch:normal;line-height:125%;letter-spacing:0px;word-spacing:0px;fill:#000000;fill-opacity:1;stroke:none;font-family:Arial;-inkscape-font-specification:Arial Bold" />
        <g
           transform="translate(0,-1036.4247)"
           id="layer1-3">
          <g
             transform="scale(0.89723629,1.1145336)"
             id="text5639"
             style="font-size:7.97739649px;font-style:normal;font-variant:normal;font-weight:bold;font-stretch:normal;line-height:125%;letter-spacing:0px;word-spacing:0px;fill:#cccccc;fill-opacity:1;stroke:none;font-family:Arial;-inkscape-font-specification:Arial Bold" />
          <g
             transform="scale(1.0195853,0.98079088)"
             id="text6068"
             style="font-size:6.62408876px;font-style:normal;font-variant:normal;font-weight:bold;font-stretch:normal;line-height:125%;letter-spacing:0px;word-spacing:0px;fill:#000000;fill-opacity:1;stroke:none;font-family:Arial;-inkscape-font-specification:Arial Bold" />
          <g
             id="text6125"
             style="font-size:6px;font-style:normal;font-variant:normal;font-weight:bold;font-stretch:normal;line-height:125%;letter-spacing:0px;word-spacing:0px;fill:#000000;fill-opacity:1;stroke:none;font-family:Arial;-inkscape-font-specification:Arial Bold" />
        </g>
        <g
           transform="translate(0,-1036.3622)"
           id="layer1-84">
          <g
             transform="scale(0.93557544,1.0688609)"
             id="text7308"
             style="font-size:8.03458023px;font-style:normal;font-variant:normal;font-weight:bold;font-stretch:normal;line-height:125%;letter-spacing:0px;word-spacing:0px;fill:#ffffff;fill-opacity:1;stroke:none;font-family:Arial;-inkscape-font-specification:Arial Bold" />
        </g>
        <g
           transform="scale(0.9686171,1.0323997)"
           id="text5724"
           style="font-size:9.88508701px;font-style:normal;font-variant:normal;font-weight:bold;font-stretch:normal;line-height:125%;letter-spacing:0px;word-spacing:0px;fill:#ffffff;fill-opacity:1;stroke:none;font-family:Arial;-inkscape-font-specification:Arial Bold" />
        <g
           id="text5751"
           style="font-size:7px;font-style:normal;font-variant:normal;font-weight:bold;font-stretch:normal;line-height:125%;letter-spacing:0px;word-spacing:0px;fill:#ffffff;fill-opacity:1;stroke:none;font-family:Arial;-inkscape-font-specification:Arial Bold" />
        <g
           id="layer1-37">
          <g
             id="text5141"
             style="font-size:7px;font-style:normal;font-variant:normal;font-weight:bold;font-stretch:normal;line-height:125%;letter-spacing:0px;word-spacing:0px;fill:#000000;fill-opacity:1;stroke:none;font-family:Arial;-inkscape-font-specification:Arial Bold" />
        </g>
        <g
           transform="scale(1.0995518,0.90946149)"
           id="text5804"
           style="font-size:6.36623049px;font-style:normal;font-variant:normal;font-weight:bold;font-stretch:normal;line-height:125%;letter-spacing:0px;word-spacing:0px;fill:#000000;fill-opacity:1;stroke:none;font-family:Arial;-inkscape-font-specification:Arial Bold" />
        <g
           transform="scale(0.94725198,1.0556853)"
           id="text5938"
           style="font-size:7px;font-style:normal;font-variant:normal;font-weight:bold;font-stretch:normal;line-height:125%;letter-spacing:0px;word-spacing:0px;fill:#000000;fill-opacity:1;stroke:none;font-family:Arial;-inkscape-font-specification:Arial Bold" />
      </g>
      <g
         transform="matrix(1.3669903,0,0,1.375,30.30548,-396.96631)"
         id="layer1-849">
        <g
           id="text7004"
           style="font-size:6px;font-style:normal;font-variant:normal;font-weight:bold;font-stretch:normal;line-height:125%;letter-spacing:0px;word-spacing:0px;fill:#000000;fill-opacity:1;stroke:none;font-family:Arial;-inkscape-font-specification:Arial Bold" />
      </g>
      <g
         transform="matrix(1.375,0,0,1.375,0,-394.63583)"
         id="layer1-2">
        <g
           transform="scale(0.93557544,1.0688609)"
           id="text7308-2"
           style="font-size:6.13837099px;font-style:normal;font-variant:normal;font-weight:bold;font-stretch:normal;line-height:125%;letter-spacing:0px;word-spacing:0px;fill:#ffffff;fill-opacity:1;stroke:none;font-family:Arial;-inkscape-font-specification:Arial Bold" />
      </g>
      <g
         transform="matrix(1.375,0,0,1.375,26.097206,-407.46806)"
         id="layer1-29" />
      <g
         transform="matrix(1.375,0,0,1.375,0,-394.63583)"
         id="layer1-3-2">
        <g
           transform="scale(0.93557544,1.0688609)"
           id="text7308-5"
           style="font-size:6.13837099px;font-style:normal;font-variant:normal;font-weight:bold;font-stretch:normal;line-height:125%;letter-spacing:0px;word-spacing:0px;fill:#ffffff;fill-opacity:1;stroke:none;font-family:Arial;-inkscape-font-specification:Arial Bold" />
      </g>
      <g
         transform="matrix(1.375,0,0,1.375,0,-394.63583)"
         id="layer1-3-1">
        <g
           transform="scale(0.93557544,1.0688609)"
           id="text7308-7"
           style="font-size:6.13837099px;font-style:normal;font-variant:normal;font-weight:bold;font-stretch:normal;line-height:125%;letter-spacing:0px;word-spacing:0px;fill:#ffffff;fill-opacity:1;stroke:none;font-family:Arial;-inkscape-font-specification:Arial Bold" />
      </g>
      <g
         transform="matrix(1.5,0,0,1.5,-29.444014,-522.91085)"
         id="layer1-6">
        <g
           transform="scale(0.93557544,1.0688609)"
           id="text7308-3"
           style="font-size:6.13837099px;font-style:normal;font-variant:normal;font-weight:bold;font-stretch:normal;line-height:125%;letter-spacing:0px;word-spacing:0px;fill:#ffffff;fill-opacity:1;stroke:none;font-family:Arial;-inkscape-font-specification:Arial Bold" />
      </g>
      <g
         transform="matrix(1.375,0,0,1.375,0,-394.63583)"
         id="layer1-2-2">
        <g
           transform="scale(0.93557544,1.0688609)"
           id="text7308-2-5"
           style="font-size:8.38767338px;font-style:normal;font-variant:normal;font-weight:bold;font-stretch:normal;line-height:125%;letter-spacing:0px;word-spacing:0px;fill:#ffffff;fill-opacity:1;stroke:none;font-family:Arial;-inkscape-font-specification:Arial Bold" />
      </g>
      <g
         transform="translate(16.574815,1039.9887)"
         id="g18916">
        <g
           transform="translate(0,-1036.3622)"
           id="layer1-37-1">
          <g
             transform="scale(0.93557544,1.0688609)"
             id="text7308-75"
             style="font-size:8.38767338px;font-style:normal;font-variant:normal;font-weight:bold;font-stretch:normal;line-height:125%;letter-spacing:0px;word-spacing:0px;fill:#ffffff;fill-opacity:1;stroke:none;font-family:Arial;-inkscape-font-specification:Arial Bold" />
        </g>
        <g
           id="text3074-3"
           style="font-size:7px;font-style:normal;font-variant:normal;font-weight:bold;font-stretch:normal;line-height:125%;letter-spacing:0px;word-spacing:0px;fill:#ffffff;fill-opacity:1;stroke:none;font-family:Arial;-inkscape-font-specification:Arial Bold" />
        <g
           id="text3330-4"
           style="font-size:7px;font-style:normal;font-variant:normal;font-weight:bold;font-stretch:normal;line-height:125%;letter-spacing:0px;word-spacing:0px;fill:#ffffff;fill-opacity:1;stroke:none;font-family:Arial;-inkscape-font-specification:Arial Bold" />
        <g
           id="text3334-3"
           style="font-size:7px;font-style:normal;font-variant:normal;font-weight:bold;font-stretch:normal;line-height:125%;letter-spacing:0px;word-spacing:0px;fill:#ffffff;fill-opacity:1;stroke:none;font-family:Arial;-inkscape-font-specification:Arial Bold" />
        <g
           transform="scale(1.0025516,0.99745489)"
           id="text3420"
           style="font-size:8.28998661px;font-style:normal;font-variant:normal;font-weight:bold;font-stretch:normal;line-height:125%;letter-spacing:0px;word-spacing:0px;fill:#ffffff;fill-opacity:1;stroke:none;font-family:Arial;-inkscape-font-specification:Arial Bold" />
      </g>
      <path
         d="M 3.65625,0 C 1.62178,0 0,1.7027 0,3.8125 l 0,14.375 C 0,20.2973 1.62178,22 3.65625,22 l 14.6875,0 C 20.37823,22 22,20.2973 22,18.1875 L 22,3.8125 C 22,1.7027 20.37823,0 18.34375,0 L 3.65625,0 z M 11,3 12.9375,3.1875 14.5,3.46875 l 0.90625,0.375 -0.125,-0.65625 1.53125,0.1875 c 0.84062,0.091207 1.541072,0.4077877 2.28125,0.78125 C 19.673863,4.6707347 19.770782,5.405373 20,6.125 L 19.75,6.40625 C 19.206372,6.802118 18.743569,6.7033694 18.125,6.75 17.593155,6.7316291 17.25524,6.4361002 16.8125,6.21875 L 16.09375,5.8125 15.78125,5.90625 15.875,6.125 c 0.31713,0.5352617 0.781871,0.6036045 1.34375,0.8125 0.846414,0.4541505 1.333067,0.2895235 2.09375,0.0625 0.307841,-0.1194533 0.300361,-0.2463705 0.34375,-0.375 0.384525,0.1907168 0.136567,0.608701 0.03125,0.65625 -1.304211,1.0446896 -3.1445,0.7826832 -4.5625,0.6875 l -0.46875,0.125 c -0.442747,0.7727209 -0.164426,1.1511071 0,1.90625 l 0.40625,0.5625 -0.125,0.09375 L 14.15625,10.1875 13.25,9.71875 12.4375,8.78125 12.09375,8.4375 C 11.592741,8.0990136 11.169114,8.2629384 10.65625,8.25 l -0.5,0.1875 c -0.6867493,0.5387554 -0.46875,1.1514966 -0.46875,2 l -0.5,-0.25 L 8.5625,9.8125 8.3125,9.28125 7.96875,8.5625 7.4375,7.875 C 6.6316199,7.3232661 5.9911594,7.3702068 5.0625,7.40625 4.3033909,7.48022 4.1066703,7.7755924 3.65625,8.34375 L 3.5,9.0625 3.5625,9.84375 c 0.4915494,1.220874 1.0719247,1.473448 2.25,1.34375 C 7.3202326,10.58867 6.8371609,9.6563359 6.28125,9.09375 5.8973641,8.7384348 5.4225686,8.9203671 5.25,9 4.3233933,9.4509084 5.2288824,10.033522 5.375,9.75 l 0.4375,-0.15625 0.125,0.125 0.09375,0.34375 -0.125,0.46875 L 5.0625,10.4375 C 4.7230257,10.350672 4.6551416,10.400863 4.3125,9.90625 4.0648963,8.9143931 4.5466643,8.2936741 5.28125,8.09375 6.1377752,7.9625233 6.5747985,8.142549 7.09375,8.65625 8.7017585,11.212557 6.1790539,12.317228 4.8125,12.21875 1.9926901,11.2065 1.7109477,9.2150672 2.9375,7.09375 l 1.21875,-1.5 C 5.2170636,4.6536657 6.476977,4.161376 7.75,3.59375 8.8194488,3.071527 9.8455581,3.037579 11,3 z m 7.0625,1.125 C 17.475479,4.125 17,4.5951287 17,5.1875 17,5.7798713 17.475479,6.25 18.0625,6.25 c 0.587021,0 1.0625,-0.4701287 1.0625,-1.0625 0,-0.5923713 -0.475479,-1.0625 -1.0625,-1.0625 z m 0,0.375 c 0.385756,0 0.71875,0.2982274 0.71875,0.6875 0,0.3892726 -0.332994,0.71875 -0.71875,0.71875 -0.385756,0 -0.6875,-0.3294774 -0.6875,-0.71875 0,-0.3892726 0.301744,-0.6875 0.6875,-0.6875 z m 0.0625,0.1875 c -0.178684,0 -0.3125,0.1634371 -0.3125,0.34375 0,0.1803129 0.133816,0.3125 0.3125,0.3125 0.178684,0 0.3125,-0.1321871 0.3125,-0.3125 0,-0.1803129 -0.133816,-0.34375 -0.3125,-0.34375 z m -14.15625,8.75 c 0.6179752,6e-6 1.0938992,0.173627 1.40625,0.46875 0.3123436,0.295133 0.4843225,0.663561 0.5,1.15625 L 4.84375,15.125 c -0.042544,-0.275609 -0.1100624,-0.473011 -0.25,-0.59375 -0.1399432,-0.120723 -0.345121,-0.187495 -0.625,-0.1875 -0.2888393,5e-6 -0.555301,0.05825 -0.71875,0.1875 -0.105237,0.08293 -0.1250014,0.173478 -0.125,0.3125 -1.4e-6,0.126836 0.026479,0.284759 0.125,0.375 0.1253851,0.114637 0.4538632,0.21936 0.9375,0.34375 0.483632,0.124396 0.8620051,0.242073 1.09375,0.375 0.2317379,0.132932 0.4002615,0.30076 0.53125,0.53125 0.1309804,0.230495 0.1874957,0.535971 0.1875,0.875 -4.3e-6,0.307324 -0.093272,0.575453 -0.25,0.84375 C 5.5932625,18.455799 5.3803448,18.650759 5.09375,18.78125 4.8071485,18.911736 4.4589059,19 4.03125,19 3.4087923,19 2.9273674,18.844672 2.59375,18.53125 2.260131,18.217833 2.0649322,17.756264 2,17.15625 L 2.9375,17.0625 c 0.058215,0.353667 0.1969941,0.615395 0.375,0.78125 0.1780028,0.165858 0.4164761,0.218751 0.71875,0.21875 0.3201815,1e-6 0.556416,-0.03993 0.71875,-0.1875 C 4.9123281,17.727437 4.9999967,17.541316 5,17.34375 4.9999966,17.21692 4.9432875,17.089027 4.875,17 4.8067062,16.91097 4.7014148,16.878356 4.53125,16.8125 4.4148167,16.7686 4.164222,16.674697 3.75,16.5625 3.2171046,16.418598 2.8399477,16.241013 2.625,16.03125 2.3227276,15.736126 2.1874996,15.393153 2.1875,14.96875 2.1874996,14.695578 2.2328198,14.425313 2.375,14.1875 2.5171789,13.949694 2.7324325,13.780648 3,13.65625 3.2675649,13.53186 3.5903487,13.437506 3.96875,13.4375 z m 8.78125,0 c 0.617975,6e-6 1.093898,0.173627 1.40625,0.46875 0.312344,0.295133 0.484322,0.663561 0.5,1.15625 L 13.6875,15.125 c -0.04255,-0.275615 -0.172562,-0.473011 -0.3125,-0.59375 -0.139943,-0.120734 -0.345121,-0.187494 -0.625,-0.1875 -0.28884,6e-6 -0.492802,0.05824 -0.65625,0.1875 -0.105237,0.08293 -0.187502,0.173478 -0.1875,0.3125 -2e-6,0.126836 0.05773,0.284759 0.15625,0.375 0.125386,0.114637 0.422613,0.21936 0.90625,0.34375 0.483631,0.124396 0.862006,0.242073 1.09375,0.375 0.231738,0.132932 0.400263,0.30076 0.53125,0.53125 0.130984,0.230495 0.218745,0.535971 0.21875,0.875 -5e-6,0.307324 -0.09328,0.575453 -0.25,0.84375 -0.156737,0.268299 -0.400906,0.463259 -0.6875,0.59375 C 13.588397,18.911736 13.240156,19 12.8125,19 c -0.622457,0 -1.103882,-0.155328 -1.4375,-0.46875 -0.333619,-0.313416 -0.528818,-0.774986 -0.59375,-1.375 l 1,-0.09375 c 0.05821,0.353667 0.165744,0.615395 0.34375,0.78125 0.178002,0.165861 0.385226,0.218751 0.6875,0.21875 0.320182,1e-6 0.587668,-0.03993 0.75,-0.1875 0.162326,-0.147563 0.249998,-0.333684 0.25,-0.53125 0,-0.12683 -0.02546,-0.254723 -0.09375,-0.34375 -0.06829,-0.08903 -0.204835,-0.121644 -0.375,-0.1875 -0.116437,-0.04391 -0.367028,-0.137803 -0.78125,-0.25 -0.532895,-0.143902 -0.910052,-0.321487 -1.125,-0.53125 -0.302272,-0.295124 -0.46875,-0.638097 -0.46875,-1.0625 0,-0.273172 0.07657,-0.543437 0.21875,-0.78125 0.142179,-0.237806 0.357433,-0.406852 0.625,-0.53125 0.267564,-0.12439 0.559099,-0.218744 0.9375,-0.21875 z M 17.6875,13.5 c 0.67108,6e-6 1.174571,0.250774 1.5625,0.75 0.387923,0.499235 0.579487,1.282143 0.5625,2.3125 l -2.96875,0 c -0.0179,0.731478 0.223669,1.072309 0.6875,1.21875 0.271859,0.05537 1.171439,0.0053 1.28125,0.125 0.185015,0.201671 0.139334,0.620749 -0.03125,0.78125 -0.117943,0.110971 -1.162615,0.03225 -1.34375,0.09375 -0.748041,-0.13843 -0.99366,-0.40359 -1.40625,-0.84375 -0.297316,-0.462545 -0.4375,-1.045013 -0.4375,-1.75 0,-0.842149 0.171741,-1.491845 0.5625,-1.96875 0.390756,-0.476896 0.933785,-0.718744 1.53125,-0.71875 z m 0.0625,1.03125 c -0.260507,5e-6 -0.486358,0.09878 -0.65625,0.3125 -0.169898,0.213732 -0.252813,0.476906 -0.25,0.84375 l 1.78125,0 C 18.6165,15.298327 18.513637,15.015067 18.34375,14.8125 18.173852,14.609936 17.993513,14.531255 17.75,14.53125 z m -10.9375,0.5 0.9375,0 0,1.78125 c -1.3e-6,0.546354 0.027793,0.845577 0.0625,0.96875 0.034705,0.123173 0.095696,0.271798 0.1875,0.34375 0.0918,0.07195 0.1714378,0.09375 0.3125,0.09375 0.1612094,1e-6 0.3411218,-0.09114 0.46875,-0.1875 0.1276233,-0.09634 0.2029772,-0.201064 0.25,-0.34375 0.047018,-0.142685 0.062499,-0.475139 0.0625,-1.03125 l 0,-1.625 0.96875,0 0,3.875 -0.875,0 0,-0.59375 c -0.1298676,0.207321 -0.2884123,0.380486 -0.5,0.5 C 8.4759076,18.932015 8.2350983,18.999999 8,19 7.7604202,18.999999 7.5340682,18.927135 7.34375,18.8125 7.1534299,18.697864 7.0225826,18.519821 6.9375,18.3125 6.8524151,18.10518 6.8124994,17.834612 6.8125,17.46875 l 0,-2.4375 z"
         transform="translate(0,1030.3622)"
         id="rect3001-7-4"
         style="fill:#649be6;fill-opacity:1;fill-rule:nonzero;stroke:none" />
      <g
         transform="matrix(1.125,0,0,1.135255,1.9296875,1032.3334)"
         id="layer1-1">
        <g
           id="text4018-2"
           style="font-size:7px;font-style:normal;font-variant:normal;font-weight:bold;font-stretch:normal;line-height:125%;letter-spacing:0px;word-spacing:0px;fill:#ffffff;fill-opacity:1;stroke:none;font-family:Arial;-inkscape-font-specification:Arial Bold" />
        <g
           transform="scale(0.93786046,1.0662567)"
           id="text4055-9"
           style="font-size:8.69168949px;font-style:normal;font-variant:normal;font-weight:bold;font-stretch:normal;line-height:125%;letter-spacing:0px;word-spacing:0px;fill:#000000;fill-opacity:1;stroke:none;font-family:Arial;-inkscape-font-specification:Arial Bold" />
        <g
           transform="matrix(0.96586816,0,0,1.0782902,-3.4929079,0.85654197)"
           id="text4149"
           style="font-size:8.00532722px;font-style:normal;font-variant:normal;font-weight:bold;font-stretch:normal;line-height:125%;letter-spacing:0px;word-spacing:0px;fill:#000000;fill-opacity:1;stroke:none;font-family:Arial;-inkscape-font-specification:Arial Bold" />
      </g>
    </g>
  </g>
</svg>
