<?xml version="1.0" encoding="UTF-8" standalone="no"?>
<!-- Created with Inkscape (http://www.inkscape.org/) -->

<svg
   xmlns:dc="http://purl.org/dc/elements/1.1/"
   xmlns:cc="http://creativecommons.org/ns#"
   xmlns:rdf="http://www.w3.org/1999/02/22-rdf-syntax-ns#"
   xmlns:svg="http://www.w3.org/2000/svg"
   xmlns="http://www.w3.org/2000/svg"
   version="1.1"
   width="22"
   height="22"
   id="svg15992">
  <defs
     id="defs15994" />
  <metadata
     id="metadata15997">
    <rdf:RDF>
      <cc:Work
         rdf:about="">
        <dc:format>image/svg+xml</dc:format>
        <dc:type
           rdf:resource="http://purl.org/dc/dcmitype/StillImage" />
        <dc:title></dc:title>
      </cc:Work>
    </rdf:RDF>
  </metadata>
  <g
     transform="translate(0,-1030.3622)"
     id="layer1">
    <g
       transform="translate(3,1033.8577)"
       id="layer1-8">
      <g
         id="text5399"
         style="font-size:7px;font-style:normal;font-variant:normal;font-weight:bold;font-stretch:normal;line-height:125%;letter-spacing:0px;word-spacing:0px;fill:#000000;fill-opacity:1;stroke:none;font-family:Arial;-inkscape-font-specification:Arial Bold" />
      <g
         transform="translate(0,-1036.4247)"
         id="layer1-3">
        <g
           transform="scale(0.89723629,1.1145336)"
           id="text5639"
           style="font-size:7.97739649px;font-style:normal;font-variant:normal;font-weight:bold;font-stretch:normal;line-height:125%;letter-spacing:0px;word-spacing:0px;fill:#cccccc;fill-opacity:1;stroke:none;font-family:Arial;-inkscape-font-specification:Arial Bold" />
        <g
           transform="scale(1.0195853,0.98079088)"
           id="text6068"
           style="font-size:6.62408876px;font-style:normal;font-variant:normal;font-weight:bold;font-stretch:normal;line-height:125%;letter-spacing:0px;word-spacing:0px;fill:#000000;fill-opacity:1;stroke:none;font-family:Arial;-inkscape-font-specification:Arial Bold" />
        <g
           id="text6125"
           style="font-size:6px;font-style:normal;font-variant:normal;font-weight:bold;font-stretch:normal;line-height:125%;letter-spacing:0px;word-spacing:0px;fill:#000000;fill-opacity:1;stroke:none;font-family:Arial;-inkscape-font-specification:Arial Bold" />
      </g>
      <g
         transform="translate(0,-1036.3622)"
         id="layer1-84">
        <g
           transform="scale(0.93557544,1.0688609)"
           id="text7308"
           style="font-size:8.03458023px;font-style:normal;font-variant:normal;font-weight:bold;font-stretch:normal;line-height:125%;letter-spacing:0px;word-spacing:0px;fill:#ffffff;fill-opacity:1;stroke:none;font-family:Arial;-inkscape-font-specification:Arial Bold" />
      </g>
      <g
         transform="scale(0.9686171,1.0323997)"
         id="text5724"
         style="font-size:9.88508701px;font-style:normal;font-variant:normal;font-weight:bold;font-stretch:normal;line-height:125%;letter-spacing:0px;word-spacing:0px;fill:#ffffff;fill-opacity:1;stroke:none;font-family:Arial;-inkscape-font-specification:Arial Bold" />
      <g
         id="text5751"
         style="font-size:7px;font-style:normal;font-variant:normal;font-weight:bold;font-stretch:normal;line-height:125%;letter-spacing:0px;word-spacing:0px;fill:#ffffff;fill-opacity:1;stroke:none;font-family:Arial;-inkscape-font-specification:Arial Bold" />
      <g
         id="layer1-37">
        <g
           id="text5141"
           style="font-size:7px;font-style:normal;font-variant:normal;font-weight:bold;font-stretch:normal;line-height:125%;letter-spacing:0px;word-spacing:0px;fill:#000000;fill-opacity:1;stroke:none;font-family:Arial;-inkscape-font-specification:Arial Bold" />
      </g>
      <g
         transform="scale(1.0995518,0.90946149)"
         id="text5804"
         style="font-size:6.36623049px;font-style:normal;font-variant:normal;font-weight:bold;font-stretch:normal;line-height:125%;letter-spacing:0px;word-spacing:0px;fill:#000000;fill-opacity:1;stroke:none;font-family:Arial;-inkscape-font-specification:Arial Bold" />
      <g
         transform="scale(0.94725198,1.0556853)"
         id="text5938"
         style="font-size:7px;font-style:normal;font-variant:normal;font-weight:bold;font-stretch:normal;line-height:125%;letter-spacing:0px;word-spacing:0px;fill:#000000;fill-opacity:1;stroke:none;font-family:Arial;-inkscape-font-specification:Arial Bold" />
    </g>
    <g
       transform="matrix(1.3669903,0,0,1.375,30.30548,-396.96631)"
       id="layer1-849">
      <g
         id="text7004"
         style="font-size:6px;font-style:normal;font-variant:normal;font-weight:bold;font-stretch:normal;line-height:125%;letter-spacing:0px;word-spacing:0px;fill:#000000;fill-opacity:1;stroke:none;font-family:Arial;-inkscape-font-specification:Arial Bold" />
    </g>
    <g
       transform="matrix(1.375,0,0,1.375,0,-394.63583)"
       id="layer1-2">
      <g
         transform="scale(0.93557544,1.0688609)"
         id="text7308-2"
         style="font-size:6.13837099px;font-style:normal;font-variant:normal;font-weight:bold;font-stretch:normal;line-height:125%;letter-spacing:0px;word-spacing:0px;fill:#ffffff;fill-opacity:1;stroke:none;font-family:Arial;-inkscape-font-specification:Arial Bold" />
    </g>
    <g
       transform="matrix(1.375,0,0,1.375,26.097206,-407.46806)"
       id="layer1-29" />
    <g
       transform="matrix(1.375,0,0,1.375,0,-394.63583)"
       id="layer1-3-2">
      <g
         transform="scale(0.93557544,1.0688609)"
         id="text7308-5"
         style="font-size:6.13837099px;font-style:normal;font-variant:normal;font-weight:bold;font-stretch:normal;line-height:125%;letter-spacing:0px;word-spacing:0px;fill:#ffffff;fill-opacity:1;stroke:none;font-family:Arial;-inkscape-font-specification:Arial Bold" />
    </g>
    <g
       transform="matrix(1.375,0,0,1.375,0,-394.63583)"
       id="layer1-3-1">
      <g
         transform="scale(0.93557544,1.0688609)"
         id="text7308-7"
         style="font-size:6.13837099px;font-style:normal;font-variant:normal;font-weight:bold;font-stretch:normal;line-height:125%;letter-spacing:0px;word-spacing:0px;fill:#ffffff;fill-opacity:1;stroke:none;font-family:Arial;-inkscape-font-specification:Arial Bold" />
    </g>
    <g
       transform="matrix(1.5,0,0,1.5,-29.444014,-522.91085)"
       id="layer1-6">
      <g
         transform="scale(0.93557544,1.0688609)"
         id="text7308-3"
         style="font-size:6.13837099px;font-style:normal;font-variant:normal;font-weight:bold;font-stretch:normal;line-height:125%;letter-spacing:0px;word-spacing:0px;fill:#ffffff;fill-opacity:1;stroke:none;font-family:Arial;-inkscape-font-specification:Arial Bold" />
    </g>
    <g
       transform="matrix(1.375,0,0,1.375,0,-394.63583)"
       id="layer1-2-2">
      <g
         transform="scale(0.93557544,1.0688609)"
         id="text7308-2-5"
         style="font-size:8.38767338px;font-style:normal;font-variant:normal;font-weight:bold;font-stretch:normal;line-height:125%;letter-spacing:0px;word-spacing:0px;fill:#ffffff;fill-opacity:1;stroke:none;font-family:Arial;-inkscape-font-specification:Arial Bold" />
    </g>
    <g
       transform="translate(16.574815,1039.9887)"
       id="g18916">
      <g
         transform="translate(0,-1036.3622)"
         id="layer1-37-1">
        <g
           transform="scale(0.93557544,1.0688609)"
           id="text7308-75"
           style="font-size:8.38767338px;font-style:normal;font-variant:normal;font-weight:bold;font-stretch:normal;line-height:125%;letter-spacing:0px;word-spacing:0px;fill:#ffffff;fill-opacity:1;stroke:none;font-family:Arial;-inkscape-font-specification:Arial Bold" />
      </g>
      <g
         id="text3074-3"
         style="font-size:7px;font-style:normal;font-variant:normal;font-weight:bold;font-stretch:normal;line-height:125%;letter-spacing:0px;word-spacing:0px;fill:#ffffff;fill-opacity:1;stroke:none;font-family:Arial;-inkscape-font-specification:Arial Bold" />
      <g
         id="text3330-4"
         style="font-size:7px;font-style:normal;font-variant:normal;font-weight:bold;font-stretch:normal;line-height:125%;letter-spacing:0px;word-spacing:0px;fill:#ffffff;fill-opacity:1;stroke:none;font-family:Arial;-inkscape-font-specification:Arial Bold" />
      <g
         id="text3334-3"
         style="font-size:7px;font-style:normal;font-variant:normal;font-weight:bold;font-stretch:normal;line-height:125%;letter-spacing:0px;word-spacing:0px;fill:#ffffff;fill-opacity:1;stroke:none;font-family:Arial;-inkscape-font-specification:Arial Bold" />
      <g
         transform="scale(1.0025516,0.99745489)"
         id="text3420"
         style="font-size:8.28998661px;font-style:normal;font-variant:normal;font-weight:bold;font-stretch:normal;line-height:125%;letter-spacing:0px;word-spacing:0px;fill:#ffffff;fill-opacity:1;stroke:none;font-family:Arial;-inkscape-font-specification:Arial Bold" />
    </g>
    <g
       transform="matrix(1.3743148,0,0,1.3743208,0.01096373,1030.3659)"
       id="layer1-38"
       style="fill:#649be6;fill-opacity:1">
      <path
         d="M 7.78125,0 C 6.4918979,0.033489 5.1955309,0.37225962 4,1.0625 0.17430016,3.2712689 -1.1462799,8.1742812 1.0625,12 c 1.6677779,2.888676 4.8837016,4.346233 8,3.9375 C 8.701589,15.682653 8.5,15.355237 8.5,15.03125 c 0,-0.357213 0.2558704,-0.667512 0.6875,-0.9375 l -0.5,0 C 8.0326296,14.09375 7.5,13.56112 7.5,12.90625 L 7.5,11.25 6.96875,11.5625 C 6.5836335,11.129204 6.2196972,10.689736 5.875,10.1875 L 7.5,9.25 l 0,-1 C 7.5,7.5951296 8.0326296,7.0625 8.6875,7.0625 l 3.65625,0 C 12.27223,6.8954286 12.203656,6.7270462 12.125,6.5625 L 13.96875,5.5 c 0.216556,0.5148427 0.386111,1.0283922 0.46875,1.5625 l 1.03125,0 c 0.163718,0 0.327233,0.034092 0.46875,0.09375 C 15.824463,6.0732159 15.517129,5.0039472 14.9375,4 13.418963,1.3698179 10.617825,-0.0736758 7.78125,0 z m 0.375,1.53125 c 0.7097681,0.018191 1.4299588,0.1321505 2.09375,0.375 l -1,0.5625 C 8.8935927,2.1230141 8.5311472,1.8171291 8.15625,1.53125 z m -2,0.25 C 6.7747903,2.181954 7.3628423,2.6606341 7.9375,3.21875 L 6.625,4 5.5,2.03125 c 0.214721,-0.090489 0.4366538,-0.1844054 0.65625,-0.25 z m 5.71875,1 c 0.486938,0.3596172 0.901846,0.8124059 1.28125,1.3125 L 11.34375,5.125 c -0.318945,-0.5117944 -0.638802,-0.9902775 -1,-1.4375 l 1.375,-0.78125 c 0.05004,-0.02889 0.118831,-0.084924 0.15625,-0.125 z m -7.8125,0.0625 0.03125,0 1.125,1.96875 -1.4375,0.8125 C 3.5826613,4.8544901 3.4803938,4.1064377 3.4375,3.375 3.6311005,3.1847187 3.842005,3.0109989 4.0625,2.84375 z M 9.03125,4.4375 C 9.38967,4.8821704 9.7450915,5.3656673 10.0625,5.875 l -1.75,1 -0.875,-1.5 1.59375,-0.9375 z m -6.8125,0.625 C 2.28115,5.4984333 2.3849153,5.9276899 2.5,6.375 L 1.59375,6.90625 C 1.7050573,6.2690047 1.9247093,5.6411904 2.21875,5.0625 z M 6,6.1875 6.875,7.6875 5.03125,8.78125 C 4.7468737,8.2534234 4.4895241,7.718972 4.28125,7.1875 L 6,6.1875 z M 3,7.90625 c 0.209307,0.5360722 0.432526,1.093738 0.71875,1.625 L 2.03125,10.5 C 1.7935308,9.9348442 1.6015452,9.3687176 1.53125,8.78125 L 3,7.90625 z m 6.5625,0 c -0.77368,0 -1.40625,0.6013198 -1.40625,1.375 l 0,3.03125 c 0,0.77368 0.63257,1.40625 1.40625,1.40625 l 1.59375,0 L 11.0625,14.25 c -0.806035,0.153304 -1.375,0.477335 -1.375,0.84375 C 9.6875,15.603793 10.762662,16 12.09375,16 13.424838,16 14.5,15.603793 14.5,15.09375 c 0,-0.377636 -0.591222,-0.727887 -1.4375,-0.875 l -0.09375,-0.5 1.625,0 C 15.36743,13.71875 16,13.08618 16,12.3125 l 0,-3.03125 c 0,-0.7736802 -0.63257,-1.375 -1.40625,-1.375 l -5.03125,0 z m -0.4375,1.0625 5.9375,0 0,3.6875 -5.9375,0 0,-3.6875 z M 4.5625,10.9375 c 0.346041,0.502039 0.737228,0.910486 1.125,1.34375 l -1.59375,0.9375 c -0.4736137,-0.35461 -0.8794251,-0.824049 -1.25,-1.3125 L 4.5625,10.9375 z M 6.84375,13.5 C 7.2943075,13.889973 7.7794469,14.202733 8.25,14.5 7.4172606,14.53065 6.5593666,14.40379 5.78125,14.125 L 6.84375,13.5 z"
         id="path9674-4-1"
         style="fill:#649be6;fill-opacity:1;stroke:none" />
    </g>
  </g>
</svg>
