<?xml version="1.0" encoding="UTF-8" standalone="no"?>
<!-- Created with Inkscape (http://www.inkscape.org/) -->

<svg
   xmlns:dc="http://purl.org/dc/elements/1.1/"
   xmlns:cc="http://creativecommons.org/ns#"
   xmlns:rdf="http://www.w3.org/1999/02/22-rdf-syntax-ns#"
   xmlns:svg="http://www.w3.org/2000/svg"
   xmlns="http://www.w3.org/2000/svg"
   version="1.1"
   width="22"
   height="22"
   id="svg15992">
  <defs
     id="defs15994" />
  <metadata
     id="metadata15997">
    <rdf:RDF>
      <cc:Work
         rdf:about="">
        <dc:format>image/svg+xml</dc:format>
        <dc:type
           rdf:resource="http://purl.org/dc/dcmitype/StillImage" />
        <dc:title></dc:title>
      </cc:Work>
    </rdf:RDF>
  </metadata>
  <g
     transform="translate(0,-1030.3622)"
     id="layer1">
    <g
       transform="translate(3,1033.8577)"
       id="layer1-8">
      <g
         id="text5399"
         style="font-size:7px;font-style:normal;font-variant:normal;font-weight:bold;font-stretch:normal;line-height:125%;letter-spacing:0px;word-spacing:0px;fill:#000000;fill-opacity:1;stroke:none;font-family:Arial;-inkscape-font-specification:Arial Bold" />
      <g
         transform="translate(0,-1036.4247)"
         id="layer1-3">
        <g
           transform="scale(0.89723629,1.1145336)"
           id="text5639"
           style="font-size:7.97739649px;font-style:normal;font-variant:normal;font-weight:bold;font-stretch:normal;line-height:125%;letter-spacing:0px;word-spacing:0px;fill:#cccccc;fill-opacity:1;stroke:none;font-family:Arial;-inkscape-font-specification:Arial Bold" />
        <g
           transform="scale(1.0195853,0.98079088)"
           id="text6068"
           style="font-size:6.62408876px;font-style:normal;font-variant:normal;font-weight:bold;font-stretch:normal;line-height:125%;letter-spacing:0px;word-spacing:0px;fill:#000000;fill-opacity:1;stroke:none;font-family:Arial;-inkscape-font-specification:Arial Bold" />
        <g
           id="text6125"
           style="font-size:6px;font-style:normal;font-variant:normal;font-weight:bold;font-stretch:normal;line-height:125%;letter-spacing:0px;word-spacing:0px;fill:#000000;fill-opacity:1;stroke:none;font-family:Arial;-inkscape-font-specification:Arial Bold" />
      </g>
      <g
         transform="translate(0,-1036.3622)"
         id="layer1-84">
        <g
           transform="scale(0.93557544,1.0688609)"
           id="text7308"
           style="font-size:8.03458023px;font-style:normal;font-variant:normal;font-weight:bold;font-stretch:normal;line-height:125%;letter-spacing:0px;word-spacing:0px;fill:#ffffff;fill-opacity:1;stroke:none;font-family:Arial;-inkscape-font-specification:Arial Bold" />
      </g>
      <g
         transform="scale(0.9686171,1.0323997)"
         id="text5724"
         style="font-size:9.88508701px;font-style:normal;font-variant:normal;font-weight:bold;font-stretch:normal;line-height:125%;letter-spacing:0px;word-spacing:0px;fill:#ffffff;fill-opacity:1;stroke:none;font-family:Arial;-inkscape-font-specification:Arial Bold" />
      <g
         id="text5751"
         style="font-size:7px;font-style:normal;font-variant:normal;font-weight:bold;font-stretch:normal;line-height:125%;letter-spacing:0px;word-spacing:0px;fill:#ffffff;fill-opacity:1;stroke:none;font-family:Arial;-inkscape-font-specification:Arial Bold" />
      <g
         id="layer1-37">
        <g
           id="text5141"
           style="font-size:7px;font-style:normal;font-variant:normal;font-weight:bold;font-stretch:normal;line-height:125%;letter-spacing:0px;word-spacing:0px;fill:#000000;fill-opacity:1;stroke:none;font-family:Arial;-inkscape-font-specification:Arial Bold" />
      </g>
      <g
         transform="scale(1.0995518,0.90946149)"
         id="text5804"
         style="font-size:6.36623049px;font-style:normal;font-variant:normal;font-weight:bold;font-stretch:normal;line-height:125%;letter-spacing:0px;word-spacing:0px;fill:#000000;fill-opacity:1;stroke:none;font-family:Arial;-inkscape-font-specification:Arial Bold" />
      <g
         transform="scale(0.94725198,1.0556853)"
         id="text5938"
         style="font-size:7px;font-style:normal;font-variant:normal;font-weight:bold;font-stretch:normal;line-height:125%;letter-spacing:0px;word-spacing:0px;fill:#000000;fill-opacity:1;stroke:none;font-family:Arial;-inkscape-font-specification:Arial Bold" />
    </g>
    <g
       transform="matrix(1.3669903,0,0,1.375,30.30548,-396.96631)"
       id="layer1-849">
      <g
         id="text7004"
         style="font-size:6px;font-style:normal;font-variant:normal;font-weight:bold;font-stretch:normal;line-height:125%;letter-spacing:0px;word-spacing:0px;fill:#000000;fill-opacity:1;stroke:none;font-family:Arial;-inkscape-font-specification:Arial Bold" />
    </g>
    <g
       transform="matrix(1.375,0,0,1.375,0,-394.63583)"
       id="layer1-2">
      <g
         transform="scale(0.93557544,1.0688609)"
         id="text7308-2"
         style="font-size:6.13837099px;font-style:normal;font-variant:normal;font-weight:bold;font-stretch:normal;line-height:125%;letter-spacing:0px;word-spacing:0px;fill:#ffffff;fill-opacity:1;stroke:none;font-family:Arial;-inkscape-font-specification:Arial Bold" />
    </g>
    <g
       transform="matrix(1.375,0,0,1.375,26.097206,-407.46806)"
       id="layer1-29" />
    <g
       transform="matrix(1.375,0,0,1.375,0,-394.63583)"
       id="layer1-3-2">
      <g
         transform="scale(0.93557544,1.0688609)"
         id="text7308-5"
         style="font-size:6.13837099px;font-style:normal;font-variant:normal;font-weight:bold;font-stretch:normal;line-height:125%;letter-spacing:0px;word-spacing:0px;fill:#ffffff;fill-opacity:1;stroke:none;font-family:Arial;-inkscape-font-specification:Arial Bold" />
    </g>
    <g
       transform="matrix(1.375,0,0,1.375,0,-394.63583)"
       id="layer1-3-1">
      <g
         transform="scale(0.93557544,1.0688609)"
         id="text7308-7"
         style="font-size:6.13837099px;font-style:normal;font-variant:normal;font-weight:bold;font-stretch:normal;line-height:125%;letter-spacing:0px;word-spacing:0px;fill:#ffffff;fill-opacity:1;stroke:none;font-family:Arial;-inkscape-font-specification:Arial Bold" />
    </g>
    <g
       transform="matrix(1.5,0,0,1.5,-29.444014,-522.91085)"
       id="layer1-6">
      <g
         transform="scale(0.93557544,1.0688609)"
         id="text7308-3"
         style="font-size:6.13837099px;font-style:normal;font-variant:normal;font-weight:bold;font-stretch:normal;line-height:125%;letter-spacing:0px;word-spacing:0px;fill:#ffffff;fill-opacity:1;stroke:none;font-family:Arial;-inkscape-font-specification:Arial Bold" />
    </g>
    <g
       transform="matrix(1.375,0,0,1.375,0,-394.63583)"
       id="layer1-2-2">
      <g
         transform="scale(0.93557544,1.0688609)"
         id="text7308-2-5"
         style="font-size:8.38767338px;font-style:normal;font-variant:normal;font-weight:bold;font-stretch:normal;line-height:125%;letter-spacing:0px;word-spacing:0px;fill:#ffffff;fill-opacity:1;stroke:none;font-family:Arial;-inkscape-font-specification:Arial Bold" />
    </g>
    <g
       transform="translate(16.574815,1039.9887)"
       id="g18916">
      <g
         transform="translate(0,-1036.3622)"
         id="layer1-37-1">
        <g
           transform="scale(0.93557544,1.0688609)"
           id="text7308-75"
           style="font-size:8.38767338px;font-style:normal;font-variant:normal;font-weight:bold;font-stretch:normal;line-height:125%;letter-spacing:0px;word-spacing:0px;fill:#ffffff;fill-opacity:1;stroke:none;font-family:Arial;-inkscape-font-specification:Arial Bold" />
      </g>
      <g
         id="text3074-3"
         style="font-size:7px;font-style:normal;font-variant:normal;font-weight:bold;font-stretch:normal;line-height:125%;letter-spacing:0px;word-spacing:0px;fill:#ffffff;fill-opacity:1;stroke:none;font-family:Arial;-inkscape-font-specification:Arial Bold" />
      <g
         id="text3330-4"
         style="font-size:7px;font-style:normal;font-variant:normal;font-weight:bold;font-stretch:normal;line-height:125%;letter-spacing:0px;word-spacing:0px;fill:#ffffff;fill-opacity:1;stroke:none;font-family:Arial;-inkscape-font-specification:Arial Bold" />
      <g
         id="text3334-3"
         style="font-size:7px;font-style:normal;font-variant:normal;font-weight:bold;font-stretch:normal;line-height:125%;letter-spacing:0px;word-spacing:0px;fill:#ffffff;fill-opacity:1;stroke:none;font-family:Arial;-inkscape-font-specification:Arial Bold" />
      <g
         transform="scale(1.0025516,0.99745489)"
         id="text3420"
         style="font-size:8.28998661px;font-style:normal;font-variant:normal;font-weight:bold;font-stretch:normal;line-height:125%;letter-spacing:0px;word-spacing:0px;fill:#ffffff;fill-opacity:1;stroke:none;font-family:Arial;-inkscape-font-specification:Arial Bold" />
    </g>
    <g
       transform="matrix(1.375,0,0,1.375,0.04296875,1030.3193)"
       id="g21070"
       style="fill:#649be6;fill-opacity:1">
      <path
         d="m 2.6875,0.03125 c -1.4831511,0 -2.71875,1.2043489 -2.71875,2.6875 l 0,10.59375 c 0,1.483151 1.2355989,2.71875 2.71875,2.71875 l 10.59375,0 c 1.483151,0 2.6875,-1.235599 2.6875,-2.71875 l 0,-10.59375 c 0,-1.4831511 -1.204349,-2.6875 -2.6875,-2.6875 l -10.59375,0 z m 0,1 10.59375,0 c 0.947749,0 1.6875,0.7397512 1.6875,1.6875 l 0,10.59375 c 0,0.947749 -0.739751,1.71875 -1.6875,1.71875 l -10.59375,0 c -0.9477488,0 -1.71875,-0.771001 -1.71875,-1.71875 l 0,-10.59375 c 0,-0.9477488 0.7710012,-1.6875 1.71875,-1.6875 z M 10.125,2 C 9.0984052,2 8.28125,2.9258204 8.28125,4.09375 c 0,0.5539775 0.1990524,1.0608076 0.5,1.4375 -0.1067143,0.1495416 -0.2099923,0.2831585 -0.3125,0.4375 -0.2849597,0.4290475 -0.5402428,0.9461181 -0.75,1.09375 -1.0261422,0.7222231 -1.5,1.5828234 -1.5,3.03125 0,0.203461 0.036533,0.398109 0.0625,0.59375 0.286521,-0.140241 0.6478185,-0.21875 1.03125,-0.21875 0.049666,0 0.076401,-0.0027 0.125,0 C 7.3922211,10.243377 7.375,10.040605 7.375,9.8125 7.3903745,8.2363492 8.0562494,7.2669062 8.78125,6.25 8.8137888,6.2071902 8.8372844,6.1231148 8.875,6.0625 8.905125,6.114382 8.965025,6.155937 9.03125,6.1875 L 9.625,6.46875 c 0.2902889,0.1383261 0.609842,0.1274376 0.90625,0 L 11.1875,6.1875 c 0.01032,-0.00444 0.0217,0.00512 0.03125,0 0.519341,1.1188128 1.202683,2.3718018 1.21875,3.40625 0,0.2912703 -0.04404,0.573524 -0.09375,0.84375 0.160415,-0.03088 0.355067,-0.03125 0.53125,-0.03125 0.232198,0 0.453443,0.01012 0.65625,0.0625 0.01005,-0.122883 0.03125,-0.249284 0.03125,-0.375 0,-1.2213376 -0.32668,-2.1284175 -1.09375,-2.875 -0.313885,-0.3055012 -0.704591,-0.9707635 -1.125,-1.5625 0.385633,-0.3870267 0.625,-0.93256 0.625,-1.5625 C 11.96875,2.9258204 11.151594,2 10.125,2 z m -3.28125,0.03125 -5.125,5.375 2.34375,0.375 L 1.5,12.34375 6.40625,7.125 4.6875,6.09375 6.84375,2.03125 z M 9.375,3.71875 c 0.3109696,0 0.53125,0.2639826 0.53125,0.625 C 9.90625,4.393563 9.883417,4.4532212 9.875,4.5 9.818138,4.50743 9.777993,4.534501 9.71875,4.5625 c 0,-0.2714135 -0.1767806,-0.5 -0.375,-0.5 C 9.1455306,4.0625 9,4.2910865 9,4.5625 9,4.7267051 9.0658941,4.8795078 9.15625,4.96875 8.9511732,4.8631686 8.8125,4.614513 8.8125,4.34375 c 0,-0.3610174 0.2515295,-0.625 0.5625,-0.625 z m 1.5,0.03125 c 0.31097,0 0.5625,0.2639826 0.5625,0.625 0,0.2707631 -0.138674,0.5194186 -0.34375,0.625 0.07224,-0.089897 0.09375,-0.2308116 0.09375,-0.375 0,-0.2714135 -0.145531,-0.5 -0.34375,-0.5 -0.198219,0 -0.375,0.2285865 -0.375,0.5 0,0.029709 -0.0037,0.066378 0,0.09375 -0.0377,-0.026637 -0.08721,-0.072163 -0.125,-0.09375 -0.03116,-0.08339 -0.0625,-0.155514 -0.0625,-0.25 0,-0.3610174 0.28278,-0.625 0.59375,-0.625 z m -0.78125,1 c 0.151115,-1e-7 0.323815,0.05986 0.4375,0.15625 l 0.5625,0.5 c 0.161168,0.1366504 0.230017,0.3400461 0.15625,0.5 -0.02342,0.016106 -0.03449,0.019208 -0.0625,0.03125 L 10.53125,6.25 C 10.234842,6.3774377 9.9152889,6.3883262 9.625,6.25 L 9.03125,5.9375 C 9.010102,5.927425 8.985547,5.949811 8.96875,5.9375 8.8781555,5.767493 8.9544758,5.5508347 9.125,5.40625 l 0.5625,-0.5 C 9.8011837,4.8098603 9.9426352,4.7500001 10.09375,4.75 z M 9.125,5.5 C 9.096922,5.528354 9.0625,5.56265 9.0625,5.59375 c 0,0.1727778 0.4883547,0.3125 1.0625,0.3125 0.574144,0 1,-0.1397222 1,-0.3125 C 11.125,5.562649 11.1218,5.528353 11.09375,5.5 10.979399,5.6353919 10.61049,5.71875 10.125,5.71875 9.6395097,5.71875 9.239351,5.635392 9.125,5.5 z m 3.1875,5.1875 c -0.792481,0.0934 -1.0625,0.516244 -1.0625,1.40625 0,1.017149 -1.053502,2.3125 0.03125,2.3125 1.084747,0 2.78125,-0.98285 2.78125,-2 0,-1.017149 -0.321504,-1.71875 -1.40625,-1.71875 -0.135593,0 -0.230538,-0.01335 -0.34375,0 z m -5.09375,0.125 c -1.084746,0 -1.375,0.7016 -1.375,1.71875 0,1.01715 1.6652547,2 2.75,2 1.0847524,0 0.0625,-1.29535 0.0625,-2.3125 0,-1.017149 -0.352754,-1.40625 -1.4375,-1.40625 z m 1.90625,2.0625 0.15625,0.59375 0.1875,0.6875 c 0.1423032,0.01911 0.2591243,0.03125 0.40625,0.03125 0.155735,0 0.318658,-0.0097 0.46875,-0.03125 0.0637,-0.311483 0.25,-1.09375 0.25,-1.09375 L 10.6875,12.875 c -0.245482,0.119887 -0.504816,0.1875 -0.78125,0.1875 -0.2829477,0 -0.5303702,-0.0634 -0.78125,-0.1875 z"
         id="rect4701"
         style="font-size:medium;font-style:normal;font-variant:normal;font-weight:normal;font-stretch:normal;text-indent:0;text-align:start;text-decoration:none;line-height:normal;letter-spacing:normal;word-spacing:normal;text-transform:none;direction:ltr;block-progression:tb;writing-mode:lr-tb;text-anchor:start;baseline-shift:baseline;color:#000000;fill:#649be6;fill-opacity:1;stroke:none;stroke-width:0.99757689;marker:none;visibility:visible;display:inline;overflow:visible;enable-background:accumulate;font-family:Sans;-inkscape-font-specification:Sans" />
      <g
         transform="matrix(0.91787765,0,0,0.91736642,-0.6374356,-0.15374916)"
         id="layer1-0"
         style="fill:#649be6;fill-opacity:1">
        <g
           id="text4267"
           style="font-size:6px;font-style:normal;font-variant:normal;font-weight:bold;font-stretch:normal;line-height:125%;letter-spacing:0px;word-spacing:0px;fill:#649be6;fill-opacity:1;stroke:none;font-family:Arial;-inkscape-font-specification:Arial Bold" />
        <g
           transform="scale(0.92423852,1.0819718)"
           id="text4597"
           style="font-size:5.17998075px;font-style:normal;font-variant:normal;font-weight:bold;font-stretch:normal;line-height:125%;letter-spacing:0px;word-spacing:0px;fill:#649be6;fill-opacity:1;stroke:none;font-family:Arial;-inkscape-font-specification:Arial Bold" />
      </g>
    </g>
  </g>
</svg>
