<?xml version="1.0" encoding="UTF-8" standalone="no"?>
<!-- Created with Inkscape (http://www.inkscape.org/) -->

<svg
   xmlns:dc="http://purl.org/dc/elements/1.1/"
   xmlns:cc="http://creativecommons.org/ns#"
   xmlns:rdf="http://www.w3.org/1999/02/22-rdf-syntax-ns#"
   xmlns:svg="http://www.w3.org/2000/svg"
   xmlns="http://www.w3.org/2000/svg"
   version="1.1"
   width="22"
   height="22"
   id="svg15992">
  <defs
     id="defs15994" />
  <metadata
     id="metadata15997">
    <rdf:RDF>
      <cc:Work
         rdf:about="">
        <dc:format>image/svg+xml</dc:format>
        <dc:type
           rdf:resource="http://purl.org/dc/dcmitype/StillImage" />
        <dc:title></dc:title>
      </cc:Work>
    </rdf:RDF>
  </metadata>
  <g
     transform="translate(-12.584746,-8.9492)"
     id="g20917">
    <path
       d="m -28.059324,8.3898306 a 7.4110169,6.9915257 0 1 1 -14.822034,0 7.4110169,6.9915257 0 1 1 14.822034,0 z"
       transform="matrix(1.4505432,0,0,1.5375757,75.036008,7.0491529)"
       id="path20792"
       style="fill:#ffffff;fill-rule:evenodd;stroke:none" />
    <g
       transform="translate(12.584746,-1021.413)"
       id="layer1">
      <g
         transform="translate(3,1033.8577)"
         id="layer1-8">
        <g
           id="text5399"
           style="font-size:7px;font-style:normal;font-variant:normal;font-weight:bold;font-stretch:normal;line-height:125%;letter-spacing:0px;word-spacing:0px;fill:#000000;fill-opacity:1;stroke:none;font-family:Arial;-inkscape-font-specification:Arial Bold" />
        <g
           transform="translate(0,-1036.4247)"
           id="layer1-3">
          <g
             transform="scale(0.89723629,1.1145336)"
             id="text5639"
             style="font-size:7.97739649px;font-style:normal;font-variant:normal;font-weight:bold;font-stretch:normal;line-height:125%;letter-spacing:0px;word-spacing:0px;fill:#cccccc;fill-opacity:1;stroke:none;font-family:Arial;-inkscape-font-specification:Arial Bold" />
          <g
             transform="scale(1.0195853,0.98079088)"
             id="text6068"
             style="font-size:6.62408876px;font-style:normal;font-variant:normal;font-weight:bold;font-stretch:normal;line-height:125%;letter-spacing:0px;word-spacing:0px;fill:#000000;fill-opacity:1;stroke:none;font-family:Arial;-inkscape-font-specification:Arial Bold" />
          <g
             id="text6125"
             style="font-size:6px;font-style:normal;font-variant:normal;font-weight:bold;font-stretch:normal;line-height:125%;letter-spacing:0px;word-spacing:0px;fill:#000000;fill-opacity:1;stroke:none;font-family:Arial;-inkscape-font-specification:Arial Bold" />
        </g>
        <g
           transform="translate(0,-1036.3622)"
           id="layer1-84">
          <g
             transform="scale(0.93557544,1.0688609)"
             id="text7308"
             style="font-size:8.03458023px;font-style:normal;font-variant:normal;font-weight:bold;font-stretch:normal;line-height:125%;letter-spacing:0px;word-spacing:0px;fill:#ffffff;fill-opacity:1;stroke:none;font-family:Arial;-inkscape-font-specification:Arial Bold" />
        </g>
        <g
           transform="scale(0.9686171,1.0323997)"
           id="text5724"
           style="font-size:9.88508701px;font-style:normal;font-variant:normal;font-weight:bold;font-stretch:normal;line-height:125%;letter-spacing:0px;word-spacing:0px;fill:#ffffff;fill-opacity:1;stroke:none;font-family:Arial;-inkscape-font-specification:Arial Bold" />
        <g
           id="text5751"
           style="font-size:7px;font-style:normal;font-variant:normal;font-weight:bold;font-stretch:normal;line-height:125%;letter-spacing:0px;word-spacing:0px;fill:#ffffff;fill-opacity:1;stroke:none;font-family:Arial;-inkscape-font-specification:Arial Bold" />
        <g
           id="layer1-37">
          <g
             id="text5141"
             style="font-size:7px;font-style:normal;font-variant:normal;font-weight:bold;font-stretch:normal;line-height:125%;letter-spacing:0px;word-spacing:0px;fill:#000000;fill-opacity:1;stroke:none;font-family:Arial;-inkscape-font-specification:Arial Bold" />
        </g>
        <g
           transform="scale(1.0995518,0.90946149)"
           id="text5804"
           style="font-size:6.36623049px;font-style:normal;font-variant:normal;font-weight:bold;font-stretch:normal;line-height:125%;letter-spacing:0px;word-spacing:0px;fill:#000000;fill-opacity:1;stroke:none;font-family:Arial;-inkscape-font-specification:Arial Bold" />
        <g
           transform="scale(0.94725198,1.0556853)"
           id="text5938"
           style="font-size:7px;font-style:normal;font-variant:normal;font-weight:bold;font-stretch:normal;line-height:125%;letter-spacing:0px;word-spacing:0px;fill:#000000;fill-opacity:1;stroke:none;font-family:Arial;-inkscape-font-specification:Arial Bold" />
      </g>
      <g
         transform="matrix(1.3669903,0,0,1.375,30.30548,-396.96631)"
         id="layer1-849">
        <g
           id="text7004"
           style="font-size:6px;font-style:normal;font-variant:normal;font-weight:bold;font-stretch:normal;line-height:125%;letter-spacing:0px;word-spacing:0px;fill:#000000;fill-opacity:1;stroke:none;font-family:Arial;-inkscape-font-specification:Arial Bold" />
      </g>
      <g
         transform="matrix(1.375,0,0,1.375,0,-394.63583)"
         id="layer1-2">
        <g
           transform="scale(0.93557544,1.0688609)"
           id="text7308-2"
           style="font-size:6.13837099px;font-style:normal;font-variant:normal;font-weight:bold;font-stretch:normal;line-height:125%;letter-spacing:0px;word-spacing:0px;fill:#ffffff;fill-opacity:1;stroke:none;font-family:Arial;-inkscape-font-specification:Arial Bold" />
      </g>
      <g
         transform="matrix(1.375,0,0,1.375,26.097206,-407.46806)"
         id="layer1-29" />
      <g
         transform="matrix(1.375,0,0,1.375,0,-394.63583)"
         id="layer1-3-2">
        <g
           transform="scale(0.93557544,1.0688609)"
           id="text7308-5"
           style="font-size:6.13837099px;font-style:normal;font-variant:normal;font-weight:bold;font-stretch:normal;line-height:125%;letter-spacing:0px;word-spacing:0px;fill:#ffffff;fill-opacity:1;stroke:none;font-family:Arial;-inkscape-font-specification:Arial Bold" />
      </g>
      <g
         transform="matrix(1.375,0,0,1.375,0,-394.63583)"
         id="layer1-3-1">
        <g
           transform="scale(0.93557544,1.0688609)"
           id="text7308-7"
           style="font-size:6.13837099px;font-style:normal;font-variant:normal;font-weight:bold;font-stretch:normal;line-height:125%;letter-spacing:0px;word-spacing:0px;fill:#ffffff;fill-opacity:1;stroke:none;font-family:Arial;-inkscape-font-specification:Arial Bold" />
      </g>
      <g
         transform="matrix(1.5,0,0,1.5,-29.444014,-522.91085)"
         id="layer1-6">
        <g
           transform="scale(0.93557544,1.0688609)"
           id="text7308-3"
           style="font-size:6.13837099px;font-style:normal;font-variant:normal;font-weight:bold;font-stretch:normal;line-height:125%;letter-spacing:0px;word-spacing:0px;fill:#ffffff;fill-opacity:1;stroke:none;font-family:Arial;-inkscape-font-specification:Arial Bold" />
      </g>
      <g
         transform="matrix(1.375,0,0,1.375,0,-394.63583)"
         id="layer1-2-2">
        <g
           transform="scale(0.93557544,1.0688609)"
           id="text7308-2-5"
           style="font-size:8.38767338px;font-style:normal;font-variant:normal;font-weight:bold;font-stretch:normal;line-height:125%;letter-spacing:0px;word-spacing:0px;fill:#ffffff;fill-opacity:1;stroke:none;font-family:Arial;-inkscape-font-specification:Arial Bold" />
      </g>
      <g
         transform="translate(16.574815,1039.9887)"
         id="g18916">
        <g
           transform="translate(0,-1036.3622)"
           id="layer1-37-1">
          <g
             transform="scale(0.93557544,1.0688609)"
             id="text7308-75"
             style="font-size:8.38767338px;font-style:normal;font-variant:normal;font-weight:bold;font-stretch:normal;line-height:125%;letter-spacing:0px;word-spacing:0px;fill:#ffffff;fill-opacity:1;stroke:none;font-family:Arial;-inkscape-font-specification:Arial Bold" />
        </g>
        <g
           id="text3074-3"
           style="font-size:7px;font-style:normal;font-variant:normal;font-weight:bold;font-stretch:normal;line-height:125%;letter-spacing:0px;word-spacing:0px;fill:#ffffff;fill-opacity:1;stroke:none;font-family:Arial;-inkscape-font-specification:Arial Bold" />
        <g
           id="text3330-4"
           style="font-size:7px;font-style:normal;font-variant:normal;font-weight:bold;font-stretch:normal;line-height:125%;letter-spacing:0px;word-spacing:0px;fill:#ffffff;fill-opacity:1;stroke:none;font-family:Arial;-inkscape-font-specification:Arial Bold" />
        <g
           id="text3334-3"
           style="font-size:7px;font-style:normal;font-variant:normal;font-weight:bold;font-stretch:normal;line-height:125%;letter-spacing:0px;word-spacing:0px;fill:#ffffff;fill-opacity:1;stroke:none;font-family:Arial;-inkscape-font-specification:Arial Bold" />
        <g
           transform="scale(1.0025516,0.99745489)"
           id="text3420"
           style="font-size:8.28998661px;font-style:normal;font-variant:normal;font-weight:bold;font-stretch:normal;line-height:125%;letter-spacing:0px;word-spacing:0px;fill:#ffffff;fill-opacity:1;stroke:none;font-family:Arial;-inkscape-font-specification:Arial Bold" />
      </g>
      <path
         d="M 10.969188,1030.3622 C 4.9136432,1030.3622 0,1035.3104 0,1041.393 c 0,6.0826 4.9136432,10.9692 10.969188,10.9692 6.055546,0 11.030812,-4.8866 11.030812,-10.9692 0,-6.0826 -4.975266,-11.0308 -11.030812,-11.0308 z m -0.9859939,1.9104 0.6778709,0.1848 0.80112,0.1849 0.677871,-0.1232 0.369748,-0.062 0.492997,-0.1232 c 0,0 0.452617,-0.098 0.677871,-0.062 0.220718,0.036 0.468508,-0.017 0.677872,0.062 0.289145,0.1088 0.558051,0.3017 0.801121,0.493 0.416836,0.3279 0.801119,1.3557 0.801119,1.3557 l 0.431373,1.1709 0.492998,1.4174 0.123255,1.0476 -0.123255,1.2941 0.924369,-0.8011 c 0.716625,0.1757 1.56133,0.6173 2.403362,1.1708 0,0 0.153262,0.9601 0.123255,1.4174 -0.0258,0.3974 -0.103248,0.83 -0.308123,1.1709 -0.357561,0.595 -0.958541,0.98 -1.540622,1.3557 -0.461505,0.298 -0.946165,0.5467 -1.478991,0.6779 -0.816987,0.2011 -1.685554,0.1364 -2.526611,0.1232 -0.797345,-0.013 -1.558418,-0.035 -2.341738,-0.1848 -0.931226,-0.1785 -1.893488,-0.446 -2.7731089,-0.8011 -1.0173701,-0.4108 -2.8963591,-1.6023 -2.8963591,-1.6023 0,0 -1.6467708,-0.9492 -2.4649858,-1.7255 -0.326758,-0.3099 -1.0476191,-1.4173 -1.0476191,-1.4173 0,0 -0.191906,-1.0387 0.06163,-1.2325 0,0 0.8189251,-0.6177 1.1708691,-0.6779 0.851432,-0.1456 1.6989707,-0.183 2.6498598,-0.3081 l 0,0.062 0.492997,0.493 1.355742,0.9244 1.971989,0.7395 0.985995,0.4313 c 0,0 0.747868,0.062 0.985995,0.062 0.238139,0 0.06163,-0.493 0.06163,-0.493 l -0.369748,-0.3698 -0.123255,-0.3081 -0.184875,-0.493 -0.308122,-0.3697 -2.0336139,-0.6779 -1.6638661,-0.6163 -0.862745,-0.6778 0.184874,-0.8628 0.369747,-0.8011 0.308124,-0.493 0.492998,-0.3081 0.6778711,-0.1849 z m 3.2044809,0.5546 -0.184874,0.3081 0.554623,0.1849 0.431372,0.1232 -0.431372,0.6779 1.294117,-0.3081 0.123255,-0.6163 -0.677871,-0.2465 z m -4.37535,0.8627 -0.308123,0.9244 0.6778711,0.6779 0.369747,-0.1233 0.9243699,-0.1849 1.04762,-0.3081 0.123255,-0.3697 -0.801121,-0.1849 -1.1708689,0.1849 z m -3.6974788,8.0729 0.3697467,0 0.554623,0.3081 0.8011211,0.8627 1.109242,0.1233 1.4173681,1.7255 6.1624649,0.1232 -0.492997,2.2801 -1.047619,1.3558 -0.616246,0.5546 -0.06163,-0.062 0.06163,0.493 0.677871,-0.1233 2.341736,-1.7255 0,-0.493 2.464986,0 0.985995,0.2465 c -1.97608,2.8158 -5.252473,4.6219 -8.87395,4.6219 -4.644986,0 -8.5970639,-2.9107 -10.10644297,-7.1485 l 0.43137197,-0.1232 0.1848741,-0.7395 0.184875,-0.1233 2.1568621,0.1233 1.478991,0.986 0.5546227,-0.1233 -0.06163,-0.6162 -0.8011197,-0.7395 -0.308124,-0.493 -0.06163,-0.6163 0.184874,-0.3081 z m 6.2240888,4.4986 c -0.229344,0.049 0.02413,0.2014 -0.184874,0.3081 -0.408563,0.2084 0.492626,0.6162 0.492998,0.6162 0,0 0.488858,0.2603 0.739496,0.2465 0.22697,-0.013 0.616246,-0.2465 0.616246,-0.2465 0.380871,-0.3697 0.192231,-0.8877 0,-0.7395 l -0.492997,0.3082 -0.492998,0 c 0,0 -0.423232,-0.5477 -0.677871,-0.493 z"
         id="rect4165-0"
         style="fill:#649be6;fill-opacity:1;stroke:none" />
    </g>
  </g>
</svg>
