<?xml version="1.0" encoding="UTF-8" standalone="no"?>
<!-- Created with Inkscape (http://www.inkscape.org/) -->

<svg
   xmlns:dc="http://purl.org/dc/elements/1.1/"
   xmlns:cc="http://creativecommons.org/ns#"
   xmlns:rdf="http://www.w3.org/1999/02/22-rdf-syntax-ns#"
   xmlns:svg="http://www.w3.org/2000/svg"
   xmlns="http://www.w3.org/2000/svg"
   version="1.1"
   width="22"
   height="22"
   id="svg15992">
  <defs
     id="defs15994" />
  <metadata
     id="metadata15997">
    <rdf:RDF>
      <cc:Work
         rdf:about="">
        <dc:format>image/svg+xml</dc:format>
        <dc:type
           rdf:resource="http://purl.org/dc/dcmitype/StillImage" />
        <dc:title></dc:title>
      </cc:Work>
    </rdf:RDF>
  </metadata>
  <g
     transform="translate(0,-1030.3622)"
     id="layer1">
    <g
       transform="translate(3,1033.8577)"
       id="layer1-8">
      <g
         id="text5399"
         style="font-size:7px;font-style:normal;font-variant:normal;font-weight:bold;font-stretch:normal;line-height:125%;letter-spacing:0px;word-spacing:0px;fill:#000000;fill-opacity:1;stroke:none;font-family:Arial;-inkscape-font-specification:Arial Bold" />
      <g
         transform="translate(0,-1036.4247)"
         id="layer1-3">
        <g
           transform="scale(0.89723629,1.1145336)"
           id="text5639"
           style="font-size:7.97739649px;font-style:normal;font-variant:normal;font-weight:bold;font-stretch:normal;line-height:125%;letter-spacing:0px;word-spacing:0px;fill:#cccccc;fill-opacity:1;stroke:none;font-family:Arial;-inkscape-font-specification:Arial Bold" />
        <g
           transform="scale(1.0195853,0.98079088)"
           id="text6068"
           style="font-size:6.62408876px;font-style:normal;font-variant:normal;font-weight:bold;font-stretch:normal;line-height:125%;letter-spacing:0px;word-spacing:0px;fill:#000000;fill-opacity:1;stroke:none;font-family:Arial;-inkscape-font-specification:Arial Bold" />
        <g
           id="text6125"
           style="font-size:6px;font-style:normal;font-variant:normal;font-weight:bold;font-stretch:normal;line-height:125%;letter-spacing:0px;word-spacing:0px;fill:#000000;fill-opacity:1;stroke:none;font-family:Arial;-inkscape-font-specification:Arial Bold" />
      </g>
      <g
         transform="translate(0,-1036.3622)"
         id="layer1-84">
        <g
           transform="scale(0.93557544,1.0688609)"
           id="text7308"
           style="font-size:8.03458023px;font-style:normal;font-variant:normal;font-weight:bold;font-stretch:normal;line-height:125%;letter-spacing:0px;word-spacing:0px;fill:#ffffff;fill-opacity:1;stroke:none;font-family:Arial;-inkscape-font-specification:Arial Bold" />
      </g>
      <g
         transform="scale(0.9686171,1.0323997)"
         id="text5724"
         style="font-size:9.88508701px;font-style:normal;font-variant:normal;font-weight:bold;font-stretch:normal;line-height:125%;letter-spacing:0px;word-spacing:0px;fill:#ffffff;fill-opacity:1;stroke:none;font-family:Arial;-inkscape-font-specification:Arial Bold" />
      <g
         id="text5751"
         style="font-size:7px;font-style:normal;font-variant:normal;font-weight:bold;font-stretch:normal;line-height:125%;letter-spacing:0px;word-spacing:0px;fill:#ffffff;fill-opacity:1;stroke:none;font-family:Arial;-inkscape-font-specification:Arial Bold" />
      <g
         id="layer1-37">
        <g
           id="text5141"
           style="font-size:7px;font-style:normal;font-variant:normal;font-weight:bold;font-stretch:normal;line-height:125%;letter-spacing:0px;word-spacing:0px;fill:#000000;fill-opacity:1;stroke:none;font-family:Arial;-inkscape-font-specification:Arial Bold" />
      </g>
      <g
         transform="scale(1.0995518,0.90946149)"
         id="text5804"
         style="font-size:6.36623049px;font-style:normal;font-variant:normal;font-weight:bold;font-stretch:normal;line-height:125%;letter-spacing:0px;word-spacing:0px;fill:#000000;fill-opacity:1;stroke:none;font-family:Arial;-inkscape-font-specification:Arial Bold" />
      <g
         transform="scale(0.94725198,1.0556853)"
         id="text5938"
         style="font-size:7px;font-style:normal;font-variant:normal;font-weight:bold;font-stretch:normal;line-height:125%;letter-spacing:0px;word-spacing:0px;fill:#000000;fill-opacity:1;stroke:none;font-family:Arial;-inkscape-font-specification:Arial Bold" />
    </g>
    <g
       transform="matrix(1.3669903,0,0,1.375,30.30548,-396.96631)"
       id="layer1-849">
      <g
         id="text7004"
         style="font-size:6px;font-style:normal;font-variant:normal;font-weight:bold;font-stretch:normal;line-height:125%;letter-spacing:0px;word-spacing:0px;fill:#000000;fill-opacity:1;stroke:none;font-family:Arial;-inkscape-font-specification:Arial Bold" />
    </g>
    <g
       transform="matrix(1.375,0,0,1.375,0,-394.63583)"
       id="layer1-2">
      <g
         transform="scale(0.93557544,1.0688609)"
         id="text7308-2"
         style="font-size:6.13837099px;font-style:normal;font-variant:normal;font-weight:bold;font-stretch:normal;line-height:125%;letter-spacing:0px;word-spacing:0px;fill:#ffffff;fill-opacity:1;stroke:none;font-family:Arial;-inkscape-font-specification:Arial Bold" />
    </g>
    <g
       transform="matrix(1.375,0,0,1.375,26.097206,-407.46806)"
       id="layer1-29" />
    <g
       transform="matrix(1.375,0,0,1.375,0,-394.63583)"
       id="layer1-3-2">
      <g
         transform="scale(0.93557544,1.0688609)"
         id="text7308-5"
         style="font-size:6.13837099px;font-style:normal;font-variant:normal;font-weight:bold;font-stretch:normal;line-height:125%;letter-spacing:0px;word-spacing:0px;fill:#ffffff;fill-opacity:1;stroke:none;font-family:Arial;-inkscape-font-specification:Arial Bold" />
    </g>
    <g
       transform="matrix(1.375,0,0,1.375,0,-394.63583)"
       id="layer1-3-1">
      <g
         transform="scale(0.93557544,1.0688609)"
         id="text7308-7"
         style="font-size:6.13837099px;font-style:normal;font-variant:normal;font-weight:bold;font-stretch:normal;line-height:125%;letter-spacing:0px;word-spacing:0px;fill:#ffffff;fill-opacity:1;stroke:none;font-family:Arial;-inkscape-font-specification:Arial Bold" />
    </g>
    <g
       transform="matrix(1.5,0,0,1.5,-29.444014,-522.91085)"
       id="layer1-6">
      <g
         transform="scale(0.93557544,1.0688609)"
         id="text7308-3"
         style="font-size:6.13837099px;font-style:normal;font-variant:normal;font-weight:bold;font-stretch:normal;line-height:125%;letter-spacing:0px;word-spacing:0px;fill:#ffffff;fill-opacity:1;stroke:none;font-family:Arial;-inkscape-font-specification:Arial Bold" />
    </g>
    <g
       transform="matrix(1.375,0,0,1.375,0,-394.63583)"
       id="layer1-2-2">
      <g
         transform="scale(0.93557544,1.0688609)"
         id="text7308-2-5"
         style="font-size:8.38767338px;font-style:normal;font-variant:normal;font-weight:bold;font-stretch:normal;line-height:125%;letter-spacing:0px;word-spacing:0px;fill:#ffffff;fill-opacity:1;stroke:none;font-family:Arial;-inkscape-font-specification:Arial Bold" />
    </g>
    <g
       transform="translate(16.574815,1039.9887)"
       id="g18916">
      <g
         transform="translate(0,-1036.3622)"
         id="layer1-37-1">
        <g
           transform="scale(0.93557544,1.0688609)"
           id="text7308-75"
           style="font-size:8.38767338px;font-style:normal;font-variant:normal;font-weight:bold;font-stretch:normal;line-height:125%;letter-spacing:0px;word-spacing:0px;fill:#ffffff;fill-opacity:1;stroke:none;font-family:Arial;-inkscape-font-specification:Arial Bold" />
      </g>
      <g
         id="text3074-3"
         style="font-size:7px;font-style:normal;font-variant:normal;font-weight:bold;font-stretch:normal;line-height:125%;letter-spacing:0px;word-spacing:0px;fill:#ffffff;fill-opacity:1;stroke:none;font-family:Arial;-inkscape-font-specification:Arial Bold" />
      <g
         id="text3330-4"
         style="font-size:7px;font-style:normal;font-variant:normal;font-weight:bold;font-stretch:normal;line-height:125%;letter-spacing:0px;word-spacing:0px;fill:#ffffff;fill-opacity:1;stroke:none;font-family:Arial;-inkscape-font-specification:Arial Bold" />
      <g
         id="text3334-3"
         style="font-size:7px;font-style:normal;font-variant:normal;font-weight:bold;font-stretch:normal;line-height:125%;letter-spacing:0px;word-spacing:0px;fill:#ffffff;fill-opacity:1;stroke:none;font-family:Arial;-inkscape-font-specification:Arial Bold" />
      <g
         transform="scale(1.0025516,0.99745489)"
         id="text3420"
         style="font-size:8.28998661px;font-style:normal;font-variant:normal;font-weight:bold;font-stretch:normal;line-height:125%;letter-spacing:0px;word-spacing:0px;fill:#ffffff;fill-opacity:1;stroke:none;font-family:Arial;-inkscape-font-specification:Arial Bold" />
    </g>
    <g
       transform="translate(2.0604683,1034.7666)"
       id="layer1-03" />
    <g
       id="text21552"
       style="font-size:7px;font-style:normal;font-variant:normal;font-weight:bold;font-stretch:normal;line-height:125%;letter-spacing:0px;word-spacing:0px;fill:#000000;fill-opacity:1;stroke:none;font-family:Arial;-inkscape-font-specification:Arial Bold" />
    <g
       transform="matrix(1.375,0,0,1.375,0,1030.3622)"
       id="g21814"
       style="fill:#649be6;fill-opacity:1">
      <path
         d="M 2.40625,0 C 1.0774955,0 0,1.0774955 0,2.40625 l 0,11.1875 C 0,14.922504 1.0774955,16 2.40625,16 l 11.1875,0 C 14.922504,16 16,14.922504 16,13.59375 L 16,2.40625 C 16,1.0774955 14.922504,0 13.59375,0 L 2.40625,0 z m 0.375,1.90625 10.5,0 c 0.417915,0 0.75,0.446 0.75,1 0,0.554 -0.332085,1 -0.75,1 l -10.5,0 c -0.4179148,0 -0.75,-0.446 -0.75,-1 0,-0.554 0.3320852,-1 0.75,-1 z M 2.75,5.375 l 10.5,0 c 0.417915,0 0.75,0.446 0.75,1 0,0.554 -0.332085,1 -0.75,1 l -10.5,0 C 2.3320852,7.375 2,6.929 2,6.375 c 0,-0.554 0.3320852,-1 0.75,-1 z m 8.5625,3.75 c 0.612952,5.1e-6 1.117184,0.1689502 1.5,0.53125 0.22786,0.2141965 0.386063,0.536462 0.5,0.9375 l -1,0.25 c -0.05925,-0.259762 -0.187015,-0.474605 -0.375,-0.625 C 11.749509,10.068364 11.550128,10.000004 11.28125,10 c -0.371421,4e-6 -0.67497,0.139652 -0.90625,0.40625 -0.231284,0.266605 -0.375002,0.684248 -0.375,1.28125 -2e-6,0.633465 0.115884,1.074871 0.34375,1.34375 0.227862,0.268881 0.541664,0.406251 0.90625,0.40625 0.268877,10e-7 0.493812,-0.0791 0.6875,-0.25 0.193682,-0.170897 0.321937,-0.445637 0.40625,-0.8125 l 1,0.3125 c -0.150395,0.546876 -0.400232,0.953288 -0.75,1.21875 -0.349775,0.265462 -0.805992,0.40625 -1.34375,0.40625 -0.665366,0 -1.196617,-0.23291 -1.625,-0.6875 C 9.196614,13.170411 8.9687496,12.538413 8.96875,11.75 8.9687496,10.916019 9.1943354,10.27393 9.625,9.8125 10.055663,9.3510791 10.610675,9.1250051 11.3125,9.125 z m -8.75,0.09375 2,0 c 0.3964815,5e-6 0.6801726,-0.00179 0.875,0.03125 0.1948206,0.033045 0.3774377,0.1139371 0.53125,0.21875 0.1538046,0.1048224 0.2724568,0.231939 0.375,0.40625 0.1025347,0.174321 0.1562456,0.377283 0.15625,0.59375 -4.4e-6,0.234704 -0.06104,0.46029 -0.1875,0.65625 -0.126469,0.195967 -0.2835327,0.339521 -0.5,0.4375 0.3053344,0.08887 0.5234332,0.25456 0.6875,0.46875 0.1640579,0.214195 0.2499953,0.460614 0.25,0.75 -4.7e-6,0.227866 -0.050297,0.440919 -0.15625,0.65625 -0.1059615,0.215333 -0.2540733,0.371257 -0.4375,0.5 -0.1834349,0.128744 -0.3873735,0.220378 -0.65625,0.25 -0.1686231,0.01823 -0.6051461,0.02669 -1.25,0.03125 l -1.6875,0 0,-5 z m 1,0.84375 0,1.15625 0.6875,0 c 0.3942032,3e-6 0.6230441,-0.01986 0.71875,-0.03125 C 5.141924,11.167 5.2758757,11.099124 5.375,11 c 0.099118,-0.09912 0.1562465,-0.213213 0.15625,-0.375 -3.5e-6,-0.154944 -0.039554,-0.278153 -0.125,-0.375 -0.085452,-0.09684 -0.2063834,-0.166988 -0.375,-0.1875 -0.1002633,-0.01139 -0.3987656,0 -0.875,0 l -0.59375,0 z m 0,1.96875 0,1.34375 0.9375,0 c 0.3645805,0 0.5895152,-0.01074 0.6875,-0.03125 0.1503873,-0.02734 0.2804328,-0.08154 0.375,-0.1875 0.09456,-0.105956 0.1562464,-0.259765 0.15625,-0.4375 -3.6e-6,-0.150389 -0.052087,-0.27018 -0.125,-0.375 C 5.5208299,12.238932 5.4191047,12.172854 5.28125,12.125 5.1433889,12.077151 4.8352837,12.031252 4.375,12.03125 l -0.8125,0 z"
         id="rect7693-5"
         style="fill:#649be6;fill-opacity:1;fill-rule:evenodd;stroke:none" />
      <text
         x="20.861963"
         y="12.026293"
         id="text8055-4"
         xml:space="preserve"
         style="font-size:7px;font-style:normal;font-variant:normal;font-weight:bold;font-stretch:normal;line-height:125%;letter-spacing:0px;word-spacing:0px;fill:#649be6;fill-opacity:1;stroke:none;font-family:Arial;-inkscape-font-specification:Arial Bold"><tspan
           x="20.861963"
           y="12.026293"
           id="tspan8057-1"
           style="fill:#649be6;fill-opacity:1" /></text>
      <g
         transform="translate(0,-0.12041537)"
         id="text8059"
         style="font-size:7px;font-style:normal;font-variant:normal;font-weight:bold;font-stretch:normal;line-height:125%;letter-spacing:0px;word-spacing:0px;fill:#649be6;fill-opacity:1;stroke:none;font-family:Arial;-inkscape-font-specification:Arial Bold" />
    </g>
  </g>
</svg>
