<?xml version="1.0" encoding="utf-8"?>
<!-- Generator: Adobe Illustrator 16.0.0, SVG Export Plug-In . SVG Version: 6.00 Build 0)  -->
<!DOCTYPE svg PUBLIC "-//W3C//DTD SVG 1.1//EN" "http://www.w3.org/Graphics/SVG/1.1/DTD/svg11.dtd">
<svg version="1.1" id="图层_1" xmlns="http://www.w3.org/2000/svg" xmlns:xlink="http://www.w3.org/1999/xlink" x="0px" y="0px"
	 width="22px" height="22px" viewBox="0 0 22 22" enable-background="new 0 0 22 22" xml:space="preserve">
<g>
	<path fill="#6393CD" d="M14.992,11.68c0.695-0.442,1.516-0.707,2.401-0.707c1.025,0,1.959,0.354,2.715,0.932L22,10.098
		l-5.037-4.855v2.75h-4.779C13.491,8.873,14.459,10.17,14.992,11.68z"/>
	<path fill="#6393CD" d="M7.491,6.445c1.026,0,2.023,0.213,2.928,0.559h4.004V2.75H5.037V0L0,4.898l3.014,2.879
		C4.298,6.933,5.837,6.445,7.491,6.445z"/>
	<path fill="#6393CD" d="M7.448,7.176C3.343,7.176,0,10.47,0,14.566S3.343,22,7.448,22c2.767,0,5.163-1.519,6.435-3.763
		c-0.609-0.765-0.987-1.722-0.987-2.774c0-1.332,0.592-2.515,1.515-3.338C13.401,9.244,10.69,7.176,7.448,7.176z M7.194,18.907H6.28
		v-3.246H2.692v3.246H1.779v-6.89h0.914v2.829H6.28v-2.829h0.914V18.907z M12.236,18.402c-0.438,0.418-0.994,0.627-1.666,0.627
		c-0.607,0-1.11-0.18-1.51-0.541c-0.401-0.359-0.628-0.827-0.685-1.398l0.846-0.113c0.098,0.479,0.264,0.824,0.498,1.035
		c0.234,0.213,0.518,0.318,0.854,0.318c0.398,0,0.736-0.139,1.011-0.413c0.274-0.277,0.412-0.618,0.412-1.026
		c0-0.388-0.126-0.707-0.382-0.96c-0.253-0.253-0.577-0.379-0.969-0.379c-0.161,0-0.36,0.031-0.599,0.095l0.094-0.743
		c0.057,0.006,0.102,0.01,0.136,0.01c0.362,0,0.687-0.095,0.976-0.282s0.433-0.479,0.433-0.869c0-0.312-0.105-0.567-0.316-0.771
		c-0.21-0.204-0.482-0.306-0.814-0.306c-0.33,0-0.604,0.104-0.825,0.31c-0.219,0.207-0.361,0.518-0.423,0.931l-0.849-0.15
		c0.105-0.566,0.34-1.007,0.706-1.318c0.369-0.312,0.825-0.467,1.371-0.467c0.377,0,0.724,0.081,1.04,0.242
		c0.317,0.161,0.56,0.381,0.728,0.66c0.169,0.279,0.252,0.575,0.252,0.89c0,0.297-0.079,0.567-0.239,0.813
		c-0.16,0.244-0.397,0.438-0.71,0.582c0.408,0.094,0.724,0.289,0.95,0.586c0.226,0.295,0.339,0.666,0.339,1.11
		C12.896,17.474,12.677,17.983,12.236,18.402z"/>
	<path fill="#6393CD" d="M18.891,17.803c-0.354,0.294-0.787,0.44-1.3,0.44c-0.42,0-0.811-0.107-1.172-0.324
		c-0.36-0.216-0.627-0.542-0.798-0.979c-0.171-0.437-0.257-0.948-0.257-1.535c0-0.454,0.073-0.895,0.217-1.322
		s0.395-0.769,0.751-1.022s0.801-0.381,1.33-0.381c0.462,0,0.846,0.115,1.149,0.344c0.304,0.228,0.537,0.593,0.697,1.096
		l0.899-0.212c-0.186-0.637-0.514-1.13-0.984-1.48c-0.471-0.352-1.053-0.526-1.742-0.526c-0.609,0-1.167,0.139-1.674,0.415
		c-0.508,0.278-0.899,0.684-1.174,1.218s-0.411,1.16-0.411,1.878c0,0.657,0.121,1.272,0.364,1.848
		c0.244,0.571,0.599,1.011,1.064,1.313c0.467,0.303,1.072,0.454,1.814,0.454c0.721,0,1.328-0.197,1.826-0.591
		s0.842-0.964,1.033-1.713l-0.913-0.23C19.486,17.07,19.246,17.507,18.891,17.803z"/>
</g>
</svg>
