<?xml version="1.0" encoding="utf-8"?>
<!-- Generator: Adobe Illustrator 16.0.0, SVG Export Plug-In . SVG Version: 6.00 Build 0)  -->
<!DOCTYPE svg PUBLIC "-//W3C//DTD SVG 1.1//EN" "http://www.w3.org/Graphics/SVG/1.1/DTD/svg11.dtd">
<svg version="1.1" id="图层_1" xmlns="http://www.w3.org/2000/svg" xmlns:xlink="http://www.w3.org/1999/xlink" x="0px" y="0px"
	 width="22px" height="22px" viewBox="0 0 22 22" enable-background="new 0 0 22 22" xml:space="preserve">
<path fill="#6393CD" d="M18.691,0H3.309C1.482,0,0,1.482,0,3.309v15.383C0,20.518,1.482,22,3.309,22h15.383
	C20.518,22,22,20.518,22,18.691V3.309C22,1.482,20.518,0,18.691,0z M3.824,2.621h14.438c0.574,0,1.031,0.613,1.031,1.375
	s-0.457,1.375-1.031,1.375H3.824c-0.575,0-1.031-0.613-1.031-1.375S3.25,2.621,3.824,2.621z M3.781,7.391h14.438
	c0.574,0,1.031,0.613,1.031,1.375s-0.457,1.375-1.031,1.375H3.781c-0.575,0-1.031-0.613-1.031-1.375S3.207,7.391,3.781,7.391z
	 M7.55,19.498H2.103v-0.846l3.53-4.414c0.25-0.313,0.489-0.585,0.714-0.816H2.503v-0.813h4.935v0.813l-3.868,4.779l-0.418,0.484
	H7.55V19.498z M13.477,13.422h-2.279v6.076h-0.913v-6.076H8.015v-0.813h5.461V13.422z M19.572,19.498H14.43v-6.89h4.981v0.813
	h-4.068v2.11h3.811v0.808h-3.811v2.346h4.229V19.498z"/>
</svg>
