<?xml version="1.0" encoding="UTF-8" standalone="no"?>
<!-- Created with Inkscape (http://www.inkscape.org/) -->

<svg
   xmlns:dc="http://purl.org/dc/elements/1.1/"
   xmlns:cc="http://creativecommons.org/ns#"
   xmlns:rdf="http://www.w3.org/1999/02/22-rdf-syntax-ns#"
   xmlns:svg="http://www.w3.org/2000/svg"
   xmlns="http://www.w3.org/2000/svg"
   version="1.1"
   width="22"
   height="22"
   id="svg15992">
  <defs
     id="defs15994" />
  <metadata
     id="metadata15997">
    <rdf:RDF>
      <cc:Work
         rdf:about="">
        <dc:format>image/svg+xml</dc:format>
        <dc:type
           rdf:resource="http://purl.org/dc/dcmitype/StillImage" />
        <dc:title></dc:title>
      </cc:Work>
    </rdf:RDF>
  </metadata>
  <g
     transform="translate(0,-1030.3622)"
     id="layer1">
    <g
       transform="translate(3,1033.8577)"
       id="layer1-8">
      <g
         id="text5399"
         style="font-size:7px;font-style:normal;font-variant:normal;font-weight:bold;font-stretch:normal;line-height:125%;letter-spacing:0px;word-spacing:0px;fill:#000000;fill-opacity:1;stroke:none;font-family:Arial;-inkscape-font-specification:Arial Bold" />
      <g
         transform="translate(0,-1036.4247)"
         id="layer1-3">
        <g
           transform="scale(0.89723629,1.1145336)"
           id="text5639"
           style="font-size:7.97739649px;font-style:normal;font-variant:normal;font-weight:bold;font-stretch:normal;line-height:125%;letter-spacing:0px;word-spacing:0px;fill:#cccccc;fill-opacity:1;stroke:none;font-family:Arial;-inkscape-font-specification:Arial Bold" />
        <g
           transform="scale(1.0195853,0.98079088)"
           id="text6068"
           style="font-size:6.62408876px;font-style:normal;font-variant:normal;font-weight:bold;font-stretch:normal;line-height:125%;letter-spacing:0px;word-spacing:0px;fill:#000000;fill-opacity:1;stroke:none;font-family:Arial;-inkscape-font-specification:Arial Bold" />
        <g
           id="text6125"
           style="font-size:6px;font-style:normal;font-variant:normal;font-weight:bold;font-stretch:normal;line-height:125%;letter-spacing:0px;word-spacing:0px;fill:#000000;fill-opacity:1;stroke:none;font-family:Arial;-inkscape-font-specification:Arial Bold" />
      </g>
      <g
         transform="translate(0,-1036.3622)"
         id="layer1-84">
        <g
           transform="scale(0.93557544,1.0688609)"
           id="text7308"
           style="font-size:8.03458023px;font-style:normal;font-variant:normal;font-weight:bold;font-stretch:normal;line-height:125%;letter-spacing:0px;word-spacing:0px;fill:#ffffff;fill-opacity:1;stroke:none;font-family:Arial;-inkscape-font-specification:Arial Bold" />
      </g>
      <g
         transform="scale(0.9686171,1.0323997)"
         id="text5724"
         style="font-size:9.88508701px;font-style:normal;font-variant:normal;font-weight:bold;font-stretch:normal;line-height:125%;letter-spacing:0px;word-spacing:0px;fill:#ffffff;fill-opacity:1;stroke:none;font-family:Arial;-inkscape-font-specification:Arial Bold" />
      <g
         id="text5751"
         style="font-size:7px;font-style:normal;font-variant:normal;font-weight:bold;font-stretch:normal;line-height:125%;letter-spacing:0px;word-spacing:0px;fill:#ffffff;fill-opacity:1;stroke:none;font-family:Arial;-inkscape-font-specification:Arial Bold" />
      <g
         id="layer1-37">
        <g
           id="text5141"
           style="font-size:7px;font-style:normal;font-variant:normal;font-weight:bold;font-stretch:normal;line-height:125%;letter-spacing:0px;word-spacing:0px;fill:#000000;fill-opacity:1;stroke:none;font-family:Arial;-inkscape-font-specification:Arial Bold" />
      </g>
      <g
         transform="scale(1.0995518,0.90946149)"
         id="text5804"
         style="font-size:6.36623049px;font-style:normal;font-variant:normal;font-weight:bold;font-stretch:normal;line-height:125%;letter-spacing:0px;word-spacing:0px;fill:#000000;fill-opacity:1;stroke:none;font-family:Arial;-inkscape-font-specification:Arial Bold" />
      <g
         transform="scale(0.94725198,1.0556853)"
         id="text5938"
         style="font-size:7px;font-style:normal;font-variant:normal;font-weight:bold;font-stretch:normal;line-height:125%;letter-spacing:0px;word-spacing:0px;fill:#000000;fill-opacity:1;stroke:none;font-family:Arial;-inkscape-font-specification:Arial Bold" />
    </g>
    <g
       transform="matrix(1.3669903,0,0,1.375,30.30548,-396.96631)"
       id="layer1-849">
      <g
         id="text7004"
         style="font-size:6px;font-style:normal;font-variant:normal;font-weight:bold;font-stretch:normal;line-height:125%;letter-spacing:0px;word-spacing:0px;fill:#000000;fill-opacity:1;stroke:none;font-family:Arial;-inkscape-font-specification:Arial Bold" />
    </g>
    <g
       transform="matrix(1.375,0,0,1.375,0,-394.63583)"
       id="layer1-2">
      <g
         transform="scale(0.93557544,1.0688609)"
         id="text7308-2"
         style="font-size:6.13837099px;font-style:normal;font-variant:normal;font-weight:bold;font-stretch:normal;line-height:125%;letter-spacing:0px;word-spacing:0px;fill:#ffffff;fill-opacity:1;stroke:none;font-family:Arial;-inkscape-font-specification:Arial Bold" />
    </g>
    <g
       transform="matrix(1.375,0,0,1.375,26.097206,-407.46806)"
       id="layer1-29" />
    <g
       transform="matrix(1.375,0,0,1.375,0,-394.63583)"
       id="layer1-3-2">
      <g
         transform="scale(0.93557544,1.0688609)"
         id="text7308-5"
         style="font-size:6.13837099px;font-style:normal;font-variant:normal;font-weight:bold;font-stretch:normal;line-height:125%;letter-spacing:0px;word-spacing:0px;fill:#ffffff;fill-opacity:1;stroke:none;font-family:Arial;-inkscape-font-specification:Arial Bold" />
    </g>
    <g
       transform="matrix(1.375,0,0,1.375,0,-394.63583)"
       id="layer1-3-1">
      <g
         transform="scale(0.93557544,1.0688609)"
         id="text7308-7"
         style="font-size:6.13837099px;font-style:normal;font-variant:normal;font-weight:bold;font-stretch:normal;line-height:125%;letter-spacing:0px;word-spacing:0px;fill:#ffffff;fill-opacity:1;stroke:none;font-family:Arial;-inkscape-font-specification:Arial Bold" />
    </g>
    <g
       transform="matrix(1.5,0,0,1.5,-29.444014,-522.91085)"
       id="layer1-6">
      <g
         transform="scale(0.93557544,1.0688609)"
         id="text7308-3"
         style="font-size:6.13837099px;font-style:normal;font-variant:normal;font-weight:bold;font-stretch:normal;line-height:125%;letter-spacing:0px;word-spacing:0px;fill:#ffffff;fill-opacity:1;stroke:none;font-family:Arial;-inkscape-font-specification:Arial Bold" />
    </g>
    <g
       transform="matrix(1.375,0,0,1.375,0,-394.63583)"
       id="layer1-2-2">
      <g
         transform="scale(0.93557544,1.0688609)"
         id="text7308-2-5"
         style="font-size:8.38767338px;font-style:normal;font-variant:normal;font-weight:bold;font-stretch:normal;line-height:125%;letter-spacing:0px;word-spacing:0px;fill:#ffffff;fill-opacity:1;stroke:none;font-family:Arial;-inkscape-font-specification:Arial Bold" />
    </g>
    <g
       transform="translate(16.574815,1039.9887)"
       id="g18916">
      <g
         transform="translate(0,-1036.3622)"
         id="layer1-37-1">
        <g
           transform="scale(0.93557544,1.0688609)"
           id="text7308-75"
           style="font-size:8.38767338px;font-style:normal;font-variant:normal;font-weight:bold;font-stretch:normal;line-height:125%;letter-spacing:0px;word-spacing:0px;fill:#ffffff;fill-opacity:1;stroke:none;font-family:Arial;-inkscape-font-specification:Arial Bold" />
      </g>
      <g
         id="text3074-3"
         style="font-size:7px;font-style:normal;font-variant:normal;font-weight:bold;font-stretch:normal;line-height:125%;letter-spacing:0px;word-spacing:0px;fill:#ffffff;fill-opacity:1;stroke:none;font-family:Arial;-inkscape-font-specification:Arial Bold" />
      <g
         id="text3330-4"
         style="font-size:7px;font-style:normal;font-variant:normal;font-weight:bold;font-stretch:normal;line-height:125%;letter-spacing:0px;word-spacing:0px;fill:#ffffff;fill-opacity:1;stroke:none;font-family:Arial;-inkscape-font-specification:Arial Bold" />
      <g
         id="text3334-3"
         style="font-size:7px;font-style:normal;font-variant:normal;font-weight:bold;font-stretch:normal;line-height:125%;letter-spacing:0px;word-spacing:0px;fill:#ffffff;fill-opacity:1;stroke:none;font-family:Arial;-inkscape-font-specification:Arial Bold" />
      <g
         transform="scale(1.0025516,0.99745489)"
         id="text3420"
         style="font-size:8.28998661px;font-style:normal;font-variant:normal;font-weight:bold;font-stretch:normal;line-height:125%;letter-spacing:0px;word-spacing:0px;fill:#ffffff;fill-opacity:1;stroke:none;font-family:Arial;-inkscape-font-specification:Arial Bold" />
    </g>
    <g
       transform="translate(2.0604683,1034.7666)"
       id="layer1-03" />
    <g
       id="text21552"
       style="font-size:7px;font-style:normal;font-variant:normal;font-weight:bold;font-stretch:normal;line-height:125%;letter-spacing:0px;word-spacing:0px;fill:#000000;fill-opacity:1;stroke:none;font-family:Arial;-inkscape-font-specification:Arial Bold" />
    <g
       transform="matrix(1.375,0,0,1.375,0,1030.3622)"
       id="g21775"
       style="fill:#649be6;fill-opacity:1">
      <path
         d="M 2.40625,0 C 1.0774955,0 0,1.0774955 0,2.40625 l 0,11.1875 C 0,14.922504 1.0774955,16 2.40625,16 l 11.1875,0 C 14.922504,16 16,14.922504 16,13.59375 L 16,2.40625 C 16,1.0774955 14.922504,0 13.59375,0 L 2.40625,0 z m 0.375,1.90625 10.5,0 c 0.417915,0 0.75,0.446 0.75,1 0,0.554 -0.332085,1 -0.75,1 l -10.5,0 c -0.4179148,0 -0.75,-0.446 -0.75,-1 0,-0.554 0.3320852,-1 0.75,-1 z M 2.75,5.375 l 10.5,0 c 0.417915,0 0.75,0.446 0.75,1 0,0.554 -0.332085,1 -0.75,1 l -10.5,0 C 2.3320852,7.375 2,6.929 2,6.375 c 0,-0.554 0.3320852,-1 0.75,-1 z m 0.59375,3.65625 c 0.7382778,5.1e-6 1.3380493,0.2294971 1.78125,0.6875 0.4431917,0.458012 0.6562448,1.090498 0.65625,1.90625 -5.2e-6,0.808921 -0.2164763,1.449382 -0.65625,1.90625 -0.4397827,0.456868 -1.0140009,0.6875 -1.75,0.6875 -0.7451192,0 -1.3414727,-0.23291 -1.78125,-0.6875 C 1.1539708,13.076661 0.9374997,12.453777 0.9375,11.65625 0.9374997,11.145836 1.0035804,10.721358 1.15625,10.375 1.2701817,10.119796 1.4278963,9.8903038 1.625,9.6875 1.8221016,9.4847052 2.046548,9.3479865 2.28125,9.25 2.5934225,9.1178435 2.9358701,9.0312551 3.34375,9.03125 z m 9.65625,0 c 0.628904,5.1e-6 1.119626,0.1305388 1.4375,0.40625 0.317867,0.2757206 0.484045,0.664717 0.5,1.125 l -1.03125,0.03125 C 13.86295,10.336267 13.767413,10.144047 13.625,10.03125 13.482582,9.9184617 13.284829,9.8750043 13,9.875 c -0.293947,4.3e-6 -0.521161,0.066736 -0.6875,0.1875 -0.107098,0.07748 -0.156251,0.182621 -0.15625,0.3125 -10e-7,0.118493 0.02474,0.196943 0.125,0.28125 0.127602,0.107099 0.445311,0.227542 0.9375,0.34375 0.492185,0.116214 0.857907,0.250817 1.09375,0.375 0.235836,0.124189 0.429195,0.28467 0.5625,0.5 0.133297,0.215334 0.187496,0.49577 0.1875,0.8125 -4e-6,0.287111 -0.05925,0.5306 -0.21875,0.78125 -0.15951,0.250652 -0.395837,0.440593 -0.6875,0.5625 -0.29167,0.121907 -0.658532,0.1875 -1.09375,0.1875 -0.633466,0 -1.129233,-0.144694 -1.46875,-0.4375 C 11.254231,13.488445 11.06608,13.060548 11,12.5 l 0.96875,-0.09375 c 0.05924,0.330405 0.193847,0.563803 0.375,0.71875 0.181151,0.154949 0.41113,0.250001 0.71875,0.25 0.325843,10e-7 0.584795,-0.08089 0.75,-0.21875 0.165198,-0.137857 0.249996,-0.284178 0.25,-0.46875 -4e-6,-0.118488 -0.02425,-0.229328 -0.09375,-0.3125 -0.0695,-0.08317 -0.201826,-0.157224 -0.375,-0.21875 -0.118492,-0.04101 -0.390953,-0.11393 -0.8125,-0.21875 -0.542319,-0.134438 -0.937501,-0.304034 -1.15625,-0.5 -0.307618,-0.275713 -0.4375,-0.603512 -0.4375,-1 0,-0.255204 0.07406,-0.4965778 0.21875,-0.71875 0.144693,-0.2221633 0.352701,-0.3837843 0.625,-0.5 C 12.303547,9.1025441 12.614907,9.0312551 13,9.03125 z M 6.5625,9.125 l 1.625,0 c 0.6152316,5e-6 1.0318979,0.012375 1.21875,0.0625 0.2871057,0.0752 0.5250608,0.2482144 0.71875,0.5 0.19368,0.2517946 0.281246,0.569991 0.28125,0.96875 -4e-6,0.30762 -0.0446,0.571617 -0.15625,0.78125 -0.111657,0.209638 -0.2654661,0.380374 -0.4375,0.5 -0.1720413,0.119631 -0.322269,0.180015 -0.5,0.21875 C 9.0709606,12.2041 8.7080052,12.25 8.25,12.25 l -0.65625,0 0,1.875 -1.03125,0 0,-5 z M 3.375,9.90625 c -0.4169945,4.2e-6 -0.7760436,0.151534 -1.03125,0.4375 -0.2552098,0.285973 -0.3750013,0.704756 -0.375,1.28125 -1.3e-6,0.567385 0.1442043,0.988446 0.40625,1.28125 0.2620423,0.292807 0.5966773,0.437501 1,0.4375 0.4033172,10e-7 0.7101202,-0.146972 0.96875,-0.4375 C 4.6023723,12.615724 4.7499958,12.206057 4.75,11.625 4.7499958,11.050784 4.6267864,10.595056 4.375,10.3125 4.1232062,10.029952 3.791989,9.9062542 3.375,9.90625 z m 4.21875,0.0625 0,1.4375 0.5625,0 c 0.3987606,3e-6 0.6468071,-0.04134 0.78125,-0.09375 0.1344371,-0.05241 0.2361623,-0.138343 0.3125,-0.25 0.076331,-0.11165 0.1249966,-0.226885 0.125,-0.375 C 9.3749966,10.505209 9.325843,10.337243 9.21875,10.21875 9.1116506,10.100264 8.9765596,10.029626 8.8125,10 8.6917292,9.9772175 8.427081,9.9687541 8.0625,9.96875 l -0.46875,0 z"
         id="rect7693-0"
         style="fill:#649be6;fill-opacity:1;fill-rule:evenodd;stroke:none" />
      <text
         x="20.861963"
         y="12.026293"
         id="text8055-72"
         xml:space="preserve"
         style="font-size:7px;font-style:normal;font-variant:normal;font-weight:bold;font-stretch:normal;line-height:125%;letter-spacing:0px;word-spacing:0px;fill:#649be6;fill-opacity:1;stroke:none;font-family:Arial;-inkscape-font-specification:Arial Bold"><tspan
           x="20.861963"
           y="12.026293"
           id="tspan8057-2"
           style="fill:#649be6;fill-opacity:1" /></text>
      <g
         id="text8095"
         style="font-size:7px;font-style:normal;font-variant:normal;font-weight:bold;font-stretch:normal;line-height:125%;letter-spacing:0px;word-spacing:0px;fill:#649be6;fill-opacity:1;stroke:none;font-family:Arial;-inkscape-font-specification:Arial Bold" />
    </g>
  </g>
</svg>
