<?xml version="1.0" encoding="UTF-8" standalone="no"?>
<!-- Created with Inkscape (http://www.inkscape.org/) -->

<svg
   xmlns:dc="http://purl.org/dc/elements/1.1/"
   xmlns:cc="http://creativecommons.org/ns#"
   xmlns:rdf="http://www.w3.org/1999/02/22-rdf-syntax-ns#"
   xmlns:svg="http://www.w3.org/2000/svg"
   xmlns="http://www.w3.org/2000/svg"
   version="1.1"
   width="22"
   height="22"
   id="svg15992">
  <defs
     id="defs15994" />
  <metadata
     id="metadata15997">
    <rdf:RDF>
      <cc:Work
         rdf:about="">
        <dc:format>image/svg+xml</dc:format>
        <dc:type
           rdf:resource="http://purl.org/dc/dcmitype/StillImage" />
        <dc:title></dc:title>
      </cc:Work>
    </rdf:RDF>
  </metadata>
  <g
     transform="translate(0,-1030.3622)"
     id="layer1">
    <g
       transform="translate(3,1033.8577)"
       id="layer1-8">
      <g
         id="text5399"
         style="font-size:7px;font-style:normal;font-variant:normal;font-weight:bold;font-stretch:normal;line-height:125%;letter-spacing:0px;word-spacing:0px;fill:#000000;fill-opacity:1;stroke:none;font-family:Arial;-inkscape-font-specification:Arial Bold" />
      <g
         transform="translate(0,-1036.4247)"
         id="layer1-3">
        <g
           transform="scale(0.89723629,1.1145336)"
           id="text5639"
           style="font-size:7.97739649px;font-style:normal;font-variant:normal;font-weight:bold;font-stretch:normal;line-height:125%;letter-spacing:0px;word-spacing:0px;fill:#cccccc;fill-opacity:1;stroke:none;font-family:Arial;-inkscape-font-specification:Arial Bold" />
        <g
           transform="scale(1.0195853,0.98079088)"
           id="text6068"
           style="font-size:6.62408876px;font-style:normal;font-variant:normal;font-weight:bold;font-stretch:normal;line-height:125%;letter-spacing:0px;word-spacing:0px;fill:#000000;fill-opacity:1;stroke:none;font-family:Arial;-inkscape-font-specification:Arial Bold" />
        <g
           id="text6125"
           style="font-size:6px;font-style:normal;font-variant:normal;font-weight:bold;font-stretch:normal;line-height:125%;letter-spacing:0px;word-spacing:0px;fill:#000000;fill-opacity:1;stroke:none;font-family:Arial;-inkscape-font-specification:Arial Bold" />
      </g>
      <g
         transform="translate(0,-1036.3622)"
         id="layer1-84">
        <g
           transform="scale(0.93557544,1.0688609)"
           id="text7308"
           style="font-size:8.03458023px;font-style:normal;font-variant:normal;font-weight:bold;font-stretch:normal;line-height:125%;letter-spacing:0px;word-spacing:0px;fill:#ffffff;fill-opacity:1;stroke:none;font-family:Arial;-inkscape-font-specification:Arial Bold" />
      </g>
      <g
         transform="scale(0.9686171,1.0323997)"
         id="text5724"
         style="font-size:9.88508701px;font-style:normal;font-variant:normal;font-weight:bold;font-stretch:normal;line-height:125%;letter-spacing:0px;word-spacing:0px;fill:#ffffff;fill-opacity:1;stroke:none;font-family:Arial;-inkscape-font-specification:Arial Bold" />
      <g
         id="text5751"
         style="font-size:7px;font-style:normal;font-variant:normal;font-weight:bold;font-stretch:normal;line-height:125%;letter-spacing:0px;word-spacing:0px;fill:#ffffff;fill-opacity:1;stroke:none;font-family:Arial;-inkscape-font-specification:Arial Bold" />
      <g
         id="layer1-37">
        <g
           id="text5141"
           style="font-size:7px;font-style:normal;font-variant:normal;font-weight:bold;font-stretch:normal;line-height:125%;letter-spacing:0px;word-spacing:0px;fill:#000000;fill-opacity:1;stroke:none;font-family:Arial;-inkscape-font-specification:Arial Bold" />
      </g>
      <g
         transform="scale(1.0995518,0.90946149)"
         id="text5804"
         style="font-size:6.36623049px;font-style:normal;font-variant:normal;font-weight:bold;font-stretch:normal;line-height:125%;letter-spacing:0px;word-spacing:0px;fill:#000000;fill-opacity:1;stroke:none;font-family:Arial;-inkscape-font-specification:Arial Bold" />
      <g
         transform="scale(0.94725198,1.0556853)"
         id="text5938"
         style="font-size:7px;font-style:normal;font-variant:normal;font-weight:bold;font-stretch:normal;line-height:125%;letter-spacing:0px;word-spacing:0px;fill:#000000;fill-opacity:1;stroke:none;font-family:Arial;-inkscape-font-specification:Arial Bold" />
    </g>
    <g
       transform="matrix(1.3669903,0,0,1.375,30.30548,-396.96631)"
       id="layer1-849">
      <g
         id="text7004"
         style="font-size:6px;font-style:normal;font-variant:normal;font-weight:bold;font-stretch:normal;line-height:125%;letter-spacing:0px;word-spacing:0px;fill:#000000;fill-opacity:1;stroke:none;font-family:Arial;-inkscape-font-specification:Arial Bold" />
    </g>
    <g
       transform="matrix(1.375,0,0,1.375,0,-394.63583)"
       id="layer1-2">
      <g
         transform="scale(0.93557544,1.0688609)"
         id="text7308-2"
         style="font-size:6.13837099px;font-style:normal;font-variant:normal;font-weight:bold;font-stretch:normal;line-height:125%;letter-spacing:0px;word-spacing:0px;fill:#ffffff;fill-opacity:1;stroke:none;font-family:Arial;-inkscape-font-specification:Arial Bold" />
    </g>
    <g
       transform="matrix(1.375,0,0,1.375,26.097206,-407.46806)"
       id="layer1-29" />
    <g
       transform="matrix(1.375,0,0,1.375,0,-394.63583)"
       id="layer1-3-2">
      <g
         transform="scale(0.93557544,1.0688609)"
         id="text7308-5"
         style="font-size:6.13837099px;font-style:normal;font-variant:normal;font-weight:bold;font-stretch:normal;line-height:125%;letter-spacing:0px;word-spacing:0px;fill:#ffffff;fill-opacity:1;stroke:none;font-family:Arial;-inkscape-font-specification:Arial Bold" />
    </g>
    <g
       transform="matrix(1.375,0,0,1.375,0,-394.63583)"
       id="layer1-3-1">
      <g
         transform="scale(0.93557544,1.0688609)"
         id="text7308-7"
         style="font-size:6.13837099px;font-style:normal;font-variant:normal;font-weight:bold;font-stretch:normal;line-height:125%;letter-spacing:0px;word-spacing:0px;fill:#ffffff;fill-opacity:1;stroke:none;font-family:Arial;-inkscape-font-specification:Arial Bold" />
    </g>
    <g
       transform="matrix(1.5,0,0,1.5,-29.444014,-522.91085)"
       id="layer1-6">
      <g
         transform="scale(0.93557544,1.0688609)"
         id="text7308-3"
         style="font-size:6.13837099px;font-style:normal;font-variant:normal;font-weight:bold;font-stretch:normal;line-height:125%;letter-spacing:0px;word-spacing:0px;fill:#ffffff;fill-opacity:1;stroke:none;font-family:Arial;-inkscape-font-specification:Arial Bold" />
    </g>
    <g
       transform="matrix(1.375,0,0,1.375,0,-394.63583)"
       id="layer1-2-2">
      <g
         transform="scale(0.93557544,1.0688609)"
         id="text7308-2-5"
         style="font-size:8.38767338px;font-style:normal;font-variant:normal;font-weight:bold;font-stretch:normal;line-height:125%;letter-spacing:0px;word-spacing:0px;fill:#ffffff;fill-opacity:1;stroke:none;font-family:Arial;-inkscape-font-specification:Arial Bold" />
    </g>
    <g
       transform="translate(16.574815,1039.9887)"
       id="g18916">
      <g
         transform="translate(0,-1036.3622)"
         id="layer1-37-1">
        <g
           transform="scale(0.93557544,1.0688609)"
           id="text7308-75"
           style="font-size:8.38767338px;font-style:normal;font-variant:normal;font-weight:bold;font-stretch:normal;line-height:125%;letter-spacing:0px;word-spacing:0px;fill:#ffffff;fill-opacity:1;stroke:none;font-family:Arial;-inkscape-font-specification:Arial Bold" />
      </g>
      <g
         id="text3074-3"
         style="font-size:7px;font-style:normal;font-variant:normal;font-weight:bold;font-stretch:normal;line-height:125%;letter-spacing:0px;word-spacing:0px;fill:#ffffff;fill-opacity:1;stroke:none;font-family:Arial;-inkscape-font-specification:Arial Bold" />
      <g
         id="text3330-4"
         style="font-size:7px;font-style:normal;font-variant:normal;font-weight:bold;font-stretch:normal;line-height:125%;letter-spacing:0px;word-spacing:0px;fill:#ffffff;fill-opacity:1;stroke:none;font-family:Arial;-inkscape-font-specification:Arial Bold" />
      <g
         id="text3334-3"
         style="font-size:7px;font-style:normal;font-variant:normal;font-weight:bold;font-stretch:normal;line-height:125%;letter-spacing:0px;word-spacing:0px;fill:#ffffff;fill-opacity:1;stroke:none;font-family:Arial;-inkscape-font-specification:Arial Bold" />
      <g
         transform="scale(1.0025516,0.99745489)"
         id="text3420"
         style="font-size:8.28998661px;font-style:normal;font-variant:normal;font-weight:bold;font-stretch:normal;line-height:125%;letter-spacing:0px;word-spacing:0px;fill:#ffffff;fill-opacity:1;stroke:none;font-family:Arial;-inkscape-font-specification:Arial Bold" />
    </g>
    <g
       transform="translate(2.0604683,1034.7666)"
       id="layer1-03" />
    <g
       id="text21552"
       style="font-size:7px;font-style:normal;font-variant:normal;font-weight:bold;font-stretch:normal;line-height:125%;letter-spacing:0px;word-spacing:0px;fill:#000000;fill-opacity:1;stroke:none;font-family:Arial;-inkscape-font-specification:Arial Bold" />
    <path
       d="M 3.65625,0 C 1.62178,0 0,1.7027 0,3.8125 l 0,14.375 C 0,20.2973 1.62178,22 3.65625,22 l 14.6875,0 C 20.37823,22 22,20.2973 22,18.1875 L 22,3.8125 C 22,1.7027 20.37823,0 18.34375,0 L 3.65625,0 z m -0.8125,1.75 16.3125,0 c 0.605135,0 1.09375,0.5178991 1.09375,1.15625 l 0,9.21875 c 0,0.638351 -0.488615,1.125 -1.09375,1.125 l -16.3125,0 C 2.2386148,13.25 1.75,12.763351 1.75,12.125 l 0,-9.21875 C 1.75,2.2678991 2.2386148,1.75 2.84375,1.75 z M 5.75,5 C 5.1448648,5 4.6875,5.4866492 4.6875,6.125 l 0,2.1875 C 4.6875,8.9508508 5.1448648,9.5 5.75,9.5 l 10.5,0 c 0.605135,0 1.0625,-0.5491492 1.0625,-1.1875 l 0,-2.1875 C 17.3125,5.4866492 16.855135,5 16.25,5 L 5.75,5 z m 9.375,0.25 c 0.984673,0 1.75,0.8362789 1.75,1.875 0,1.0387211 -0.765327,1.875 -1.75,1.875 -0.984674,0 -1.78125,-0.8362789 -1.78125,-1.875 0,-1.0387211 0.796576,-1.875 1.78125,-1.875 z m -8.25,0.1875 c 0.9846727,0 1.78125,0.836279 1.78125,1.875 0,1.0387211 -0.7965773,1.90625 -1.78125,1.90625 -0.9846727,0 -1.75,-0.8675289 -1.75,-1.90625 0,-1.038721 0.7653273,-1.875 1.75,-1.875 z m -1.625,8.5 c 0.7271696,7e-6 1.2574576,0.13246 1.625,0.46875 0.3675338,0.3363 0.575302,0.813585 0.59375,1.375 l -1.15625,0.0625 c -0.050063,-0.314053 -0.1790858,-0.54992 -0.34375,-0.6875 -0.1646709,-0.137572 -0.4206674,-0.218745 -0.75,-0.21875 -0.3398765,5e-6 -0.5889201,0.102705 -0.78125,0.25 -0.1238321,0.0945 -0.1875016,0.216584 -0.1875,0.375 -1.6e-6,0.144528 0.071573,0.240921 0.1875,0.34375 0.1475404,0.130632 0.493406,0.26451 1.0625,0.40625 0.5690884,0.141748 1.0085563,0.317282 1.28125,0.46875 0.2726854,0.151475 0.4396163,0.36236 0.59375,0.625 0.1541247,0.262648 0.2499949,0.551179 0.25,0.9375 -5.1e-6,0.350194 -0.096827,0.694278 -0.28125,1 C 7.1593175,19.649473 6.8997353,19.882557 6.5625,20.03125 6.2252569,20.179946 5.8157215,20.25 5.3125,20.25 4.5800559,20.25 4.0175665,20.07589 3.625,19.71875 3.2324314,19.361611 2.982655,18.83996 2.90625,18.15625 l 1.15625,-0.125 c 0.068501,0.403 0.196791,0.686009 0.40625,0.875 0.2094554,0.188995 0.4880653,0.312501 0.84375,0.3125 0.3767568,1e-6 0.6527321,-0.08185 0.84375,-0.25 C 6.3472613,18.8006 6.4374962,18.600125 6.4375,18.375 6.4374965,18.230478 6.4241036,18.101444 6.34375,18 6.2633884,17.898557 6.1064826,17.793787 5.90625,17.71875 5.7692433,17.668725 5.4561637,17.596601 4.96875,17.46875 4.3416934,17.304774 3.9091784,17.082773 3.65625,16.84375 3.300567,16.507458 3.1249994,16.108602 3.125,15.625 c -6e-7,-0.311278 0.082698,-0.604013 0.25,-0.875 C 3.5423015,14.479024 3.778904,14.298001 4.09375,14.15625 4.4085929,14.014507 4.8047362,13.937507 5.25,13.9375 z m 3.375,0.09375 1.15625,0 0,3.3125 c 0,0.52529 0.033516,0.844362 0.0625,1 0.050057,0.250139 0.1241181,0.47353 0.3125,0.625 0.188378,0.151477 0.485796,0.218751 0.8125,0.21875 0.331967,1e-6 0.581377,-0.04436 0.75,-0.1875 0.168616,-0.143134 0.246995,-0.322802 0.28125,-0.53125 0.03425,-0.208446 0.0625,-0.54765 0.0625,-1.03125 l 0,-3.40625 1.1875,0 0,3.21875 c 0,0.733737 -0.06177,1.259558 -0.125,1.5625 -0.06324,0.302945 -0.142568,0.541553 -0.3125,0.75 -0.169942,0.208448 -0.402959,0.376322 -0.6875,0.5 C 11.84045,20.186179 11.458432,20.25 11,20.25 10.446714,20.25 10.035861,20.197292 9.75,20.0625 9.4641342,19.927703 9.228484,19.746647 9.0625,19.53125 8.8965141,19.315855 8.7714426,19.079991 8.71875,18.84375 8.6423438,18.49356 8.625,17.964961 8.625,17.28125 l 0,-3.25 z m 5.84375,0 1.15625,0 2.375,4.09375 0,-4.09375 1.09375,0 0,6.09375 -1.1875,0 -2.34375,-3.96875 0,3.96875 -1.09375,0 0,-6.09375 z"
       transform="translate(0,1030.3622)"
       id="rect3001-7-4"
       style="fill:#649be6;fill-opacity:1;fill-rule:nonzero;stroke:none" />
    <g
       transform="matrix(1.15625,0,0,1.2332508,1.75,1032.1122)"
       id="layer1-6-9">
      <g
         id="text5399-0"
         style="font-size:7px;font-style:normal;font-variant:normal;font-weight:bold;font-stretch:normal;line-height:125%;letter-spacing:0px;word-spacing:0px;fill:#000000;fill-opacity:1;stroke:none;font-family:Arial;-inkscape-font-specification:Arial Bold" />
    </g>
    <g
       transform="matrix(1.15625,0,0,1.2282158,1.75,1035.4682)"
       id="g22144">
      <g
         id="text12320"
         style="font-size:7px;font-style:normal;font-variant:normal;font-weight:bold;font-stretch:normal;line-height:125%;letter-spacing:0px;word-spacing:0px;fill:#000000;fill-opacity:1;stroke:none;font-family:Arial;-inkscape-font-specification:Arial Bold" />
    </g>
    <g
       transform="matrix(1.15625,0,0,1.2197163,1.75,1032.1122)"
       id="g22157">
      <g
         id="layer1-80">
        <g
           id="text5399-7"
           style="font-size:7px;font-style:normal;font-variant:normal;font-weight:bold;font-stretch:normal;line-height:125%;letter-spacing:0px;word-spacing:0px;fill:#000000;fill-opacity:1;stroke:none;font-family:Arial;-inkscape-font-specification:Arial Bold" />
      </g>
      <g
         id="text9726"
         style="font-size:7px;font-style:normal;font-variant:normal;font-weight:bold;font-stretch:normal;line-height:125%;letter-spacing:0px;word-spacing:0px;fill:#000000;fill-opacity:1;stroke:none;font-family:Arial;-inkscape-font-specification:Arial Bold" />
    </g>
  </g>
</svg>
