<?xml version="1.0" encoding="utf-8"?>
<!-- Generator: Adobe Illustrator 16.0.0, SVG Export Plug-In . SVG Version: 6.00 Build 0)  -->
<!DOCTYPE svg PUBLIC "-//W3C//DTD SVG 1.1//EN" "http://www.w3.org/Graphics/SVG/1.1/DTD/svg11.dtd">
<svg version="1.1" id="图层_1" xmlns="http://www.w3.org/2000/svg" xmlns:xlink="http://www.w3.org/1999/xlink" x="0px" y="0px"
	 width="22px" height="22px" viewBox="0 0 22 22" enable-background="new 0 0 22 22" xml:space="preserve">
<path fill="#649BE6" d="M16.732,9.92c0,0.599,1.179,1.083,2.629,1.083c1.451,0,2.629-0.483,2.629-1.083c0-0.006,0.001-0.011,0-0.018
	c0-0.003,0.001-0.013,0-0.017c-0.039-0.585-1.202-1.051-2.629-1.051C17.911,8.835,16.732,9.321,16.732,9.92z"/>
<path fill="#649BE6" d="M19.372,11.246c-1.451,0-2.63-0.485-2.63-1.083c0-0.036-0.014-0.15-0.018-0.218v0.677
	c0.01,0.102,0.018,0.213,0.018,0.261c0,0.598,1.179,1.085,2.63,1.085c1.45,0,2.628-0.487,2.628-1.085v-0.72
	C22,10.761,20.822,11.246,19.372,11.246z"/>
<path fill="#649BE6" d="M19.372,12.297c-1.451,0-2.63-0.486-2.63-1.085c0-0.035-0.014-0.142-0.018-0.207v0.632
	c0.01,0.104,0.018,0.213,0.018,0.26c0,0.602,1.179,1.086,2.63,1.086c1.45,0,2.628-0.484,2.628-1.086v-0.685
	C22,11.811,20.822,12.297,19.372,12.297z"/>
<path fill="#649BE6" d="M19.372,13.311c-1.451,0-2.63-0.482-2.63-1.084c0-0.033-0.014-0.143-0.018-0.209v0.668
	c0.002,0.021,0.008,0.051,0.008,0.063c0,0.601,1.179,1.084,2.629,1.084c1.451,0,2.629-0.483,2.629-1.084
	c0-0.013,0.006-0.043,0.01-0.063v-0.459C22,12.826,20.822,13.311,19.372,13.311z"/>
<path fill="#649BE6" d="M20.171,7.799c-0.11-0.283-0.239-0.561-0.383-0.831l-0.817,0.383c0.129,0.245,0.245,0.497,0.346,0.754
	L20.171,7.799z"/>
<path fill="#649BE6" d="M17.955,5.825l0.717-0.534c-0.427-0.518-0.915-0.996-1.447-1.423l-0.59,0.659
	C17.119,4.917,17.563,5.353,17.955,5.825z"/>
<path fill="#649BE6" d="M14.285,3.146c0.27,0.11,0.533,0.232,0.787,0.365l0.439-0.758c-0.281-0.146-0.568-0.278-0.863-0.4
	L14.285,3.146z"/>
<path fill="#649BE6" d="M5.661,2.754L6.1,3.512c0.256-0.134,0.519-0.256,0.788-0.366L6.524,2.353
	C6.229,2.475,5.941,2.607,5.661,2.754z"/>
<path fill="#649BE6" d="M2.494,5.298l0.72,0.533c0.39-0.472,0.833-0.908,1.319-1.298L3.941,3.874C3.41,4.302,2.923,4.78,2.494,5.298
	z"/>
<path fill="#649BE6" d="M2.202,7.351L1.384,6.968c-0.14,0.27-0.268,0.547-0.383,0.831l0.854,0.307
	C1.959,7.848,2.074,7.597,2.202,7.351z"/>
<path fill="#649BE6" d="M18.971,15.137l0.817,0.383c0.144-0.271,0.271-0.547,0.383-0.832l-0.854-0.306
	C19.216,14.639,19.1,14.891,18.971,15.137z"/>
<path fill="#649BE6" d="M16.635,17.961l0.59,0.66c0.532-0.43,1.021-0.906,1.447-1.426l-0.717-0.531
	C17.563,17.134,17.119,17.568,16.635,17.961z"/>
<path fill="#649BE6" d="M14.285,19.342l0.363,0.792c0.295-0.12,0.582-0.254,0.863-0.399l-0.439-0.758
	C14.818,19.107,14.555,19.23,14.285,19.342z"/>
<path fill="#649BE6" d="M5.661,19.732c0.28,0.146,0.568,0.281,0.863,0.399l0.364-0.792c-0.27-0.109-0.532-0.232-0.788-0.365
	L5.661,19.732z"/>
<path fill="#649BE6" d="M3.213,16.654l-0.72,0.535c0.429,0.518,0.916,0.994,1.447,1.422l0.591-0.657
	C4.047,17.563,3.604,17.128,3.213,16.654z"/>
<path fill="#649BE6" d="M1.001,14.688c0.115,0.285,0.243,0.563,0.383,0.832l0.818-0.383c-0.128-0.246-0.243-0.498-0.347-0.755
	L1.001,14.688z"/>
<path fill="#649BE6" d="M12.373,0.804C12.373,0.36,11.992,0,11.523,0H9.494c-0.469,0-0.85,0.36-0.85,0.804V1.98h3.729V0.804z"/>
<path fill="#649BE6" d="M9.494,6.116h2.029c0.469,0,0.85-0.359,0.85-0.803v-2.93H8.645v2.931C8.645,5.757,9.025,6.116,9.494,6.116z
	 M10.508,4.174c0.189,0,0.342,0.145,0.342,0.323c0,0.178-0.153,0.324-0.342,0.324s-0.341-0.146-0.341-0.324
	C10.167,4.319,10.319,4.174,10.508,4.174z"/>
<ellipse fill="#649BE6" cx="10.642" cy="17.541" rx="3.407" ry="0.486"/>
<path fill="#649BE6" d="M7.288,17.979v3.26c0,0,0.744,0.761,3.459,0.763c2.862,0.002,3.301-0.763,3.301-0.763v-3.26
	c0,0-1.848,0.318-3.349,0.318C8.912,18.297,7.288,17.979,7.288,17.979z M9.528,20.43H9.099v0.437L8.408,20.21l0.691-0.644v0.436
	h0.429V20.43z M10.571,21.615L9.88,20.962h0.459v-0.407h0.454v0.407h0.458L10.571,21.615z M11.602,20.001h0.43v-0.435l0.691,0.644
	l-0.691,0.655V20.43h-0.43V20.001z M10.792,19.473v0.405h-0.454v-0.405h-0.46l0.691-0.656l0.679,0.656H10.792z"/>
<g>
	<path fill="#649BE6" d="M2.167,8.959L0,9.194v1.992c0,0,0.343,1.143,0.597,1.457c0.84,1.043,1.161,1.07,1.57,1.489h0.031v-0.024
		h0.025c0.408-0.418,0.73-0.443,1.57-1.489c0.252-0.31,0.595-1.453,0.595-1.453V9.174L2.167,8.959z M3.911,11.247
		c0,0-0.268,0.896-0.466,1.138c-0.657,0.818-0.909,0.84-1.229,1.166h-0.02v0.02H2.172c-0.32-0.327-0.571-0.35-1.229-1.164
		c-0.199-0.246-0.467-1.141-0.467-1.141V9.706l1.695-0.185l1.738,0.168v1.558H3.911z"/>
	<path fill="#649BE6" d="M0.813,11.32c0,0,0.215,0.719,0.375,0.918c0.529,0.654,0.731,0.674,0.988,0.936h0.02v-0.016h0.016
		c0.257-0.262,0.459-0.279,0.988-0.938c0.16-0.193,0.375-0.916,0.375-0.916v-1.253L2.177,9.917l-1.364,0.149V11.32z"/>
</g>
</svg>
