<?xml version="1.0" encoding="utf-8"?>
<!-- Generator: Adobe Illustrator 16.0.0, SVG Export Plug-In . SVG Version: 6.00 Build 0)  -->
<!DOCTYPE svg PUBLIC "-//W3C//DTD SVG 1.1//EN" "http://www.w3.org/Graphics/SVG/1.1/DTD/svg11.dtd">
<svg version="1.1" id="图层_1" xmlns="http://www.w3.org/2000/svg" xmlns:xlink="http://www.w3.org/1999/xlink" x="0px" y="0px"
	 width="22px" height="22px" viewBox="0 0 22 22" enable-background="new 0 0 22 22" xml:space="preserve">
<circle fill="#FFFFFF" stroke="#649BE6" stroke-miterlimit="10" cx="11" cy="11" r="10.5"/>
<path fill="none" stroke="#649BE6" stroke-width="0.75" stroke-miterlimit="10" d="M1.348,7.298c0,0,2.663-2.507,8.796-3.041
	c5.706-0.496,10.372,2.506,10.372,2.506"/>
<path fill="none" stroke="#649BE6" stroke-width="0.75" stroke-miterlimit="10" d="M0.833,9.395c0,0,2.827,5.068,9.836,5.74
	c6.037,0.579,10.819-3.064,10.819-3.064"/>
<path fill="none" stroke="#649BE6" stroke-width="0.75" stroke-miterlimit="10" d="M11.321,0.726c0,0-5.977,4.548-6.109,10.274
	c-0.166,7.113,3.903,10.229,3.903,10.229"/>
<path fill="none" stroke="#649BE6" stroke-width="0.75" stroke-miterlimit="10" d="M16.029,1.903c0,0,0.926,7.691-3.457,13.148
	c-2.342,2.92-7.091,4.789-7.091,4.789"/>
<path fill="none" stroke="#649BE6" stroke-width="0.75" stroke-miterlimit="10" d="M20.837,14.529c0,0-1.933,2.736-5.983,4.391
	c-2.445,0.999-6.528,1.713-6.528,1.713"/>
<path fill="#649BE6" d="M8.86,4.418c0,0.68-0.551,1.231-1.231,1.231l0,0c-0.68,0-1.231-0.551-1.231-1.231l0,0
	c0-0.68,0.551-1.231,1.231-1.231l0,0C8.309,3.187,8.86,3.738,8.86,4.418L8.86,4.418z"/>
<path fill="#649BE6" d="M17.154,4.899c0,0.68-0.551,1.231-1.23,1.231l0,0c-0.68,0-1.23-0.551-1.23-1.231l0,0
	c0-0.68,0.552-1.23,1.23-1.23l0,0C16.604,3.669,17.154,4.22,17.154,4.899L17.154,4.899z"/>
<path fill="#649BE6" d="M21.65,12.07c0,0.681-0.553,1.232-1.23,1.232l0,0c-0.682,0-1.232-0.553-1.232-1.232l0,0
	c0-0.679,0.553-1.23,1.232-1.23l0,0C21.1,10.84,21.65,11.391,21.65,12.07L21.65,12.07z"/>
<path fill="#649BE6" d="M13.837,15.066c0,0.681-0.552,1.231-1.231,1.231l0,0c-0.68,0-1.231-0.552-1.231-1.231l0,0
	c0-0.68,0.552-1.229,1.231-1.229l0,0C13.285,13.837,13.837,14.389,13.837,15.066L13.837,15.066z"/>
<path fill="#649BE6" d="M6.773,13.462c0,0.681-0.552,1.231-1.232,1.231l0,0c-0.679,0-1.231-0.553-1.231-1.231l0,0
	c0-0.68,0.552-1.229,1.231-1.229l0,0C6.222,12.232,6.773,12.782,6.773,13.462L6.773,13.462z"/>
<path fill="#649BE6" d="M10.413,20.204c0,0.68-0.552,1.231-1.231,1.231l0,0c-0.68,0-1.232-0.553-1.232-1.231l0,0
	c0-0.679,0.552-1.229,1.232-1.229l0,0C9.86,18.975,10.413,19.525,10.413,20.204L10.413,20.204z"/>
</svg>
