<?xml version="1.0" encoding="utf-8"?>
<!-- Generator: Adobe Illustrator 16.0.0, SVG Export Plug-In . SVG Version: 6.00 Build 0)  -->
<!DOCTYPE svg PUBLIC "-//W3C//DTD SVG 1.1//EN" "http://www.w3.org/Graphics/SVG/1.1/DTD/svg11.dtd">
<svg version="1.1" id="图层_1" xmlns="http://www.w3.org/2000/svg" xmlns:xlink="http://www.w3.org/1999/xlink" x="0px" y="0px"
	 width="18px" height="18px" viewBox="0 0 18 18" enable-background="new 0 0 18 18" xml:space="preserve">
<g id="layer1" transform="translate(0,-1040.3622)">
	<g id="g3792">
		<path id="rect2985" fill="#E45E12" d="M3.366,1040.362h11.268c1.859,0,3.366,1.508,3.366,3.366v11.268
			c0,1.86-1.507,3.366-3.366,3.366H3.366c-1.859,0-3.366-1.506-3.366-3.366v-11.268C0,1041.87,1.507,1040.362,3.366,1040.362z"/>
		<path id="path3761" fill="#FFFFFF" d="M3.422,1043.034l-1.219,1.313l5.203,4.828l-4.453,5.25l1.359,1.172l5.016-5.906l0.563-0.656
			l-0.656-0.609L3.422,1043.034z M10.031,1043.034l-1.219,1.313l5.203,4.828l-4.453,5.25l1.359,1.172l5.016-5.906l0.516-0.656
			l-0.609-0.609L10.031,1043.034z"/>
	</g>
</g>
</svg>
