<?xml version="1.0" encoding="utf-8"?>
<!-- Generator: Adobe Illustrator 16.0.0, SVG Export Plug-In . SVG Version: 6.00 Build 0)  -->
<!DOCTYPE svg PUBLIC "-//W3C//DTD SVG 1.1//EN" "http://www.w3.org/Graphics/SVG/1.1/DTD/svg11.dtd">
<svg version="1.1" id="图层_1" xmlns="http://www.w3.org/2000/svg" xmlns:xlink="http://www.w3.org/1999/xlink" x="0px" y="0px"
	 width="10px" height="10px" viewBox="0 0 10 10" enable-background="new 0 0 10 10" xml:space="preserve">
<g id="g4763">
	<g id="layer1-7" transform="matrix(0.91787765,0,0,0.91736642,-0.6374356,-0.15374916)">
		<g id="text4267">
		</g>
		<g id="text4597" transform="scale(0.92423852,1.0819718)">
		</g>
	</g>
	<path id="rect4876" inkscape:connector-curvature="0" fill="#C9161D" d="M1.504,0C0.67,0,0,0.67,0,1.504v6.992
		C0,9.33,0.67,10,1.504,10h6.992C9.33,10,10,9.33,10,8.496V1.504C10,0.67,9.33,0,8.496,0H1.504z M1.855,1.25h6.289
		c0.334,0,0.605,0.271,0.605,0.605v6.289c0,0.334-0.271,0.605-0.605,0.605H1.855c-0.334,0-0.605-0.271-0.605-0.605V1.855
		C1.25,1.521,1.521,1.25,1.855,1.25z M2.891,2.891v4.219h4.219V2.891H2.891z"/>
</g>
</svg>
