<?xml version="1.0" encoding="UTF-8" standalone="no"?>
<!-- Created with Inkscape (http://www.inkscape.org/) -->

<svg
   xmlns:dc="http://purl.org/dc/elements/1.1/"
   xmlns:cc="http://creativecommons.org/ns#"
   xmlns:rdf="http://www.w3.org/1999/02/22-rdf-syntax-ns#"
   xmlns:svg="http://www.w3.org/2000/svg"
   xmlns="http://www.w3.org/2000/svg"
   version="1.1"
   width="10"
   height="10"
   id="svg2">
  <defs
     id="defs4" />
  <metadata
     id="metadata7">
    <rdf:RDF>
      <cc:Work
         rdf:about="">
        <dc:format>image/svg+xml</dc:format>
        <dc:type
           rdf:resource="http://purl.org/dc/dcmitype/StillImage" />
        <dc:title></dc:title>
      </cc:Work>
    </rdf:RDF>
  </metadata>
  <g
     transform="translate(0,-1042.3622)"
     id="layer1">
    <path
       d="M 5,0 C 2.2385762,0 0,2.2385763 0,5 0,7.7614237 2.2385762,10 5,10 7.7614238,10 10,7.7614237 10,5 10,2.2385763 7.7614238,0 5,0 z M 1.71875,2.5 2.75,2.5 3.5,5.9375 4.40625,2.5 5.625,2.5 6.5,6 7.28125,2.5 l 1,0 L 7.0625,7.5 6,7.5 5,3.75 4,7.5 l -1.09375,0 -1.1875,-5 z"
       transform="translate(0,1042.3622)"
       id="path2987"
       style="fill:#35aa47;fill-opacity:1;fill-rule:evenodd;stroke:none" />
    <g
       id="text3791"
       style="font-size:7px;font-style:normal;font-variant:normal;font-weight:bold;font-stretch:normal;line-height:125%;letter-spacing:0px;word-spacing:0px;fill:#ffffff;fill-opacity:1;stroke:none;font-family:Arial;-inkscape-font-specification:Arial Bold" />
  </g>
</svg>
