<?xml version="1.0" encoding="utf-8"?>
<!-- Generator: Adobe Illustrator 16.0.0, SVG Export Plug-In . SVG Version: 6.00 Build 0)  -->
<!DOCTYPE svg PUBLIC "-//W3C//DTD SVG 1.1//EN" "http://www.w3.org/Graphics/SVG/1.1/DTD/svg11.dtd">
<svg version="1.1" id="图层_1" xmlns="http://www.w3.org/2000/svg" xmlns:xlink="http://www.w3.org/1999/xlink" x="0px" y="0px"
	 width="22px" height="22px" viewBox="0 0 22 22" enable-background="new 0 0 22 22" xml:space="preserve">
<rect x="0.76" y="1.021" fill="#FFFFFF" width="11.539" height="20.979"/>
<path fill="#649BE6" d="M20.667,3.569c0,0.422-0.343,0.765-0.765,0.765h-2.805c-0.424,0-0.766-0.342-0.766-0.765V0.765
	C16.333,0.342,16.675,0,17.098,0h2.805c0.423,0,0.766,0.342,0.766,0.765L20.667,3.569L20.667,3.569z"/>
<path fill="#649BE6" d="M20.667,21.234c0,0.424-0.343,0.766-0.765,0.766h-2.805c-0.424,0-0.766-0.342-0.766-0.766v-2.803
	c0-0.424,0.342-0.766,0.766-0.766h2.805c0.422,0,0.765,0.342,0.765,0.766V21.234z"/>
<path fill="#649BE6" d="M20.667,12.4c0,0.424-0.343,0.767-0.765,0.767h-2.805c-0.424,0-0.766-0.343-0.766-0.767V9.598
	c0-0.422,0.342-0.765,0.766-0.765h2.805c0.422,0,0.765,0.342,0.765,0.765V12.4z"/>
<rect x="12.167" y="10.782" fill="#649BE6" width="4.362" height="0.6"/>
<rect x="14.65" y="18.658" fill="#649BE6" width="1.879" height="0.6"/>
<rect x="14.652" y="3.202" fill="#649BE6" width="1.877" height="0.6"/>
<rect x="14.648" y="3.206" fill="#649BE6" width="0.601" height="16"/>
<path fill="#649BE6" d="M11.607,22H1.5C0.673,22,0,21.348,0,20.546V1.455C0,0.652,0.673,0,1.5,0h10.107c0.826,0,1.5,0.652,1.5,1.455
	v19.091C13.107,21.348,12.436,22,11.607,22z M1.5,1C1.224,1,1,1.204,1,1.455v19.091C1,20.796,1.224,21,1.5,21h10.107
	c0.275,0,0.5-0.204,0.5-0.454V1.455c0-0.25-0.225-0.455-0.5-0.455H1.5z"/>
<rect x="2.061" y="2.929" fill="#649BE6" width="7.985" height="1"/>
<rect x="2.061" y="4.555" fill="#649BE6" width="7.985" height="1"/>
<rect x="2.061" y="6.305" fill="#649BE6" width="7.985" height="1"/>
<path fill="#649BE6" d="M9.241,18.438c0,0.381-0.308,0.688-0.688,0.688h-5c-0.38,0-0.688-0.308-0.688-0.688l0,0
	c0-0.379,0.308-0.688,0.688-0.688h5C8.934,17.75,9.241,18.059,9.241,18.438L9.241,18.438z"/>
<circle fill="#649BE6" cx="6.054" cy="12" r="1"/>
</svg>
