<?xml version="1.0" encoding="utf-8"?>
<!-- Generator: Adobe Illustrator 16.0.0, SVG Export Plug-In . SVG Version: 6.00 Build 0)  -->
<!DOCTYPE svg PUBLIC "-//W3C//DTD SVG 1.1//EN" "http://www.w3.org/Graphics/SVG/1.1/DTD/svg11.dtd">
<svg version="1.1" id="图层_1" xmlns="http://www.w3.org/2000/svg" xmlns:xlink="http://www.w3.org/1999/xlink" x="0px" y="0px"
	 width="22px" height="22px" viewBox="0 0 22 22" enable-background="new 0 0 22 22" xml:space="preserve">
<polyline fill="#FFFFFF" stroke="#649BE6" stroke-miterlimit="10" points="2.605,18.331 0.546,7.16 0.858,5.163 5.539,5.163 
	6.724,6.973 14.773,6.973 "/>
<path fill="#FFFFFF" stroke="#649BE6" stroke-miterlimit="10" d="M20.301,12.625c0.036-0.218,0.061-0.439,0.061-0.668
	c0-0.234-0.023-0.461-0.063-0.684l1.002-0.905l-0.279-0.733l-1.416-0.018c-0.244-0.341-0.541-0.641-0.881-0.89l-0.017-1.482
	L17.979,6.96L17.04,8.015c-0.211-0.036-0.431-0.059-0.651-0.059c-0.256,0-0.504,0.026-0.744,0.071L14.766,7.04l-0.729,0.286
	L14.02,8.749c-0.314,0.238-0.592,0.526-0.828,0.846H5.352L2.793,18.02h11.982l0.684-1.881l-0.012-0.033l0.197-0.221
	c0.24,0.045,0.488,0.073,0.744,0.073c0.223,0,0.44-0.024,0.65-0.062l0.939,1.056l0.729-0.284l0.017-1.482
	c0.319-0.232,0.601-0.515,0.836-0.83l1.541-0.018l0.282-0.734L20.301,12.625z M16.389,13.123c-0.641,0-1.158-0.521-1.158-1.167
	c0-0.646,0.519-1.166,1.158-1.166c0.639,0,1.157,0.52,1.157,1.166C17.546,12.602,17.025,13.123,16.389,13.123z"/>
<path fill="#FFFFFF" stroke="#649BE6" stroke-width="0.75" stroke-miterlimit="10" d="M13.361,9.576h-0.264
	c-0.023,0.031-0.053,0.058-0.074,0.09l-1.362,0.018l-0.282,0.733l0.995,0.898c-0.033,0.203-0.054,0.408-0.054,0.623
	c0,0.25,0.025,0.492,0.07,0.73l-1.095,0.982l0.283,0.736l1.592,0.018c0.218,0.281,0.472,0.527,0.754,0.738l0.017,1.426l0.729,0.281
	l0.683-0.766"/>
</svg>
