<?xml version="1.0" encoding="utf-8"?>
<!-- Generator: Adobe Illustrator 16.0.0, SVG Export Plug-In . SVG Version: 6.00 Build 0)  -->
<!DOCTYPE svg PUBLIC "-//W3C//DTD SVG 1.1//EN" "http://www.w3.org/Graphics/SVG/1.1/DTD/svg11.dtd">
<svg version="1.1" id="图层_1" xmlns="http://www.w3.org/2000/svg" xmlns:xlink="http://www.w3.org/1999/xlink" x="0px" y="0px"
	 width="22px" height="22px" viewBox="0 0 22 22" enable-background="new 0 0 22 22" xml:space="preserve">
<circle fill="#FDFEFF" stroke="#649BE6" stroke-miterlimit="10" cx="11" cy="11" r="10.562"/>
<g>
	<path fill="#649BE6" d="M14.625,13.992c-0.723,0-1.34,0.424-1.634,1.033L7.036,13.05c0.017-0.099,0.03-0.198,0.03-0.302
		c0-0.301-0.08-0.58-0.209-0.831l5.609-4.782c0.313,0.254,0.706,0.413,1.14,0.413c1.004,0,1.818-0.814,1.818-1.818
		s-0.814-1.818-1.818-1.818s-1.817,0.814-1.817,1.818c0,0.28,0.067,0.542,0.181,0.778l-5.626,4.796
		c-0.305-0.232-0.682-0.375-1.094-0.375c-1.004,0-1.818,0.814-1.818,1.818s0.814,1.817,1.818,1.817c0.614,0,1.155-0.307,1.484-0.772
		l6.074,2.017c0,0,0,0,0,0.002c0,1.004,0.814,1.817,1.818,1.817s1.818-0.813,1.818-1.817S15.629,13.992,14.625,13.992z"/>
</g>
</svg>
