<?xml version="1.0" encoding="utf-8"?>
<!-- Generator: Adobe Illustrator 16.0.0, SVG Export Plug-In . SVG Version: 6.00 Build 0)  -->
<!DOCTYPE svg PUBLIC "-//W3C//DTD SVG 1.1//EN" "http://www.w3.org/Graphics/SVG/1.1/DTD/svg11.dtd">
<svg version="1.1" id="图层_1" xmlns="http://www.w3.org/2000/svg" xmlns:xlink="http://www.w3.org/1999/xlink" x="0px" y="0px"
	 width="22px" height="22px" viewBox="0 0 22 22" enable-background="new 0 0 22 22" xml:space="preserve">
<circle fill="#FDFEFF" stroke="#649BE6" stroke-miterlimit="10" cx="11" cy="11" r="10.562"/>
<rect x="17.314" y="5.03" fill="#FDFEFF" width="4.686" height="13.471"/>
<path fill="#649BE6" d="M11.711,13.134c-0.584,0-1.083,0.343-1.321,0.835l-4.81-1.597c0.014-0.079,0.024-0.16,0.024-0.243
	c0-0.242-0.065-0.469-0.169-0.672l4.531-3.863c0.253,0.205,0.571,0.333,0.92,0.333c0.811,0,1.469-0.658,1.469-1.469
	S11.697,4.99,10.886,4.99S9.418,5.648,9.418,6.459c0,0.227,0.054,0.438,0.146,0.628l-4.545,3.875
	c-0.246-0.188-0.55-0.303-0.883-0.303c-0.811,0-1.469,0.657-1.469,1.468c0,0.813,0.658,1.469,1.469,1.469
	c0.496,0,0.933-0.246,1.199-0.623l4.907,1.629c0,0,0,0,0,0.002c0,0.812,0.658,1.467,1.47,1.467c0.812,0,1.47-0.655,1.47-1.467
	C13.18,13.792,12.521,13.134,11.711,13.134z"/>
<g>
	<path fill="#649BE6" d="M22,8.838l-4.354-2.257l-4.353,2.257l4.353,2.257L22,8.838z M17.646,7.458l2.66,1.38l-2.66,1.381
		l-2.66-1.381L17.646,7.458z"/>
	<polygon fill="#649BE6" points="17.646,13.158 15.262,11.922 13.57,11.922 17.646,14.036 21.725,11.922 20.032,11.922 	"/>
	<polygon fill="#649BE6" points="17.646,16.102 15.262,14.861 13.57,14.861 17.646,16.977 21.725,14.861 20.032,14.861 	"/>
</g>
</svg>
