<?xml version="1.0" encoding="utf-8"?>
<!-- Generator: Adobe Illustrator 16.0.0, SVG Export Plug-In . SVG Version: 6.00 Build 0)  -->
<!DOCTYPE svg PUBLIC "-//W3C//DTD SVG 1.1//EN" "http://www.w3.org/Graphics/SVG/1.1/DTD/svg11.dtd">
<svg version="1.1" id="图层_1" xmlns="http://www.w3.org/2000/svg" xmlns:xlink="http://www.w3.org/1999/xlink" x="0px" y="0px"
	 width="22px" height="22px" viewBox="0 0 22 22" enable-background="new 0 0 22 22" xml:space="preserve">
<polyline fill="none" stroke="#649BE6" stroke-miterlimit="10" points="2.605,18.331 0.546,7.16 0.858,5.163 5.539,5.163 
	6.724,6.973 14.773,6.973 "/>
<polyline fill="none" stroke="#649BE6" stroke-miterlimit="10" points="15.458,16.139 14.773,18.02 2.792,18.02 5.351,9.594 
	11.6,9.594 "/>
<g>
	<path fill="#649BE6" d="M19.182,14.096c-0.724,0-1.341,0.424-1.635,1.033l-5.955-1.977c0.018-0.098,0.03-0.197,0.03-0.301
		c0-0.302-0.08-0.58-0.209-0.832l5.608-4.783c0.313,0.254,0.705,0.413,1.14,0.413c1.004,0,1.817-0.814,1.817-1.818
		s-0.813-1.818-1.817-1.818c-1.005,0-1.817,0.814-1.817,1.818c0,0.28,0.067,0.542,0.182,0.778l-5.626,4.796
		c-0.305-0.232-0.682-0.375-1.094-0.375c-1.004,0-1.817,0.813-1.817,1.817s0.813,1.818,1.817,1.818c0.614,0,1.155-0.307,1.483-0.773
		l6.073,2.019c0,0,0,0,0,0.002c0,1.004,0.814,1.815,1.818,1.815s1.818-0.813,1.818-1.815S20.186,14.096,19.182,14.096z"/>
</g>
</svg>
